<svg width="42" height="51" viewBox="0 0 42 51" fill="none" xmlns="http://www.w3.org/2000/svg">
<path d="M40.547 50.4987H1.28181C1.09127 50.4987 0.908523 50.423 0.773786 50.2883C0.639049 50.1535 0.563354 49.9708 0.563354 49.7802V37.731C0.563354 37.5404 0.639049 37.3577 0.773786 37.2229C0.908523 37.0882 1.09127 37.0125 1.28181 37.0125H9.62024V33.1522C9.62024 32.9617 9.69594 32.7789 9.83068 32.6442C9.96541 32.5095 10.1482 32.4338 10.3387 32.4338H19.9711V27.8507C19.9711 27.6602 20.0468 27.4774 20.1815 27.3427C20.3162 27.208 20.499 27.1323 20.6895 27.1323H29.3448V22.3078C29.3448 22.1173 29.4205 21.9345 29.5552 21.7998C29.69 21.6651 29.8727 21.5894 30.0633 21.5894H40.547C40.7376 21.5894 40.9203 21.6651 41.055 21.7998C41.1898 21.9345 41.2655 22.1173 41.2655 22.3078V49.7802C41.2655 49.9708 41.1898 50.1535 41.055 50.2883C40.9203 50.423 40.7376 50.4987 40.547 50.4987ZM2.00027 49.0618H39.8286V23.0263H30.7817V27.8507C30.7817 28.0413 30.706 28.224 30.5713 28.3587C30.4366 28.4935 30.2538 28.5692 30.0633 28.5692H21.408V33.1522C21.408 33.3428 21.3323 33.5255 21.1976 33.6603C21.0628 33.795 20.8801 33.8707 20.6895 33.8707H11.0572V37.731C11.0572 37.9215 10.9815 38.1043 10.8467 38.239C10.712 38.3737 10.5293 38.4494 10.3387 38.4494H2.00027V49.0618Z" fill="#EC595A"/>
<path d="M4.08542 36.7578C3.63404 36.7568 3.19198 36.6293 2.80935 36.3898C2.42672 36.1503 2.11882 35.8085 1.92055 35.4029C1.72228 34.9974 1.64157 34.5445 1.68757 34.0955C1.73356 33.6464 1.90442 33.2192 2.18079 32.8623L6.76887 26.5507L8.17058 15.0252L7.04763 15.5202L5.62149 18.024C5.35216 18.5092 4.90202 18.8684 4.36911 19.0232C3.83621 19.178 3.2637 19.116 2.77631 18.8507C2.28891 18.5853 1.92612 18.1381 1.76694 17.6065C1.60776 17.0749 1.66509 16.5019 1.92645 16.0123L3.87994 12.2555C4.09126 11.8487 4.41233 11.5092 4.80675 11.2755L9.06218 8.7559C9.49621 8.50047 9.98328 8.34854 10.4856 8.3119C10.9878 8.27527 11.4918 8.35492 11.9583 8.54468L15.9939 10.1971C16.583 10.4375 17.0884 10.8457 17.4473 11.3711L18.8519 13.4216L21.6956 12.5946C22.23 12.444 22.8021 12.5067 23.2912 12.7696C23.7803 13.0325 24.1483 13.475 24.3175 14.0039C24.4866 14.5328 24.4439 15.1068 24.1982 15.6047C23.9524 16.1027 23.523 16.4858 23.0003 16.6733L19.1465 18.0154C18.7356 18.1569 18.2946 18.187 17.8683 18.1027C17.442 18.0184 17.0456 17.8227 16.7195 17.5355L16.0513 16.9463L15.8265 19.1628C16.8748 19.7098 17.7353 20.5581 18.2973 21.5985C18.8593 22.6389 19.097 23.8236 18.9798 25.0003L18.4862 31.5382C18.4615 31.8605 18.3731 32.1747 18.2261 32.4625C18.0791 32.7504 17.8764 33.0062 17.6298 33.2151C17.3832 33.4241 17.0976 33.582 16.7895 33.6798C16.4814 33.7776 16.157 33.8132 15.835 33.7847C15.5131 33.7562 15.2 33.664 14.9139 33.5136C14.6278 33.3632 14.3744 33.1575 14.1684 32.9085C13.9624 32.6595 13.8078 32.372 13.7137 32.0628C13.6196 31.7536 13.5878 31.4287 13.6201 31.1072L14.0512 25.2158C14.0685 25.0479 14.0368 24.8786 13.9598 24.7283C13.8829 24.5781 13.7641 24.4534 13.6177 24.3693C13.4714 24.2852 13.3038 24.2454 13.1352 24.2546C12.9667 24.2638 12.8045 24.3217 12.6681 24.4212C12.573 24.4901 12.4929 24.5776 12.4327 24.6783C12.3724 24.7791 12.3332 24.8911 12.3175 25.0074L11.9461 27.8504C11.8757 28.3688 11.6569 28.8559 11.316 29.2528L5.93761 35.905C5.70854 36.1722 5.42444 36.3867 5.10475 36.5339C4.78507 36.6811 4.43736 36.7575 4.08542 36.7578ZM9.03632 13.1385C9.13803 13.1385 9.23859 13.16 9.33134 13.2018C9.42409 13.2435 9.50693 13.3044 9.57437 13.3806C9.64181 13.4567 9.69232 13.5463 9.72255 13.6434C9.75279 13.7405 9.76206 13.8429 9.74975 13.9439L8.16914 26.9078C8.15462 27.0293 8.1091 27.1451 8.03694 27.244L3.32601 33.7231C3.24247 33.8282 3.18118 33.9492 3.14586 34.0788C3.11053 34.2083 3.10192 34.3437 3.12053 34.4767C3.13717 34.6058 3.17959 34.7301 3.24525 34.8424C3.31091 34.9548 3.39848 35.0527 3.50275 35.1305C3.70219 35.2794 3.95059 35.3474 4.19807 35.3207C4.44554 35.2941 4.67377 35.1748 4.83693 34.9868L10.2067 28.344L10.2225 28.3253C10.3847 28.1383 10.4888 27.9081 10.5221 27.6629L10.8943 24.8199C10.9359 24.5119 11.0393 24.2154 11.1983 23.9483C11.3573 23.6812 11.5686 23.449 11.8195 23.2655C12.0704 23.082 12.3558 22.951 12.6585 22.8805C12.9613 22.81 13.2751 22.8013 13.5813 22.8549C14.1503 22.9575 14.6605 23.2686 15.0124 23.7274C15.3642 24.1862 15.5323 24.7597 15.4838 25.3358L15.0527 31.2271C15.0278 31.4893 15.1068 31.7507 15.2725 31.9553C15.4383 32.1599 15.6777 32.2913 15.9393 32.3213C16.0724 32.3368 16.2073 32.3254 16.336 32.2879C16.4647 32.2505 16.5847 32.1876 16.6887 32.1032C16.7928 32.0187 16.879 31.9143 16.9421 31.796C17.0053 31.6778 17.0441 31.5481 17.0565 31.4146L17.5501 24.8767C17.6483 23.9314 17.4438 22.9794 16.9661 22.1579C16.4883 21.3364 15.7619 20.6879 14.8918 20.3058L14.8012 20.2685C14.6543 20.2118 14.53 20.1084 14.4476 19.9741C14.3651 19.8399 14.3291 19.6823 14.345 19.5256L14.7632 15.4052C14.7765 15.2738 14.8259 15.1486 14.9059 15.0434C14.9858 14.9382 15.0932 14.8571 15.2162 14.809C15.3393 14.7608 15.4732 14.7476 15.6033 14.7706C15.7334 14.7937 15.8546 14.8522 15.9536 14.9397L17.67 16.4549C17.8053 16.5738 17.9695 16.6548 18.1462 16.6897C18.3228 16.7247 18.5056 16.7123 18.6759 16.6539L22.5297 15.3118C22.7021 15.2502 22.8438 15.1239 22.9249 14.9597C23.0059 14.7955 23.0199 14.6062 22.9639 14.4318C22.9079 14.2575 22.7864 14.1117 22.6249 14.0254C22.4634 13.939 22.2747 13.9188 22.0986 13.969L18.7506 14.9418C18.6057 14.9834 18.4515 14.9783 18.3097 14.9274C18.1678 14.8765 18.0456 14.7823 17.9603 14.658L16.2619 12.1779C16.061 11.8845 15.7785 11.6564 15.4493 11.522L11.4137 9.86952C11.153 9.76317 10.8713 9.71853 10.5905 9.7391C10.3097 9.75966 10.0374 9.84487 9.79501 9.98806L5.54174 12.512C5.3781 12.6089 5.24493 12.7498 5.15736 12.9187L3.20387 16.6748C3.12584 16.8296 3.1111 17.0087 3.16277 17.1741C3.21444 17.3396 3.32847 17.4785 3.48072 17.5614C3.63298 17.6443 3.81152 17.6647 3.97855 17.6183C4.14558 17.5719 4.28801 17.4623 4.37568 17.3127L5.91893 14.6034C5.99527 14.4695 6.11265 14.3638 6.25373 14.3017L8.74966 13.201C8.83989 13.1607 8.93748 13.1394 9.03632 13.1385Z" fill="#2A4E96"/>
<path d="M15.4898 9.41543C14.3315 9.41474 13.2189 8.96332 12.3876 8.15674C11.5563 7.35015 11.0715 6.25172 11.0358 5.09397C11.0001 3.93623 11.4164 2.81004 12.1965 1.95381C12.9766 1.09759 14.0593 0.578542 15.2153 0.506549C16.394 0.435816 17.5526 0.835532 18.437 1.618C19.3213 2.40047 19.8592 3.50179 19.9325 4.68033C20.0059 5.85887 19.6088 7.01838 18.8283 7.90447C18.0477 8.79055 16.9476 9.33085 15.7692 9.40681C15.6758 9.41256 15.5825 9.41543 15.4898 9.41543ZM15.3044 1.94347C14.7079 1.98058 14.1357 2.19375 13.6604 2.55604C13.185 2.91832 12.8277 3.41344 12.6338 3.97877C12.4398 4.5441 12.4178 5.15426 12.5706 5.73208C12.7235 6.3099 13.0442 6.82943 13.4923 7.22496C13.9404 7.62049 14.4957 7.87426 15.088 7.95417C15.6803 8.03409 16.283 7.93656 16.8199 7.67392C17.3568 7.41128 17.8037 6.99533 18.1042 6.47867C18.4047 5.96201 18.5452 5.36784 18.508 4.77132C18.4863 4.37426 18.3859 3.98548 18.2125 3.6276C18.0391 3.26973 17.7963 2.94991 17.4982 2.68675C17.2001 2.4236 16.8526 2.22236 16.476 2.09475C16.0993 1.96715 15.7011 1.91572 15.3044 1.94347Z" fill="#2A4E96"/>
</svg>
