<svg width="44" height="51" viewBox="0 0 44 51" fill="none" xmlns="http://www.w3.org/2000/svg">
<path d="M29.4219 28.3426C28.9904 28.3426 28.6406 28.6924 28.6406 29.1238V43.186H2.07812V8.81104H10.6719C11.1033 8.81104 11.4531 8.46123 11.4531 8.02979C11.4531 7.59834 11.1033 7.24854 10.6719 7.24854H2.07812V6.46729C2.07812 4.31338 3.83047 2.56104 5.98438 2.56104H24.7344C25.1658 2.56104 25.5156 2.21123 25.5156 1.77979C25.5156 1.34834 25.1658 0.998535 24.7344 0.998535H5.98438C2.96895 0.998535 0.515625 3.45186 0.515625 6.46729V45.5298C0.515625 48.5452 2.96895 50.9985 5.98438 50.9985H24.7344C27.7498 50.9985 30.2031 48.5452 30.2031 45.5298V29.1238C30.2031 28.6924 29.8533 28.3426 29.4219 28.3426ZM24.7344 49.436H5.98438C3.83047 49.436 2.07812 47.6837 2.07812 45.5298V44.7485H28.6406V45.5298C28.6406 47.6837 26.8883 49.436 24.7344 49.436Z" fill="#2A4E96"/>
<path d="M16.9219 46.311H13.7969C13.3654 46.311 13.0156 46.6608 13.0156 47.0923C13.0156 47.5237 13.3654 47.8735 13.7969 47.8735H16.9219C17.3533 47.8735 17.7031 47.5237 17.7031 47.0923C17.7031 46.6608 17.3533 46.311 16.9219 46.311Z" fill="#2A4E96"/>
<path d="M10.1191 4.35205C9.97363 4.49756 9.89062 4.69971 9.89062 4.90479C9.89062 5.10986 9.97363 5.31201 10.1191 5.45752C10.2646 5.60303 10.4658 5.68604 10.6719 5.68604C10.8779 5.68604 11.0791 5.60303 11.2246 5.45752C11.3701 5.31201 11.4531 5.11084 11.4531 4.90479C11.4531 4.69873 11.3701 4.49756 11.2246 4.35205C11.0791 4.20654 10.8779 4.12354 10.6719 4.12354C10.4658 4.12354 10.2646 4.20654 10.1191 4.35205Z" fill="#2A4E96"/>
<path d="M17.7031 14.2798H22.3906C22.8221 14.2798 23.1719 13.93 23.1719 13.4985C23.1719 13.0671 22.8221 12.7173 22.3906 12.7173H17.7031C17.2717 12.7173 16.9219 13.0671 16.9219 13.4985C16.9219 13.93 17.2717 14.2798 17.7031 14.2798Z" fill="#FB7448"/>
<path d="M38.0156 12.7173H25.5156C25.0842 12.7173 24.7344 13.0671 24.7344 13.4985C24.7344 13.93 25.0842 14.2798 25.5156 14.2798H38.0156C38.4471 14.2798 38.7969 13.93 38.7969 13.4985C38.7969 13.0671 38.4471 12.7173 38.0156 12.7173Z" fill="#FB7448"/>
<path d="M38.0156 16.6235H33.3281C32.8967 16.6235 32.5469 16.9733 32.5469 17.4048C32.5469 17.8362 32.8967 18.186 33.3281 18.186H38.0156C38.4471 18.186 38.7969 17.8362 38.7969 17.4048C38.7969 16.9733 38.4471 16.6235 38.0156 16.6235Z" fill="#FB7448"/>
<path d="M17.7031 18.186H30.2031C30.6346 18.186 30.9844 17.8362 30.9844 17.4048C30.9844 16.9733 30.6346 16.6235 30.2031 16.6235H17.7031C17.2717 16.6235 16.9219 16.9733 16.9219 17.4048C16.9219 17.8362 17.2717 18.186 17.7031 18.186Z" fill="#FB7448"/>
<path d="M38.0156 8.81104H17.7031C17.2717 8.81104 16.9219 9.16084 16.9219 9.59229C16.9219 10.0237 17.2717 10.3735 17.7031 10.3735H38.0156C38.4471 10.3735 38.7969 10.0237 38.7969 9.59229C38.7969 9.16084 38.4471 8.81104 38.0156 8.81104Z" fill="#FB7448"/>
<path d="M38.0156 20.5298H17.7031C17.2717 20.5298 16.9219 20.8796 16.9219 21.311C16.9219 21.7425 17.2717 22.0923 17.7031 22.0923H38.0156C38.4471 22.0923 38.7969 21.7425 38.7969 21.311C38.7969 20.8796 38.4471 20.5298 38.0156 20.5298Z" fill="#FB7448"/>
<path d="M38.0156 4.12354H17.7031C14.6877 4.12354 12.2344 6.57686 12.2344 9.59228V21.311C12.2344 24.0613 14.2751 26.3439 16.9219 26.7241V29.5812C16.9219 30.2154 17.3005 30.782 17.8864 31.0247C18.081 31.1053 18.2844 31.1444 18.486 31.1444C18.8918 31.1444 19.2896 30.9856 19.5893 30.686L23.4955 26.7798H38.0156C41.0311 26.7798 43.4844 24.3265 43.4844 21.311V9.59228C43.4844 6.57686 41.0311 4.12354 38.0156 4.12354ZM41.9219 21.311C41.9219 23.4649 40.1695 25.2173 38.0156 25.2173H23.1719C22.9646 25.2173 22.7659 25.2996 22.6194 25.4461L18.4844 29.5806V25.9985C18.4844 25.5671 18.1346 25.2173 17.7031 25.2173C15.5492 25.2173 13.7969 23.4649 13.7969 21.311V9.59228C13.7969 7.43838 15.5492 5.68604 17.7031 5.68604H38.0156C40.1695 5.68604 41.9219 7.43838 41.9219 9.59228V21.311Z" fill="#FB7448"/>
</svg>
