<svg width="50" height="51" viewBox="0 0 50 51" fill="none" xmlns="http://www.w3.org/2000/svg">
<path d="M24.7906 7.68652H6.38538C5.98088 7.68652 5.65295 8.01445 5.65295 8.41894C5.65295 8.82344 5.98088 9.15137 6.38538 9.15137H24.7906C25.1951 9.15137 25.5231 8.82344 25.5231 8.41894C25.5231 8.01445 25.1951 7.68652 24.7906 7.68652Z" fill="#2A4E96"/>
<path d="M25.5231 13.4507C25.5231 13.0462 25.1951 12.7183 24.7906 12.7183H6.38538C5.98088 12.7183 5.65295 13.0462 5.65295 13.4507C5.65295 13.8552 5.98088 14.1831 6.38538 14.1831H24.7906C25.1951 14.1831 25.5231 13.8552 25.5231 13.4507Z" fill="#2A4E96"/>
<path d="M6.38538 17.75C5.98088 17.75 5.65295 18.0779 5.65295 18.4824C5.65295 18.8869 5.98088 19.2148 6.38538 19.2148H15.588C15.9925 19.2148 16.3204 18.8869 16.3204 18.4824C16.3204 18.0779 15.9925 17.75 15.588 17.75H6.38538Z" fill="#2A4E96"/>
<path d="M13.9279 49.0361H3.25286C2.37659 49.0361 1.6637 48.3232 1.6637 47.4469V3.55498C1.6637 2.67871 2.37659 1.96582 3.25286 1.96582C30.5211 1.97363 28.8638 1.94893 29.1079 1.98408V8.10869C29.1079 9.53222 30.266 10.6903 31.6896 10.6903H37.8142C37.825 10.7657 37.8324 10.842 37.8324 10.9196V15.1657C37.8324 15.5702 38.1604 15.8981 38.5649 15.8981C38.9693 15.8981 39.2973 15.5702 39.2973 15.1657V10.9196C39.2973 10.1953 39.0463 9.50976 38.5862 8.96123C38.5854 8.96015 38.5844 8.95908 38.5835 8.958C38.527 8.89082 31.1303 1.4585 30.8394 1.21396C30.8387 1.21338 30.8381 1.21279 30.8374 1.2123C30.2889 0.752051 29.6032 0.500977 28.8787 0.500977H3.25286C1.56887 0.500977 0.198853 1.871 0.198853 3.55498V47.4469C0.198853 49.1309 1.56887 50.501 3.25286 50.501H13.9279C14.3324 50.501 14.6604 50.173 14.6604 49.7685C14.6604 49.364 14.3324 49.0361 13.9279 49.0361ZM30.5728 8.10869V3.00156L36.7966 9.22539H31.6896C31.0738 9.22539 30.5728 8.72441 30.5728 8.10869Z" fill="#2A4E96"/>
<path d="M49.5333 27.8354C49.5253 27.8202 49.5166 27.8053 49.5074 27.7904C48.9431 26.8594 47.92 26.2359 46.7541 26.2359H44.187C43.4142 20.5932 38.563 16.2314 32.7113 16.2314C26.8597 16.2314 22.0084 20.5931 21.2356 26.2359H18.6686C16.9103 26.2359 15.4512 27.6685 15.4512 29.4533V47.2836C15.4512 49.0499 16.889 50.5009 18.6686 50.5009H46.754C48.5306 50.5009 49.9713 49.0531 49.9713 47.2836V29.4533C49.9714 28.8637 49.8112 28.3111 49.5333 27.8354ZM48.5065 47.2836C48.5065 47.546 48.447 47.7941 48.3431 48.0179L36.7423 37.6653L48.501 29.3445C48.5096 29.4831 48.5053 40.3023 48.5065 47.2836ZM46.7541 27.7008C47.145 27.7008 47.5052 27.831 47.7971 28.0482L43.902 30.8045C44.1608 29.8322 44.2952 28.8252 44.2952 27.8153C44.2952 27.777 44.2941 27.7391 44.2937 27.7009H46.7541V27.7008ZM32.7113 17.6963C38.2909 17.6963 42.8303 22.2356 42.8303 27.8152C42.8303 29.3948 42.4764 30.9044 41.7802 32.3059L35.6208 36.6644L35.0963 36.1964C34.5062 35.6698 33.7859 35.3721 33.0485 35.3025C33.2832 35.1805 33.4437 34.9355 33.4437 34.6527V33.863C36.5449 33.2321 37.3857 28.7154 34.0436 27.534C33.8465 27.4643 33.6449 27.3913 33.4437 27.3154V24.0564C33.9358 24.183 34.2284 24.4306 34.2546 24.4535C34.5521 24.7227 35.0116 24.7024 35.2843 24.4068C35.5585 24.1095 35.5398 23.6461 35.2425 23.3719C35.2025 23.3351 34.5358 22.7344 33.4437 22.5624V21.9104C33.4437 21.506 33.1158 21.178 32.7113 21.178C32.3068 21.178 31.9789 21.506 31.9789 21.9104V22.618C31.8816 22.6399 31.7832 22.6646 31.6826 22.695C29.5398 23.3404 28.9809 26.2492 30.5385 27.4709C30.9046 27.7581 31.359 28.0212 31.9789 28.2983V32.4545C31.4361 32.4112 31.0861 32.275 30.4928 31.8869C30.1543 31.6654 29.7003 31.7603 29.4789 32.0988C29.2574 32.4374 29.3523 32.8913 29.6908 33.1127C30.5834 33.6966 31.1961 33.8752 31.9789 33.9225V34.6528C31.9789 34.9356 32.1394 35.1806 32.3741 35.3026C31.6367 35.3722 30.9164 35.6698 30.3264 36.1965L29.8018 36.6645L23.6424 32.3059C22.9462 30.9046 22.5924 29.3949 22.5924 27.8153C22.5925 22.2356 27.1317 17.6963 32.7113 17.6963ZM33.4437 28.8751C33.4811 28.8885 33.5172 28.9016 33.5555 28.9151C35.3274 29.5415 34.9102 31.7742 33.4437 32.3363V28.8751ZM31.9789 26.6657C31.7777 26.5544 31.5958 26.4386 31.4425 26.3183C30.8624 25.8634 31.0615 24.5263 31.9789 24.1436V26.6657ZM17.0795 48.0178C16.9757 47.794 16.9161 47.5459 16.9161 47.2835C16.9174 40.3022 16.9131 29.483 16.9216 29.3444C18.1344 30.2026 27.3056 36.6924 28.6804 37.6652L17.0795 48.0178ZM21.129 27.7008C21.1286 27.739 21.1275 27.7769 21.1275 27.8152C21.1275 28.8252 21.2618 29.8322 21.5206 30.8044L17.6256 28.0481C17.9174 27.831 18.2776 27.7007 18.6686 27.7007H21.129V27.7008ZM18.6687 49.036C18.5095 49.036 18.356 49.0128 18.2093 48.9728C19.0449 48.2271 30.6736 37.8498 31.3018 37.2892C32.1054 36.5721 33.3174 36.5721 34.121 37.2892L47.2135 48.9728C47.0668 49.0128 46.9133 49.036 46.7542 49.036H18.6687Z" fill="#FB7448"/>
</svg>
