<svg width="100" height="101" viewBox="0 0 100 101" fill="none" xmlns="http://www.w3.org/2000/svg">
<g opacity="0.5">
<path d="M97.9626 50.6977L97.9276 69.4151L57.5511 92.8793L57.5861 87.3878L97.9626 50.6977Z" fill="#B0B8BC"/>
<path d="M57.5861 87.3878L57.5512 92.8793L2.00012 60.8069L2.03504 55.3154L57.5861 87.3878Z" fill="#CFD8DD"/>
<path d="M97.9626 50.6977L57.5861 87.3878L2.03503 55.3154L42.4116 18.6253L97.9626 50.6977Z" fill="#DDE4E7"/>
<path d="M98.0001 45.608L97.9652 50.7376L75.8706 70.7845L75.9055 58.4479L98.0001 45.608Z" fill="#B0B8BC"/>
<path d="M75.9055 58.448L75.8706 70.7846L20.3196 38.7122L20.3545 26.3755L75.9055 58.448Z" fill="#CFD8DD"/>
<path d="M98.0001 45.608L75.9055 58.4479L20.3545 26.3755L42.4491 13.5356L98.0001 45.608Z" fill="#DDE4E7"/>
<path d="M26.6644 44.0804L27.1157 45.263L23.7891 48.5927L23.3378 47.4101L26.6644 44.0804Z" fill="#35484F"/>
<path d="M23.3377 47.41L23.7891 48.5926L20.2304 46.538L19.7791 45.3554L23.3377 47.41Z" fill="#3F535C"/>
<path d="M26.6643 44.0804L23.3377 47.41L19.7791 45.3554L23.1057 42.0258L26.6643 44.0804Z" fill="#546F7A"/>
<path d="M32.4545 47.4234L32.9059 48.606L29.5793 51.9356L29.1279 50.753L32.4545 47.4234Z" fill="#35484F"/>
<path d="M29.1279 50.753L29.5793 51.9356L26.0207 49.8811L25.5693 48.6985L29.1279 50.753Z" fill="#3F535C"/>
<path d="M32.4545 47.4234L29.1279 50.753L25.5693 48.6985L28.8959 45.3688L32.4545 47.4234Z" fill="#546F7A"/>
<path d="M38.2449 50.7665L38.6963 51.9491L35.3697 55.2787L34.9183 54.0961L38.2449 50.7665Z" fill="#35484F"/>
<path d="M34.9183 54.0961L35.3697 55.2787L31.8111 53.2242L31.3597 52.0416L34.9183 54.0961Z" fill="#3F535C"/>
<path d="M38.2449 50.7665L34.9183 54.0961L31.3597 52.0416L34.6863 48.7119L38.2449 50.7665Z" fill="#546F7A"/>
<path d="M44.0352 54.1096L44.4866 55.2922L41.16 58.6218L40.7086 57.4392L44.0352 54.1096Z" fill="#35484F"/>
<path d="M40.7086 57.4391L41.16 58.6218L37.6014 56.5672L37.15 55.3846L40.7086 57.4391Z" fill="#3F535C"/>
<path d="M44.0352 54.1096L40.7086 57.4392L37.15 55.3846L40.4766 52.055L44.0352 54.1096Z" fill="#546F7A"/>
<path d="M49.8256 57.4526L50.277 58.6352L46.9504 61.9648L46.499 60.7822L49.8256 57.4526Z" fill="#35484F"/>
<path d="M46.499 60.7822L46.9504 61.9648L43.3918 59.9102L42.9404 58.7276L46.499 60.7822Z" fill="#3F535C"/>
<path d="M49.8256 57.4526L46.499 60.7822L42.9404 58.7276L46.267 55.398L49.8256 57.4526Z" fill="#546F7A"/>
<path d="M55.6159 60.7957L56.0672 61.9783L52.7406 65.3079L52.2893 64.1253L55.6159 60.7957Z" fill="#1E8BBD"/>
<path d="M52.2893 64.1253L52.7406 65.3079L49.1819 63.2533L48.7306 62.0707L52.2893 64.1253Z" fill="#229DD6"/>
<path d="M55.6159 60.7956L52.2893 64.1252L48.7306 62.0706L52.0572 58.741L55.6159 60.7956Z" fill="#28B9FC"/>
<path d="M61.4063 64.1387L61.8577 65.3213L58.5311 68.651L58.0797 67.4683L61.4063 64.1387Z" fill="#1E8BBD"/>
<path d="M58.0797 67.4684L58.531 68.651L54.9723 66.5964L54.521 65.4138L58.0797 67.4684Z" fill="#229DD6"/>
<path d="M61.4063 64.1387L58.0797 67.4683L54.521 65.4137L57.8476 62.0841L61.4063 64.1387Z" fill="#28B9FC"/>
<path d="M67.1966 67.4818L67.648 68.6644L64.3214 71.994L63.87 70.8114L67.1966 67.4818Z" fill="#CA4743"/>
<path d="M63.87 70.8114L64.3213 71.994L60.7626 69.9394L60.3113 68.7568L63.87 70.8114Z" fill="#EE534F"/>
<path d="M67.1966 67.4817L63.87 70.8114L60.3113 68.7568L63.6379 65.4271L67.1966 67.4817Z" fill="#F17572"/>
<path d="M21.2969 49.4526L21.7483 50.6352L18.4223 53.9643L17.9709 52.7817L21.2969 49.4526Z" fill="#BF9F39"/>
<path d="M17.9709 52.7817L18.4223 53.9643L14.8636 51.9097L14.4122 50.7271L17.9709 52.7817Z" fill="#D8B441"/>
<path d="M21.2969 49.4526L17.9709 52.7816L14.4122 50.727L17.7382 47.398L21.2969 49.4526Z" fill="#FED44C"/>
<path d="M27.0872 52.7957L27.5386 53.9783L24.2126 57.3073L23.7612 56.1247L27.0872 52.7957Z" fill="#35484F"/>
<path d="M23.7612 56.1247L24.2126 57.3073L20.654 55.2527L20.2026 54.0701L23.7612 56.1247Z" fill="#3F535C"/>
<path d="M27.0872 52.7956L23.7612 56.1247L20.2026 54.0701L23.5286 50.7411L27.0872 52.7956Z" fill="#546F7A"/>
<path d="M32.8775 56.1387L33.3289 57.3213L30.0029 60.6503L29.5515 59.4677L32.8775 56.1387Z" fill="#35484F"/>
<path d="M29.5515 59.4677L30.0029 60.6503L26.4443 58.5957L25.9929 57.4131L29.5515 59.4677Z" fill="#3F535C"/>
<path d="M32.8775 56.1387L29.5515 59.4677L25.9929 57.4131L29.3189 54.0841L32.8775 56.1387Z" fill="#546F7A"/>
<path d="M38.6679 59.4818L39.1193 60.6644L35.7933 63.9934L35.3419 62.8108L38.6679 59.4818Z" fill="#35484F"/>
<path d="M35.3419 62.8108L35.7933 63.9934L32.2347 61.9388L31.7833 60.7562L35.3419 62.8108Z" fill="#3F535C"/>
<path d="M38.6679 59.4817L35.3419 62.8108L31.7833 60.7562L35.1093 57.4272L38.6679 59.4817Z" fill="#546F7A"/>
<path d="M44.4582 62.8248L44.9095 64.0074L41.5835 67.3364L41.1322 66.1538L44.4582 62.8248Z" fill="#35484F"/>
<path d="M41.1322 66.1539L41.5835 67.3365L38.0249 65.2819L37.5736 64.0993L41.1322 66.1539Z" fill="#3F535C"/>
<path d="M44.4582 62.8248L41.1322 66.1538L37.5736 64.0993L40.8996 60.7703L44.4582 62.8248Z" fill="#546F7A"/>
<path d="M50.2486 66.1679L50.6999 67.3505L47.374 70.6795L46.9226 69.4969L50.2486 66.1679Z" fill="#35484F"/>
<path d="M46.9226 69.4969L47.3739 70.6795L43.8152 68.6249L43.3639 67.4423L46.9226 69.4969Z" fill="#3F535C"/>
<path d="M50.2486 66.1679L46.9226 69.4969L43.3639 67.4423L46.6899 64.1133L50.2486 66.1679Z" fill="#546F7A"/>
<path d="M56.039 69.5109L56.4904 70.6935L53.1644 74.0225L52.713 72.8399L56.039 69.5109Z" fill="#35484F"/>
<path d="M52.713 72.8399L53.1643 74.0226L49.6057 71.9679L49.1543 70.7853L52.713 72.8399Z" fill="#3F535C"/>
<path d="M56.039 69.5109L52.713 72.8399L49.1543 70.7853L52.4803 67.4563L56.039 69.5109Z" fill="#546F7A"/>
<path d="M61.8293 72.854L62.2806 74.0366L58.9546 77.3656L58.5033 76.183L61.8293 72.854Z" fill="#CA4743"/>
<path d="M58.5033 76.183L58.9546 77.3656L55.3959 75.311L54.9446 74.1284L58.5033 76.183Z" fill="#EE534F"/>
<path d="M61.8292 72.854L58.5033 76.183L54.9446 74.1284L58.2706 70.7994L61.8292 72.854Z" fill="#F17572"/>
<path d="M15.9302 54.8242L16.3816 56.0068L13.055 59.3365L12.6036 58.1538L15.9302 54.8242Z" fill="#BF9F39"/>
<path d="M12.6036 58.1538L13.0549 59.3365L9.49626 57.2818L9.04492 56.0992L12.6036 58.1538Z" fill="#D8B441"/>
<path d="M15.9302 54.8243L12.6036 58.1539L9.04492 56.0993L12.3715 52.7697L15.9302 54.8243Z" fill="#FED44C"/>
<path d="M21.7204 58.1672L22.1717 59.3498L18.8451 62.6795L18.3938 61.4969L21.7204 58.1672Z" fill="#35484F"/>
<path d="M18.3938 61.4969L18.8451 62.6795L15.2865 60.6249L14.8352 59.4423L18.3938 61.4969Z" fill="#3F535C"/>
<path d="M21.7204 58.1672L18.3938 61.4968L14.8352 59.4423L18.1618 56.1127L21.7204 58.1672Z" fill="#546F7A"/>
<path d="M27.5108 61.5103L27.9622 62.6929L24.6355 66.0225L24.1842 64.8399L27.5108 61.5103Z" fill="#35484F"/>
<path d="M24.1842 64.84L24.6356 66.0226L21.077 63.968L20.6256 62.7854L24.1842 64.84Z" fill="#3F535C"/>
<path d="M27.5108 61.5103L24.1842 64.84L20.6256 62.7854L23.9522 59.4557L27.5108 61.5103Z" fill="#546F7A"/>
<path d="M33.3011 64.8533L33.7524 66.0359L30.4258 69.3656L29.9745 68.183L33.3011 64.8533Z" fill="#35484F"/>
<path d="M29.9745 68.183L30.4259 69.3656L26.8673 67.311L26.4159 66.1284L29.9745 68.183Z" fill="#3F535C"/>
<path d="M33.3011 64.8533L29.9745 68.183L26.4159 66.1284L29.7425 62.7988L33.3011 64.8533Z" fill="#546F7A"/>
<path d="M39.0915 68.1964L39.5428 69.379L36.2162 72.7086L35.7649 71.526L39.0915 68.1964Z" fill="#35484F"/>
<path d="M35.7649 71.526L36.2162 72.7086L32.6576 70.6541L32.2063 69.4714L35.7649 71.526Z" fill="#3F535C"/>
<path d="M39.0915 68.1964L35.7649 71.526L32.2063 69.4715L35.5329 66.1418L39.0915 68.1964Z" fill="#546F7A"/>
<path d="M44.8819 71.5395L45.3332 72.7221L42.0066 76.0517L41.5553 74.8691L44.8819 71.5395Z" fill="#35484F"/>
<path d="M41.5553 74.8691L42.0066 76.0517L38.4479 73.9971L37.9966 72.8145L41.5553 74.8691Z" fill="#3F535C"/>
<path d="M44.8819 71.5395L41.5553 74.8691L37.9966 72.8145L41.3232 69.4849L44.8819 71.5395Z" fill="#546F7A"/>
<path d="M50.6722 74.8825L51.1235 76.0651L47.7969 79.3948L47.3456 78.2121L50.6722 74.8825Z" fill="#35484F"/>
<path d="M47.3455 78.2122L47.7969 79.3948L44.2382 77.3402L43.7869 76.1576L47.3455 78.2122Z" fill="#3F535C"/>
<path d="M50.6721 74.8825L47.3455 78.2122L43.7869 76.1576L47.1135 72.8279L50.6721 74.8825Z" fill="#546F7A"/>
<path d="M56.4626 78.2256L56.9139 79.4082L53.5873 82.7378L53.136 81.5552L56.4626 78.2256Z" fill="#CA4743"/>
<path d="M53.136 81.5552L53.5873 82.7378L50.0286 80.6832L49.5773 79.5006L53.136 81.5552Z" fill="#EE534F"/>
<path d="M56.4626 78.2256L53.136 81.5552L49.5773 79.5006L52.9039 76.171L56.4626 78.2256Z" fill="#F17572"/>
<path d="M86.0491 35.3556L86.0357 47.5275L84.8705 48.2047L84.8839 36.0327L86.0491 35.3556Z" fill="#3F535C"/>
<path d="M84.8839 36.0327L84.8705 48.2047L80.9825 45.96L80.9959 33.788L84.8839 36.0327Z" fill="#475E68"/>
<path d="M86.0491 35.3556L84.8839 36.0328L80.996 33.788L82.1612 33.1109L86.0491 35.3556Z" fill="#1A78A3"/>
<path d="M97.7779 22.7884L97.6989 42.131L95.8021 43.2332L95.8812 23.8907L97.7779 22.7884Z" fill="#3F535C"/>
<path d="M95.8812 23.8907L95.8022 43.2333L72.8229 29.9662L72.9019 10.6236L95.8812 23.8907Z" fill="#475E68"/>
<path d="M94.3907 24.743L94.3162 40.6618L83.4803 34.4014L77.3096 30.8389L76.0128 30.0937L74.3137 29.1104L74.3286 27.1127L74.3882 13.2062L82.586 17.9317L85.4626 19.6005L86.7594 20.3457L92.9301 23.9082L94.3907 24.743Z" fill="#28B9FC"/>
<path d="M97.778 22.7884L95.8813 23.8907L72.902 10.6236L74.7987 9.5213L97.778 22.7884Z" fill="#546F7A"/>
<path d="M85.4626 19.6004L76.0128 30.0936L74.3137 29.1104L74.3286 27.1126L82.586 17.9316L85.4626 19.6004Z" fill="#53C7FD"/>
<path d="M92.9301 23.9082L83.4803 34.4014L77.3096 30.8389L86.7594 20.3457L92.9301 23.9082Z" fill="#53C7FD"/>
<path d="M24.9103 26.4707L36.1643 33.0109L53.6756 22.9007L42.4216 16.3606L24.9103 26.4707Z" fill="#CFD8DD"/>
<path d="M42.4171 16.3636L24.9025 26.4712L27.6231 28.0589L42.4171 16.3636L50.9573 21.3141L53.678 22.9009L42.4171 16.3636Z" fill="#B0B8BC"/>
<path d="M27.623 28.0589L36.1632 33.0085L53.6755 22.9007L42.4171 16.3636L27.623 28.0589Z" fill="#CFD8DD"/>
<path d="M52.5889 39.1115L52.583 41.172L50.7444 42.2405L50.7502 40.18L52.5889 39.1115Z" fill="#B33E3B"/>
<path d="M50.7502 40.1799L50.7443 42.2404L39.7271 35.8796L39.7329 33.8191L50.7502 40.1799Z" fill="#CA4743"/>
<path d="M52.5889 39.1114L50.7502 40.1799L39.7329 33.8191L41.5716 32.7506L52.5889 39.1114Z" fill="#EE534F"/>
<path d="M68.1165 13.2032L59.737 8.33C59.1678 8.00492 58.3953 8.04562 57.5313 8.54342L56.9418 8.88884C55.2342 9.875 53.8518 12.2737 53.862 14.2356L53.8823 23.6679C53.8925 25.5181 52.5812 27.7743 50.9753 28.6994C50.1723 29.167 49.4303 29.2077 48.9017 28.9024L57.5008 33.9037C58.0294 34.2084 58.7612 34.1677 59.5743 33.7002C61.1803 32.7751 62.4813 30.5085 62.4813 28.6692L62.4509 19.2264C62.4509 17.2645 63.8332 14.8659 65.5408 13.8797L66.1304 13.5442C66.8833 13.105 67.5718 13.032 68.1165 13.2464V13.2032Z" fill="#FED44C"/>
<path d="M57.3789 34.1171L48.7798 29.1262C48.2208 28.8012 47.8752 28.1202 47.8752 27.1445L47.8651 24.3185C47.8651 23.4038 47.5398 22.7531 47.0112 22.4484L55.6103 27.4492C56.1388 27.7539 56.4641 28.3942 56.4641 29.3094L56.4743 32.1348C56.4743 33.1106 56.8199 33.802 57.3789 34.1171Z" fill="#F2BC36"/>
<path d="M68.1165 13.2459C67.576 13.0345 66.8885 13.1035 66.1299 13.5417L65.5394 13.8827C63.8326 14.8678 62.4484 17.2655 62.4539 19.2264L62.4807 28.6672C62.4859 30.5095 61.1792 32.7726 59.5763 33.6977C57.9669 34.6268 56.6518 33.8779 56.6466 32.0356L56.6385 29.2091C56.633 27.2482 55.2397 26.4541 53.5329 27.4398L53.4485 27.4884C51.7417 28.4736 50.3575 30.8718 50.3631 32.8327L50.3809 39.1115L50.5626 39.0067L50.5448 32.7275C50.5395 30.8862 51.8462 28.6225 53.4491 27.6969L53.5335 27.6483C55.1429 26.7192 56.4581 27.4691 56.4633 29.3104L56.4713 32.1369C56.4769 34.0983 57.8701 34.8919 59.5769 33.9067C61.2837 32.9215 62.6679 30.5239 62.6624 28.5625L62.6356 19.1217C62.6304 17.2799 63.9305 15.0207 65.5399 14.0911L66.1305 13.7502C66.8992 13.3065 67.5942 13.2564 68.1164 13.5154V13.2459H68.1165Z" fill="#F9C73A"/>
<path d="M55.7323 27.2254C55.1732 26.9003 54.3905 26.941 53.5367 27.4388L53.4453 27.4899C51.7377 28.4756 50.3553 30.8747 50.3654 32.8361L50.3858 39.1075L41.7867 34.1171L41.7664 27.8354C41.7562 25.874 43.1488 23.4748 44.8564 22.4891L44.9377 22.4484C45.7914 21.9501 46.5741 21.8995 47.1331 22.235L55.7323 27.2254Z" fill="#FED44C"/>
</g>
</svg>
