<svg width="62" height="57" viewBox="0 0 62 57" fill="none" xmlns="http://www.w3.org/2000/svg">
<path d="M49.0484 46.1669L48.7603 28.8317C48.736 27.4116 47.927 26.146 46.6483 25.5288L43.3219 23.9234L45.7328 18.9281C45.9147 18.5512 45.7564 18.0979 45.3796 17.916L42.0891 16.3279C41.7122 16.146 41.2589 16.3042 41.077 16.6811L38.6661 21.6764L31.6934 18.3112L33.0559 15.4879C33.4523 14.6666 33.1067 13.6761 32.2854 13.2797L27.3811 10.9128C26.5598 10.5164 25.5693 10.862 25.1729 11.6834L23.8103 14.5066L22.6969 13.9692C21.4182 13.3521 19.9239 13.5061 18.7971 14.3706L5.04612 24.9302C4.95006 25.0043 4.87159 25.1055 4.82498 25.2021L1.74951 31.5744C0.853933 33.4301 1.6348 35.668 3.49053 36.5636L40.9084 54.6226C42.7641 55.5181 45.002 54.7373 45.8976 52.8815L48.9731 46.5092C49.0191 46.4139 49.0502 46.2899 49.0484 46.1669ZM42.1129 18.0227L44.0379 18.9518L41.9565 23.2644L40.0315 22.3354L42.1129 18.0227ZM26.5382 12.3423C26.5712 12.2739 26.6536 12.2451 26.7221 12.2781L31.6263 14.645C31.6947 14.6781 31.7235 14.7605 31.6904 14.8289L28.4305 21.5835L23.2783 19.0969L26.5382 12.3423ZM19.7201 15.5734C20.3897 15.0592 21.2778 14.9678 22.0378 15.3346L23.1512 15.872L21.9129 18.4379L21.0088 18.0016C20.6319 17.8196 20.1786 17.9779 19.9967 18.3548C19.8148 18.7317 19.973 19.185 20.3499 19.3669L30.0411 24.0441C30.418 24.2261 30.8713 24.0678 31.0532 23.6909C31.2351 23.314 31.0769 22.8607 30.7 22.6788L29.796 22.2425L31.0344 19.6766L45.9894 26.8943C46.7495 27.2611 47.2303 28.0132 47.2444 28.8574L47.512 44.9622L6.94531 25.3836L19.7201 15.5734ZM44.5322 52.2226C44 53.3253 42.6702 53.7894 41.5674 53.2571L4.14951 35.1982C3.04681 34.666 2.58268 33.3362 3.11492 32.2334L5.86088 26.5438L47.2782 46.533L44.5322 52.2226Z" fill="#3F3F3F"/>
<path d="M48.8323 21.854L50.9793 17.4056C51.1821 16.9853 51.0058 16.4801 50.5855 16.2773L40.1335 11.2328C39.7132 11.03 39.208 11.2062 39.0051 11.6265L36.8582 16.075C36.6553 16.4953 36.8316 17.0004 37.252 17.2033L47.704 22.2478C48.1243 22.4507 48.6295 22.2743 48.8323 21.854Z" fill="#7CC558"/>
<path d="M43.7846 40.6942L12.6056 25.6464C11.9394 25.3249 11.8462 24.4139 12.4334 23.9641L15.3027 21.766C15.6001 21.5382 16.0005 21.4972 16.338 21.66L44.5833 35.292C44.9208 35.4549 45.1378 35.7939 45.1445 36.1685L45.2088 39.7824C45.222 40.522 44.4508 41.0158 43.7846 40.6942Z" fill="#7CC558"/>
<path d="M44.5995 28.8067L43.4861 31.1137C43.2487 31.6054 42.6522 31.8137 42.1603 31.5763L33.3977 27.3472C32.9059 27.1099 32.6978 26.5132 32.9351 26.0215L34.0485 23.7145C34.2859 23.2227 34.8824 23.0145 35.3742 23.2519L44.1369 27.4809C44.6288 27.7184 44.8368 28.3149 44.5995 28.8067Z" fill="#7CC558"/>
<path d="M31.6606 43.7393C31.3936 44.2927 30.7285 44.5248 30.1752 44.2577L18.2829 38.5181C17.7295 38.2511 17.4974 37.5861 17.7645 37.0327C18.0316 36.4793 18.6966 36.2472 19.25 36.5143L31.1422 42.2538C31.6956 42.5209 31.9277 43.186 31.6606 43.7393Z" fill="#7CC558"/>
</svg>
