<svg width="60" height="60" viewBox="0 0 60 60" fill="none" xmlns="http://www.w3.org/2000/svg">
<g opacity="0.5" clip-path="url(#clip0_4586_10530)">
<path d="M22.2451 30.9871L34.5047 36.044L32.0304 42.0423L19.7709 36.9853L22.2451 30.9871Z" fill="#5D656E"/>
<path d="M31.9937 35.0083L34.5047 36.0441L32.0305 42.0423L29.5194 41.0065L31.9937 35.0083Z" fill="#474D54"/>
<path d="M41.1337 59.014L1.44374 42.6422C0.916337 42.4247 0.665149 41.8207 0.8827 41.2933L5.08961 31.0946C5.30716 30.5672 5.91107 30.316 6.43848 30.5336L46.1283 46.9053C46.6557 47.1229 46.9069 47.7268 46.6894 48.2542L42.4825 58.4529C42.265 58.9804 41.6611 59.2316 41.1337 59.014Z" fill="#7F8A96"/>
<path d="M43.8364 40.8456L12.2421 27.8131C11.8209 27.6394 11.6204 27.1572 11.7941 26.7361L21.2421 3.83137C21.4158 3.41027 21.8981 3.20968 22.3192 3.38338L53.9136 16.4159C54.3347 16.5896 54.5353 17.0718 54.3616 17.4929L44.9136 40.3976C44.7398 40.8187 44.2576 41.0193 43.8364 40.8456Z" fill="#7F8A96"/>
<path d="M15.9129 24.9163L22.8803 8.02536C23.0833 7.53336 23.6466 7.29904 24.1386 7.50199L49.7194 18.0539C50.2114 18.2568 50.4457 18.8202 50.2427 19.3122L43.2753 36.2031C43.0724 36.6951 42.509 36.9294 42.017 36.7265L16.4363 26.1746C15.9443 25.9717 15.71 25.4083 15.9129 24.9163Z" fill="#F2F5FB"/>
<path d="M49.7193 18.0539L47.2083 17.0181C47.7003 17.221 47.9346 17.7844 47.7316 18.2764L40.7642 35.1673C40.5613 35.6593 39.9979 35.8936 39.5059 35.6907L42.017 36.7265C42.509 36.9294 43.0723 36.6951 43.2753 36.2031L50.2427 19.3122C50.4456 18.8202 50.2113 18.2568 49.7193 18.0539Z" fill="#E6E8F0"/>
<path d="M46.0812 46.886L43.6173 45.8696C44.1447 46.0872 44.3959 46.6911 44.1784 47.2185L39.9714 57.4172C39.7539 57.9446 39.15 58.1958 38.6226 57.9783L41.0865 58.9946C41.6139 59.2122 42.2178 58.961 42.4354 58.4336L46.6423 48.2349C46.8598 47.7074 46.6086 47.1035 46.0812 46.886Z" fill="#747E8A"/>
<path d="M53.9135 16.4157L51.4025 15.3799C51.8236 15.5536 52.0242 16.0358 51.8505 16.4569L42.4024 39.3616C42.2287 39.7827 41.7465 39.9833 41.3254 39.8096L43.8364 40.8454C44.2575 41.0191 44.7398 40.8185 44.9135 40.3974L54.3615 17.4927C54.5352 17.0716 54.3347 16.5894 53.9135 16.4157Z" fill="#747E8A"/>
<path d="M37.9258 52.7514C38.9382 53.169 40.0974 52.6868 40.515 51.6744C40.9326 50.6621 40.4504 49.5028 39.4381 49.0852C38.4257 48.6676 37.2665 49.1498 36.8489 50.1622C36.4313 51.1745 36.9134 52.3338 37.9258 52.7514Z" fill="#E7E7E7"/>
<path d="M40.3456 32.5262L35.6806 30.602C35.3117 30.4498 35.136 30.0274 35.2882 29.6585L36.392 26.9826C36.5441 26.6138 36.9665 26.4381 37.3354 26.5902L42.0004 28.5145C42.3693 28.6667 42.545 29.0891 42.3928 29.4579L41.289 32.1338C41.1369 32.5027 40.7145 32.6784 40.3456 32.5262Z" fill="#FFA05B"/>
<path d="M31.613 29.0222L20.3737 24.386C19.9195 24.1987 19.7032 23.6786 19.8905 23.2245L24.5266 11.9852C24.714 11.531 25.234 11.3147 25.6882 11.5021L36.9275 16.1382C37.3816 16.3255 37.5979 16.8456 37.4106 17.2998L32.7745 28.539C32.5872 28.9932 32.0672 29.2095 31.613 29.0222Z" fill="#90D7A7"/>
<path d="M32.0541 48.919L9.47547 39.6055C9.12877 39.4625 8.96364 39.0655 9.10665 38.7188C9.24966 38.3721 9.64667 38.207 9.99336 38.35L32.5719 47.6635C32.9186 47.8065 33.0837 48.2035 32.9407 48.5502C32.7977 48.8969 32.4007 49.0621 32.0541 48.919Z" fill="#5D656E"/>
<path d="M42.616 25.7567L38.7788 24.1739C38.4321 24.0309 38.267 23.6339 38.41 23.2872C38.553 22.9405 38.95 22.7754 39.2967 22.9184L43.1339 24.5012C43.4806 24.6442 43.6457 25.0412 43.5027 25.3879C43.3597 25.7346 42.9627 25.8997 42.616 25.7567Z" fill="#C9C9C9"/>
<path d="M43.7203 23.0792L39.8832 21.4964C39.5365 21.3534 39.3714 20.9564 39.5144 20.6097C39.6574 20.263 40.0544 20.0979 40.4011 20.2409L44.2382 21.8237C44.5849 21.9667 44.7501 22.3637 44.607 22.7104C44.464 23.0571 44.067 23.2222 43.7203 23.0792Z" fill="#C9C9C9"/>
<path d="M34.0155 25.5306L30.3997 24.0391L31.2179 22.0556L34.8337 23.5471L35.3516 22.2915L31.7358 20.8001L32.554 18.8166L36.1697 20.3081L36.6876 19.0525L33.0719 17.5611L34.1341 14.9859L32.8786 14.468L31.8163 17.0432L28.6751 15.7474L29.7373 13.1722L28.4818 12.6543L27.4196 15.2295L23.8037 13.738L23.2858 14.9935L26.9017 16.4851L26.0835 18.4685L22.4677 16.977L21.9498 18.2326L25.5656 19.7241L24.7474 21.7075L21.1316 20.216L20.6137 21.4716L24.2295 22.9631L23.1673 25.5383L24.4228 26.0562L25.4851 23.481L28.6263 24.7767L27.564 27.352L28.8196 27.8699L29.8818 25.2946L33.4976 26.7861L34.0155 25.5306ZM29.1442 23.5212L26.003 22.2254L26.8211 20.242L29.9624 21.5377L29.1442 23.5212ZM30.4803 20.2822L27.339 18.9864L28.1572 17.0029L31.2984 18.2987L30.4803 20.2822Z" fill="#72C888"/>
</g>
<defs>
<clipPath id="clip0_4586_10530">
<rect width="45" height="45" fill="white" transform="translate(17.506 0.993896) rotate(22.4158)"/>
</clipPath>
</defs>
</svg>
