<svg width="111" height="111" viewBox="0 0 111 111" fill="none" xmlns="http://www.w3.org/2000/svg">
<path d="M21.1672 30.1203C23.336 30.1203 25.1466 28.6269 25.6681 26.6203H46.509C46.1042 27.3145 45.3599 27.787 44.5001 27.787H43.3334C42.6883 27.787 42.1668 28.3096 42.1668 28.9536V32.6845L32.5805 34.8148C32.2468 34.8883 31.9622 35.1065 31.8012 35.4086C31.6413 35.7108 31.6238 36.069 31.7498 36.3863L32.2725 37.6918L23.1377 40.676C22.6792 40.8254 22.3607 41.2407 22.335 41.7213L20.0017 84.8871C19.9842 85.2068 20.0997 85.5194 20.3202 85.7528C20.5407 85.9873 20.8476 86.1191 21.1672 86.1191H25.8338V89.619C25.8338 90.263 26.3553 90.7857 27.0004 90.7857H59.6664C60.3116 90.7857 60.8331 90.263 60.8331 89.619V86.1191H65.4996C65.8193 86.1191 66.1261 85.9873 66.3466 85.7551C66.5671 85.5218 66.6826 85.2091 66.6651 84.8895L64.5045 44.9238L66.4119 39.9049L74.8771 42.6488L77.1007 83.7858H70.214L71.3317 55.8331L69.0007 55.7397L67.8341 84.9058C67.8213 85.2231 67.9391 85.5323 68.1584 85.7609C68.3777 85.9896 68.6822 86.1191 68.9996 86.1191H78.3327C78.6524 86.1191 78.9592 85.9873 79.1797 85.7551C79.4002 85.5218 79.5157 85.2091 79.4982 84.8895L77.2944 44.12H82.9993V67.4528H79.4993V69.7861H84.1659C84.8111 69.7861 85.3326 69.2634 85.3326 68.6195V44.12H88.8325C89.2373 44.12 89.6118 43.91 89.8253 43.567C90.0388 43.2228 90.0575 42.7935 89.8766 42.4318L86.3767 35.432C86.2192 35.1181 85.9287 34.8918 85.5857 34.8148L75.9994 32.6845V30.1203C78.1682 30.1203 79.9788 28.6269 80.5003 26.6203H84.3316C84.8531 28.6269 86.6637 30.1203 88.8325 30.1203C89.4776 30.1203 89.9991 29.5976 89.9991 28.9536V21.9538C89.9991 21.3098 89.4776 20.7871 88.8325 20.7871C86.6637 20.7871 84.8531 22.2804 84.3316 24.287H80.5003C79.9788 22.2804 78.1682 20.7871 75.9994 20.7871H72.4995V23.1204H75.9994C76.8592 23.1204 77.6035 23.5929 78.0084 24.287H61.834C61.3126 22.2804 59.5019 20.7871 57.3331 20.7871H53.8332V23.1204H57.3331C58.193 23.1204 58.9373 23.5929 59.3421 24.287H49.001C48.4795 22.2804 46.6689 20.7871 44.5001 20.7871H41.0001V23.1204H44.5001C45.3599 23.1204 46.1042 23.5929 46.509 24.287H25.6681C25.1466 22.2804 23.336 20.7871 21.1672 20.7871C20.5221 20.7871 20.0006 21.3098 20.0006 21.9538V28.9536C20.0006 29.5976 20.5221 30.1203 21.1672 30.1203ZM87.6658 23.4342V27.4743C86.9682 27.0695 86.4992 26.3158 86.4992 25.4537C86.4992 24.5915 86.9682 23.8379 87.6658 23.4342ZM49.001 26.6203H59.3421C58.9373 27.3145 58.193 27.787 57.3331 27.787H56.1665C55.5213 27.787 54.9998 28.3096 54.9998 28.9536V33.6202C54.9998 34.1673 55.379 34.641 55.9133 34.7588L59.0726 35.4611L57.5058 38.7254L54.3862 37.7139L54.917 36.3863C55.043 36.069 55.0255 35.7108 54.8657 35.4086C54.7047 35.1053 54.42 34.8883 54.0864 34.8148L44.5001 32.6845V30.1203C46.6689 30.1203 48.4795 28.6269 49.001 26.6203ZM43.3334 34.8148L52.2407 36.7946L48.6673 45.7264L45.3727 43.091L49.7675 40.4544C50.0754 40.27 50.2808 39.9527 50.3251 39.5969C50.3694 39.2399 50.2469 38.8841 49.9926 38.6297L47.6593 36.2965L46.0097 37.9461L47.2872 39.2224L43.3334 41.593L39.3808 39.2212L40.6583 37.9449L39.0087 36.2953L36.6754 38.6286C36.4211 38.8829 36.2986 39.2387 36.3429 39.5957C36.3861 39.9527 36.5926 40.2689 36.9006 40.4532L41.2953 43.0898L38.0007 45.7253L34.4273 36.7934L43.3334 34.8148ZM28.1671 86.1191H30.5004C30.8177 86.1191 31.121 85.9896 31.3415 85.7609C31.562 85.5323 31.6787 85.2231 31.6658 84.9058L30.4992 55.7397L28.1682 55.8331L29.2859 83.7858H22.3992L24.6228 42.6477L33.1416 39.864L36.4176 48.0527C36.5552 48.3957 36.8457 48.6535 37.2039 48.7469C37.562 48.8437 37.9412 48.7609 38.2305 48.5299L42.1679 45.3799V88.4524H28.1671V86.1191ZM57.381 83.7858L58.4986 55.8331L56.1677 55.7397L55.001 84.9058C54.9882 85.2231 55.106 85.5323 55.3253 85.7609C55.5447 85.9896 55.8492 86.1191 56.1665 86.1191H58.4998V88.4524H44.5001V45.3811L48.4375 48.531C48.6475 48.6979 48.9041 48.7865 49.1666 48.7865C49.2658 48.7865 49.3661 48.7737 49.4641 48.748C49.8223 48.6535 50.1128 48.3969 50.2504 48.0539L53.5182 39.8862L62.0452 42.6512L64.2677 83.7858H57.381ZM63.6073 40.718C63.5793 40.7064 63.556 40.6865 63.5257 40.6772L59.7446 39.4511L61.4105 35.9803L65.096 36.7993L63.6073 40.718ZM75.9994 27.787H74.8328C74.1876 27.787 73.6661 28.3096 73.6661 28.9536V32.6845L69.3297 33.6482L69.836 35.9255L74.8328 34.8148L84.5369 36.9719L86.9449 41.7867H77.1684L77.1649 41.7237C77.1392 41.2419 76.8184 40.8254 76.3599 40.6772L67.2426 37.7221L67.7571 36.3688C67.8784 36.0526 67.8539 35.6991 67.6929 35.4005C67.5319 35.103 67.2496 34.8895 66.9194 34.816L57.3331 32.6845V30.1203C59.5019 30.1203 61.3126 28.6269 61.834 26.6203H78.0084C77.6035 27.3145 76.8592 27.787 75.9994 27.787ZM22.3339 23.4342C23.0315 23.8379 23.5005 24.5915 23.5005 25.4537C23.5005 26.3158 23.0315 27.0695 22.3339 27.4731V23.4342Z" fill="url(#paint0_linear_4787_10875)"/>
<path d="M60.8331 79.1191H63.1664V81.4524H60.8331V79.1191Z" fill="url(#paint1_linear_4787_10875)"/>
<path d="M23.5005 79.1191H25.8338V81.4524H23.5005V79.1191Z" fill="url(#paint2_linear_4787_10875)"/>
<path d="M37.5002 53.4531H39.8335V55.7864H37.5002V53.4531Z" fill="url(#paint3_linear_4787_10875)"/>
<path d="M37.5002 65.1196H39.8335V67.4529H37.5002V65.1196Z" fill="url(#paint4_linear_4787_10875)"/>
<path d="M37.5002 76.7859H39.8335V79.1192H37.5002V76.7859Z" fill="url(#paint5_linear_4787_10875)"/>
<rect x="1" y="1" width="109" height="109" rx="54.5" stroke="#EDEDED"/>
<defs>
<linearGradient id="paint0_linear_4787_10875" x1="55" y1="20.7871" x2="55" y2="90.7857" gradientUnits="userSpaceOnUse">
<stop stop-color="#155263"/>
<stop offset="1" stop-color="#D37217"/>
</linearGradient>
<linearGradient id="paint1_linear_4787_10875" x1="61.9997" y1="79.1191" x2="61.9997" y2="81.4524" gradientUnits="userSpaceOnUse">
<stop stop-color="#155263"/>
<stop offset="1" stop-color="#D37217"/>
</linearGradient>
<linearGradient id="paint2_linear_4787_10875" x1="24.6671" y1="79.1191" x2="24.6671" y2="81.4524" gradientUnits="userSpaceOnUse">
<stop stop-color="#155263"/>
<stop offset="1" stop-color="#D37217"/>
</linearGradient>
<linearGradient id="paint3_linear_4787_10875" x1="38.6669" y1="53.4531" x2="38.6669" y2="55.7864" gradientUnits="userSpaceOnUse">
<stop stop-color="#155263"/>
<stop offset="1" stop-color="#D37217"/>
</linearGradient>
<linearGradient id="paint4_linear_4787_10875" x1="38.6669" y1="65.1196" x2="38.6669" y2="67.4529" gradientUnits="userSpaceOnUse">
<stop stop-color="#155263"/>
<stop offset="1" stop-color="#D37217"/>
</linearGradient>
<linearGradient id="paint5_linear_4787_10875" x1="38.6669" y1="76.7859" x2="38.6669" y2="79.1192" gradientUnits="userSpaceOnUse">
<stop stop-color="#155263"/>
<stop offset="1" stop-color="#D37217"/>
</linearGradient>
</defs>
</svg>
