<svg width="111" height="111" viewBox="0 0 111 111" fill="none" xmlns="http://www.w3.org/2000/svg">
<path d="M28.9032 75.469H25.5161C25.2167 75.469 24.9295 75.5879 24.7178 75.7997C24.506 76.0114 24.3871 76.2986 24.3871 76.598C24.3871 76.8975 24.506 77.1846 24.7178 77.3964C24.9295 77.6081 25.2167 77.7271 25.5161 77.7271H28.9032C29.2027 77.7271 29.4898 77.6081 29.7016 77.3964C29.9133 77.1846 30.0322 76.8975 30.0322 76.598C30.0322 76.2986 29.9133 76.0114 29.7016 75.7997C29.4898 75.5879 29.2027 75.469 28.9032 75.469Z" fill="url(#paint0_linear_4787_10709)"/>
<path d="M33.4193 75.469H32.2903C31.9908 75.469 31.7037 75.5879 31.4919 75.7997C31.2802 76.0114 31.1613 76.2986 31.1613 76.598C31.1613 76.8975 31.2802 77.1846 31.4919 77.3964C31.7037 77.6081 31.9908 77.7271 32.2903 77.7271H33.4193C33.7188 77.7271 34.0059 77.6081 34.2177 77.3964C34.4294 77.1846 34.5484 76.8975 34.5484 76.598C34.5484 76.2986 34.4294 76.0114 34.2177 75.7997C34.0059 75.5879 33.7188 75.469 33.4193 75.469Z" fill="url(#paint1_linear_4787_10709)"/>
<path d="M86.4839 42.7271H84.2258V33.6948C84.2242 32.4976 83.7479 31.3498 82.9013 30.5032C82.0547 29.6566 80.9069 29.1803 79.7097 29.1787H32.2903C31.093 29.1801 29.9451 29.6563 29.0984 30.5029C28.2518 31.3496 27.7755 32.4975 27.7742 33.6948V54.0174H25.5161C24.3188 54.0188 23.1709 54.495 22.3242 55.3417C21.4776 56.1883 21.0013 57.3362 21 58.5336V76.5981C21.0013 77.7954 21.4776 78.9433 22.3242 79.79C23.1709 80.6366 24.3188 81.1129 25.5161 81.1142H36.8065C38.0037 81.1126 39.1515 80.6363 39.9981 79.7897C40.8447 78.9431 41.321 77.7953 41.3226 76.5981V73.211H51.1663L50.6018 75.469H46.9677C46.6683 75.469 46.3811 75.588 46.1694 75.7997C45.9577 76.0115 45.8387 76.2986 45.8387 76.5981V79.9852C45.8387 80.2846 45.9577 80.5718 46.1694 80.7835C46.3811 80.9952 46.6683 81.1142 46.9677 81.1142H86.4839C87.6811 81.1126 88.8289 80.6363 89.6755 79.7897C90.5221 78.9431 90.9984 77.7953 91 76.5981V47.2432C90.9984 46.046 90.5221 44.8982 89.6755 44.0516C88.8289 43.205 87.6811 42.7287 86.4839 42.7271ZM39.0645 76.5981C39.0637 77.1967 38.8256 77.7706 38.4023 78.1939C37.979 78.6172 37.4051 78.8553 36.8065 78.8561H25.5161C24.9175 78.8553 24.3436 78.6172 23.9203 78.1939C23.497 77.7706 23.2588 77.1967 23.2581 76.5981V58.5336C23.2588 57.9349 23.497 57.361 23.9203 56.9377C24.3436 56.5144 24.9175 56.2763 25.5161 56.2755H26.9599L27.8321 58.8906C27.907 59.1154 28.0508 59.3109 28.243 59.4495C28.4353 59.5881 28.6663 59.6626 28.9032 59.6626H33.4194C33.6563 59.6626 33.8873 59.5881 34.0795 59.4495C34.2718 59.3109 34.4156 59.1154 34.4905 58.8906L35.3627 56.2755H36.8065C37.4051 56.2763 37.979 56.5144 38.4023 56.9377C38.8256 57.361 39.0637 57.9349 39.0645 58.5336V76.5981ZM29.3407 56.2755H32.9819L32.605 57.4045H29.7175L29.3407 56.2755ZM41.3226 70.9529V67.5658H61.6452V70.9529H41.3226ZM61.6452 73.211V75.469H61.3982L60.8337 73.211H61.6452ZM59.0696 75.469H52.9304L53.495 73.211H58.505L59.0696 75.469ZM48.0968 78.8561V77.7271H61.7877C61.8911 78.1228 62.0477 78.5026 62.2534 78.8561H48.0968ZM61.6452 47.2432V65.3077H41.3226V58.5336C41.321 57.3363 40.8447 56.1885 39.9981 55.3419C39.1515 54.4953 38.0037 54.019 36.8065 54.0174H30.0323V33.6948C30.033 33.0962 30.2712 32.5223 30.6945 32.099C31.1178 31.6757 31.6917 31.4376 32.2903 31.4368H79.7097C80.3083 31.4376 80.8822 31.6757 81.3055 32.099C81.7288 32.5223 81.967 33.0962 81.9677 33.6948V42.7271H66.1613C64.964 42.7287 63.8162 43.205 62.9696 44.0516C62.123 44.8982 61.6467 46.046 61.6452 47.2432ZM88.7419 76.5981C88.7411 77.1967 88.503 77.7706 88.0797 78.1939C87.6564 78.6172 87.0825 78.8553 86.4839 78.8561H66.1613C65.5627 78.8553 64.9888 78.6172 64.5655 78.1939C64.1422 77.7706 63.904 77.1967 63.9032 76.5981V47.2432C63.904 46.6446 64.1422 46.0707 64.5655 45.6474C64.9888 45.2241 65.5627 44.9859 66.1613 44.9852H86.4839C87.0825 44.9859 87.6564 45.2241 88.0797 45.6474C88.503 46.0707 88.7411 46.6446 88.7419 47.2432V76.5981Z" fill="url(#paint2_linear_4787_10709)"/>
<path d="M86.4838 46.1143H66.1613C65.8618 46.1143 65.5746 46.2332 65.3629 46.4449C65.1512 46.6567 65.0322 46.9439 65.0322 47.2433V73.211C65.0322 73.5105 65.1512 73.7976 65.3629 74.0094C65.5746 74.2211 65.8618 74.3401 66.1613 74.3401H86.4838C86.7833 74.3401 87.0705 74.2211 87.2822 74.0094C87.4939 73.7976 87.6129 73.5105 87.6129 73.211V47.2433C87.6129 46.9439 87.4939 46.6567 87.2822 46.4449C87.0705 46.2332 86.7833 46.1143 86.4838 46.1143ZM85.3548 72.082H67.2903V48.3723H85.3548V72.082Z" fill="url(#paint3_linear_4787_10709)"/>
<path d="M75.1936 77.7271C75.8172 77.7271 76.3226 77.2216 76.3226 76.598C76.3226 75.9745 75.8172 75.469 75.1936 75.469C74.5701 75.469 74.0646 75.9745 74.0646 76.598C74.0646 77.2216 74.5701 77.7271 75.1936 77.7271Z" fill="url(#paint4_linear_4787_10709)"/>
<rect x="1" y="1" width="109" height="109" rx="54.5" stroke="#EDEDED"/>
<defs>
<linearGradient id="paint0_linear_4787_10709" x1="27.2097" y1="75.469" x2="27.2097" y2="77.7271" gradientUnits="userSpaceOnUse">
<stop stop-color="#155263"/>
<stop offset="1" stop-color="#D37217"/>
</linearGradient>
<linearGradient id="paint1_linear_4787_10709" x1="32.8548" y1="75.469" x2="32.8548" y2="77.7271" gradientUnits="userSpaceOnUse">
<stop stop-color="#155263"/>
<stop offset="1" stop-color="#D37217"/>
</linearGradient>
<linearGradient id="paint2_linear_4787_10709" x1="56" y1="29.1787" x2="56" y2="81.1142" gradientUnits="userSpaceOnUse">
<stop stop-color="#155263"/>
<stop offset="1" stop-color="#D37217"/>
</linearGradient>
<linearGradient id="paint3_linear_4787_10709" x1="76.3225" y1="46.1143" x2="76.3225" y2="74.3401" gradientUnits="userSpaceOnUse">
<stop stop-color="#155263"/>
<stop offset="1" stop-color="#D37217"/>
</linearGradient>
<linearGradient id="paint4_linear_4787_10709" x1="75.1936" y1="75.469" x2="75.1936" y2="77.7271" gradientUnits="userSpaceOnUse">
<stop stop-color="#155263"/>
<stop offset="1" stop-color="#D37217"/>
</linearGradient>
</defs>
</svg>
