<svg width="111" height="111" viewBox="0 0 111 111" fill="none" xmlns="http://www.w3.org/2000/svg">
<path d="M39.0006 72.7312L38.6873 71.244C38.5634 70.6558 37.9865 70.2792 37.3978 70.4033C36.8096 70.5272 36.433 71.1044 36.5571 71.6928L36.8704 73.1798C36.9783 73.6925 37.4306 74.0443 37.9344 74.0443C38.0087 74.0443 38.0841 74.0365 38.1599 74.0207C38.7481 73.8968 39.1245 73.3195 39.0006 72.7312Z" fill="url(#paint0_linear_4787_10625)"/>
<path d="M41.4753 84.4789L40.0448 77.6882C39.9208 77.0998 39.3436 76.7242 38.7552 76.8474C38.167 76.9713 37.7904 77.5486 37.9145 78.1369L39.3451 84.9275C39.453 85.4402 39.9053 85.792 40.4091 85.792C40.4834 85.792 40.5588 85.7842 40.6346 85.7684C41.2228 85.6445 41.5995 85.0671 41.4753 84.4789Z" fill="url(#paint1_linear_4787_10625)"/>
<path d="M51.2148 84.4025L50.2854 71.1677C50.2433 70.568 49.7227 70.1151 49.1233 70.1581C48.5236 70.2002 48.0716 70.7205 48.1137 71.3202L49.0431 84.5551C49.0832 85.1289 49.5612 85.5674 50.1278 85.5674C50.1534 85.5674 50.1794 85.5665 50.2052 85.5646C50.8049 85.5225 51.257 85.0022 51.2148 84.4025Z" fill="url(#paint2_linear_4787_10625)"/>
<path d="M61.219 80.8264C60.6203 80.7828 60.0989 81.2363 60.0568 81.836L59.8712 84.4789C59.8292 85.0785 60.2812 85.5988 60.8809 85.6409C60.9068 85.6428 60.9327 85.6436 60.9582 85.6436C61.5247 85.6436 62.0027 85.2051 62.043 84.6314L62.2286 81.9885C62.2708 81.3888 61.8187 80.8685 61.219 80.8264Z" fill="url(#paint3_linear_4787_10625)"/>
<path d="M61.9625 70.2344C61.3644 70.1921 60.8425 70.6444 60.8004 71.2441L60.4114 76.7836C60.3693 77.3832 60.8215 77.9035 61.421 77.9456C61.447 77.9475 61.4728 77.9484 61.4984 77.9484C62.0648 77.9484 62.5428 77.5099 62.5832 76.9361L62.9722 71.3966C63.0142 70.7969 62.5623 70.2765 61.9625 70.2344Z" fill="url(#paint4_linear_4787_10625)"/>
<path d="M72.6256 70.1788C72.0372 70.0543 71.46 70.4314 71.3361 71.0195L68.5481 84.2543C68.424 84.8427 68.8004 85.42 69.3888 85.5439C69.4645 85.5599 69.5398 85.5676 69.6143 85.5676C70.1181 85.5676 70.5703 85.2159 70.6783 84.7031L73.4663 71.4683C73.5902 70.8801 73.2138 70.3027 72.6256 70.1788Z" fill="url(#paint5_linear_4787_10625)"/>
<path d="M87.6763 58.6168H82.0661V47.7284C82.0661 47.2638 81.9525 46.8003 81.7376 46.3884L79.3675 41.8443C80.3163 41.6061 81.0218 40.7485 81.0218 39.7269V38.118C81.0218 36.9129 80.0415 35.9324 78.8364 35.9324H63.7626C62.5576 35.9324 61.5771 36.9129 61.5771 38.118V39.7108C61.1573 38.912 60.6274 38.1663 59.9925 37.4966C58.6252 36.0543 57.8721 34.1655 57.8721 32.1781V31.1082C58.1723 30.8402 58.3625 30.4516 58.3625 30.0187V19.4625C58.3627 18.656 57.7067 18 56.9003 18H50.3551C49.5487 18 48.8927 18.656 48.8927 19.4623V30.0185C48.8927 30.4516 49.0831 30.8401 49.3832 31.1081V32.1779C49.3832 34.1654 48.6301 36.0542 47.2628 37.4965C45.5103 39.345 44.5452 41.7657 44.5452 44.3128V53.21L43.2609 45.7033C42.9515 43.8952 41.8691 42.3217 40.2908 41.3865C38.7127 40.4514 36.8128 40.2575 35.0781 40.8544L34.4031 41.0868C33.9014 37.8115 34.4961 34.3247 34.5037 34.2816C34.6076 33.6899 34.2125 33.1256 33.6206 33.0213C33.0284 32.9165 32.464 33.3122 32.3595 33.9043C32.329 34.0773 31.8145 37.0744 32.1169 40.3193L28.6582 30.2693C28.4626 29.7007 27.8431 29.3983 27.2747 29.5941C26.7062 29.7897 26.4039 30.4093 26.5995 30.9776L29.6728 39.9077C29.6065 39.7879 29.5392 39.6678 29.4701 39.5468C27.4854 36.0655 25.4589 33.9093 23.4468 33.1379C22.8856 32.9226 22.2559 33.2034 22.0407 33.7646C21.8255 34.3259 22.1062 34.9555 22.6674 35.1707C25.0745 36.0935 27.4427 40.1181 28.8238 43.007L28.0539 43.272C26.3193 43.8689 24.9412 45.1911 24.2727 46.8994C23.6043 48.6078 23.7194 50.5143 24.5883 52.1298L28.0774 58.6168H22.3237C21.0424 58.6168 20 59.6592 20 60.9405V64.0096C20 65.2908 21.0424 66.3332 22.3237 66.3332H24.8026L29.6419 88.2211C30.1719 90.6182 32.2566 92.2923 34.7115 92.2923H75.2884C77.7434 92.2923 79.8281 90.6182 80.358 88.2211L85.1974 66.3332H87.6763C88.9576 66.3332 90 65.2908 90 64.0096V60.9405C90 59.6592 88.9576 58.6168 87.6763 58.6168ZM79.8073 47.3954C79.8608 47.4978 79.889 47.6129 79.889 47.7285V58.617H78.1646V51.1548C78.1646 50.3077 77.4754 49.6183 76.6281 49.6183H65.971C65.1237 49.6183 64.4345 50.3076 64.4345 51.1548V58.617H62.7101V48.129V47.7285C62.7101 47.613 62.7382 47.4979 62.7918 47.3954L65.6514 41.9124H76.9475L79.8073 47.3954ZM75.9875 51.7953V58.6168H66.6116V51.7953H75.9875ZM63.7626 38.1097L78.8448 38.1181L78.8393 39.7351C78.8393 39.7351 78.8386 39.7353 78.8364 39.7353L63.7542 39.7269L63.7626 38.1097ZM63.2316 41.8443L62.6232 43.011C62.546 42.4236 62.4162 41.8481 62.2375 41.2892C62.5098 41.555 62.8511 41.7489 63.2316 41.8443ZM51.0697 20.1771H56.1854V29.3037H51.0697V20.1771ZM48.8425 38.9945C50.5949 37.1459 51.5601 34.7252 51.5601 32.1781V31.4809H55.695V32.1781C55.695 34.7252 56.6602 37.1461 58.4126 38.9945C59.7799 40.4367 60.533 42.3255 60.533 44.313V47.0404H52.2524C51.0429 47.0404 50.0589 48.0245 50.0589 49.2339V58.6168H46.7221V44.313H46.722C46.722 42.3255 47.4751 40.4367 48.8425 38.9945ZM60.5331 49.2177V58.617H52.2362V49.2341C52.2362 49.225 52.2436 49.2177 52.2526 49.2177H60.5331ZM27.4752 52.9013L26.5057 51.0985C25.9399 50.0465 25.8649 48.805 26.3002 47.6927C26.7353 46.5803 27.6328 45.7193 28.7623 45.3306L35.7865 42.9132C36.916 42.5244 38.1533 42.6507 39.1808 43.2595C40.2084 43.8685 40.9134 44.8931 41.1148 46.0704L43.2613 58.6167H33.6653L35.624 57.9425C36.1925 57.7469 36.4948 57.1274 36.299 56.559C36.1034 55.9905 35.484 55.6882 34.9155 55.8838L29.9913 57.5786L28.5204 54.8439L35.1764 52.5532C35.7449 52.3576 36.0471 51.738 35.8514 51.1696C35.6558 50.6011 35.0363 50.2989 34.4678 50.4944L27.4752 52.9013ZM78.2322 87.7512C77.9245 89.143 76.714 90.1152 75.2884 90.1152H34.7115C33.286 90.1152 32.0754 89.143 31.7678 87.7512L27.0322 66.3332H82.9678L78.2322 87.7512ZM87.823 64.0096C87.8229 64.0904 87.7572 64.1561 87.6763 64.1561H22.3237C22.2428 64.1561 22.1771 64.0904 22.1771 64.0096V60.9405C22.1771 60.8597 22.2428 60.7939 22.3237 60.7939H87.6763C87.7572 60.7939 87.8229 60.8597 87.8229 60.9405V64.0096H87.823Z" fill="url(#paint6_linear_4787_10625)"/>
<rect x="0.666626" y="1" width="109" height="109" rx="54.5" stroke="#EDEDED"/>
<defs>
<linearGradient id="paint0_linear_4787_10625" x1="37.7788" y1="70.3796" x2="37.7788" y2="74.0443" gradientUnits="userSpaceOnUse">
<stop stop-color="#155263"/>
<stop offset="1" stop-color="#D37217"/>
</linearGradient>
<linearGradient id="paint1_linear_4787_10625" x1="39.6949" y1="76.824" x2="39.6949" y2="85.792" gradientUnits="userSpaceOnUse">
<stop stop-color="#155263"/>
<stop offset="1" stop-color="#D37217"/>
</linearGradient>
<linearGradient id="paint2_linear_4787_10625" x1="49.6642" y1="70.1553" x2="49.6642" y2="85.5674" gradientUnits="userSpaceOnUse">
<stop stop-color="#155263"/>
<stop offset="1" stop-color="#D37217"/>
</linearGradient>
<linearGradient id="paint3_linear_4787_10625" x1="61.0499" y1="80.8235" x2="61.0499" y2="85.6436" gradientUnits="userSpaceOnUse">
<stop stop-color="#155263"/>
<stop offset="1" stop-color="#D37217"/>
</linearGradient>
<linearGradient id="paint4_linear_4787_10625" x1="61.6918" y1="70.2317" x2="61.6918" y2="77.9484" gradientUnits="userSpaceOnUse">
<stop stop-color="#155263"/>
<stop offset="1" stop-color="#D37217"/>
</linearGradient>
<linearGradient id="paint5_linear_4787_10625" x1="71.0072" y1="70.155" x2="71.0072" y2="85.5676" gradientUnits="userSpaceOnUse">
<stop stop-color="#155263"/>
<stop offset="1" stop-color="#D37217"/>
</linearGradient>
<linearGradient id="paint6_linear_4787_10625" x1="55" y1="18" x2="55" y2="92.2923" gradientUnits="userSpaceOnUse">
<stop stop-color="#155263"/>
<stop offset="1" stop-color="#D37217"/>
</linearGradient>
</defs>
</svg>
