<svg width="111" height="111" viewBox="0 0 111 111" fill="none" xmlns="http://www.w3.org/2000/svg">
<path d="M51.0703 71.517C49.5906 71.517 48.3876 70.3151 48.3876 68.8353C48.3876 67.3556 49.5906 66.1537 51.0703 66.1537C52.5501 66.1537 53.7531 67.3556 53.7531 68.8353C53.7531 70.3151 52.5501 71.517 51.0703 71.517ZM51.0703 68.4119C50.8366 68.4119 50.6458 68.6016 50.6458 68.8353C50.6458 69.3029 51.4948 69.3029 51.4948 68.8353C51.4948 68.6016 51.3041 68.4119 51.0703 68.4119ZM61.1551 71.517C59.6754 71.517 58.4735 70.3151 58.4735 68.8353C58.4735 67.3556 59.6754 66.1537 61.1551 66.1537C62.6349 66.1537 63.8368 67.3556 63.8368 68.8353C63.8368 70.3151 62.6349 71.517 61.1551 71.517ZM61.1551 68.4119C60.9214 68.4119 60.7317 68.6016 60.7317 68.8353C60.7317 69.3029 61.5785 69.3029 61.5785 68.8353C61.5785 68.6016 61.3889 68.4119 61.1551 68.4119ZM69.6014 45.7658C69.1008 45.113 68.34 44.7392 67.5174 44.7392H41.8624L41.1939 42.2395C40.8554 40.9704 39.7021 40.085 38.3888 40.085H36.7062C36.0821 40.085 35.5771 40.59 35.5771 41.2141C35.5771 41.8382 36.0821 42.3432 36.7062 42.3432H38.3888C38.681 42.3432 38.9368 42.5406 39.0129 42.8228L44.4059 62.9869C44.8007 64.4645 46.1448 65.4965 47.6742 65.4965H65.7752C66.3993 65.4965 66.9043 64.9915 66.9043 64.3674C66.9043 63.7433 66.3993 63.2383 65.7752 63.2383H47.6742C47.1659 63.2383 46.7182 62.8943 46.587 62.4047L46.1753 60.8654H49.9126H60.5663H63.1708C65.2151 60.8654 67.0124 59.4849 67.5416 57.509L70.0579 48.045C70.2696 47.2489 70.102 46.4186 69.6014 45.7658ZM67.8107 47.1419C67.8526 47.1959 67.9165 47.3095 67.8746 47.465L66.7553 51.6738H62.7894L63.4184 46.9974H67.5174C67.6762 46.9975 67.7688 47.0879 67.8107 47.1419ZM60.5121 51.6738H56.363V46.9975H61.1419L60.5121 51.6738ZM54.1048 46.9975V51.6738H49.9597L49.3259 46.9975H54.1048ZM47.0469 46.9975L47.6805 51.6738H43.7226L42.4697 46.9975H47.0469ZM47.9864 53.932L48.6198 58.6072H45.5803L44.3277 53.932H47.9864ZM50.2658 53.932H54.1048V58.6072H50.8994L50.2658 53.932ZM56.363 58.6072V53.932H60.208L59.5784 58.6072H56.363ZM63.1708 58.6072H61.8565L62.4855 53.932H66.1548L65.3584 56.9268C65.0938 57.917 64.194 58.6072 63.1708 58.6072ZM39.1231 27.7832C39.1231 27.1985 38.65 26.7254 38.0653 26.7254H26.45C25.8654 26.7254 25.3922 27.1985 25.3922 27.7832C25.3922 28.3679 25.8653 28.841 26.45 28.841H38.0653C38.65 28.841 39.1231 28.3679 39.1231 27.7832ZM71.0215 27.7831C71.0215 28.4067 70.516 28.9122 69.8924 28.9122C69.2688 28.9122 68.7633 28.4067 68.7633 27.7831C68.7633 27.1595 69.2688 26.654 69.8924 26.654C70.516 26.654 71.0215 27.1595 71.0215 27.7831ZM74.5506 26.654C73.927 26.654 73.4214 27.1595 73.4214 27.7831C73.4214 28.4067 73.927 28.9122 74.5506 28.9122C75.1741 28.9122 75.6797 28.4067 75.6797 27.7831C75.6797 27.1595 75.1741 26.654 74.5506 26.654ZM79.2087 26.654C78.5851 26.654 78.0796 27.1595 78.0796 27.7831C78.0796 28.4067 78.5851 28.9122 79.2087 28.9122C79.8323 28.9122 80.3378 28.4067 80.3378 27.7831C80.3378 27.1595 79.8323 26.654 79.2087 26.654ZM89.1733 75.9937L85.7104 73.0742C85.7127 73.0045 85.7235 72.9362 85.7235 72.8664V28.7555C85.7235 25.3648 82.9562 22.5977 79.5656 22.5977H26.1578C22.7672 22.5977 20 25.3648 20 28.7555V72.8664C20 76.257 22.7672 79.0242 26.1578 79.0242H73.5587L73.5599 83.2535C73.5599 84.1643 74.0715 84.9692 74.8963 85.3552C75.7144 85.7367 76.6649 85.6176 77.364 85.0376L79.4788 83.28L80.6565 85.8094C81.0203 86.5989 81.6731 87.1988 82.4891 87.4965C82.853 87.6288 83.2323 87.695 83.6072 87.695C84.0747 87.695 84.5423 87.5935 84.9788 87.3907C85.7662 87.0246 86.366 86.3718 86.6637 85.5558C86.9614 84.7377 86.924 83.8533 86.5556 83.0683L85.3802 80.5366L88.0861 80.0536C88.9815 79.8927 89.6828 79.2465 89.9187 78.3666C90.1547 77.4889 89.868 76.5781 89.1733 75.9937ZM22.2531 28.7555C22.2531 26.6117 24.0031 24.8617 26.1578 24.8617H79.5656C81.7203 24.8617 83.4703 26.6117 83.4703 28.7555V30.7023H22.2531V28.7555ZM73.5555 67.8143L73.558 76.7602H26.1578C24.0031 76.7602 22.2531 75.0101 22.2531 72.8664V32.9664H83.4703V71.1857L77.3684 66.0412C76.6693 65.4502 75.7211 65.3311 74.8963 65.7127C74.0693 66.0964 73.5555 66.9013 73.5555 67.8143ZM87.687 77.8307L83.5388 78.5717C83.1948 78.6334 82.8971 78.8517 82.7361 79.1627C82.5729 79.4736 82.5663 79.8419 82.714 80.1595L84.5092 84.0231C84.6216 84.2613 84.6327 84.5326 84.5423 84.7818C84.4496 85.031 84.2665 85.2317 84.0284 85.3441C83.7858 85.4544 83.5123 85.4676 83.2654 85.375C83.014 85.2846 82.8155 85.1015 82.703 84.8589L80.9079 80.9997C80.7601 80.6822 80.4735 80.4506 80.1317 80.3734C80.05 80.3558 79.9662 80.347 79.8847 80.347C79.6244 80.347 79.3686 80.4374 79.1635 80.6072L75.8181 83.2535L75.913 67.7658L87.7178 77.7183L87.687 77.8307Z" fill="url(#paint0_linear_4787_10654)"/>
<rect x="0.666626" y="1" width="109" height="109" rx="54.5" stroke="#EDEDED"/>
<defs>
<linearGradient id="paint0_linear_4787_10654" x1="55" y1="22.5977" x2="55" y2="87.695" gradientUnits="userSpaceOnUse">
<stop stop-color="#155263"/>
<stop offset="1" stop-color="#D37217"/>
</linearGradient>
</defs>
</svg>
