<svg width="67" height="67" viewBox="0 0 67 67" fill="none" xmlns="http://www.w3.org/2000/svg">
<g opacity="0.5" clip-path="url(#clip0_4586_11075)">
<path d="M44.1024 21.3313C42.3081 24.1609 37.8251 31.6601 33.1161 42.7596L19.133 41.143C25.0594 27.1739 30.6359 18.9039 30.9291 18.4749C30.9291 18.4749 32.9709 15.9652 34.1421 15.4546C35.3212 14.9406 51.3544 17.0474 51.3544 17.0474L46.1965 19.4846C45.3363 19.8911 44.6118 20.5278 44.1024 21.3313Z" fill="#768C95"/>
<path d="M36.7618 47.8869L22.7794 46.2737C22.6918 46.258 20.6521 45.2124 20.6521 45.2124C19.0341 44.1552 19.1295 41.2881 19.132 41.1393L33.1144 42.7526C33.1168 42.9125 33.0101 45.7845 34.6232 46.8306C34.6393 46.8367 36.6677 47.8872 36.7618 47.8869Z" fill="#546F7A"/>
<path d="M32.5285 44.6491L32.9523 45.6212L20.6541 44.2295L20.2301 43.2568L20.598 43.2987L32.5285 44.6491Z" fill="#475E68"/>
<path d="M32.5285 44.6492L32.78 45.2261L20.8493 43.8751L20.598 43.2988L32.5285 44.6492Z" fill="#35484F"/>
<path d="M53.8829 20.0606C54.4077 22.0637 54.0895 24.6603 53.1009 26.4753C52.6477 27.296 52.0138 28.1293 51.1573 28.5192C50.3246 28.8822 49.3949 28.6633 48.1674 29.5022C46.4328 30.7292 45.0049 32.2277 43.8516 33.7946C40.5875 38.2313 39.3887 43.2364 39.1539 44.469C39.113 44.656 39.0347 44.8221 38.9496 44.9724L37.2132 47.5563C37.175 47.6198 36.8102 47.8473 36.7618 47.8872C36.5668 48.0665 34.6264 46.8286 34.6264 46.8286C33.0638 45.8149 33.1138 43.0999 33.1151 42.7788C33.1127 42.7518 33.1173 42.7406 33.126 42.7175C38.4025 30.3032 43.3908 22.4124 44.6348 20.5135C44.8247 20.2146 45.0622 19.9603 45.3442 19.743C46.3402 18.9603 48.8927 17.1035 50.8168 16.9806C51.0727 16.9628 51.2839 16.9935 51.4691 17.0728C52.5005 17.2352 53.4251 18.2544 53.8829 20.0606Z" fill="#475E68"/>
<path d="M40.6697 20.7275C40.3073 21.3158 39.8953 22.0065 39.4276 22.8161C38.4099 24.5244 37.1671 26.7348 35.7957 29.3909L30.1069 29.0085L26.7628 28.7446C26.9708 28.3576 27.1677 27.9762 27.3743 27.6168C27.8288 26.7459 28.2629 25.9516 28.6712 25.2218C28.9627 24.7177 29.2368 24.2355 29.4867 23.7902C30.6049 21.8496 31.4723 20.4755 31.9648 19.7228L36.2577 20.2188L37.8281 20.3954L39.1422 20.551L40.6697 20.7275Z" fill="#28B9FC"/>
<path d="M26.2352 28.7019L26.7601 28.7437C29.1943 24.1245 31.1237 21.0235 31.9653 19.7237L31.7184 19.1574C30.8444 20.5074 28.803 23.782 26.2352 28.7019Z" fill="#475E68"/>
<path d="M31.7184 19.1572L31.9653 19.7236L40.6668 20.7318C40.7733 20.5592 40.8816 20.3826 40.9775 20.2298L31.7184 19.1572Z" fill="#546F7A"/>
<path d="M37.8281 20.3952L28.6712 25.2216C28.9627 24.7175 29.2368 24.2353 29.4867 23.7901L36.2577 20.2186L37.8281 20.3952Z" fill="#53C7FD"/>
<path d="M40.6697 20.7274C40.0662 21.707 39.8826 22.0285 39.4276 22.816L30.1068 29.0085L26.7628 28.7445C26.9708 28.3576 27.1677 27.9761 27.3743 27.6167L39.1422 20.5509L40.6697 20.7274Z" fill="#53C7FD"/>
<path d="M39.4184 27.8293C39.5217 27.9635 39.5328 28.1604 39.4325 28.3761C39.2674 28.7174 38.855 28.9717 38.5012 28.9317L37.4308 28.8116C37.2966 28.7953 37.1893 28.7377 37.1203 28.648L36.8246 28.2612C36.8934 28.3506 37.0009 28.4085 37.1351 28.4248L38.2118 28.5422C38.5593 28.5849 38.9778 28.3276 39.1342 27.9832C39.2372 27.7736 39.226 27.5767 39.1227 27.4425L39.4184 27.8293Z" fill="#B0B8BC"/>
<path d="M38.8137 27.2776C39.1651 27.3173 39.3041 27.6363 39.1383 27.9847C38.9749 28.3279 38.5618 28.5845 38.2104 28.5448L37.1369 28.4236C36.7906 28.3845 36.6465 28.0649 36.8099 27.7217C36.9758 27.3733 37.3939 27.1173 37.7402 27.1564L38.8137 27.2776Z" fill="#DDE4E7"/>
<path d="M23.5583 39.3332C23.6616 39.4674 23.6727 39.6643 23.5724 39.88C23.1314 40.7917 22.0545 40.2907 21.5707 40.3155C21.2552 40.2771 21.2241 40.0589 20.9645 39.7651C21.0333 39.8545 21.1408 39.9124 21.275 39.9287C21.7657 39.9028 22.859 40.4015 23.2741 39.4871C23.3771 39.2776 23.3659 39.0806 23.2626 38.9464L23.5583 39.3332Z" fill="#EE534F"/>
<path d="M23.2782 39.4884C22.839 40.4109 21.7717 39.9015 21.2768 39.9273C20.4491 39.8338 21.0489 38.5662 21.8801 38.6601C21.8801 38.6601 23.7202 38.5601 23.2782 39.4884Z" fill="#F17572"/>
<path d="M26.6522 39.6838C26.7555 39.818 26.7667 40.0149 26.6663 40.2306C26.5012 40.5719 26.0888 40.8262 25.7351 40.7862L24.6646 40.6661C24.5304 40.6498 24.4231 40.5922 24.3541 40.5025L24.0584 40.1157C24.1273 40.2051 24.2347 40.263 24.3689 40.2793L25.4457 40.3967C25.7932 40.4393 26.2117 40.1821 26.368 39.8377C26.471 39.6281 26.4598 39.4312 26.3565 39.297L26.6522 39.6838Z" fill="#FED44C"/>
<path d="M26.0475 39.1321C26.3989 39.1718 26.5379 39.4908 26.3721 39.8392C26.2087 40.1824 25.7956 40.439 25.4442 40.3993L24.3707 40.2781C24.0244 40.2389 23.8803 39.9194 24.0437 39.5762C24.2096 39.2278 24.6277 38.9718 24.9741 39.0109L26.0475 39.1321Z" fill="#FEE182"/>
<path d="M29.7461 40.0349C29.8494 40.169 29.8606 40.366 29.7602 40.5817C29.5951 40.923 29.1827 41.1772 28.829 41.1373L27.7585 41.0171C27.6243 41.0008 27.517 40.9432 27.448 40.8536L27.1523 40.4668C27.2212 40.5561 27.3286 40.614 27.4628 40.6304L28.5396 40.7478C28.887 40.7904 29.3056 40.5332 29.4619 40.1887C29.5649 39.9792 29.5537 39.7822 29.4504 39.6481L29.7461 40.0349Z" fill="#28B9FC"/>
<path d="M29.1415 39.4832C29.4928 39.5229 29.6318 39.8419 29.466 40.1903C29.3026 40.5334 28.8895 40.7901 28.5381 40.7504L27.4646 40.6291C27.1183 40.59 26.9742 40.2704 27.1376 39.9273C27.3035 39.5789 27.7216 39.3228 28.068 39.3619L29.1415 39.4832Z" fill="#53C7FD"/>
<path d="M32.84 40.386C32.9433 40.5201 32.9545 40.7171 32.8541 40.9327C32.689 41.2741 32.2766 41.5283 31.9229 41.4884L30.8524 41.3682C30.7182 41.3519 30.6109 41.2943 30.5419 41.2047L30.2462 40.8179C30.3151 40.9072 30.4225 40.9651 30.5567 40.9814L31.6335 41.0988C31.981 41.1415 32.3995 40.8842 32.5558 40.5398C32.6588 40.3303 32.6476 40.1333 32.5443 39.9992L32.84 40.386Z" fill="#7DB343"/>
<path d="M32.2354 39.8343C32.5867 39.874 32.7257 40.193 32.5599 40.5413C32.3965 40.8845 31.9834 41.1411 31.632 41.1015L30.5585 40.9802C30.2122 40.9411 30.0682 40.6215 30.2315 40.2783C30.3974 39.93 30.8155 39.6739 31.1619 39.713L32.2354 39.8343Z" fill="#97C269"/>
<path d="M24.4422 36.9367C24.5456 37.0709 24.5567 37.2679 24.4564 37.4835C24.2913 37.8248 23.8789 38.0791 23.5251 38.0391L22.4546 37.919C22.3204 37.9027 22.2131 37.8451 22.1441 37.7554L21.8485 37.3687C21.9173 37.458 22.0247 37.5159 22.1589 37.5322L23.2357 37.6496C23.5832 37.6923 24.0017 37.435 24.158 37.0906C24.261 36.8811 24.2499 36.6841 24.1465 36.5499L24.4422 36.9367Z" fill="#B0B8BC"/>
<path d="M23.8376 36.3851C24.189 36.4247 24.328 36.7438 24.1621 37.0921C23.9987 37.4353 23.5856 37.6919 23.2343 37.6522L22.1608 37.531C21.8144 37.4919 21.6704 37.1723 21.8338 36.8291C21.9996 36.4808 22.4178 36.2247 22.7641 36.2638L23.8376 36.3851Z" fill="#DDE4E7"/>
<path d="M27.5361 37.2878C27.6395 37.422 27.6506 37.6189 27.5503 37.8346C27.3852 38.1759 26.9728 38.4302 26.619 38.3902L25.5486 38.2701C25.4143 38.2538 25.307 38.1962 25.2381 38.1065L24.9424 37.7197C25.0112 37.8091 25.1187 37.867 25.2528 37.8833L26.3296 38.0007C26.6771 38.0434 27.0956 37.7861 27.2519 37.4417C27.3549 37.2321 27.3438 37.0352 27.2405 36.901L27.5361 37.2878Z" fill="#B0B8BC"/>
<path d="M26.9315 36.7361C27.2829 36.7758 27.4219 37.0948 27.256 37.4432C27.0926 37.7864 26.6795 38.043 26.3282 38.0033L25.2547 37.8821C24.9083 37.8429 24.7643 37.5234 24.9277 37.1802C25.0935 36.8318 25.5117 36.5758 25.858 36.6149L26.9315 36.7361Z" fill="#DDE4E7"/>
<path d="M30.63 37.6384C30.7334 37.7726 30.7445 37.9695 30.6442 38.1852C30.4791 38.5265 30.0667 38.7807 29.7129 38.7408L28.6425 38.6206C28.5082 38.6043 28.4009 38.5467 28.332 38.4571L28.0363 38.0703C28.1051 38.1597 28.2126 38.2176 28.3467 38.2339L29.4235 38.3513C29.771 38.3939 30.1895 38.1367 30.3458 37.7922C30.4488 37.5827 30.4377 37.3858 30.3344 37.2516L30.63 37.6384Z" fill="#B0B8BC"/>
<path d="M30.0254 37.0867C30.3768 37.1264 30.5158 37.4454 30.3499 37.7938C30.1865 38.137 29.7734 38.3936 29.4221 38.3539L28.3486 38.2327C28.0022 38.1935 27.8582 37.8739 28.0216 37.5308C28.1874 37.1824 28.6056 36.9263 28.9519 36.9655L30.0254 37.0867Z" fill="#DDE4E7"/>
<path d="M33.724 37.99C33.8273 38.1241 33.8384 38.3211 33.7381 38.5367C33.573 38.8781 33.1606 39.1323 32.8068 39.0924L31.7364 38.9722C31.6022 38.9559 31.4948 38.8983 31.4259 38.8087L31.1302 38.4219C31.199 38.5112 31.3065 38.5691 31.4406 38.5854L32.5174 38.7028C32.8649 38.7455 33.2834 38.4882 33.4397 38.1438C33.5427 37.9343 33.5316 37.7373 33.4283 37.6032L33.724 37.99Z" fill="#B0B8BC"/>
<path d="M33.1193 37.4381C33.4707 37.4778 33.6097 37.7968 33.4438 38.1451C33.2804 38.4883 32.8673 38.7449 32.516 38.7052L31.4425 38.584C31.0961 38.5449 30.9521 38.2253 31.1155 37.8821C31.5547 36.9597 32.6456 37.4627 33.1193 37.4381Z" fill="#DDE4E7"/>
<path d="M25.3262 34.5407C25.4295 34.6749 25.4407 34.8719 25.3403 35.0875C25.1752 35.4288 24.7628 35.6831 24.409 35.6432L23.3386 35.523C23.2044 35.5067 23.0971 35.4491 23.0281 35.3595L22.7324 34.9727C22.8012 35.062 22.9087 35.1199 23.0429 35.1362L24.1196 35.2536C24.4671 35.2963 24.8856 35.039 25.042 34.6946C25.145 34.4851 25.1338 34.2881 25.0305 34.1539L25.3262 34.5407Z" fill="#B0B8BC"/>
<path d="M24.7215 33.9891C25.0729 34.0288 25.2119 34.3478 25.0461 34.6961C24.8827 35.0393 24.4696 35.2959 24.1182 35.2563L23.0447 35.135C22.6984 35.0959 22.5543 34.7763 22.7177 34.4331C22.8836 34.0848 23.3017 33.8287 23.6481 33.8678L24.7215 33.9891Z" fill="#DDE4E7"/>
<path d="M28.4201 34.8918C28.5234 35.026 28.5346 35.2229 28.4342 35.4386C28.2691 35.7799 27.8567 36.0342 27.503 35.9942L26.4325 35.8741C26.2983 35.8578 26.191 35.8002 26.122 35.7105L25.8263 35.3237C25.8951 35.4131 26.0026 35.471 26.1368 35.4873L27.2136 35.6047C27.561 35.6474 27.9795 35.3901 28.1359 35.0457C28.2389 34.8362 28.2277 34.6392 28.1244 34.505L28.4201 34.8918Z" fill="#B0B8BC"/>
<path d="M27.8154 34.3401C28.1668 34.3798 28.3058 34.6988 28.14 35.0472C27.9766 35.3904 27.5635 35.647 27.2121 35.6073L26.1386 35.4861C25.7923 35.447 25.6482 35.1274 25.8116 34.7842C25.9775 34.4358 26.3956 34.1798 26.742 34.2189L27.8154 34.3401Z" fill="#DDE4E7"/>
<path d="M31.5281 35.7897C31.0871 36.7014 30.0102 36.2003 29.5264 36.2251C29.3922 36.2088 29.2849 36.1512 29.2159 36.0616L28.9202 35.6748C28.9891 35.7641 29.0965 35.822 29.2307 35.8384L30.3075 35.9558C30.655 35.9984 31.0735 35.7412 31.2298 35.3967C31.3328 35.1872 31.3216 34.9903 31.2183 34.8561C31.3913 35.1588 31.7527 35.307 31.5281 35.7897Z" fill="#B0B8BC"/>
<path d="M31.2339 35.3983C31.0705 35.7414 30.6574 35.9981 30.306 35.9584L29.2325 35.8371C28.8862 35.798 28.7421 35.4784 28.9055 35.1353C29.0714 34.7869 29.4895 34.5308 29.8359 34.57C30.23 34.6909 31.6759 34.4699 31.2339 35.3983Z" fill="#DDE4E7"/>
<path d="M34.6079 35.594C34.7112 35.7281 34.7224 35.9251 34.622 36.1407C34.181 37.0524 33.1041 36.5514 32.6203 36.5762C32.3048 36.5379 32.2737 36.3196 32.0141 36.0259C32.083 36.1152 32.1904 36.1731 32.3246 36.1894L33.4014 36.3068C33.7489 36.3495 34.1674 36.0922 34.3237 35.7478C34.4267 35.5383 34.4155 35.3413 34.3122 35.2072L34.6079 35.594Z" fill="#B0B8BC"/>
<path d="M34.3278 35.7491C34.1644 36.0923 33.7513 36.3489 33.3999 36.3093C32.9959 36.1853 31.5609 36.4071 31.9994 35.4861C32.1653 35.1378 32.5834 34.8817 32.9298 34.9208C33.3239 35.0418 34.7698 34.8208 34.3278 35.7491Z" fill="#DDE4E7"/>
<path d="M26.5013 32.0173C26.6046 32.1515 26.6158 32.3484 26.5154 32.5641C26.3503 32.9054 25.9379 33.1596 25.5841 33.1197L24.5137 32.9996C24.3795 32.9833 24.2722 32.9257 24.2032 32.836L23.9075 32.4492C23.9763 32.5386 24.0838 32.5965 24.218 32.6128L25.2947 32.7302C25.6422 32.7729 26.0607 32.5156 26.2171 32.1711C26.3201 31.9616 26.3089 31.7647 26.2056 31.6305L26.5013 32.0173Z" fill="#B0B8BC"/>
<path d="M25.8966 31.4656C26.248 31.5053 26.387 31.8243 26.2212 32.1727C26.0578 32.5158 25.6447 32.7725 25.2933 32.7328L24.2198 32.6116C23.8735 32.5724 23.7294 32.2529 23.8928 31.9097C24.0587 31.5613 24.4768 31.3052 24.8231 31.3444L25.8966 31.4656Z" fill="#DDE4E7"/>
<path d="M29.5952 32.3684C29.6985 32.5025 29.7097 32.6995 29.6093 32.9151C29.4442 33.2565 29.0318 33.5107 28.6781 33.4708L27.6076 33.3506C27.4734 33.3343 27.3661 33.2767 27.2971 33.1871L27.0014 32.8003C27.0702 32.8896 27.1777 32.9475 27.3119 32.9639L28.3887 33.0813C28.7361 33.1239 29.1547 32.8667 29.311 32.5222C29.414 32.3127 29.4028 32.1157 29.2995 31.9816L29.5952 32.3684Z" fill="#B0B8BC"/>
<path d="M28.9906 31.8167C29.3419 31.8564 29.4809 32.1754 29.3151 32.5238C29.1517 32.8669 28.7386 33.1236 28.3872 33.0839L27.3137 32.9626C26.9674 32.9235 26.8233 32.6039 26.9867 32.2608C27.1526 31.9124 27.5707 31.6563 27.9171 31.6954L28.9906 31.8167Z" fill="#DDE4E7"/>
<path d="M32.6891 32.719C32.7924 32.8531 32.8036 33.0501 32.7032 33.2657C32.5381 33.6071 32.1257 33.8613 31.772 33.8214L30.7015 33.7012C30.5673 33.6849 30.46 33.6273 30.391 33.5377L30.0953 33.1509C30.1642 33.2402 30.2716 33.2981 30.4058 33.3144C30.8965 33.2886 31.9898 33.7873 32.4049 32.8728C32.5079 32.6633 32.4967 32.4663 32.3934 32.3322L32.6891 32.719Z" fill="#B0B8BC"/>
<path d="M32.0845 32.1673C32.4358 32.207 32.5748 32.526 32.409 32.8744C31.9698 33.7968 30.9025 33.2875 30.4076 33.3132C30.0613 33.2741 29.9172 32.9545 30.0806 32.6114C30.2465 32.263 30.6646 32.0069 31.011 32.046L32.0845 32.1673Z" fill="#DDE4E7"/>
<path d="M35.783 33.0705C35.8863 33.2047 35.8975 33.4016 35.7971 33.6173C35.632 33.9586 35.2196 34.2129 34.8659 34.1729L33.7954 34.0528C33.6612 34.0365 33.5539 33.9789 33.4849 33.8892L33.1892 33.5024C33.3707 33.7379 33.6636 33.6507 34.5765 33.7834C34.924 33.8261 35.3425 33.5688 35.4988 33.2244C35.6018 33.0149 35.5907 32.8179 35.4873 32.6837L35.783 33.0705Z" fill="#B0B8BC"/>
<path d="M35.1784 32.5186C35.5297 32.5583 35.6687 32.8773 35.5029 33.2257C35.3395 33.5689 34.9264 33.8255 34.575 33.7858C34.171 33.6618 32.736 33.8837 33.1745 32.9627C33.3404 32.6143 33.7585 32.3583 34.1049 32.3974L35.1784 32.5186Z" fill="#DDE4E7"/>
<path d="M40.6623 25.6496C40.7657 25.7838 40.7768 25.9807 40.6765 26.1964C40.5114 26.5377 40.099 26.792 39.7452 26.752L38.6748 26.6319C38.5405 26.6156 38.4332 26.558 38.3643 26.4683L38.0686 26.0815C38.1374 26.1709 38.2449 26.2288 38.379 26.2451L39.4558 26.3625C39.8033 26.4052 40.2218 26.1479 40.3781 25.8035C40.4811 25.594 40.47 25.397 40.3667 25.2628L40.6623 25.6496Z" fill="#B0B8BC"/>
<path d="M40.0577 25.0979C40.4091 25.1376 40.5481 25.4566 40.3822 25.805C40.2188 26.1482 39.8057 26.4048 39.4544 26.3651L38.3809 26.2439C38.0345 26.2048 37.8905 25.8852 38.0539 25.542C38.2197 25.1937 38.6379 24.9376 38.9842 24.9767L40.0577 25.0979Z" fill="#DDE4E7"/>
<path d="M41.9063 23.4695C42.0096 23.6036 42.0208 23.8006 41.9205 24.0162C41.7553 24.3575 41.343 24.6118 40.9892 24.5719L39.9187 24.4517C39.7845 24.4354 39.6772 24.3778 39.6082 24.2882L39.3126 23.9014C39.3814 23.9907 39.4888 24.0486 39.623 24.0649L40.6998 24.1823C41.0473 24.225 41.4658 23.9677 41.6221 23.6233C41.7251 23.4138 41.714 23.2168 41.6106 23.0827L41.9063 23.4695Z" fill="#B0B8BC"/>
<path d="M41.3017 22.9178C41.653 22.9575 41.7921 23.2765 41.6262 23.6248C41.4628 23.968 41.0497 24.2247 40.6983 24.185L39.6249 24.0637C39.2785 24.0246 39.1345 23.705 39.2979 23.3618C39.4637 23.0135 39.8819 22.7574 40.2282 22.7965L41.3017 22.9178Z" fill="#DDE4E7"/>
<path d="M43.1503 21.2898C43.2536 21.4239 43.2648 21.6209 43.1644 21.8365C42.9993 22.1779 42.5869 22.4321 42.2332 22.3922L41.1627 22.272C41.0285 22.2557 40.9212 22.1981 40.8522 22.1085L40.5565 21.7217C40.6253 21.811 40.7328 21.8689 40.867 21.8852L41.9438 22.0026C42.2912 22.0453 42.7097 21.788 42.8661 21.4436C42.9691 21.2341 42.9579 21.0371 42.8546 20.903L43.1503 21.2898Z" fill="#B0B8BC"/>
<path d="M42.5456 20.7381C42.897 20.7778 43.036 21.0968 42.8702 21.4452C42.7068 21.7883 42.2937 22.045 41.9423 22.0053L40.8688 21.884C40.5225 21.8449 40.3784 21.5253 40.5418 21.1822C40.7077 20.8338 41.1258 20.5777 41.4722 20.6168L42.5456 20.7381Z" fill="#DDE4E7"/>
<path d="M32.2816 44.6035C31.0016 44.6932 29.7827 45.5469 28.7923 46.8901C27.484 48.6587 26.573 51.2813 26.4201 54.1526L15.9589 52.9433C16.1058 50.0697 17.021 47.4453 18.3293 45.6764C19.3197 44.3335 20.5362 43.4858 21.8186 43.3901L32.2816 44.6035Z" fill="#FED44C"/>
</g>
<defs>
<clipPath id="clip0_4586_11075">
<rect width="50" height="50" fill="white" transform="translate(0.693466 20.4302) rotate(-23.5555)"/>
</clipPath>
</defs>
</svg>
