<svg width="111" height="111" viewBox="0 0 111 111" fill="none" xmlns="http://www.w3.org/2000/svg">
<path d="M85.8331 54.1993C83.7436 50.3802 81.6663 47.9122 80.918 47.0767V41.4399L90.6254 33.4691C90.8565 33.2791 90.9933 32.9979 90.9997 32.6988C91.0063 32.3996 90.8818 32.1126 90.659 31.913L83.3143 25.3298C82.8926 24.9519 82.2443 24.9874 81.8662 25.4089C81.4882 25.8306 81.5237 26.4789 81.9454 26.857L88.4002 32.6426L80.9185 38.7859V34.5924C80.9185 34.0261 80.4595 33.5669 79.893 33.5669C79.3266 33.5669 78.8676 34.0261 78.8676 34.5924L78.8671 46.6099C71.5454 47.7949 64.1353 47.7948 56.8136 46.6097V34.5924C56.8136 34.0261 56.3546 33.5669 55.7882 33.5669C55.2217 33.5669 54.7627 34.0261 54.7627 34.5924V38.7864L47.2804 32.6426L55.2627 25.4869C56.437 24.4338 57.9536 23.9962 59.413 24.1695C59.7135 25.4605 60.4037 28.1683 61.4635 30.8658C63.2051 35.2985 65.2366 37.9485 67.5012 38.7419C67.611 38.7803 67.7256 38.7996 67.8402 38.7996C67.9548 38.7996 68.0695 38.7803 68.1791 38.7419C70.4438 37.9485 72.4754 35.2985 74.2174 30.866C75.2755 28.1735 75.9648 25.4728 76.2666 24.1787C77.17 24.0707 78.103 24.1916 78.9704 24.5629C79.4915 24.7859 80.0939 24.5443 80.3167 24.0238C80.5397 23.5032 80.2983 22.9005 79.7778 22.6776C77.1435 21.5498 74.0724 22.0678 71.9531 23.9969L71.0068 24.8582C69.2014 26.5022 66.4797 26.5022 64.6749 24.8582L63.7288 23.9969C60.9347 21.4533 56.7064 21.4375 53.8936 23.9601L45.0215 31.9133C44.7986 32.1129 44.6742 32.4 44.6808 32.699C44.6872 32.9982 44.824 33.2794 45.0551 33.4693L54.7625 41.4402V47.0762C54.0902 47.8243 52.3626 49.8674 50.5212 53.0003C48.9617 52.1693 47.3124 51.3488 45.6418 50.5182C44.1819 49.7922 42.7114 49.061 41.2999 48.3184C42.6794 46.5909 43.7435 44.6355 44.2099 42.3431C44.9225 38.8398 43.8801 35.7105 41.35 33.7574C38.9515 31.9059 35.6484 31.4931 33.1304 32.7303C31.7806 33.3934 29.5164 35.1145 29.5164 39.1894C29.5164 41.7688 31.1544 44.2073 34.5245 46.6443C35.5787 47.4065 36.7638 48.1448 38.0252 48.8652C36.4614 50.4035 34.6666 51.7726 32.9711 53.0657C29.3207 55.85 25.8574 58.4937 25.7678 62.0556C23.5346 62.591 21.8115 64.4533 21.5115 66.7989C20.8295 72.1393 20.8295 77.5549 21.5115 82.8956C21.856 85.5884 24.0771 87.6464 26.793 87.7887C32.2384 88.0727 37.7221 88.2146 43.2059 88.2146C48.6896 88.2146 54.1737 88.0725 59.6193 87.7887C62.3358 87.6462 64.5562 85.5881 64.8991 82.8956C65.1034 81.299 65.2452 79.6955 65.3273 78.0894C66.1616 78.1144 67.0029 78.1278 67.8402 78.1278C81.2268 78.1278 89.9607 74.9956 90.326 74.8623C90.7305 74.7145 90.9997 74.3298 90.9997 73.8991C91 65.422 88.1904 58.5073 85.8331 54.1993ZM63.2943 26.3739C65.8854 28.735 69.7951 28.735 72.3879 26.3742L73.334 25.513C73.5262 25.338 73.7295 25.1792 73.9416 25.0368C73.5854 26.3953 73.0391 28.2581 72.3091 30.1155C70.5998 34.4651 68.9859 36.095 67.8406 36.6625C66.6954 36.095 65.0815 34.4651 63.3726 30.1155C62.6428 28.2578 62.0963 26.3938 61.7401 25.0347C61.9512 25.1773 62.1547 25.3365 62.3486 25.5128L63.2943 26.3739ZM31.5678 39.1889C31.5678 36.9606 32.4209 35.3635 34.0352 34.5704C34.7103 34.2387 35.4819 34.0777 36.276 34.0777C37.603 34.0777 38.9927 34.5274 40.0974 35.3802C41.2066 36.2363 42.9548 38.2263 42.2007 41.9336C41.7874 43.9658 40.7762 45.7338 39.4566 47.3189C35.0247 44.8353 31.5678 42.1986 31.5678 39.1889ZM26.8999 63.9545C28.7277 63.8596 30.5563 63.7803 32.3348 63.7188C32.9008 63.6991 33.3437 63.2246 33.324 62.6585C33.3043 62.0924 32.8333 61.6513 32.2637 61.6692C30.8133 61.7194 29.3297 61.7819 27.8405 61.8543C28.1047 59.3586 30.9608 57.178 34.2153 54.6959C36.1271 53.2376 38.1566 51.6896 39.901 49.897C41.4724 50.7345 43.1131 51.5504 44.729 52.354C46.3465 53.1583 47.977 53.9692 49.5235 54.7943C48.5076 56.7245 47.5086 58.9706 46.6817 61.501C43.2322 61.4626 39.7884 61.4775 36.3703 61.5526C35.804 61.565 35.3551 62.034 35.3676 62.6003C35.38 63.1666 35.8467 63.6201 36.4151 63.6029C44.0593 63.4351 51.8306 63.5535 59.5129 63.9545C61.2378 64.0439 62.6477 65.3491 62.8654 67.0584C63.0093 68.1838 63.1201 69.3127 63.2013 70.4436C63.1184 71.5784 63.0059 72.705 62.8654 73.7949C62.6478 75.5029 61.2375 76.8073 59.5113 76.8969C57.1894 77.0182 54.8569 77.1126 52.5574 77.1817C52.6066 75.7337 52.5748 74.2796 52.4587 72.8398C52.3019 70.8923 50.722 69.3436 48.7841 69.2377C45.466 69.0561 42.1012 69.056 38.7839 69.2377C36.8458 69.3436 35.2661 70.8923 35.1092 72.8398C34.9923 74.2905 34.9607 75.7558 35.0115 77.2149C32.3111 77.143 29.5887 77.0377 26.8999 76.8969C25.1742 76.8075 23.7637 75.503 23.5463 73.7945C23.4088 72.7174 23.296 71.5945 23.2101 70.4559C23.2913 69.3209 23.4021 68.1879 23.5463 67.0584C23.7648 65.3494 25.1753 64.0439 26.8999 63.9545ZM51.3281 55.7891C54.6501 57.6901 57.3342 59.6788 58.2362 61.8408C55.1099 61.6915 51.9719 61.588 48.835 61.5318C49.5742 59.3911 50.4441 57.4665 51.3281 55.7891ZM50.4144 78.7691C50.3395 79.6989 49.5904 80.4379 48.672 80.4882C48.6718 80.4882 48.6718 80.4882 48.6718 80.4882C45.4284 80.6657 42.1395 80.6657 38.8957 80.4882C37.9773 80.4379 37.2282 79.6989 37.1533 78.7691C36.9992 76.8566 36.9992 74.917 37.1533 73.0045C37.2282 72.0747 37.9773 71.3357 38.8959 71.2854C40.5175 71.1966 42.1507 71.1522 43.7839 71.1522C45.417 71.1522 47.0502 71.1966 48.672 71.2854C49.5904 71.3357 50.3395 72.0747 50.4144 73.0045C50.5685 74.917 50.5685 76.8566 50.4144 78.7691ZM59.5126 85.7402C48.6925 86.3043 37.7203 86.3043 26.9006 85.7402C25.1757 85.6497 23.7648 84.3438 23.5463 82.6352C23.3202 80.8641 23.1734 79.0843 23.1023 77.302C24.0574 78.2596 25.3559 78.8705 26.7932 78.945C29.5634 79.0902 32.3698 79.1979 35.1514 79.2703C35.4521 81.057 36.9589 82.4362 38.7837 82.5361C40.4427 82.6268 42.1134 82.6722 43.7839 82.6722C45.4543 82.6722 47.1251 82.6268 48.7838 82.5361C50.6199 82.4356 52.1335 81.04 52.4212 79.2376C54.7995 79.1677 57.2146 79.0707 59.6176 78.945C61.0558 78.8705 62.3548 78.2592 63.3101 77.3013C63.2389 79.0839 63.0918 80.8641 62.8652 82.6356C62.6476 84.3441 61.2375 85.6497 59.5126 85.7402ZM85.5837 74.0783C85.3728 70.9956 84.983 67.9242 84.421 64.9307C84.3166 64.3741 83.7812 64.0079 83.224 64.1122C82.6674 64.2166 82.3009 64.7526 82.4055 65.3092C82.9714 68.3241 83.3565 71.421 83.5567 74.5275C82.7671 74.6892 81.8718 74.8573 80.881 75.0208C80.757 70.8969 80.3169 66.7907 79.5679 62.7976C79.4634 62.241 78.9275 61.8747 78.371 61.9787C77.8144 62.0832 77.4479 62.619 77.5523 63.1756C78.2965 67.1443 78.7284 71.2283 78.8388 75.3292C75.7812 75.7488 72.0473 76.0767 67.8403 76.0767C67.027 76.0767 66.2098 76.0638 65.3993 76.0396C65.4572 72.9535 65.2914 69.8638 64.8994 66.7992C64.5919 64.3845 62.7755 62.4824 60.4463 62.0122C59.6935 58.8788 56.4764 56.3617 52.3297 53.9953C53.9686 51.2213 55.502 49.3502 56.1715 48.5825C60.0446 49.227 63.9427 49.5502 67.8409 49.5502C71.7387 49.5502 75.6366 49.2271 79.5095 48.5826C80.279 49.4625 82.1837 51.789 84.0673 55.2455C86.2256 59.2059 88.7857 65.4831 88.9414 73.1618C88.2744 73.3722 87.1309 73.7089 85.5837 74.0783Z" fill="url(#paint0_linear_4787_10825)"/>
<path d="M47.8987 72.8407C46.529 72.7765 45.1447 72.7441 43.7839 72.7441C42.4229 72.7441 41.0385 72.7765 39.6688 72.8407C39.1457 72.8651 38.7251 73.2798 38.6931 73.8027C38.609 75.1855 38.609 76.588 38.6931 77.9709C38.725 78.4938 39.1457 78.9085 39.6688 78.9329C41.0374 78.9969 42.422 79.0295 43.7839 79.0295C45.1456 79.0295 46.5301 78.997 47.8987 78.9329C48.4218 78.9085 48.8423 78.4938 48.8743 77.9709C48.9584 76.588 48.9584 75.1856 48.8743 73.8027C48.8425 73.28 48.4219 72.8651 47.8987 72.8407ZM46.8701 76.923C44.809 76.9969 42.7584 76.9969 40.6976 76.923C40.6756 76.2332 40.6756 75.5405 40.6976 74.8508C42.7598 74.7767 44.8079 74.7767 46.8701 74.8508C46.8921 75.5405 46.8921 76.2332 46.8701 76.923Z" fill="url(#paint1_linear_4787_10825)"/>
<rect x="1" y="1" width="109" height="109" rx="54.5" stroke="#EDEDED"/>
<defs>
<linearGradient id="paint0_linear_4787_10825" x1="56" y1="22.0786" x2="56" y2="88.2146" gradientUnits="userSpaceOnUse">
<stop stop-color="#155263"/>
<stop offset="1" stop-color="#D37217"/>
</linearGradient>
<linearGradient id="paint1_linear_4787_10825" x1="43.7837" y1="72.7441" x2="43.7837" y2="79.0295" gradientUnits="userSpaceOnUse">
<stop stop-color="#155263"/>
<stop offset="1" stop-color="#D37217"/>
</linearGradient>
</defs>
</svg>
