<svg width="61" height="60" viewBox="0 0 61 60" fill="none" xmlns="http://www.w3.org/2000/svg">
<g opacity="0.3" clip-path="url(#clip0_4586_10340)">
<path d="M60.5085 47.9485C60.5085 51.541 58.092 54.7597 54.5249 55.6885L40.203 59.416C39.0408 59.7184 37.849 59.7492 36.7095 59.5348C36.6106 59.4909 34.2576 59.2332 32.2803 57.0652C12.0532 34.8816 12.5935 35.4899 12.6063 35.4815C8.00063 37.45 4.11849 32.7025 2.31356 29.903C1.55938 28.7347 1.12349 27.3887 1.05574 25.9992C0.91896 23.1895 1.19123 20.5 1.57855 18.2541C2.19136 14.7028 5.10405 12.0069 8.68195 11.6582L24.4981 10.114C27.0074 9.86858 29.4859 10.8209 31.1848 12.6846L58.4211 42.5631C59.7799 44.0535 60.5085 45.98 60.5085 47.9485Z" fill="#E9E9FD"/>
<path d="M38.5208 53.4336L36.7095 59.5348L35.4581 59.1935C34.2642 58.7589 33.1687 58.0392 32.2803 57.0652C12.0532 34.8816 12.5935 35.4899 12.6063 35.4815C8.00063 37.45 4.11849 32.7025 2.31356 29.903C1.55938 28.7347 1.12349 27.3887 1.05574 25.9992C0.91896 23.1895 1.19123 20.5 1.57855 18.2541C1.9467 16.1206 3.14572 14.294 4.82155 13.1013L36.5714 45.5671C38.6001 47.6417 39.3466 50.6519 38.5208 53.4336Z" fill="#D7D7FD"/>
<path d="M14.9166 21.0046L24.0906 30.2377C24.3189 30.4675 24.641 30.5782 24.9624 30.5373L40.9014 28.5079C41.7508 28.3998 42.1153 27.3709 41.5236 26.752L32.8523 17.6844C32.6271 17.4488 32.3047 17.3321 31.9808 17.3687L15.5392 19.2325C14.6726 19.3309 14.3019 20.3859 14.9166 21.0046Z" fill="#8786FA"/>
<path d="M26.9434 12.9262C24.9426 13.097 11.8953 14.2104 9.79277 14.3898C9.79277 14.3898 15.2242 5.07631 7.00996 1.00882C17.2749 0.668289 12.3712 0.830759 27.6631 0.324944C27.6631 0.324816 32.2777 4.10609 26.9434 12.9262Z" fill="#C7C5FC"/>
<path d="M15.26 13.9232L9.79277 14.3897C9.79277 14.3897 15.2242 5.07618 7.00996 1.0087L14.6784 0.754318C16.6201 3.56538 18.4672 8.25795 15.26 13.9232Z" fill="#BCBAFC"/>
<path d="M58.61 42.3907L31.3737 12.5123C30.5805 11.6421 29.5945 10.9468 28.5116 10.4844C29.9593 7.19952 29.9179 4.79661 29.5524 3.25859C29.0515 1.15096 27.8753 0.167198 27.8255 0.126421C27.7775 0.0871782 27.7186 0.0667257 27.6549 0.0686431L7.00127 0.75265C6.73692 0.761343 6.65882 1.11977 6.89632 1.23725C10.9775 3.25859 12.0501 6.85618 10.8177 11.1922L8.65715 11.4037C4.97072 11.764 1.95641 14.5631 1.32673 18.2105C0.857859 20.929 0.680817 23.5537 0.800464 26.0116C0.87013 27.4402 1.31919 28.8336 2.09881 30.0414C4.55426 33.8506 8.3032 37.4581 12.5342 35.7882L32.0916 57.2373C34.1687 59.5149 37.304 60.4347 40.2676 59.6633L54.5894 55.9358C58.2408 54.9852 60.7643 51.6844 60.7643 47.9485C60.7642 45.8883 59.9991 43.9145 58.61 42.3907ZM11.4695 5.58915C10.9274 3.78243 9.74548 2.32046 7.95103 1.23277L27.5683 0.583151C27.8152 0.819888 28.6754 1.74089 29.0636 3.4139C29.4818 5.21627 29.4228 8.28274 26.7918 12.6831L10.2418 14.0948C10.8753 12.8489 12.5231 9.10045 11.4695 5.58915ZM60.0041 49.8912C59.3007 52.6072 57.1764 54.7339 54.4604 55.441L40.1386 59.1685C37.35 59.8945 34.4113 59.0225 32.4692 56.8928L13.0266 35.5695C14.1132 35.0374 15.1829 34.1638 16.2108 32.9659C16.3027 32.8587 16.2904 32.6972 16.1831 32.6055C16.0762 32.5134 15.9147 32.5258 15.8227 32.6329C14.7446 33.8895 13.6275 34.7696 12.5026 35.2486C12.5025 35.2486 12.5022 35.2486 12.5021 35.2487C8.50657 36.9542 4.89083 33.4296 2.52844 29.7642C1.79739 28.6319 1.37646 27.3256 1.31114 25.9867C1.19341 23.566 1.36815 20.979 1.8305 18.2974C2.42107 14.8761 5.24875 12.2505 8.70688 11.9125L10.6563 11.7218C10.171 13.2163 9.58505 14.2398 9.57253 14.2611C9.47346 14.4313 9.59643 14.6455 9.79341 14.6455C9.81195 14.6455 9.10621 14.7051 26.9654 13.1816C27.047 13.1746 27.1201 13.1291 27.1625 13.0592C27.6088 12.3211 27.9845 11.6184 28.3 10.95C29.3201 11.3836 30.2491 12.0374 30.996 12.8569L58.2323 42.7353C60.0309 44.7083 60.65 47.4081 60.0041 49.8912Z" fill="#3A00D9"/>
<path d="M10.525 18.5676C10.4263 18.4667 10.2643 18.4647 10.1635 18.5637C10.0625 18.6624 10.0607 18.8242 10.1595 18.9252L36.3888 45.7453C38.3512 47.7518 39.0741 50.6697 38.2753 53.3604L37.7409 55.1606C37.7008 55.2961 37.778 55.4382 37.9133 55.4783C38.0491 55.5189 38.191 55.4409 38.2312 55.306L38.7655 53.5058C39.6169 50.6375 38.8463 47.5268 36.7542 45.3876L10.525 18.5676Z" fill="#3A00D9"/>
<path d="M23.9092 30.4178C24.1853 30.6957 24.5871 30.8421 24.9947 30.7909L40.9336 28.7615C41.9905 28.6269 42.4448 27.3452 41.7083 26.5753L33.037 17.5077C32.7582 17.2161 32.3524 17.0686 31.952 17.1146L15.5104 18.9786C14.4316 19.1008 13.9702 20.4148 14.7352 21.1847L23.9092 30.4178ZM15.5679 19.4867L32.0095 17.6229C32.2523 17.5954 32.4985 17.6844 32.6675 17.8611L41.3388 26.9289C41.7858 27.3962 41.5122 28.1725 40.869 28.2543L24.93 30.2837C24.6889 30.3152 24.443 30.2299 24.272 30.0576L15.0979 20.8244C14.6346 20.3579 14.9102 19.5612 15.5679 19.4867Z" fill="#3A00D9"/>
<path d="M29.0112 34.2276C29.029 34.3637 29.1527 34.4657 29.2979 34.448L44.7674 32.4209C44.9074 32.4025 45.006 32.2741 44.9876 32.1341C44.9694 31.9942 44.8405 31.8963 44.7009 31.9138L29.2314 33.9409C29.0915 33.9593 28.9928 34.0876 29.0112 34.2276Z" fill="#3A00D9"/>
<path d="M31.9324 37.2207C31.9502 37.3568 32.0739 37.4588 32.2192 37.4411L47.6886 35.414C47.8286 35.3955 47.9273 35.2672 47.9089 35.1272C47.8905 34.9873 47.7621 34.8895 47.6222 34.9069L32.1527 36.934C32.0127 36.9524 31.9142 37.0807 31.9324 37.2207Z" fill="#3A00D9"/>
<path d="M50.6526 37.7817L35.1831 39.8088C35.0431 39.8272 34.9445 39.9556 34.9629 40.0955C34.9806 40.2317 35.1044 40.3337 35.2496 40.3159L50.7191 38.2888C50.859 38.2704 50.9577 38.1421 50.9393 38.0021C50.9209 37.8621 50.7927 37.7645 50.6526 37.7817Z" fill="#3A00D9"/>
<path d="M14.3762 5.83087C14.5407 5.83087 13.6619 5.86116 27.0267 5.29757C27.1678 5.29169 27.2772 5.17243 27.2713 5.03143C27.2654 4.89031 27.1469 4.78102 27.0051 4.78677L14.3656 5.31981C14.2244 5.32569 14.115 5.44496 14.1209 5.58595C14.1267 5.72337 14.2399 5.83087 14.3762 5.83087Z" fill="#3A00D9"/>
<path d="M14.0726 9.77564C14.0872 9.77564 13.7176 9.79302 26.0164 9.20259C26.1576 9.19568 26.2663 9.07604 26.2596 8.93492C26.2528 8.79379 26.1303 8.68514 25.992 8.69179L14.0607 9.26458C13.9196 9.27149 13.8108 9.39113 13.8176 9.53226C13.824 9.66916 13.937 9.77564 14.0726 9.77564Z" fill="#3A00D9"/>
</g>
<defs>
<clipPath id="clip0_4586_10340">
<rect width="60" height="60" fill="white" transform="translate(0.76416)"/>
</clipPath>
</defs>
</svg>
