<svg width="111" height="111" viewBox="0 0 111 111" fill="none" xmlns="http://www.w3.org/2000/svg">
<path d="M88.3868 40.01C88.1704 39.7835 87.8707 39.6548 87.5569 39.6548H54.2783C53.9644 39.6548 53.6645 39.7835 53.4484 40.01C53.2315 40.2364 53.1171 40.5422 53.1317 40.856L53.9606 58.6788C53.9898 59.311 54.5355 59.8097 55.1603 59.7716C55.7935 59.7423 56.2828 59.2044 56.2536 58.5712L55.4805 41.95H86.3557L84.167 88.9991H58.3953C57.7616 88.9991 57.2477 89.5123 57.2477 90.1467C57.2477 90.7811 57.7616 91.2943 58.3953 91.2943H85.262C85.8751 91.2943 86.3797 90.8123 86.4084 90.2003L88.7035 40.856C88.7179 40.5422 88.6038 40.2364 88.3868 40.01Z" fill="url(#paint0_linear_4787_10639)"/>
<path d="M66.9017 82.114H25.5903C24.9566 82.114 24.4427 82.6272 24.4427 83.2616C24.4427 87.6905 28.0462 91.2944 32.4755 91.2944H60.0165C64.4457 91.2944 68.0493 87.6903 68.0493 83.2616C68.0491 82.6272 67.5354 82.114 66.9017 82.114ZM60.0165 88.9993H32.4755C29.7045 88.9993 27.3859 87.0246 26.8532 84.409H65.6388C65.1058 87.0246 62.7872 88.9993 60.0165 88.9993Z" fill="url(#paint1_linear_4787_10639)"/>
<path d="M66.9017 75.2288H25.5902C23.0594 75.2288 21 77.2874 21 79.819C21 82.3505 23.0592 84.4092 25.5902 84.4092H66.9017C69.4325 84.4092 71.4919 82.3505 71.4919 79.819C71.4919 77.2874 69.4325 75.2288 66.9017 75.2288ZM66.9017 82.114H25.5902C24.3244 82.114 23.2952 81.0841 23.2952 79.819C23.2952 78.5539 24.3246 77.524 25.5902 77.524H66.9017C68.1674 77.524 69.1967 78.5539 69.1967 79.819C69.1967 81.0841 68.1673 82.114 66.9017 82.114Z" fill="url(#paint2_linear_4787_10639)"/>
<path d="M70.3439 53.4253C65.1082 53.4253 60.539 56.9624 59.2322 62.0253C59.0735 62.6395 59.4428 63.2647 60.0563 63.4238C60.6714 63.5809 61.2957 63.2132 61.4544 62.599C62.4993 58.5487 66.1547 55.7203 70.3439 55.7203C75.4059 55.7203 79.5241 59.8385 79.5241 64.9006C79.5241 69.9626 75.4059 74.0808 70.3439 74.0808C69.2911 74.0808 68.26 73.905 67.28 73.5576C66.6832 73.3481 66.0266 73.6586 65.8153 74.2558C65.6035 74.8531 65.9164 75.5087 66.5136 75.7205C67.7404 76.1552 69.029 76.376 70.344 76.376C76.6719 76.376 81.8192 71.2279 81.8192 64.9006C81.8192 58.5733 76.6717 53.4253 70.3439 53.4253Z" fill="url(#paint3_linear_4787_10639)"/>
<path d="M48.541 56.8682H43.9508C33.1938 56.8682 24.4427 65.6193 24.4427 76.3763C24.4427 77.0105 24.9566 77.5239 25.5903 77.5239H66.9017C67.5354 77.5239 68.0493 77.0107 68.0493 76.3763C68.0491 65.6194 59.298 56.8682 48.541 56.8682ZM26.7759 75.2289C27.3686 66.2703 34.845 59.1634 43.9508 59.1634H48.541C57.6468 59.1634 65.1233 66.2703 65.716 75.2289H26.7759Z" fill="url(#paint4_linear_4787_10639)"/>
<path d="M37.0655 63.7532H34.7704V66.0482H37.0655V63.7532Z" fill="url(#paint5_linear_4787_10639)"/>
<path d="M35.918 68.343H33.623V70.638H35.918V68.343Z" fill="url(#paint6_linear_4787_10639)"/>
<path d="M49.6885 62.6055H47.3935V64.9005H49.6885V62.6055Z" fill="url(#paint7_linear_4787_10639)"/>
<path d="M56.5736 68.343H54.2786V70.638H56.5736V68.343Z" fill="url(#paint8_linear_4787_10639)"/>
<path d="M46.2458 69.4907H43.9508V71.7857H46.2458V69.4907Z" fill="url(#paint9_linear_4787_10639)"/>
<path d="M89.8524 35.0649H50.836C50.2023 35.0649 49.6884 35.5781 49.6884 36.2125V40.8028C49.6884 41.437 50.2023 41.9504 50.836 41.9504H89.8524C90.4862 41.9504 91 41.4372 91 40.8028V36.2125C91 35.5781 90.4862 35.0649 89.8524 35.0649ZM88.7048 39.655H51.9836V37.36H88.7048V39.655Z" fill="url(#paint10_linear_4787_10639)"/>
<path d="M59.9911 35.9714L56.5485 19.9059C56.4157 19.2873 55.8067 18.8906 55.1857 19.0253C54.5661 19.1576 54.1711 19.7683 54.3039 20.388L57.7465 36.4535C57.8618 36.9915 58.338 37.3601 58.8677 37.3601C58.9472 37.3601 59.0286 37.352 59.1093 37.3342C59.729 37.2019 60.1241 36.591 59.9911 35.9714Z" fill="url(#paint11_linear_4787_10639)"/>
<rect x="1" y="1" width="109" height="109" rx="54.5" stroke="#EDEDED"/>
<defs>
<linearGradient id="paint0_linear_4787_10639" x1="70.9176" y1="39.6548" x2="70.9176" y2="91.2943" gradientUnits="userSpaceOnUse">
<stop stop-color="#155263"/>
<stop offset="1" stop-color="#D37217"/>
</linearGradient>
<linearGradient id="paint1_linear_4787_10639" x1="46.246" y1="82.114" x2="46.246" y2="91.2944" gradientUnits="userSpaceOnUse">
<stop stop-color="#155263"/>
<stop offset="1" stop-color="#D37217"/>
</linearGradient>
<linearGradient id="paint2_linear_4787_10639" x1="46.2459" y1="75.2288" x2="46.2459" y2="84.4092" gradientUnits="userSpaceOnUse">
<stop stop-color="#155263"/>
<stop offset="1" stop-color="#D37217"/>
</linearGradient>
<linearGradient id="paint3_linear_4787_10639" x1="70.5073" y1="53.4253" x2="70.5073" y2="76.376" gradientUnits="userSpaceOnUse">
<stop stop-color="#155263"/>
<stop offset="1" stop-color="#D37217"/>
</linearGradient>
<linearGradient id="paint4_linear_4787_10639" x1="46.246" y1="56.8682" x2="46.246" y2="77.5239" gradientUnits="userSpaceOnUse">
<stop stop-color="#155263"/>
<stop offset="1" stop-color="#D37217"/>
</linearGradient>
<linearGradient id="paint5_linear_4787_10639" x1="35.918" y1="63.7532" x2="35.918" y2="66.0482" gradientUnits="userSpaceOnUse">
<stop stop-color="#155263"/>
<stop offset="1" stop-color="#D37217"/>
</linearGradient>
<linearGradient id="paint6_linear_4787_10639" x1="34.7705" y1="68.343" x2="34.7705" y2="70.638" gradientUnits="userSpaceOnUse">
<stop stop-color="#155263"/>
<stop offset="1" stop-color="#D37217"/>
</linearGradient>
<linearGradient id="paint7_linear_4787_10639" x1="48.541" y1="62.6055" x2="48.541" y2="64.9005" gradientUnits="userSpaceOnUse">
<stop stop-color="#155263"/>
<stop offset="1" stop-color="#D37217"/>
</linearGradient>
<linearGradient id="paint8_linear_4787_10639" x1="55.4261" y1="68.343" x2="55.4261" y2="70.638" gradientUnits="userSpaceOnUse">
<stop stop-color="#155263"/>
<stop offset="1" stop-color="#D37217"/>
</linearGradient>
<linearGradient id="paint9_linear_4787_10639" x1="45.0983" y1="69.4907" x2="45.0983" y2="71.7857" gradientUnits="userSpaceOnUse">
<stop stop-color="#155263"/>
<stop offset="1" stop-color="#D37217"/>
</linearGradient>
<linearGradient id="paint10_linear_4787_10639" x1="70.3442" y1="35.0649" x2="70.3442" y2="41.9504" gradientUnits="userSpaceOnUse">
<stop stop-color="#155263"/>
<stop offset="1" stop-color="#D37217"/>
</linearGradient>
<linearGradient id="paint11_linear_4787_10639" x1="57.1475" y1="18.999" x2="57.1475" y2="37.3601" gradientUnits="userSpaceOnUse">
<stop stop-color="#155263"/>
<stop offset="1" stop-color="#D37217"/>
</linearGradient>
</defs>
</svg>
