<svg width="111" height="111" viewBox="0 0 111 111" fill="none" xmlns="http://www.w3.org/2000/svg">
<path d="M87.5161 67.6314L84.2419 66.4256C85.0546 64.7901 85.4796 62.9894 85.4838 61.1632V59.5679L87.165 57.4656C88.9966 55.1702 89.9959 52.3217 90 49.3851C90.0044 47.686 89.6717 46.0028 89.0214 44.4331C88.371 42.8633 87.4157 41.4381 86.2109 40.24L83.9404 37.9695C83.4492 37.4785 82.8552 37.1027 82.2011 36.869C81.5471 36.6353 80.8494 36.5496 80.1582 36.618C79.4671 36.6865 78.7997 36.9074 78.2043 37.2649C77.6088 37.6224 77.1 38.1075 76.7147 38.6853L76.5622 38.9111C74.8187 39.0589 73.1293 39.5904 71.6152 40.4675C70.1011 41.3447 68.7998 42.5459 67.8043 43.985L60.4713 54.6182C60.4137 54.5482 60.3482 54.4883 60.2963 54.4138L42.1991 28.1785C41.2036 26.7394 39.9022 25.5383 38.3882 24.6611C36.8741 23.7839 35.1847 23.2524 33.4412 23.1047L33.2887 22.8789C32.9035 22.3009 32.3948 21.8156 31.7993 21.458C31.2039 21.1004 30.5365 20.8794 29.8452 20.811C29.154 20.7425 28.4562 20.8282 27.8022 21.0621C27.1481 21.2959 26.5541 21.6719 26.0629 22.1631L23.7891 24.4313C22.584 25.6297 21.6286 27.0553 20.9782 28.6254C20.3278 30.1956 19.9954 31.8792 20 33.5787C20.0041 36.5153 21.0034 39.3638 22.835 41.6592L24.5162 43.7614V45.3567C24.5183 47.1918 24.9453 49.0015 25.7638 50.644C26.4268 51.9727 26.7727 53.437 26.7742 54.9219V73.849C26.7742 74.1484 26.8932 74.4356 27.1049 74.6473C27.3167 74.859 27.6038 74.978 27.9033 74.978H32.4194C32.7188 74.978 33.006 74.859 33.2177 74.6473C33.4295 74.4356 33.5484 74.1484 33.5484 73.849V56.218C33.5457 54.8107 33.9242 53.4288 34.6439 52.2194C35.3635 51.0099 36.3973 50.018 37.6355 49.349L50.0628 69.7043L49.7071 70.2203C49.4155 70.643 49.0256 70.9886 48.5709 71.2274C48.1162 71.4661 47.6103 71.5909 47.0968 71.5909C45.7448 71.595 44.4393 72.0848 43.4182 72.9709C42.3971 73.8571 41.7284 75.0807 41.5341 76.4186L22.4839 83.4378C21.6493 83.7453 20.9494 84.3365 20.5068 85.108C20.0641 85.8795 19.9069 86.7821 20.0626 87.6578C20.2183 88.5335 20.6771 89.3266 21.3585 89.8982C22.04 90.4698 22.9008 90.7835 23.7902 90.7844H51.0157C52.7678 90.7798 54.4893 90.3244 56.0144 89.4619C57.5395 88.5993 58.817 87.3588 59.7239 85.8596L66.366 74.978H76.4516V89.6554C76.4516 89.9548 76.5705 90.242 76.7823 90.4537C76.994 90.6655 77.2812 90.7844 77.5806 90.7844H82.0967C82.3962 90.7844 82.6834 90.6655 82.8951 90.4537C83.1068 90.242 83.2258 89.9548 83.2258 89.6554V74.978H86.2098C87.0993 74.9771 87.96 74.6633 88.6415 74.0917C89.323 73.5201 89.7817 72.7271 89.9374 71.8514C90.0931 70.9756 89.9359 70.0731 89.4932 69.3016C89.0506 68.5301 88.3507 67.9389 87.5161 67.6314ZM80.9677 84.0102H78.7097V72.0245C78.7124 70.4451 78.3423 68.8874 77.6296 67.478C76.9169 66.0686 75.8816 64.8474 74.6079 63.9135L83.2258 60.7827V61.1632C83.2225 62.6485 82.8747 64.1129 82.2096 65.4411C81.3931 67.084 80.9681 68.8937 80.9677 70.7283V84.0102ZM40.3407 29.46L58.4345 55.6953C58.6437 55.997 58.8831 56.2766 59.1492 56.5296L56.7782 59.9596C56.2434 59.6968 55.7932 59.289 55.4788 58.7828C55.1644 58.2766 54.9985 57.6923 55 57.0964C55.0009 56.0182 54.6819 54.964 54.0832 54.0672L35.1878 25.7252C37.2798 26.3486 39.0972 27.6658 40.3407 29.46ZM29.0323 72.7199V70.4619H31.2904V72.7199H29.0323ZM31.2904 56.218V68.2038H29.0323V54.9219C29.0319 53.0872 28.6069 51.2776 27.7904 49.6346C27.1253 48.3065 26.7775 46.8421 26.7742 45.3567V44.9763L35.3921 48.1071C34.1184 49.0409 33.0831 50.2622 32.3704 51.6716C31.6577 53.081 31.2876 54.6387 31.2904 56.218ZM39.0287 47.293C38.8951 47.0747 38.6913 46.9083 38.4507 46.8211L26.3283 42.4122L24.5975 40.2479C23.0858 38.3534 22.2612 36.0024 22.2581 33.5787C22.2546 32.176 22.5292 30.7866 23.066 29.4907C23.6028 28.1948 24.3912 27.0182 25.3855 26.0289L27.6571 23.7573C27.9181 23.514 28.2279 23.3291 28.566 23.2148C28.904 23.1006 29.2625 23.0597 29.6175 23.0949C29.9726 23.13 30.3161 23.2404 30.6252 23.4187C30.9343 23.5969 31.2018 23.839 31.41 24.1287L52.2034 55.3193C52.5548 55.8453 52.7422 56.4638 52.7419 57.0964C52.7406 58.0582 52.9949 59.0031 53.4787 59.8343C53.9626 60.6655 54.6586 61.3533 55.4956 61.827L51.4684 67.6664L39.0287 47.293ZM47.0968 73.849C47.9762 73.8497 48.8426 73.6363 49.6211 73.2274C50.3996 72.8184 51.067 72.2262 51.5655 71.5017L69.6593 45.2664C70.9028 43.4723 72.7202 42.155 74.8122 41.5316L55.9168 69.8703C55.3175 70.768 54.9984 71.8235 55 72.9028C54.9991 73.7524 54.6612 74.5668 54.0605 75.1676C53.4598 75.7683 52.6453 76.1061 51.7958 76.107H43.9174C44.1501 75.4489 44.5804 74.8787 45.1496 74.4746C45.7187 74.0704 46.3988 73.8519 47.0968 73.849ZM57.7921 84.6877C57.0874 85.8551 56.094 86.8216 54.9076 87.4939C53.7211 88.1662 52.3816 88.5218 51.0179 88.5264H23.7902C23.4307 88.5261 23.0828 88.3994 22.8072 88.1685C22.5317 87.9376 22.3462 87.6171 22.2831 87.2632C22.2199 86.9093 22.2833 86.5445 22.462 86.2326C22.6407 85.9207 22.9235 85.6815 23.2607 85.557L42.7816 78.3651H51.7958C53.244 78.3636 54.6325 77.7876 55.6566 76.7636C56.6806 75.7395 57.2566 74.3511 57.2581 72.9028C57.2578 72.2702 57.4452 71.6518 57.7966 71.1257L78.59 39.9351C78.7982 39.6454 79.0658 39.4033 79.3748 39.2251C79.6839 39.0468 80.0274 38.9364 80.3825 38.9013C80.7375 38.8662 81.096 38.9071 81.434 39.0213C81.7721 39.1355 82.0819 39.3204 82.3429 39.5637L84.6145 41.8353C85.6088 42.8246 86.3972 44.0012 86.934 45.2971C87.4708 46.593 87.7454 47.9825 87.7419 49.3851C87.7389 51.8088 86.9142 54.1598 85.4025 56.0543L83.6774 58.2187L71.5493 62.6275C71.3087 62.7148 71.1049 62.8812 70.9713 63.0995L57.7921 84.6877ZM67.7445 72.7199L72.3645 65.1554C73.6027 65.8244 74.6365 66.8164 75.3561 68.0258C76.0758 69.2353 76.4543 70.6171 76.4516 72.0245V72.7199H67.7445ZM78.7097 88.5264V86.2683H80.9677V88.5264H78.7097ZM86.2098 72.7199H83.2258V70.7283C83.2267 69.995 83.3119 69.2643 83.4798 68.5504L86.7393 69.7506C87.0766 69.8751 87.3593 70.1142 87.538 70.4262C87.7167 70.7381 87.7801 71.1029 87.7169 71.4568C87.6538 71.8107 87.4683 72.1312 87.1928 72.3621C86.9172 72.593 86.5693 72.7197 86.2098 72.7199Z" fill="url(#paint0_linear_4787_10846)"/>
<rect x="0.666626" y="1" width="109" height="109" rx="54.5" stroke="#EDEDED"/>
<defs>
<linearGradient id="paint0_linear_4787_10846" x1="55" y1="20.7881" x2="55" y2="90.7844" gradientUnits="userSpaceOnUse">
<stop stop-color="#155263"/>
<stop offset="1" stop-color="#D37217"/>
</linearGradient>
</defs>
</svg>
