<svg width="111" height="111" viewBox="0 0 111 111" fill="none" xmlns="http://www.w3.org/2000/svg">
<path d="M55 46.8331C51.1401 46.8331 47.9999 43.6935 47.9999 39.8336C47.9999 35.9737 51.1401 32.8335 55 32.8335C58.8599 32.8335 62.0002 35.9737 62.0002 39.8336C62.0002 43.6935 58.8599 46.8331 55 46.8331ZM55 35.1667C52.4272 35.1667 50.333 37.2595 50.333 39.8336C50.333 42.4071 52.4272 44.4999 55 44.4999C57.5728 44.4999 59.6663 42.4071 59.6663 39.8336C59.6663 37.2595 57.5728 35.1667 55 35.1667Z" fill="url(#paint0_linear_4787_10809)"/>
<path d="M63.3506 55.3972C63.0128 55.3972 62.677 55.2516 62.4467 54.9686C62.0388 54.4699 62.1123 53.7349 62.6116 53.327C62.7191 53.2396 62.8092 53.1321 62.8806 53.0093L74.0197 33.0823C74.1832 32.7986 74.2253 32.4842 74.1445 32.1838C74.0637 31.8827 73.8708 31.631 73.6005 31.4748C73.043 31.1504 72.3287 31.3453 72.0076 31.9021L62.2411 49.3737C61.9267 49.9344 61.215 50.1347 60.6529 49.8223C60.0902 49.5079 59.8892 48.7969 60.2037 48.2341L69.9789 30.7492C70.9515 29.0656 73.0958 28.4888 74.7674 29.4541C75.5778 29.922 76.1566 30.6777 76.3989 31.5803C76.6412 32.4835 76.5164 33.4268 76.0484 34.2365L64.91 54.1622C64.6891 54.5447 64.416 54.8664 64.0889 55.1341C63.872 55.311 63.6103 55.3972 63.3506 55.3972Z" fill="url(#paint1_linear_4787_10809)"/>
<path d="M30.4127 91.5728C29.5315 91.5728 28.6516 91.2423 27.974 90.5821C27.3045 89.9292 26.9293 89.0554 26.9179 88.1201C26.9059 87.1855 27.2591 86.303 27.912 85.6327L40.6478 72.2039C41.0918 71.7366 41.8301 71.7159 42.2967 72.1605C42.7647 72.6038 42.7841 73.3421 42.3408 73.8101L29.5936 87.2509C29.1329 87.7222 29.1423 88.4632 29.6029 88.9118C30.0629 89.3618 30.8025 89.3504 31.2531 88.8911L44.1165 75.3275C44.5598 74.8608 45.2988 74.8402 45.7654 75.2848C46.2334 75.728 46.2528 76.4664 45.8095 76.9343L32.9341 90.5093C32.2418 91.2176 31.3266 91.5728 30.4127 91.5728Z" fill="url(#paint2_linear_4787_10809)"/>
<path d="M47.0318 55.3918C46.7708 55.3918 46.5078 55.3051 46.2908 55.1262C45.9684 54.8605 45.698 54.5407 45.4871 54.1762L34.3313 34.2219C33.3747 32.565 33.9495 30.4201 35.6204 29.4534C37.2933 28.4888 39.4375 29.0629 40.4022 30.7358L50.1847 48.2342C50.4992 48.7976 50.2982 49.5079 49.7355 49.8223C49.1727 50.1367 48.4631 49.9365 48.148 49.3737L38.3728 31.8887C38.0597 31.3467 37.3434 31.1571 36.7866 31.4748C36.2299 31.7966 36.039 32.5116 36.3601 33.069L47.5151 53.0226C47.5779 53.1301 47.6673 53.2369 47.7728 53.3237C48.2708 53.7336 48.3423 54.4686 47.9324 54.9666C47.7021 55.247 47.3683 55.3918 47.0318 55.3918Z" fill="url(#paint3_linear_4787_10809)"/>
<path d="M72.503 91.1661C72.3121 91.1661 72.1198 91.1515 71.9249 91.1187C71.0023 90.9645 70.1952 90.4612 69.6518 89.7002C69.1091 88.9405 68.8941 88.0125 69.0483 87.0913L70.9355 75.764L66.9675 74.0003C66.3787 73.7386 66.113 73.049 66.3754 72.4602C66.6371 71.8707 67.326 71.6044 67.9155 71.8674L72.7093 73.9983C73.1946 74.2146 73.4736 74.7319 73.3855 75.256L71.3501 87.4738C71.2987 87.7816 71.3701 88.0913 71.5517 88.3443C71.7319 88.5987 72.0016 88.7656 72.3094 88.817C72.9523 88.9244 73.5471 88.4865 73.6512 87.8577L75.9844 73.8594C76.0718 73.334 75.7941 72.8167 75.3081 72.6017L68.1231 69.4081C67.5343 69.1464 67.2686 68.4568 67.5309 67.868C67.7926 67.2785 68.4822 67.0135 69.071 67.2752L76.2561 70.4688C77.7134 71.117 78.5485 72.6691 78.2861 74.2426L75.953 88.2422C75.6693 89.9371 74.2186 91.1661 72.503 91.1661Z" fill="url(#paint4_linear_4787_10809)"/>
<path d="M47.4437 78.7823C47.15 78.7823 46.8656 78.6701 46.6493 78.4699L39.8147 72.1139C39.5758 71.8903 39.4409 71.5785 39.4429 71.2514C39.4456 70.9243 39.5844 70.6132 39.8268 70.3943L46.7842 64.0964L45.672 52.1663C45.6667 49.8205 47.4878 48 49.7248 48H60.2751C62.5128 48 64.3332 49.8205 64.3332 52.0582C64.3332 52.0982 64.3306 52.1389 64.3272 52.179L63.2498 62.571L69.3914 65.1559C69.9595 65.3948 70.2432 66.0344 70.0396 66.6165L67.3253 74.3797C67.2178 74.6887 66.9848 74.9377 66.6837 75.0666C66.3833 75.1954 66.0422 75.1934 65.7431 75.0572L55.4899 70.415L48.3122 78.3958C48.1026 78.6281 47.8089 78.7669 47.4965 78.7809C47.4784 78.7823 47.4611 78.7823 47.4437 78.7823ZM42.3355 71.2708L47.3696 75.9531L54.3264 68.2193C54.6662 67.8422 55.2102 67.7293 55.6749 67.937L65.5442 72.405L67.4755 66.8809L61.5475 64.3855C61.0742 64.1859 60.7871 63.7006 60.8398 63.1892L61.9994 52.0054C61.9707 51.0782 61.209 50.3332 60.2751 50.3332H49.7248C48.7735 50.3332 48.0005 51.1069 48.0005 52.0582L49.1614 64.4603C49.1954 64.8261 49.0559 65.1872 48.7829 65.4336L42.3355 71.2708Z" fill="url(#paint5_linear_4787_10809)"/>
<path d="M78.3328 31.6664H31.6664C31.0222 31.6664 30.5001 31.145 30.5001 30.5002C30.5001 29.8553 31.0222 29.3333 31.6664 29.3333H78.3328C78.9777 29.3333 79.4997 29.8553 79.4997 30.5002C79.4997 31.145 78.9777 31.6664 78.3328 31.6664Z" fill="url(#paint6_linear_4787_10809)"/>
<path d="M31.6665 40.9997H28.1671C27.5222 40.9997 27.0002 40.4783 27.0002 39.8335V21.1669C27.0002 20.522 27.5222 20 28.1671 20H31.6665C32.3113 20 32.8334 20.522 32.8334 21.1669V39.8335C32.8334 40.4783 32.3113 40.9997 31.6665 40.9997ZM29.3333 38.6666H30.5002V22.3332H29.3333V38.6666Z" fill="url(#paint7_linear_4787_10809)"/>
<path d="M28.1669 40.9997H24.6669C24.0227 40.9997 23.5 40.4783 23.5 39.8335V21.1669C23.5 20.522 24.0227 20 24.6669 20H28.1669C28.8111 20 29.3332 20.522 29.3332 21.1669V39.8335C29.3332 40.4783 28.8111 40.9997 28.1669 40.9997ZM25.8331 38.6666H27V22.3332H25.8331V38.6666Z" fill="url(#paint8_linear_4787_10809)"/>
<path d="M85.3329 40.9997H81.8328C81.1886 40.9997 80.6666 40.4783 80.6666 39.8335V21.1669C80.6666 20.522 81.1886 20 81.8328 20H85.3329C85.9771 20 86.4998 20.522 86.4998 21.1669V39.8335C86.4998 40.4783 85.9771 40.9997 85.3329 40.9997ZM82.9997 38.6666H84.1666V22.3332H82.9997V38.6666Z" fill="url(#paint9_linear_4787_10809)"/>
<path d="M81.8329 40.9997H78.3329C77.6887 40.9997 77.1666 40.4783 77.1666 39.8335V21.1669C77.1666 20.522 77.6887 20 78.3329 20H81.8329C82.4771 20 82.9998 20.522 82.9998 21.1669V39.8335C82.9998 40.4783 82.4771 40.9997 81.8329 40.9997ZM79.4998 38.6666H80.6667V22.3332H79.4998V38.6666Z" fill="url(#paint10_linear_4787_10809)"/>
<path d="M24.667 31.6664H21.1669C20.5227 31.6664 20 31.145 20 30.5002C20 29.8553 20.5227 29.3333 21.1669 29.3333H24.667C25.3112 29.3333 25.8332 29.8553 25.8332 30.5002C25.8332 31.145 25.3112 31.6664 24.667 31.6664Z" fill="url(#paint11_linear_4787_10809)"/>
<path d="M88.8331 31.6664H85.333C84.6888 31.6664 84.1668 31.145 84.1668 30.5002C84.1668 29.8553 84.6888 29.3333 85.333 29.3333H88.8331C89.4773 29.3333 90 29.8553 90 30.5002C90 31.145 89.4773 31.6664 88.8331 31.6664Z" fill="url(#paint12_linear_4787_10809)"/>
<rect x="0.666626" y="1" width="109" height="109" rx="54.5" stroke="#EDEDED"/>
<defs>
<linearGradient id="paint0_linear_4787_10809" x1="55" y1="32.8335" x2="55" y2="46.8331" gradientUnits="userSpaceOnUse">
<stop stop-color="#155263"/>
<stop offset="1" stop-color="#D37217"/>
</linearGradient>
<linearGradient id="paint1_linear_4787_10809" x1="68.2874" y1="28.9866" x2="68.2874" y2="55.3972" gradientUnits="userSpaceOnUse">
<stop stop-color="#155263"/>
<stop offset="1" stop-color="#D37217"/>
</linearGradient>
<linearGradient id="paint2_linear_4787_10809" x1="36.5236" y1="71.8398" x2="36.5236" y2="91.5728" gradientUnits="userSpaceOnUse">
<stop stop-color="#155263"/>
<stop offset="1" stop-color="#D37217"/>
</linearGradient>
<linearGradient id="paint3_linear_4787_10809" x1="42.1011" y1="28.9854" x2="42.1011" y2="55.3918" gradientUnits="userSpaceOnUse">
<stop stop-color="#155263"/>
<stop offset="1" stop-color="#D37217"/>
</linearGradient>
<linearGradient id="paint4_linear_4787_10809" x1="72.3041" y1="67.1743" x2="72.3041" y2="91.1661" gradientUnits="userSpaceOnUse">
<stop stop-color="#155263"/>
<stop offset="1" stop-color="#D37217"/>
</linearGradient>
<linearGradient id="paint5_linear_4787_10809" x1="54.7741" y1="48" x2="54.7741" y2="78.7823" gradientUnits="userSpaceOnUse">
<stop stop-color="#155263"/>
<stop offset="1" stop-color="#D37217"/>
</linearGradient>
<linearGradient id="paint6_linear_4787_10809" x1="54.9999" y1="29.3333" x2="54.9999" y2="31.6664" gradientUnits="userSpaceOnUse">
<stop stop-color="#155263"/>
<stop offset="1" stop-color="#D37217"/>
</linearGradient>
<linearGradient id="paint7_linear_4787_10809" x1="29.9168" y1="20" x2="29.9168" y2="40.9997" gradientUnits="userSpaceOnUse">
<stop stop-color="#155263"/>
<stop offset="1" stop-color="#D37217"/>
</linearGradient>
<linearGradient id="paint8_linear_4787_10809" x1="26.4166" y1="20" x2="26.4166" y2="40.9997" gradientUnits="userSpaceOnUse">
<stop stop-color="#155263"/>
<stop offset="1" stop-color="#D37217"/>
</linearGradient>
<linearGradient id="paint9_linear_4787_10809" x1="83.5832" y1="20" x2="83.5832" y2="40.9997" gradientUnits="userSpaceOnUse">
<stop stop-color="#155263"/>
<stop offset="1" stop-color="#D37217"/>
</linearGradient>
<linearGradient id="paint10_linear_4787_10809" x1="80.0832" y1="20" x2="80.0832" y2="40.9997" gradientUnits="userSpaceOnUse">
<stop stop-color="#155263"/>
<stop offset="1" stop-color="#D37217"/>
</linearGradient>
<linearGradient id="paint11_linear_4787_10809" x1="22.9166" y1="29.3333" x2="22.9166" y2="31.6664" gradientUnits="userSpaceOnUse">
<stop stop-color="#155263"/>
<stop offset="1" stop-color="#D37217"/>
</linearGradient>
<linearGradient id="paint12_linear_4787_10809" x1="87.0834" y1="29.3333" x2="87.0834" y2="31.6664" gradientUnits="userSpaceOnUse">
<stop stop-color="#155263"/>
<stop offset="1" stop-color="#D37217"/>
</linearGradient>
</defs>
</svg>
