<svg width="111" height="111" viewBox="0 0 111 111" fill="none" xmlns="http://www.w3.org/2000/svg">
<path d="M88.8333 20.1465H58.5C57.8558 20.1465 57.3334 20.6689 57.3334 21.3131V86.6464C57.3334 87.2907 57.8558 87.8131 58.5 87.8131H59.6667V90.1464H62V87.8131H85.3333V90.1464H87.6667V87.8131H88.8333C89.4776 87.8131 90 87.2907 90 86.6464V21.3131C90 20.6689 89.4776 20.1465 88.8333 20.1465ZM87.6667 85.4798H59.6667V44.6465H87.6667V85.4798ZM87.6667 42.3131H59.6667V22.4798H87.6667V42.3131Z" fill="url(#paint0_linear_4787_10668)"/>
<path d="M63.1665 28.3132H65.4998V39.9799H63.1665V28.3132Z" fill="url(#paint1_linear_4787_10668)"/>
<path d="M63.1665 46.9797H65.4998V63.3131H63.1665V46.9797Z" fill="url(#paint2_linear_4787_10668)"/>
<path d="M21.1667 87.8131H22.3333V90.1464H24.6667V87.8131H50.3333V90.1464H52.6666V87.8131H53.8333C54.4776 87.8131 55 87.2907 55 86.6464V45.8131C55 45.1689 54.4776 44.6465 53.8333 44.6465H21.1667C20.5224 44.6465 20 45.1689 20 45.8131V86.6464C20 87.2907 20.5224 87.8131 21.1667 87.8131ZM22.3333 46.9798H52.6666V53.9798H22.3333V46.9798ZM22.3333 56.3131H52.6666V85.4798H22.3333V56.3131Z" fill="url(#paint3_linear_4787_10668)"/>
<path d="M37.4999 57.4797C30.4122 57.4797 24.6666 63.2253 24.6666 70.3131C24.6666 77.4008 30.4122 83.1464 37.4999 83.1464C44.5877 83.1464 50.3333 77.4008 50.3333 70.3131C50.3247 63.2288 44.5842 57.4883 37.4999 57.4797ZM37.4999 80.813C32.8885 80.8204 28.8115 77.8183 27.4506 73.412C26.0896 69.0063 27.7627 64.2274 31.5749 61.6326C35.3871 59.0383 40.4462 59.2349 44.0459 62.1173L42.3882 63.7796C39.0192 61.2241 34.258 61.6559 31.4034 64.7765C28.5494 67.8966 28.542 72.6771 31.3869 75.8057C34.2318 78.9349 38.9913 79.3809 42.3683 76.8357L44.0459 78.5133C42.19 80.0041 39.8806 80.8153 37.4999 80.813ZM40.1751 74.6379L40.7037 75.1666C38.2678 76.785 35.01 76.3503 33.0845 74.1492C31.1585 71.948 31.1608 68.661 33.0891 66.4621C35.0174 64.2633 38.2758 63.832 40.7094 65.4538L40.1751 65.9882C39.9563 66.2069 39.8333 66.5037 39.8333 66.8131V73.8131C39.8333 74.1224 39.9563 74.4192 40.1751 74.6379ZM45.6957 76.8545L42.1666 73.33V67.2961L45.6957 63.7671C48.7678 67.5901 48.7678 73.036 45.6957 76.859V76.8545Z" fill="url(#paint4_linear_4787_10668)"/>
<path d="M24.6666 49.3132H27V51.6466H24.6666V49.3132Z" fill="url(#paint5_linear_4787_10668)"/>
<path d="M29.3334 49.3132H31.6667V51.6466H29.3334V49.3132Z" fill="url(#paint6_linear_4787_10668)"/>
<path d="M34 49.3132H36.3333V51.6466H34V49.3132Z" fill="url(#paint7_linear_4787_10668)"/>
<path d="M43.3334 49.3132H50.3334V51.6466H43.3334V49.3132Z" fill="url(#paint8_linear_4787_10668)"/>
<path d="M21.1667 42.3131H53.8333C54.4776 42.3131 55 41.7907 55 41.1465V21.3131C55 20.6689 54.4776 20.1465 53.8333 20.1465H21.1667C20.5224 20.1465 20 20.6689 20 21.3131V41.1465C20 41.7907 20.5224 42.3131 21.1667 42.3131ZM45.6666 22.4798H52.6666V39.9798H45.6666V22.4798ZM22.3333 22.4798H43.3333V39.9798H22.3333V22.4798Z" fill="url(#paint9_linear_4787_10668)"/>
<path d="M48 24.8132H50.3333V27.1466H48V24.8132Z" fill="url(#paint10_linear_4787_10668)"/>
<path d="M48 29.4797H50.3333V31.8131H48V29.4797Z" fill="url(#paint11_linear_4787_10668)"/>
<path d="M39.8333 24.8132H25.8333C25.189 24.8132 24.6666 25.3356 24.6666 25.9799V36.4799C24.6666 37.1242 25.189 37.6466 25.8333 37.6466H39.8333C40.4776 37.6466 40.9999 37.1242 40.9999 36.4799V25.9799C40.9999 25.3356 40.4776 24.8132 39.8333 24.8132ZM38.6666 35.3132H27V27.1466H38.6666V35.3132Z" fill="url(#paint12_linear_4787_10668)"/>
<path d="M49.1666 34.7297C48.1999 34.7297 47.4166 35.513 47.4166 36.4797C47.4166 37.4464 48.1999 38.2297 49.1666 38.2297C50.1333 38.2297 50.9166 37.4464 50.9166 36.4797C50.9166 35.513 50.1333 34.7297 49.1666 34.7297ZM49.1666 37.0631C48.8442 37.0631 48.5833 36.8022 48.5833 36.4797C48.5833 36.1573 48.8442 35.8964 49.1666 35.8964C49.4891 35.8964 49.75 36.1573 49.75 36.4797C49.75 36.8022 49.4891 37.0631 49.1666 37.0631Z" fill="url(#paint13_linear_4787_10668)"/>
<rect x="0.666626" y="1" width="109" height="109" rx="54.5" stroke="#EDEDED"/>
<defs>
<linearGradient id="paint0_linear_4787_10668" x1="73.6667" y1="20.1465" x2="73.6667" y2="90.1464" gradientUnits="userSpaceOnUse">
<stop stop-color="#155263"/>
<stop offset="1" stop-color="#D37217"/>
</linearGradient>
<linearGradient id="paint1_linear_4787_10668" x1="64.3332" y1="28.3132" x2="64.3332" y2="39.9799" gradientUnits="userSpaceOnUse">
<stop stop-color="#155263"/>
<stop offset="1" stop-color="#D37217"/>
</linearGradient>
<linearGradient id="paint2_linear_4787_10668" x1="64.3332" y1="46.9797" x2="64.3332" y2="63.3131" gradientUnits="userSpaceOnUse">
<stop stop-color="#155263"/>
<stop offset="1" stop-color="#D37217"/>
</linearGradient>
<linearGradient id="paint3_linear_4787_10668" x1="37.5" y1="44.6465" x2="37.5" y2="90.1464" gradientUnits="userSpaceOnUse">
<stop stop-color="#155263"/>
<stop offset="1" stop-color="#D37217"/>
</linearGradient>
<linearGradient id="paint4_linear_4787_10668" x1="37.4999" y1="57.4797" x2="37.4999" y2="83.1464" gradientUnits="userSpaceOnUse">
<stop stop-color="#155263"/>
<stop offset="1" stop-color="#D37217"/>
</linearGradient>
<linearGradient id="paint5_linear_4787_10668" x1="25.8333" y1="49.3132" x2="25.8333" y2="51.6466" gradientUnits="userSpaceOnUse">
<stop stop-color="#155263"/>
<stop offset="1" stop-color="#D37217"/>
</linearGradient>
<linearGradient id="paint6_linear_4787_10668" x1="30.5" y1="49.3132" x2="30.5" y2="51.6466" gradientUnits="userSpaceOnUse">
<stop stop-color="#155263"/>
<stop offset="1" stop-color="#D37217"/>
</linearGradient>
<linearGradient id="paint7_linear_4787_10668" x1="35.1667" y1="49.3132" x2="35.1667" y2="51.6466" gradientUnits="userSpaceOnUse">
<stop stop-color="#155263"/>
<stop offset="1" stop-color="#D37217"/>
</linearGradient>
<linearGradient id="paint8_linear_4787_10668" x1="46.8334" y1="49.3132" x2="46.8334" y2="51.6466" gradientUnits="userSpaceOnUse">
<stop stop-color="#155263"/>
<stop offset="1" stop-color="#D37217"/>
</linearGradient>
<linearGradient id="paint9_linear_4787_10668" x1="37.5" y1="20.1465" x2="37.5" y2="42.3131" gradientUnits="userSpaceOnUse">
<stop stop-color="#155263"/>
<stop offset="1" stop-color="#D37217"/>
</linearGradient>
<linearGradient id="paint10_linear_4787_10668" x1="49.1667" y1="24.8132" x2="49.1667" y2="27.1466" gradientUnits="userSpaceOnUse">
<stop stop-color="#155263"/>
<stop offset="1" stop-color="#D37217"/>
</linearGradient>
<linearGradient id="paint11_linear_4787_10668" x1="49.1667" y1="29.4797" x2="49.1667" y2="31.8131" gradientUnits="userSpaceOnUse">
<stop stop-color="#155263"/>
<stop offset="1" stop-color="#D37217"/>
</linearGradient>
<linearGradient id="paint12_linear_4787_10668" x1="32.8333" y1="24.8132" x2="32.8333" y2="37.6466" gradientUnits="userSpaceOnUse">
<stop stop-color="#155263"/>
<stop offset="1" stop-color="#D37217"/>
</linearGradient>
<linearGradient id="paint13_linear_4787_10668" x1="49.1666" y1="34.7297" x2="49.1666" y2="38.2297" gradientUnits="userSpaceOnUse">
<stop stop-color="#155263"/>
<stop offset="1" stop-color="#D37217"/>
</linearGradient>
</defs>
</svg>
