<svg width="111" height="111" viewBox="0 0 111 111" fill="none" xmlns="http://www.w3.org/2000/svg">
<path d="M21.0107 78.1018C21.0154 78.1786 21.0307 78.2527 21.0561 78.3275C21.0661 78.3568 21.0728 78.3869 21.0854 78.4149C21.0915 78.4276 21.0928 78.4416 21.0988 78.4543L27.2598 90.2429C27.4113 90.5313 27.7104 90.7129 28.0362 90.7129H47.9745C48.3003 90.7129 48.5993 90.5313 48.7502 90.2429L54.9119 78.4543C54.9185 78.4416 54.9199 78.4276 54.9252 78.4149C54.9386 78.3869 54.9452 78.3568 54.9553 78.3268C54.98 78.2527 54.996 78.1786 55.0006 78.1018C55.002 78.0831 55.0113 78.0678 55.0113 78.0491C55.0113 78.0331 55.0033 78.0204 55.002 78.005C54.998 77.9209 54.9813 77.8401 54.9533 77.76C54.9452 77.7393 54.9432 77.7166 54.9339 77.696C54.8952 77.6085 54.8444 77.5257 54.777 77.453L39.72 61.2757C41.5638 60.5795 42.8809 58.8017 42.8809 56.7169C42.8809 55.0613 42.0498 53.598 40.7841 52.7162C42.0498 51.8343 42.8809 50.371 42.8809 48.7154C42.8809 46.3255 41.1519 44.3368 38.8802 43.9223V32.1377C41.6352 31.7151 43.7514 29.3299 43.7514 26.4587C43.7514 23.2904 41.1739 20.7129 38.005 20.7129C34.8367 20.7129 32.2599 23.2904 32.2599 26.4587C32.2599 26.942 32.6511 27.3338 33.1344 27.3338C33.6184 27.3338 34.0096 26.942 34.0096 26.4587C34.0096 24.2557 35.802 22.4626 38.005 22.4626C40.2086 22.4626 42.0017 24.2557 42.0017 26.4587C42.0017 28.6623 40.2086 30.4547 38.005 30.4547C37.5217 30.4547 37.1305 30.8466 37.1305 31.3292V43.9223C34.8587 44.3368 33.1297 46.3255 33.1297 48.7154C33.1297 50.371 33.9609 51.8343 35.2259 52.7162C33.9609 53.598 33.1297 55.0613 33.1297 56.7169C33.1297 58.8017 34.4469 60.5795 36.2907 61.2757L21.2343 77.453C21.1669 77.5257 21.1155 77.6085 21.0774 77.696C21.0681 77.7166 21.0661 77.7387 21.0581 77.76C21.03 77.8395 21.0134 77.9209 21.0087 78.005C21.008 78.0204 21 78.0331 21 78.0491C21 78.0678 21.0093 78.0838 21.0107 78.1018V78.1018ZM44.6613 77.1739L40.2 64.3599L52.1268 77.1739H44.6613ZM33.2012 77.1739L38.005 63.3786L42.8088 77.1739H33.2012ZM42.5632 78.9243L38.005 87.7876L33.4468 78.9243H42.5632ZM31.3487 77.1739H23.8846L35.8107 64.3606L31.3487 77.1739ZM23.3198 78.9243H31.4788L36.6412 88.9625H28.5656L23.3198 78.9243ZM47.4444 88.9625H39.3688L44.5312 78.9243H52.6915L47.4444 88.9625ZM34.8794 48.7154C34.8794 46.9918 36.282 45.5899 38.005 45.5899C39.7287 45.5899 41.1312 46.9918 41.1312 48.7154C41.1312 50.4391 39.7287 51.841 38.005 51.841C36.282 51.841 34.8794 50.4391 34.8794 48.7154ZM34.8794 56.7169C34.8794 54.9933 36.282 53.5914 38.005 53.5914C39.7287 53.5914 41.1312 54.9933 41.1312 56.7169C41.1312 58.4406 39.7287 59.8431 38.005 59.8431C36.282 59.8431 34.8794 58.4406 34.8794 56.7169Z" fill="url(#paint0_linear_4787_10682)"/>
<path d="M79.7401 26.4587C79.7401 23.2904 77.1633 20.7129 73.9943 20.7129C70.826 20.7129 68.2479 23.2904 68.2479 26.4587C68.2479 26.942 68.6397 27.3338 69.1231 27.3338C69.607 27.3338 69.9982 26.942 69.9982 26.4587C69.9982 24.2557 71.7907 22.4626 73.9943 22.4626C76.1973 22.4626 77.9904 24.2557 77.9904 26.4587C77.9904 28.6623 76.1973 30.4547 73.9943 30.4547C73.511 30.4547 73.1198 30.8466 73.1198 31.3292V43.9223C70.8481 44.3368 69.1191 46.3255 69.1191 48.7154C69.1191 50.371 69.9502 51.8343 71.2152 52.7162C69.9502 53.598 69.1191 55.0613 69.1191 56.7169C69.1191 58.8017 70.4362 60.5795 72.28 61.2757L57.2223 77.453C57.1549 77.5257 57.1041 77.6085 57.0654 77.696C57.0567 77.7166 57.0541 77.7387 57.0467 77.76C57.0187 77.8395 57.002 77.9209 56.9973 78.005C56.9967 78.0204 56.9886 78.0331 56.9886 78.0491C56.9886 78.0678 56.998 78.0838 56.9993 78.1018C57.0033 78.1786 57.0194 78.2527 57.0447 78.3275C57.0547 78.3568 57.0614 78.3869 57.0741 78.4149C57.0801 78.4276 57.0808 78.4416 57.0874 78.4543L63.2491 90.2429C63.4007 90.5313 63.6997 90.7129 64.0255 90.7129H83.9638C84.2896 90.7129 84.5886 90.5313 84.7395 90.2429L90.9005 78.4543C90.9072 78.4416 90.9079 78.4276 90.9139 78.4149C90.9272 78.3869 90.9332 78.3568 90.9439 78.3268C90.9686 78.2527 90.9846 78.1786 90.9893 78.1018C90.9906 78.0831 91 78.0678 91 78.0491C91 78.0331 90.9913 78.0204 90.9906 78.005C90.9866 77.9209 90.9693 77.8401 90.9412 77.76C90.9339 77.7393 90.9319 77.7166 90.9225 77.696C90.8838 77.6085 90.8331 77.5257 90.7657 77.453L75.7093 61.2757C77.5531 60.5795 78.8702 58.8017 78.8702 56.7169C78.8702 55.0613 78.0391 53.598 76.7734 52.7162C78.0391 51.8343 78.8702 50.371 78.8702 48.7154C78.8702 46.3255 77.1412 44.3368 74.8695 43.9223V32.1377C77.6232 31.7151 79.7401 29.3299 79.7401 26.4587V26.4587ZM80.6506 77.1739L76.1893 64.3606L88.1147 77.1739H80.6506ZM59.8732 77.1739L71.8 64.3599L67.338 77.1739H59.8732ZM69.1905 77.1739L73.9943 63.3786L78.7981 77.1739H69.1905ZM78.5525 78.9243L73.9943 87.7876L69.4361 78.9243H78.5525ZM59.3085 78.9243H67.4682L72.6305 88.9625H64.5549L59.3085 78.9243ZM83.4337 88.9625H75.3588L80.5205 78.9243H88.6802L83.4337 88.9625ZM77.1205 56.7169C77.1205 58.4406 75.718 59.8431 73.9943 59.8431C72.2713 59.8431 70.8688 58.4406 70.8688 56.7169C70.8688 54.9933 72.2713 53.5914 73.9943 53.5914C75.718 53.5914 77.1205 54.9933 77.1205 56.7169ZM77.1205 48.7154C77.1205 50.4391 75.718 51.841 73.9943 51.841C72.2713 51.841 70.8688 50.4391 70.8688 48.7154C70.8688 46.9918 72.2713 45.5899 73.9943 45.5899C75.718 45.5899 77.1205 46.9918 77.1205 48.7154Z" fill="url(#paint1_linear_4787_10682)"/>
<rect x="1" y="1" width="109" height="109" rx="54.5" stroke="#EDEDED"/>
<defs>
<linearGradient id="paint0_linear_4787_10682" x1="38.0057" y1="20.7129" x2="38.0057" y2="90.7129" gradientUnits="userSpaceOnUse">
<stop stop-color="#155263"/>
<stop offset="1" stop-color="#D37217"/>
</linearGradient>
<linearGradient id="paint1_linear_4787_10682" x1="73.9943" y1="20.7129" x2="73.9943" y2="90.7129" gradientUnits="userSpaceOnUse">
<stop stop-color="#155263"/>
<stop offset="1" stop-color="#D37217"/>
</linearGradient>
</defs>
</svg>
