<svg width="300" height="236" viewBox="0 0 300 236" fill="none" xmlns="http://www.w3.org/2000/svg">
<mask id="mask0_4584_150" style="mask-type:alpha" maskUnits="userSpaceOnUse" x="0" y="0" width="301" height="236">
<rect x="0.551514" y="0.499878" width="299.449" height="235" fill="#CC2936"/>
</mask>
<g mask="url(#mask0_4584_150)">
<mask id="mask1_4584_150" style="mask-type:alpha" maskUnits="userSpaceOnUse" x="0" y="5" width="498" height="482">
<path d="M85.429 400.638C76.927 393.917 68.5453 386.835 60.3033 379.416C13.9321 337.681 -5.20471 297.448 1.80007 256.426C7.86607 220.882 32.5152 190.177 54.2613 163.091C68.7764 145.009 82.4875 127.933 88.2358 112.2C107.368 59.8298 99.5686 38.6277 94.9084 25.9613C92.2124 18.6243 90.4263 13.7811 95.9049 7.51774C101.273 1.37952 131.083 11.7062 189.716 40.0142C215.073 52.2569 228.524 69.6557 239.337 83.6364C244.753 90.6412 249.437 96.6976 254.56 100.727L254.218 101.165L254.56 100.727C268.67 111.824 273.73 113.326 284.822 116.619C294.071 119.368 308.051 123.518 335.315 135.794C359.275 146.583 391.324 170.217 418.953 197.48C434.677 212.991 448.508 229.1 460.062 245.368C472.998 263.575 482.762 281.566 489.088 298.849C500.801 330.86 500.618 359.899 488.539 385.16C476.638 410.045 458.955 431.146 435.981 447.876C413.162 464.495 386.283 475.957 356.103 481.946C312.172 490.665 263.23 487.006 214.582 471.365C188.647 463.026 162.727 451.289 137.544 436.48C119.846 426.057 102.404 414.06 85.429 400.638ZM210.326 54.1922C204.327 49.4502 197.4 44.9584 189.225 41.0107C162.559 28.1373 142.233 19.1539 127.077 13.5549C105.221 5.47648 98.5143 6.20825 96.733 8.24469C91.6876 14.0122 93.1993 18.1188 95.9434 25.5713C100.657 38.3821 108.542 59.8201 89.2708 112.575C83.46 128.481 69.6959 145.625 55.1231 163.78C33.4636 190.769 8.91077 221.349 2.89291 256.609C-4.03966 297.227 14.9816 337.128 61.0447 378.593C85.6842 400.777 111.614 419.924 138.102 435.503C163.213 450.273 189.057 461.977 214.914 470.291C263.389 485.875 312.134 489.524 355.881 480.844C385.903 474.889 412.632 463.488 435.322 446.966C458.146 430.347 475.714 409.385 487.533 384.669C499.477 359.688 499.65 330.941 488.043 299.22C481.755 282.033 472.035 264.129 459.157 246.003C447.637 229.793 433.849 213.728 418.173 198.265C390.631 171.093 358.702 147.541 334.857 136.805C307.661 124.558 293.724 120.422 284.505 117.683C273.273 114.347 268.146 112.825 253.871 101.599C253.847 101.579 253.823 101.56 253.799 101.541C248.585 97.4197 243.891 91.3441 238.456 84.3152C231.206 74.9466 222.766 64.0278 210.326 54.1922Z" fill="#386C7A"/>
</mask>
<g mask="url(#mask1_4584_150)">
<path d="M85.429 400.638C76.927 393.917 68.5453 386.835 60.3033 379.416C13.9321 337.681 -5.20471 297.448 1.80007 256.426C7.86607 220.882 32.5152 190.177 54.2613 163.091C68.7764 145.009 82.4875 127.933 88.2358 112.2C107.368 59.8298 99.5686 38.6277 94.9084 25.9613C92.2124 18.6243 90.4263 13.7811 95.9049 7.51774C101.273 1.37952 131.083 11.7062 189.716 40.0142C215.073 52.2569 228.524 69.6557 239.337 83.6364C244.753 90.6412 249.437 96.6976 254.56 100.727L254.218 101.165L254.56 100.727C268.67 111.824 273.73 113.326 284.822 116.619C294.071 119.368 308.051 123.518 335.315 135.794C359.275 146.583 391.324 170.217 418.953 197.48C434.677 212.991 448.508 229.1 460.062 245.368C472.998 263.575 482.762 281.566 489.088 298.849C500.801 330.86 500.618 359.899 488.539 385.16C476.638 410.045 458.955 431.146 435.981 447.876C413.162 464.495 386.283 475.957 356.103 481.946C312.172 490.665 263.23 487.006 214.582 471.365C188.647 463.026 162.727 451.289 137.544 436.48C119.846 426.057 102.404 414.06 85.429 400.638ZM210.326 54.1922C204.327 49.4502 197.4 44.9584 189.225 41.0107C162.559 28.1373 142.233 19.1539 127.077 13.5549C105.221 5.47648 98.5143 6.20825 96.733 8.24469C91.6876 14.0122 93.1993 18.1188 95.9434 25.5713C100.657 38.3821 108.542 59.8201 89.2708 112.575C83.46 128.481 69.6959 145.625 55.1231 163.78C33.4636 190.769 8.91077 221.349 2.89291 256.609C-4.03966 297.227 14.9816 337.128 61.0447 378.593C85.6842 400.777 111.614 419.924 138.102 435.503C163.213 450.273 189.057 461.977 214.914 470.291C263.389 485.875 312.134 489.524 355.881 480.844C385.903 474.889 412.632 463.488 435.322 446.966C458.146 430.347 475.714 409.385 487.533 384.669C499.477 359.688 499.65 330.941 488.043 299.22C481.755 282.033 472.035 264.129 459.157 246.003C447.637 229.793 433.849 213.728 418.173 198.265C390.631 171.093 358.702 147.541 334.857 136.805C307.661 124.558 293.724 120.422 284.505 117.683C273.273 114.347 268.146 112.825 253.871 101.599C253.847 101.579 253.823 101.56 253.799 101.541C248.585 97.4197 243.891 91.3441 238.456 84.3152C231.206 74.9466 222.766 64.0278 210.326 54.1922Z" fill="#386C7A"/>
</g>
<mask id="mask2_4584_150" style="mask-type:alpha" maskUnits="userSpaceOnUse" x="25" y="25" width="454" height="442">
<path d="M102.318 388.178C95.4428 382.743 88.6546 377.053 81.9628 371.112C39.7559 333.83 21.6542 297.757 26.6177 260.845C30.9313 228.782 51.9746 200.705 70.5433 175.936C83.4793 158.681 95.6931 142.385 100.411 127.177C116.086 78.9425 108.769 58.3951 104.397 46.1187C101.754 38.6998 100.007 33.7989 105.245 27.6462C108.143 24.1222 117.969 24.8973 134.453 29.9523C149.281 34.497 168.914 42.3443 191.223 52.6324C214.582 63.296 227.253 78.6392 237.435 90.9685C242.36 96.9286 246.611 102.075 251.233 105.739C265.868 117.38 270.423 119.094 283.917 124.197C292.983 127.625 305.399 132.323 327.198 142.347C349.526 152.611 379.399 174.699 405.155 199.983C419.887 214.445 432.833 229.427 443.636 244.511C455.758 261.433 464.896 278.129 470.793 294.127C481.438 322.993 481.476 349.207 470.909 372.036C460.226 394.976 444.233 414.484 423.368 430.019C402.638 445.459 378.171 456.18 350.648 461.895C310.882 470.146 266.523 467.205 222.362 453.383C198.815 446.012 175.259 435.561 152.343 422.307C135.358 412.491 118.604 401.057 102.318 388.178ZM212.622 66.8971C206.523 62.0732 199.388 57.5093 190.79 53.5856C143.6 31.8202 111.128 22.1387 106.044 28.3202C101.196 34.0204 102.77 38.4447 105.379 45.772C109.799 58.1736 117.189 78.928 101.408 127.495C96.6415 142.867 84.3699 159.235 71.381 176.562C52.8893 201.23 31.9327 229.191 27.6528 260.985C22.7374 297.525 40.7284 333.291 82.6512 370.332C105.139 390.287 128.762 407.469 152.868 421.411C175.716 434.627 199.2 445.05 222.675 452.396C266.668 466.165 310.848 469.097 350.436 460.884C377.805 455.203 402.132 444.544 422.742 429.196C443.467 413.766 459.355 394.389 469.96 371.608C480.408 349.038 480.355 323.094 469.811 294.497C462.017 273.363 444.348 239.942 404.419 200.734C378.744 175.527 348.987 153.516 326.755 143.3C304.989 133.291 292.593 128.602 283.542 125.179C270.302 120.172 265.344 118.29 250.578 106.562C245.87 102.831 241.585 97.6411 236.627 91.6377C230.276 83.9397 222.939 75.0573 212.622 66.8971Z" fill="#386C7A"/>
</mask>
<g mask="url(#mask2_4584_150)">
<path d="M102.318 388.178C95.4428 382.743 88.6546 377.053 81.9628 371.112C39.7559 333.83 21.6542 297.757 26.6177 260.845C30.9313 228.782 51.9746 200.705 70.5433 175.936C83.4793 158.681 95.6931 142.385 100.411 127.177C116.086 78.9425 108.769 58.3951 104.397 46.1187C101.754 38.6998 100.007 33.7989 105.245 27.6462C108.143 24.1222 117.969 24.8973 134.453 29.9523C149.281 34.497 168.914 42.3443 191.223 52.6324C214.582 63.296 227.253 78.6392 237.435 90.9685C242.36 96.9286 246.611 102.075 251.233 105.739C265.868 117.38 270.423 119.094 283.917 124.197C292.983 127.625 305.399 132.323 327.198 142.347C349.526 152.611 379.399 174.699 405.155 199.983C419.887 214.445 432.833 229.427 443.636 244.511C455.758 261.433 464.896 278.129 470.793 294.127C481.438 322.993 481.476 349.207 470.909 372.036C460.226 394.976 444.233 414.484 423.368 430.019C402.638 445.459 378.171 456.18 350.648 461.895C310.882 470.146 266.523 467.205 222.362 453.383C198.815 446.012 175.259 435.561 152.343 422.307C135.358 412.491 118.604 401.057 102.318 388.178ZM212.622 66.8971C206.523 62.0732 199.388 57.5093 190.79 53.5856C143.6 31.8202 111.128 22.1387 106.044 28.3202C101.196 34.0204 102.77 38.4447 105.379 45.772C109.799 58.1736 117.189 78.928 101.408 127.495C96.6415 142.867 84.3699 159.235 71.381 176.562C52.8893 201.23 31.9327 229.191 27.6528 260.985C22.7374 297.525 40.7284 333.291 82.6512 370.332C105.139 390.287 128.762 407.469 152.868 421.411C175.716 434.627 199.2 445.05 222.675 452.396C266.668 466.165 310.848 469.097 350.436 460.884C377.805 455.203 402.132 444.544 422.742 429.196C443.467 413.766 459.355 394.389 469.96 371.608C480.408 349.038 480.355 323.094 469.811 294.497C462.017 273.363 444.348 239.942 404.419 200.734C378.744 175.527 348.987 153.516 326.755 143.3C304.989 133.291 292.593 128.602 283.542 125.179C270.302 120.172 265.344 118.29 250.578 106.562C245.87 102.831 241.585 97.6411 236.627 91.6377C230.276 83.9397 222.939 75.0573 212.622 66.8971Z" fill="#386C7A"/>
</g>
<mask id="mask3_4584_150" style="mask-type:alpha" maskUnits="userSpaceOnUse" x="51" y="44" width="409" height="403">
<path d="M119.413 375.931C114.103 371.733 108.846 367.366 103.617 362.807C65.5509 329.935 48.5083 298.007 51.5076 265.188C54.1218 236.591 71.6121 211.152 87.037 188.713C98.3073 172.316 108.956 156.828 112.591 142.154C124.858 98.1082 118.003 78.2445 113.91 66.3773C111.306 58.8237 109.582 53.8361 114.58 47.7749C121.141 39.2921 159.689 50.8849 192.73 65.2507C214.216 74.3642 226.16 87.719 235.755 98.4501C240.107 103.317 243.867 107.52 247.911 110.755C264.468 124.067 268.131 125.709 288.467 134.851C296.126 138.293 305.654 142.578 319.076 148.904C332.806 155.369 349.878 166.712 367.151 180.847C386.592 196.753 404.568 214.802 419.136 233.043C436.376 254.63 448.335 275.698 454.68 295.667C462.07 318.93 461.598 340.219 453.279 358.937C443.814 379.937 429.506 397.855 410.754 412.202C392.109 426.467 370.05 436.456 345.189 441.892C309.592 449.671 269.807 447.442 230.132 435.44C191.974 423.901 154.803 403.912 119.413 375.931ZM215.328 79.7514C209.06 74.7927 201.593 70.0747 192.35 66.1558C153.002 49.0459 120.621 41.5741 115.35 48.3911C110.69 54.0383 112.249 58.5637 114.84 66.0644C118.97 78.0375 125.888 98.0793 113.544 142.409C109.866 157.247 99.1739 172.802 87.8507 189.276C72.4883 211.619 55.0798 236.947 52.4897 265.289C49.5193 297.766 66.456 329.43 104.267 362.08C144.226 396.912 186.669 421.282 230.431 434.521C269.941 446.475 309.558 448.699 344.991 440.953C369.713 435.551 391.642 425.619 410.172 411.446C428.794 397.196 443 379.402 452.398 358.556C460.616 340.065 461.073 319.012 453.76 295.98C447.454 276.126 435.553 255.16 418.385 233.669C403.86 215.485 385.932 197.485 366.545 181.622C349.329 167.535 332.33 156.236 318.672 149.804C305.259 143.478 295.732 139.198 288.077 135.761C267.645 126.575 263.967 124.919 247.309 111.535C243.203 108.247 239.419 104.02 235.038 99.1192C229.641 93.0773 223.498 86.2121 215.328 79.7514Z" fill="#386C7A"/>
</mask>
<g mask="url(#mask3_4584_150)">
<path d="M119.413 375.931C114.103 371.733 108.846 367.366 103.617 362.807C65.5509 329.935 48.5083 298.007 51.5076 265.188C54.1218 236.591 71.6121 211.152 87.037 188.713C98.3073 172.316 108.956 156.828 112.591 142.154C124.858 98.1082 118.003 78.2445 113.91 66.3773C111.306 58.8237 109.582 53.8361 114.58 47.7749C121.141 39.2921 159.689 50.8849 192.73 65.2507C214.216 74.3642 226.16 87.719 235.755 98.4501C240.107 103.317 243.867 107.52 247.911 110.755C264.468 124.067 268.131 125.709 288.467 134.851C296.126 138.293 305.654 142.578 319.076 148.904C332.806 155.369 349.878 166.712 367.151 180.847C386.592 196.753 404.568 214.802 419.136 233.043C436.376 254.63 448.335 275.698 454.68 295.667C462.07 318.93 461.598 340.219 453.279 358.937C443.814 379.937 429.506 397.855 410.754 412.202C392.109 426.467 370.05 436.456 345.189 441.892C309.592 449.671 269.807 447.442 230.132 435.44C191.974 423.901 154.803 403.912 119.413 375.931ZM215.328 79.7514C209.06 74.7927 201.593 70.0747 192.35 66.1558C153.002 49.0459 120.621 41.5741 115.35 48.3911C110.69 54.0383 112.249 58.5637 114.84 66.0644C118.97 78.0375 125.888 98.0793 113.544 142.409C109.866 157.247 99.1739 172.802 87.8507 189.276C72.4883 211.619 55.0798 236.947 52.4897 265.289C49.5193 297.766 66.456 329.43 104.267 362.08C144.226 396.912 186.669 421.282 230.431 434.521C269.941 446.475 309.558 448.699 344.991 440.953C369.713 435.551 391.642 425.619 410.172 411.446C428.794 397.196 443 379.402 452.398 358.556C460.616 340.065 461.073 319.012 453.76 295.98C447.454 276.126 435.553 255.16 418.385 233.669C403.86 215.485 385.932 197.485 366.545 181.622C349.329 167.535 332.33 156.236 318.672 149.804C305.259 143.478 295.732 139.198 288.077 135.761C267.645 126.575 263.967 124.919 247.309 111.535C243.203 108.247 239.419 104.02 235.038 99.1192C229.641 93.0773 223.498 86.2121 215.328 79.7514Z" fill="#386C7A"/>
</g>
<mask id="mask4_4584_150" style="mask-type:alpha" maskUnits="userSpaceOnUse" x="76" y="63" width="366" height="364">
<path d="M136.2 363.477C132.542 360.583 128.902 357.593 125.282 354.508C91.3217 326.012 75.3624 298.185 76.4889 269.439C77.4758 244.299 90.8547 222.49 103.796 201.404C113.304 185.911 122.282 171.276 124.786 157.136C133.707 117.346 127.544 98.9556 123.467 86.7851C120.776 78.7549 119.153 73.9069 123.929 67.9131C129.687 59.9888 160.58 64.3602 194.242 77.8787C214.105 85.4949 225.409 96.9818 234.494 106.211C237.97 109.744 241.253 113.076 244.589 115.777L246.274 117.149C265.661 132.954 267.245 134.244 310.964 155.461C323.255 161.411 339.19 172.065 354.692 184.669C372.519 199.17 389.042 215.534 402.469 231.994C418.424 251.549 429.607 270.604 435.702 288.634C442.813 309.667 442.798 328.91 435.659 345.832C427.417 364.897 414.798 381.232 398.155 394.399C381.599 407.494 361.942 416.751 339.734 421.912C308.297 429.216 273.09 427.694 237.912 417.502C202.922 407.378 168.764 389.223 136.2 363.477ZM218.77 92.8752C212.204 87.6854 204.217 82.6737 193.914 78.726C161.167 65.5782 130.101 60.9757 124.656 68.4667C120.174 74.0898 121.738 78.7597 124.333 86.4962C128.194 98.0168 134.655 117.298 125.681 157.314C123.154 171.608 114.127 186.311 104.575 201.88C91.6972 222.87 78.3809 244.573 77.4036 269.473C76.2867 297.916 92.145 325.506 125.874 353.809C161.591 384.26 199.374 405.399 238.167 416.636C273.196 426.784 308.249 428.301 339.532 421.031C361.605 415.899 381.142 406.699 397.597 393.691C414.124 380.62 426.651 364.401 434.831 345.481C441.879 328.775 441.888 309.744 434.85 288.927C428.789 270.999 417.658 252.04 401.776 232.571C388.387 216.164 371.913 199.844 354.129 185.377C338.685 172.812 322.807 162.206 310.579 156.284C266.769 135.019 265.175 133.724 245.711 117.856L244.026 116.484C240.646 113.75 237.344 110.399 233.853 106.846C229.549 102.48 224.75 97.6028 218.77 92.8752Z" fill="#386C7A"/>
</mask>
<g mask="url(#mask4_4584_150)">
<path d="M136.2 363.477C132.542 360.583 128.902 357.593 125.282 354.508C91.3217 326.012 75.3624 298.185 76.4889 269.439C77.4758 244.299 90.8547 222.49 103.796 201.404C113.304 185.911 122.282 171.276 124.786 157.136C133.707 117.346 127.544 98.9556 123.467 86.7851C120.776 78.7549 119.153 73.9069 123.929 67.9131C129.687 59.9888 160.58 64.3602 194.242 77.8787C214.105 85.4949 225.409 96.9818 234.494 106.211C237.97 109.744 241.253 113.076 244.589 115.777L246.274 117.149C265.661 132.954 267.245 134.244 310.964 155.461C323.255 161.411 339.19 172.065 354.692 184.669C372.519 199.17 389.042 215.534 402.469 231.994C418.424 251.549 429.607 270.604 435.702 288.634C442.813 309.667 442.798 328.91 435.659 345.832C427.417 364.897 414.798 381.232 398.155 394.399C381.599 407.494 361.942 416.751 339.734 421.912C308.297 429.216 273.09 427.694 237.912 417.502C202.922 407.378 168.764 389.223 136.2 363.477ZM218.77 92.8752C212.204 87.6854 204.217 82.6737 193.914 78.726C161.167 65.5782 130.101 60.9757 124.656 68.4667C120.174 74.0898 121.738 78.7597 124.333 86.4962C128.194 98.0168 134.655 117.298 125.681 157.314C123.154 171.608 114.127 186.311 104.575 201.88C91.6972 222.87 78.3809 244.573 77.4036 269.473C76.2867 297.916 92.145 325.506 125.874 353.809C161.591 384.26 199.374 405.399 238.167 416.636C273.196 426.784 308.249 428.301 339.532 421.031C361.605 415.899 381.142 406.699 397.597 393.691C414.124 380.62 426.651 364.401 434.831 345.481C441.879 328.775 441.888 309.744 434.85 288.927C428.789 270.999 417.658 252.04 401.776 232.571C388.387 216.164 371.913 199.844 354.129 185.377C338.685 172.812 322.807 162.206 310.579 156.284C266.769 135.019 265.175 133.724 245.711 117.856L244.026 116.484C240.646 113.75 237.344 110.399 233.853 106.846C229.549 102.48 224.75 97.6028 218.77 92.8752Z" fill="#386C7A"/>
</g>
<mask id="mask5_4584_150" style="mask-type:alpha" maskUnits="userSpaceOnUse" x="101" y="82" width="322" height="325">
<path d="M152.93 351.051C150.927 349.467 148.934 347.854 146.941 346.203C79.9456 292.018 101.682 250.548 120.867 213.959C128.483 199.43 135.676 185.709 136.976 172.118C142.652 136.685 136.889 119.06 133.076 107.4C130.346 99.0518 128.7 94.0112 133.273 88.0463C135.965 84.1131 144.029 82.0044 155.385 82.2788C167.445 82.5725 181.782 85.4948 195.753 90.5016C214.563 96.7169 224.99 106.201 234.191 114.568C236.631 116.788 238.937 118.887 241.272 120.798C244.777 123.696 247.776 126.291 250.424 128.578C262.648 139.145 270.028 145.524 302.852 162.023C323.804 172.523 358.693 198.573 385.797 230.944C400.466 248.468 410.87 265.511 416.719 281.6C423.556 300.404 423.994 317.606 418.029 332.728C411.01 349.862 400.081 364.627 385.547 376.615C371.075 388.549 353.816 397.085 334.26 401.976C306.983 408.798 276.349 407.97 245.663 399.588C213.86 390.899 182.692 374.583 152.93 351.051ZM223.435 106.365C216.349 100.761 207.693 95.3303 195.479 91.296C165.462 80.536 138.969 81.21 133.957 88.5374C129.639 94.1749 131.232 99.0518 133.875 107.135C137.712 118.872 143.513 136.613 137.809 172.219C136.499 185.95 129.268 199.743 121.613 214.344C111.898 232.874 101.855 252.04 102.409 273.526C103.04 297.973 117.781 321.53 147.48 345.548C178.951 371.622 212.059 389.531 245.894 398.775C276.441 407.123 306.93 407.946 334.063 401.158C353.498 396.295 370.642 387.822 385.017 375.965C399.446 364.064 410.292 349.414 417.254 332.415C424.908 313.008 425.554 279.737 385.157 231.483C358.129 199.199 323.351 173.235 302.476 162.774C269.556 146.227 262.147 139.819 249.875 129.213C247.232 126.926 244.238 124.336 240.738 121.448C238.384 119.517 236.073 117.413 233.622 115.189C230.469 112.325 227.171 109.321 223.435 106.365Z" fill="#386C7A"/>
</mask>
<g mask="url(#mask5_4584_150)">
<path d="M152.93 351.051C150.927 349.467 148.934 347.854 146.941 346.203C79.9456 292.018 101.682 250.548 120.867 213.959C128.483 199.43 135.676 185.709 136.976 172.118C142.652 136.685 136.889 119.06 133.076 107.4C130.346 99.0518 128.7 94.0112 133.273 88.0463C135.965 84.1131 144.029 82.0044 155.385 82.2788C167.445 82.5725 181.782 85.4948 195.753 90.5016C214.563 96.7169 224.99 106.201 234.191 114.568C236.631 116.788 238.937 118.887 241.272 120.798C244.777 123.696 247.776 126.291 250.424 128.578C262.648 139.145 270.028 145.524 302.852 162.023C323.804 172.523 358.693 198.573 385.797 230.944C400.466 248.468 410.87 265.511 416.719 281.6C423.556 300.404 423.994 317.606 418.029 332.728C411.01 349.862 400.081 364.627 385.547 376.615C371.075 388.549 353.816 397.085 334.26 401.976C306.983 408.798 276.349 407.97 245.663 399.588C213.86 390.899 182.692 374.583 152.93 351.051ZM223.435 106.365C216.349 100.761 207.693 95.3303 195.479 91.296C165.462 80.536 138.969 81.21 133.957 88.5374C129.639 94.1749 131.232 99.0518 133.875 107.135C137.712 118.872 143.513 136.613 137.809 172.219C136.499 185.95 129.268 199.743 121.613 214.344C111.898 232.874 101.855 252.04 102.409 273.526C103.04 297.973 117.781 321.53 147.48 345.548C178.951 371.622 212.059 389.531 245.894 398.775C276.441 407.123 306.93 407.946 334.063 401.158C353.498 396.295 370.642 387.822 385.017 375.965C399.446 364.064 410.292 349.414 417.254 332.415C424.908 313.008 425.554 279.737 385.157 231.483C358.129 199.199 323.351 173.235 302.476 162.774C269.556 146.227 262.147 139.819 249.875 129.213C247.232 126.926 244.238 124.336 240.738 121.448C238.384 119.517 236.073 117.413 233.622 115.189C230.469 112.325 227.171 109.321 223.435 106.365Z" fill="#386C7A"/>
</g>
<mask id="mask6_4584_150" style="mask-type:alpha" maskUnits="userSpaceOnUse" x="126" y="99" width="278" height="288">
<path d="M166.42 336.199C141.93 316.836 128.946 297.607 126.745 277.484C124.747 259.175 131.651 242.464 138.329 226.298C143.894 212.828 149.151 200.108 149.165 187.1C151.741 156.188 146.349 139.444 142.777 128.366C139.932 119.527 138.213 114.188 142.618 108.18C148.068 99.6968 172.601 95.7202 197.255 103.125C216.797 108.184 226.984 116.677 236.834 124.89L237.955 125.824C242.683 129.805 246.433 133.411 250.058 136.897C259.779 146.237 268.955 155.061 294.745 168.594C313.549 178.425 344.852 201.808 369.135 229.909C389.601 253.595 411.64 288.388 400.413 319.637C388.845 350.054 362.742 372.826 328.791 382.112C305.668 388.438 279.604 388.299 253.409 381.708C224.774 374.501 196.567 360.025 169.564 338.673C169.241 338.418 168.923 338.168 168.606 337.913C167.869 337.335 167.137 336.767 166.42 336.199ZM230.373 120.596C222.15 114.092 212.57 107.886 197.048 103.866C170.695 95.9513 147.957 101.3 143.258 108.613C139.075 114.323 140.745 119.517 143.518 128.12C147.105 139.261 152.531 156.091 149.941 187.129C149.926 200.258 144.64 213.049 139.046 226.587C132.407 242.662 125.537 259.281 127.516 277.392C129.754 297.887 143.35 317.471 169.082 337.287C169.4 337.542 169.722 337.797 170.04 338.047C196.967 359.336 225.068 373.765 253.597 380.943C279.662 387.504 305.591 387.644 328.584 381.352C345.386 376.754 360.147 368.994 372.447 358.282C384.781 347.541 393.943 334.446 399.682 319.358C410.779 288.47 388.874 253.937 368.543 230.405C344.327 202.376 313.121 179.07 294.379 169.268C268.492 155.682 259.278 146.824 249.519 137.446C245.904 133.97 242.163 130.373 237.455 126.406L236.338 125.477C234.388 123.855 232.424 122.218 230.373 120.596Z" fill="#386C7A"/>
</mask>
<g mask="url(#mask6_4584_150)">
<path d="M166.42 336.199C141.93 316.836 128.946 297.607 126.745 277.484C124.747 259.175 131.651 242.464 138.329 226.298C143.894 212.828 149.151 200.108 149.165 187.1C151.741 156.188 146.349 139.444 142.777 128.366C139.932 119.527 138.213 114.188 142.618 108.18C148.068 99.6968 172.601 95.7202 197.255 103.125C216.797 108.184 226.984 116.677 236.834 124.89L237.955 125.824C242.683 129.805 246.433 133.411 250.058 136.897C259.779 146.237 268.955 155.061 294.745 168.594C313.549 178.425 344.852 201.808 369.135 229.909C389.601 253.595 411.64 288.388 400.413 319.637C388.845 350.054 362.742 372.826 328.791 382.112C305.668 388.438 279.604 388.299 253.409 381.708C224.774 374.501 196.567 360.025 169.564 338.673C169.241 338.418 168.923 338.168 168.606 337.913C167.869 337.335 167.137 336.767 166.42 336.199ZM230.373 120.596C222.15 114.092 212.57 107.886 197.048 103.866C170.695 95.9513 147.957 101.3 143.258 108.613C139.075 114.323 140.745 119.517 143.518 128.12C147.105 139.261 152.531 156.091 149.941 187.129C149.926 200.258 144.64 213.049 139.046 226.587C132.407 242.662 125.537 259.281 127.516 277.392C129.754 297.887 143.35 317.471 169.082 337.287C169.4 337.542 169.722 337.797 170.04 338.047C196.967 359.336 225.068 373.765 253.597 380.943C279.662 387.504 305.591 387.644 328.584 381.352C345.386 376.754 360.147 368.994 372.447 358.282C384.781 347.541 393.943 334.446 399.682 319.358C410.779 288.47 388.874 253.937 368.543 230.405C344.327 202.376 313.121 179.07 294.379 169.268C268.492 155.682 259.278 146.824 249.519 137.446C245.904 133.97 242.163 130.373 237.455 126.406L236.338 125.477C234.388 123.855 232.424 122.218 230.373 120.596Z" fill="#386C7A"/>
</g>
<mask id="mask7_4584_150" style="mask-type:alpha" maskUnits="userSpaceOnUse" x="149" y="114" width="236" height="254">
<path d="M183.621 324.596C165.707 310.437 155.352 296.163 152.035 281.133C148.732 266.17 152.564 251.982 156.276 238.262C159.444 226.539 162.722 214.421 161.37 202.082C161.095 175.97 156.031 160.304 152.68 149.934C149.565 140.291 147.683 134.466 151.967 128.308C156.912 120.124 177.613 111.14 198.757 115.743C214.298 118.179 225.029 122.7 234.633 130.84C239.703 135.202 243.665 139.511 247.863 144.07C256.736 153.708 265.912 163.674 286.628 175.146C303.377 184.375 331.121 205.12 352.458 228.855C370.95 249.421 391.223 279.587 382.783 306.523C373.67 333.204 351.991 353.54 323.303 362.326C304.325 368.137 282.824 368.666 261.122 363.847C237.118 358.518 213.277 346.997 190.265 329.598C187.949 327.933 185.73 326.262 183.621 324.596ZM232.448 129.964C223.382 122.796 213.118 118.713 198.627 116.441C177.758 111.901 157.408 120.668 152.56 128.698C148.458 134.586 150.196 139.964 153.349 149.717C156.714 160.126 161.798 175.854 162.073 202.039C163.44 214.474 160.142 226.664 156.96 238.445C153.272 252.083 149.459 266.185 152.728 280.979C156.397 297.603 168.817 313.316 190.693 329.03C213.634 346.371 237.382 357.849 261.285 363.159C282.868 367.949 304.243 367.429 323.106 361.652C351.577 352.933 373.087 332.761 382.124 306.307C390.457 279.698 370.314 249.758 351.943 229.331C330.654 205.659 302.987 184.972 286.291 175.767C265.474 164.237 256.259 154.228 247.348 144.552C243.164 140.007 239.212 135.713 234.176 131.38C233.603 130.893 233.026 130.422 232.448 129.964Z" fill="#386C7A"/>
</mask>
<g mask="url(#mask7_4584_150)">
<path d="M183.621 324.596C165.707 310.437 155.352 296.163 152.035 281.133C148.732 266.17 152.564 251.982 156.276 238.262C159.444 226.539 162.722 214.421 161.37 202.082C161.095 175.97 156.031 160.304 152.68 149.934C149.565 140.291 147.683 134.466 151.967 128.308C156.912 120.124 177.613 111.14 198.757 115.743C214.298 118.179 225.029 122.7 234.633 130.84C239.703 135.202 243.665 139.511 247.863 144.07C256.736 153.708 265.912 163.674 286.628 175.146C303.377 184.375 331.121 205.12 352.458 228.855C370.95 249.421 391.223 279.587 382.783 306.523C373.67 333.204 351.991 353.54 323.303 362.326C304.325 368.137 282.824 368.666 261.122 363.847C237.118 358.518 213.277 346.997 190.265 329.598C187.949 327.933 185.73 326.262 183.621 324.596ZM232.448 129.964C223.382 122.796 213.118 118.713 198.627 116.441C177.758 111.901 157.408 120.668 152.56 128.698C148.458 134.586 150.196 139.964 153.349 149.717C156.714 160.126 161.798 175.854 162.073 202.039C163.44 214.474 160.142 226.664 156.96 238.445C153.272 252.083 149.459 266.185 152.728 280.979C156.397 297.603 168.817 313.316 190.693 329.03C213.634 346.371 237.382 357.849 261.285 363.159C282.868 367.949 304.243 367.429 323.106 361.652C351.577 352.933 373.087 332.761 382.124 306.307C390.457 279.698 370.314 249.758 351.943 229.331C330.654 205.659 302.987 184.972 286.291 175.767C265.474 164.237 256.259 154.228 247.348 144.552C243.164 140.007 239.212 135.713 234.176 131.38C233.603 130.893 233.026 130.422 232.448 129.964Z" fill="#386C7A"/>
</g>
<mask id="mask8_4584_150" style="mask-type:alpha" maskUnits="userSpaceOnUse" x="158" y="128" width="209" height="220">
<path d="M200.351 313.061C171.494 290.246 173.054 270.383 174.691 249.479C175.5 239.172 176.332 228.513 173.569 217.06C170.916 196.286 166.348 182.676 163.011 172.734C159.165 161.267 157.042 154.955 161.312 148.442C163.902 143.878 169.645 138.596 176.294 134.673C184.329 129.931 192.836 127.692 200.25 128.366C212.945 128.361 223.315 128.91 231.316 135.862C236.328 140.291 240.507 145.442 244.936 150.892C252.928 160.732 261.983 171.887 278.52 181.708C289.993 188.482 314.965 205.813 335.791 227.805C346.628 239.249 354.697 250.249 359.781 260.504C365.784 272.616 367.599 283.689 365.163 293.414C358.544 316.426 341.289 334.393 317.824 342.717C302.972 347.989 286.026 349.149 268.815 346.073C249.779 342.674 230.642 334.336 211.934 321.299C207.616 318.506 203.769 315.762 200.351 313.061ZM229.997 135.597C222.285 129.497 212.334 129.002 200.221 129.006C183.265 127.466 166.242 141.056 161.861 148.774C157.749 155.042 159.834 161.252 163.618 172.532C166.964 182.498 171.542 196.146 174.2 216.944C176.982 228.46 176.145 239.172 175.331 249.527C174.407 261.337 173.531 272.491 177.931 284.094C182.889 297.169 193.808 308.82 212.295 320.764C230.936 333.758 249.986 342.058 268.93 345.442C286.031 348.499 302.866 347.349 317.617 342.115C340.885 333.859 357.99 316.046 364.552 293.251C366.944 283.689 365.149 272.766 359.213 260.793C354.158 250.596 346.123 239.648 335.334 228.253C314.555 206.314 289.646 189.026 278.203 182.267C261.569 172.388 252.475 161.185 244.45 151.301C240.04 145.871 235.876 140.739 230.902 136.348C230.599 136.083 230.296 135.838 229.997 135.597Z" fill="#386C7A"/>
</mask>
<g mask="url(#mask8_4584_150)">
<path d="M200.351 313.061C171.494 290.246 173.054 270.383 174.691 249.479C175.5 239.172 176.332 228.513 173.569 217.06C170.916 196.286 166.348 182.676 163.011 172.734C159.165 161.267 157.042 154.955 161.312 148.442C163.902 143.878 169.645 138.596 176.294 134.673C184.329 129.931 192.836 127.692 200.25 128.366C212.945 128.361 223.315 128.91 231.316 135.862C236.328 140.291 240.507 145.442 244.936 150.892C252.928 160.732 261.983 171.887 278.52 181.708C289.993 188.482 314.965 205.813 335.791 227.805C346.628 239.249 354.697 250.249 359.781 260.504C365.784 272.616 367.599 283.689 365.163 293.414C358.544 316.426 341.289 334.393 317.824 342.717C302.972 347.989 286.026 349.149 268.815 346.073C249.779 342.674 230.642 334.336 211.934 321.299C207.616 318.506 203.769 315.762 200.351 313.061ZM229.997 135.597C222.285 129.497 212.334 129.002 200.221 129.006C183.265 127.466 166.242 141.056 161.861 148.774C157.749 155.042 159.834 161.252 163.618 172.532C166.964 182.498 171.542 196.146 174.2 216.944C176.982 228.46 176.145 239.172 175.331 249.527C174.407 261.337 173.531 272.491 177.931 284.094C182.889 297.169 193.808 308.82 212.295 320.764C230.936 333.758 249.986 342.058 268.93 345.442C286.031 348.499 302.866 347.349 317.617 342.115C340.885 333.859 357.99 316.046 364.552 293.251C366.944 283.689 365.149 272.766 359.213 260.793C354.158 250.596 346.123 239.648 335.334 228.253C314.555 206.314 289.646 189.026 278.203 182.267C261.569 172.388 252.475 161.185 244.45 151.301C240.04 145.871 235.876 140.739 230.902 136.348C230.599 136.083 230.296 135.838 229.997 135.597Z" fill="#386C7A"/>
</g>
<mask id="mask9_4584_150" style="mask-type:alpha" maskUnits="userSpaceOnUse" x="168" y="137" width="180" height="192">
<path d="M216.118 301.762C198.685 287.984 196.105 274.696 193.004 258.766C191.387 250.451 189.716 241.848 185.773 232.032C181.826 217.844 177.854 207.205 174.662 198.659C169.188 183.995 166.174 175.917 170.657 168.575C175.211 160.034 189.442 142.587 201.694 141.003C202.522 140.777 203.35 140.541 204.183 140.31C212.849 137.869 221.818 135.351 227.995 140.883C232.766 145.24 237.113 151.311 241.715 157.738C249.163 168.137 257.603 179.922 270.409 188.275C284.298 197.273 353.301 244.01 347.538 280.3C343.494 299.764 330.683 315.483 312.384 323.441C301.466 328.188 289.382 329.877 276.46 328.462C262.378 326.921 247.96 321.717 233.603 312.999C226.517 309.181 220.783 305.455 216.118 301.762ZM227.041 140.825C221.11 136.136 212.589 138.534 204.337 140.859C203.5 141.095 202.662 141.331 201.829 141.557L201.791 141.567C189.74 143.107 175.673 160.386 171.157 168.859C166.81 175.974 169.79 183.961 175.201 198.457C178.393 207.017 182.37 217.666 186.317 231.849C190.27 241.689 191.95 250.317 193.573 258.655C197.472 278.702 200.553 294.536 233.892 312.503C248.191 321.188 262.532 326.363 276.528 327.894C289.348 329.295 301.336 327.62 312.163 322.916C330.289 315.035 342.979 299.466 346.98 280.199C349.276 265.737 339.768 247.89 318.72 227.169C300.195 208.928 278.545 194.23 270.1 188.756C257.208 180.341 248.735 168.512 241.253 158.07C236.67 151.667 232.337 145.62 227.614 141.307C227.422 141.138 227.234 140.974 227.041 140.825Z" fill="#386C7A"/>
</mask>
<g mask="url(#mask9_4584_150)">
<path d="M216.118 301.762C198.685 287.984 196.105 274.696 193.004 258.766C191.387 250.451 189.716 241.848 185.773 232.032C181.826 217.844 177.854 207.205 174.662 198.659C169.188 183.995 166.174 175.917 170.657 168.575C175.211 160.034 189.442 142.587 201.694 141.003C202.522 140.777 203.35 140.541 204.183 140.31C212.849 137.869 221.818 135.351 227.995 140.883C232.766 145.24 237.113 151.311 241.715 157.738C249.163 168.137 257.603 179.922 270.409 188.275C284.298 197.273 353.301 244.01 347.538 280.3C343.494 299.764 330.683 315.483 312.384 323.441C301.466 328.188 289.382 329.877 276.46 328.462C262.378 326.921 247.96 321.717 233.603 312.999C226.517 309.181 220.783 305.455 216.118 301.762ZM227.041 140.825C221.11 136.136 212.589 138.534 204.337 140.859C203.5 141.095 202.662 141.331 201.829 141.557L201.791 141.567C189.74 143.107 175.673 160.386 171.157 168.859C166.81 175.974 169.79 183.961 175.201 198.457C178.393 207.017 182.37 217.666 186.317 231.849C190.27 241.689 191.95 250.317 193.573 258.655C197.472 278.702 200.553 294.536 233.892 312.503C248.191 321.188 262.532 326.363 276.528 327.894C289.348 329.295 301.336 327.62 312.163 322.916C330.289 315.035 342.979 299.466 346.98 280.199C349.276 265.737 339.768 247.89 318.72 227.169C300.195 208.928 278.545 194.23 270.1 188.756C257.208 180.341 248.735 168.512 241.253 158.07C236.67 151.667 232.337 145.62 227.614 141.307C227.422 141.138 227.234 140.974 227.041 140.825Z" fill="#386C7A"/>
</g>
<mask id="mask10_4584_150" style="mask-type:alpha" maskUnits="userSpaceOnUse" x="177" y="144" width="153" height="168">
<path d="M228.89 290.954C218.583 282.808 212.945 272.944 205.146 259.305C202.931 255.429 200.64 251.424 197.982 246.995C196.317 243.519 194.747 240.269 193.269 237.207C180.415 210.589 174.546 198.443 180.001 188.699C183.737 181.232 195.113 158.479 203.138 153.665C210.341 147.397 219.295 140.869 224.673 145.895C229.116 150.131 233.666 157.324 238.48 164.945C245.273 175.69 252.966 187.866 262.292 194.832C264.073 196.151 266.225 197.696 268.719 199.487C278.935 206.819 294.379 217.907 307.127 230.015C322.384 244.501 330.043 257.004 329.903 267.176C328.685 283.102 320.193 297.193 307.18 304.886C292.752 313.417 274.318 313.355 255.277 304.704C243.564 300.453 235.317 296.038 228.89 290.954ZM223.917 145.914C218.77 141.846 210.307 148.095 203.451 154.065L203.413 154.089C195.517 158.802 184.175 181.482 180.444 188.934C175.11 198.457 180.94 210.531 193.717 236.986C195.195 240.048 196.764 243.293 198.42 246.754C201.068 251.169 203.36 255.179 205.574 259.055C218.178 281.094 225.125 293.236 255.465 304.232C274.366 312.82 292.636 312.897 306.92 304.448C319.793 296.837 328.194 282.895 329.398 267.147C329.538 257.138 321.926 244.766 306.78 230.376C294.056 218.292 278.631 207.219 268.425 199.892C265.931 198.101 263.774 196.555 261.988 195.231C252.586 188.207 244.864 175.994 238.052 165.21C233.252 157.617 228.722 150.449 224.321 146.256C224.196 146.145 224.057 146.025 223.917 145.914Z" fill="#386C7A"/>
</mask>
<g mask="url(#mask10_4584_150)">
<path d="M228.89 290.954C218.583 282.808 212.945 272.944 205.146 259.305C202.931 255.429 200.64 251.424 197.982 246.995C196.317 243.519 194.747 240.269 193.269 237.207C180.415 210.589 174.546 198.443 180.001 188.699C183.737 181.232 195.113 158.479 203.138 153.665C210.341 147.397 219.295 140.869 224.673 145.895C229.116 150.131 233.666 157.324 238.48 164.945C245.273 175.69 252.966 187.866 262.292 194.832C264.073 196.151 266.225 197.696 268.719 199.487C278.935 206.819 294.379 217.907 307.127 230.015C322.384 244.501 330.043 257.004 329.903 267.176C328.685 283.102 320.193 297.193 307.18 304.886C292.752 313.417 274.318 313.355 255.277 304.704C243.564 300.453 235.317 296.038 228.89 290.954ZM223.917 145.914C218.77 141.846 210.307 148.095 203.451 154.065L203.413 154.089C195.517 158.802 184.175 181.482 180.444 188.934C175.11 198.457 180.94 210.531 193.717 236.986C195.195 240.048 196.764 243.293 198.42 246.754C201.068 251.169 203.36 255.179 205.574 259.055C218.178 281.094 225.125 293.236 255.465 304.232C274.366 312.82 292.636 312.897 306.92 304.448C319.793 296.837 328.194 282.895 329.398 267.147C329.538 257.138 321.926 244.766 306.78 230.376C294.056 218.292 278.631 207.219 268.425 199.892C265.931 198.101 263.774 196.555 261.988 195.231C252.586 188.207 244.864 175.994 238.052 165.21C233.252 157.617 228.722 150.449 224.321 146.256C224.196 146.145 224.057 146.025 223.917 145.914Z" fill="#386C7A"/>
</g>
<mask id="mask11_4584_150" style="mask-type:alpha" maskUnits="userSpaceOnUse" x="187" y="149" width="126" height="148">
<path d="M228.134 279.612C222.14 274.874 216.195 269.015 210.191 261.948C190.145 235.513 183.91 219.63 189.35 208.832C191.719 203.777 195.248 193.282 198.363 184.024C200.828 176.692 203.158 169.769 204.621 166.384C205.594 163.289 207.659 159.524 210.143 156.332C212.863 152.837 215.603 150.603 217.856 150.045C219.247 149.698 220.426 149.997 221.356 150.916C225.486 155.076 230.402 163.91 235.606 173.259C241.792 184.371 248.186 195.862 254.189 201.399C257.468 204.398 263.206 208.442 269.85 213.131C286.339 224.758 308.927 240.688 312.273 254.033C314.57 266.892 311.132 279.944 303.309 288.109C296.738 294.969 287.639 297.838 276.999 296.404C263.774 296.163 252.99 293.838 243.087 289.076C238.028 286.655 233.064 283.511 228.134 279.612ZM220.763 150.979C219.998 150.372 219.054 150.204 217.957 150.473C213.354 151.609 207.004 160.256 205.026 166.538C203.562 169.928 201.237 176.846 198.772 184.168C195.652 193.436 192.118 203.945 189.735 209.025C184.382 219.659 190.602 235.402 210.523 261.678C221.413 274.499 232.125 283.338 243.261 288.687C253.106 293.419 263.832 295.735 277.018 295.971C287.538 297.386 296.507 294.565 302.982 287.81C310.709 279.746 314.103 266.839 311.835 254.13C308.533 240.958 286.026 225.085 269.59 213.492C262.932 208.798 257.184 204.745 253.886 201.726C247.829 196.141 241.417 184.621 235.216 173.476C230.026 164.151 225.125 155.345 221.038 151.229C220.956 151.142 220.86 151.056 220.763 150.979Z" fill="#386C7A"/>
</mask>
<g mask="url(#mask11_4584_150)">
<path d="M228.134 279.612C222.14 274.874 216.195 269.015 210.191 261.948C190.145 235.513 183.91 219.63 189.35 208.832C191.719 203.777 195.248 193.282 198.363 184.024C200.828 176.692 203.158 169.769 204.621 166.384C205.594 163.289 207.659 159.524 210.143 156.332C212.863 152.837 215.603 150.603 217.856 150.045C219.247 149.698 220.426 149.997 221.356 150.916C225.486 155.076 230.402 163.91 235.606 173.259C241.792 184.371 248.186 195.862 254.189 201.399C257.468 204.398 263.206 208.442 269.85 213.131C286.339 224.758 308.927 240.688 312.273 254.033C314.57 266.892 311.132 279.944 303.309 288.109C296.738 294.969 287.639 297.838 276.999 296.404C263.774 296.163 252.99 293.838 243.087 289.076C238.028 286.655 233.064 283.511 228.134 279.612ZM220.763 150.979C219.998 150.372 219.054 150.204 217.957 150.473C213.354 151.609 207.004 160.256 205.026 166.538C203.562 169.928 201.237 176.846 198.772 184.168C195.652 193.436 192.118 203.945 189.735 209.025C184.382 219.659 190.602 235.402 210.523 261.678C221.413 274.499 232.125 283.338 243.261 288.687C253.106 293.419 263.832 295.735 277.018 295.971C287.538 297.386 296.507 294.565 302.982 287.81C310.709 279.746 314.103 266.839 311.835 254.13C308.533 240.958 286.026 225.085 269.59 213.492C262.932 208.798 257.184 204.745 253.886 201.726C247.829 196.141 241.417 184.621 235.216 173.476C230.026 164.151 225.125 155.345 221.038 151.229C220.956 151.142 220.86 151.056 220.763 150.979Z" fill="#386C7A"/>
</g>
<mask id="mask12_4584_150" style="mask-type:alpha" maskUnits="userSpaceOnUse" x="196" y="155" width="110" height="142">
<path d="M224.62 278.711C223.869 278.119 223.127 277.513 222.4 276.892C210.509 266.791 202.681 257.124 199.128 248.165C196.341 241.131 196.196 234.67 198.7 228.965C202.801 219.621 207.274 189.792 206.171 179.089C205.762 175.103 206.821 169.875 209.074 164.743C211.116 160.102 213.744 156.515 215.771 155.6C216.671 155.196 217.456 155.316 218.034 155.942C222.083 160.338 228.279 173.139 234.268 185.516C238.913 195.116 243.299 204.181 246.087 207.985C249.245 212.298 258.7 217.69 268.714 223.395C279.026 229.273 289.69 235.349 294.6 240.886C299.737 246.677 303.743 255.622 305.047 264.23C306.573 274.287 304.349 282.746 298.784 288.046C292.27 294.247 280.042 297.121 266.076 295.735C251.301 294.266 236.684 288.253 224.62 278.711ZM217.572 156.014C217.129 155.663 216.59 155.644 215.925 155.942C211.997 157.714 205.642 170.279 206.542 179.056C207.645 189.796 203.158 219.736 199.037 229.115C196.572 234.728 196.716 241.093 199.47 248.03C202.999 256.936 210.793 266.55 222.636 276.612C235.043 287.156 250.487 293.819 266.109 295.369C279.767 296.722 292.188 293.814 298.529 287.777C304.003 282.563 306.188 274.22 304.681 264.288C303.386 255.747 299.414 246.879 294.321 241.136C289.449 235.643 278.814 229.582 268.526 223.718C258.479 217.994 248.99 212.587 245.783 208.206C242.977 204.374 238.581 195.294 233.931 185.68C227.951 173.327 221.77 160.554 217.759 156.197C217.702 156.125 217.639 156.063 217.572 156.014Z" fill="#386C7A"/>
</mask>
<g mask="url(#mask12_4584_150)">
<path d="M224.62 278.711C223.869 278.119 223.127 277.513 222.4 276.892C210.509 266.791 202.681 257.124 199.128 248.165C196.341 241.131 196.196 234.67 198.7 228.965C202.801 219.621 207.274 189.792 206.171 179.089C205.762 175.103 206.821 169.875 209.074 164.743C211.116 160.102 213.744 156.515 215.771 155.6C216.671 155.196 217.456 155.316 218.034 155.942C222.083 160.338 228.279 173.139 234.268 185.516C238.913 195.116 243.299 204.181 246.087 207.985C249.245 212.298 258.7 217.69 268.714 223.395C279.026 229.273 289.69 235.349 294.6 240.886C299.737 246.677 303.743 255.622 305.047 264.23C306.573 274.287 304.349 282.746 298.784 288.046C292.27 294.247 280.042 297.121 266.076 295.735C251.301 294.266 236.684 288.253 224.62 278.711ZM217.572 156.014C217.129 155.663 216.59 155.644 215.925 155.942C211.997 157.714 205.642 170.279 206.542 179.056C207.645 189.796 203.158 219.736 199.037 229.115C196.572 234.728 196.716 241.093 199.47 248.03C202.999 256.936 210.793 266.55 222.636 276.612C235.043 287.156 250.487 293.819 266.109 295.369C279.767 296.722 292.188 293.814 298.529 287.777C304.003 282.563 306.188 274.22 304.681 264.288C303.386 255.747 299.414 246.879 294.321 241.136C289.449 235.643 278.814 229.582 268.526 223.718C258.479 217.994 248.99 212.587 245.783 208.206C242.977 204.374 238.581 195.294 233.931 185.68C227.951 173.327 221.77 160.554 217.759 156.197C217.702 156.125 217.639 156.063 217.572 156.014Z" fill="#386C7A"/>
</g>
</g>
</svg>
