<svg width="100" height="100" viewBox="0 0 100 100" fill="none" xmlns="http://www.w3.org/2000/svg">
<g opacity="0.5" clip-path="url(#clip0_4586_10619)">
<path d="M26.0915 86.9487L30.7346 59.0664L26.2245 60.3435L21.5813 88.2258L23.6472 95.5218L28.1574 94.2447L26.0915 86.9487Z" fill="#386C7A"/>
<path d="M24.3334 56.332L28.8436 55.0549C27.9746 55.3009 27.0714 54.795 26.8253 53.9261L23.3418 41.6238C23.0957 40.7549 23.5997 39.8506 24.4686 39.6045L19.9584 40.8816C19.0895 41.1277 18.5856 42.032 18.8316 42.901L22.3151 55.2032C22.5612 56.0722 23.4644 56.578 24.3334 56.332Z" fill="#386C7A"/>
<path d="M33.659 48.7367L38.1692 47.4596C37.6671 47.6018 37.1443 47.3097 37.0036 46.8072L35.8355 42.6819C35.6918 42.1802 35.9839 41.6574 36.486 41.5152L31.9758 42.7923C31.4737 42.9345 31.1816 43.4573 31.3253 43.959L32.4934 48.0843C32.6341 48.5869 33.1569 48.8789 33.659 48.7367Z" fill="#386C7A"/>
<path d="M29.0891 81.8058L30.9245 81.2861C31.3395 81.1686 31.5808 80.7366 31.4633 80.3216C31.3458 79.9065 30.9138 79.6652 30.4987 79.7827L28.6634 80.3024C28.2483 80.4199 28.007 80.8519 28.1246 81.267C28.2421 81.682 28.674 81.9233 29.0891 81.8058Z" fill="#386C7A"/>
<path d="M37.1313 77.9047L35.2959 78.4244C34.8808 78.5419 34.6395 78.9738 34.7571 79.3889C34.8746 79.804 35.3065 80.0453 35.7216 79.9277L37.557 79.408C37.972 79.2905 38.2133 78.8586 38.0958 78.4435C37.9783 78.0284 37.5463 77.7871 37.1313 77.9047Z" fill="#386C7A"/>
<path d="M43.7638 76.0266L41.9284 76.5463C41.5133 76.6638 41.272 77.0958 41.3896 77.5109C41.5071 77.9259 41.939 78.1672 42.3541 78.0497L44.1895 77.53C44.6046 77.4125 44.8459 76.9805 44.7283 76.5654C44.6108 76.1504 44.1789 75.9091 43.7638 76.0266Z" fill="#386C7A"/>
<path d="M50.3964 74.1484L48.5611 74.6681C48.146 74.7857 47.9047 75.2176 48.0222 75.6327C48.1398 76.0478 48.5717 76.2891 48.9868 76.1715L50.8221 75.6518C51.2372 75.5343 51.4785 75.1024 51.361 74.6873C51.2434 74.2722 50.8115 74.0309 50.3964 74.1484Z" fill="#386C7A"/>
<path d="M57.0289 72.2704L55.1936 72.7901C54.7785 72.9076 54.5372 73.3395 54.6547 73.7546C54.7723 74.1697 55.2042 74.411 55.6193 74.2935L57.4546 73.7738C57.8697 73.6562 58.111 73.2243 57.9935 72.8092C57.8759 72.3941 57.444 72.1528 57.0289 72.2704Z" fill="#386C7A"/>
<path d="M63.6614 70.3923L61.8261 70.912C61.411 71.0296 61.1697 71.4615 61.2873 71.8766C61.4048 72.2917 61.8367 72.533 62.2518 72.4154L64.0871 71.8957C64.5022 71.7782 64.7435 71.3463 64.626 70.9312C64.5084 70.5161 64.0765 70.2748 63.6614 70.3923Z" fill="#386C7A"/>
<path d="M70.2941 68.5142L68.4588 69.0339C68.0437 69.1514 67.8024 69.5833 67.9199 69.9984C68.0375 70.4135 68.4694 70.6548 68.8845 70.5372L70.7198 70.0175C71.1349 69.9 71.3762 69.4681 71.2586 69.053C71.1411 68.6379 70.7092 68.3966 70.2941 68.5142Z" fill="#386C7A"/>
<path d="M76.9266 66.6361L75.0913 67.1558C74.6762 67.2733 74.4349 67.7053 74.5524 68.1203C74.67 68.5354 75.1019 68.7767 75.517 68.6592L77.3523 68.1395C77.7674 68.022 78.0087 67.59 77.8912 67.1749C77.7736 66.7599 77.3417 66.5186 76.9266 66.6361Z" fill="#386C7A"/>
<path d="M82.1495 66.7811L83.9848 66.2614C84.3999 66.1439 84.6412 65.712 84.5237 65.2969C84.4061 64.8818 83.9742 64.6405 83.5591 64.758L81.7238 65.2777C81.3087 65.3953 81.0674 65.8272 81.1849 66.2423C81.3025 66.6574 81.7344 66.8987 82.1495 66.7811Z" fill="#386C7A"/>
<path d="M30.9967 75.8925L32.8321 75.3728C33.2472 75.2552 33.4884 74.8233 33.3709 74.4082C33.2534 73.9931 32.8214 73.7518 32.4064 73.8694L30.571 74.3891C30.1559 74.5066 29.9146 74.9385 30.0322 75.3536C30.1497 75.7687 30.5816 76.01 30.9967 75.8925Z" fill="#386C7A"/>
<path d="M39.039 71.9912L37.2037 72.5109C36.7886 72.6284 36.5473 73.0604 36.6648 73.4755C36.7824 73.8905 37.2143 74.1318 37.6294 74.0143L39.4647 73.4946C39.8798 73.3771 40.1211 72.9451 40.0036 72.53C39.886 72.115 39.4541 71.8737 39.039 71.9912Z" fill="#386C7A"/>
<path d="M45.6715 70.1132L43.8362 70.6329C43.4211 70.7504 43.1798 71.1823 43.2973 71.5974C43.4149 72.0125 43.8468 72.2538 44.2619 72.1362L46.0972 71.6165C46.5123 71.499 46.7536 71.0671 46.6361 70.652C46.5185 70.2369 46.0866 69.9956 45.6715 70.1132Z" fill="#386C7A"/>
<path d="M52.304 68.2351L50.4687 68.7548C50.0536 68.8723 49.8123 69.3043 49.9299 69.7193C50.0474 70.1344 50.4793 70.3757 50.8944 70.2582L52.7297 69.7385C53.1448 69.621 53.3861 69.189 53.2686 68.7739C53.151 68.3589 52.7191 68.1176 52.304 68.2351Z" fill="#386C7A"/>
<path d="M58.9367 66.3569L57.1014 66.8766C56.6863 66.9942 56.445 67.4261 56.5625 67.8412C56.68 68.2563 57.112 68.4976 57.5271 68.38L59.3624 67.8603C59.7775 67.7428 60.0188 67.3109 59.9012 66.8958C59.7837 66.4807 59.3518 66.2394 58.9367 66.3569Z" fill="#386C7A"/>
<path d="M65.5692 64.4789L63.7339 64.9986C63.3188 65.1161 63.0775 65.548 63.195 65.9631C63.3126 66.3782 63.7445 66.6195 64.1596 66.502L65.9949 65.9823C66.41 65.8647 66.6513 65.4328 66.5337 65.0177C66.4162 64.6026 65.9843 64.3613 65.5692 64.4789Z" fill="#386C7A"/>
<path d="M72.2017 62.6008L70.3664 63.1205C69.9513 63.2381 69.71 63.67 69.8275 64.0851C69.9451 64.5002 70.377 64.7414 70.7921 64.6239L72.6274 64.1042C73.0425 63.9867 73.2838 63.5548 73.1663 63.1397C73.0487 62.7246 72.6168 62.4833 72.2017 62.6008Z" fill="#386C7A"/>
<path d="M77.4247 62.7457L79.2601 62.226C79.6752 62.1085 79.9165 61.6766 79.7989 61.2615C79.6814 60.8464 79.2495 60.6051 78.8344 60.7226L76.999 61.2423C76.5839 61.3599 76.3427 61.7918 76.4602 62.2069C76.5777 62.622 77.0096 62.8633 77.4247 62.7457Z" fill="#386C7A"/>
<path d="M32.9045 69.9789L34.7398 69.4592C35.1549 69.3417 35.3962 68.9097 35.2787 68.4946C35.1611 68.0796 34.7292 67.8383 34.3141 67.9558L32.4788 68.4755C32.0637 68.593 31.8224 69.025 31.9399 69.44C32.0575 69.8551 32.4894 70.0964 32.9045 69.9789Z" fill="#386C7A"/>
<path d="M39.537 68.1008L41.3723 67.5811C41.7874 67.4636 42.0287 67.0317 41.9112 66.6166C41.7936 66.2015 41.3617 65.9602 40.9466 66.0778L39.1113 66.5975C38.6962 66.715 38.4549 67.1469 38.5724 67.562C38.69 67.9771 39.1219 68.2184 39.537 68.1008Z" fill="#386C7A"/>
<path d="M46.1697 66.2228L48.005 65.7031C48.4201 65.5856 48.6614 65.1536 48.5438 64.7385C48.4263 64.3235 47.9944 64.0822 47.5793 64.1997L45.744 64.7194C45.3289 64.8369 45.0876 65.2689 45.2051 65.6839C45.3226 66.099 45.7546 66.3403 46.1697 66.2228Z" fill="#386C7A"/>
<path d="M52.8022 64.3446L54.6375 63.8249C55.0526 63.7074 55.2939 63.2755 55.1763 62.8604C55.0588 62.4453 54.6269 62.204 54.2118 62.3215L52.3765 62.8412C51.9614 62.9588 51.7201 63.3907 51.8376 63.8058C51.9551 64.2209 52.3871 64.4622 52.8022 64.3446Z" fill="#386C7A"/>
<path d="M59.4347 62.4666L61.27 61.9469C61.6851 61.8293 61.9264 61.3974 61.8089 60.9823C61.6913 60.5672 61.2594 60.3259 60.8443 60.4435L59.009 60.9632C58.5939 61.0807 58.3526 61.5126 58.4701 61.9277C58.5877 62.3428 59.0196 62.5841 59.4347 62.4666Z" fill="#386C7A"/>
<path d="M66.0673 60.5885L67.9027 60.0688C68.3178 59.9513 68.559 59.5194 68.4415 59.1043C68.324 58.6892 67.892 58.4479 67.477 58.5654L65.6416 59.0851C65.2265 59.2027 64.9852 59.6346 65.1028 60.0497C65.2203 60.4648 65.6522 60.706 66.0673 60.5885Z" fill="#386C7A"/>
<path d="M72.6998 58.7103L74.5352 58.1906C74.9503 58.0731 75.1916 57.6412 75.074 57.2261C74.9565 56.811 74.5246 56.5697 74.1095 56.6872L72.2741 57.2069C71.859 57.3245 71.6178 57.7564 71.7353 58.1715C71.8528 58.5866 72.2848 58.8279 72.6998 58.7103Z" fill="#386C7A"/>
<path d="M34.8122 64.0654L36.6476 63.5457C37.0627 63.4282 37.304 62.9963 37.1864 62.5812C37.0689 62.1661 36.637 61.9248 36.2219 62.0424L34.3865 62.5621C33.9715 62.6796 33.7302 63.1115 33.8477 63.5266C33.9652 63.9417 34.3972 64.183 34.8122 64.0654Z" fill="#386C7A"/>
<path d="M41.4448 62.1874L43.2801 61.6677C43.6952 61.5502 43.9365 61.1182 43.8189 60.7031C43.7014 60.2881 43.2695 60.0468 42.8544 60.1643L41.0191 60.684C40.604 60.8015 40.3627 61.2335 40.4802 61.6485C40.5977 62.0636 41.0297 62.3049 41.4448 62.1874Z" fill="#386C7A"/>
<path d="M48.0773 60.3093L49.9126 59.7896C50.3277 59.6721 50.569 59.2402 50.4514 58.8251C50.3339 58.41 49.902 58.1687 49.4869 58.2862L47.6516 58.8059C47.2365 58.9235 46.9952 59.3554 47.1127 59.7705C47.2303 60.1856 47.6622 60.4269 48.0773 60.3093Z" fill="#386C7A"/>
<path d="M54.7099 58.4312L56.5453 57.9115C56.9603 57.7939 57.2016 57.362 57.0841 56.9469C56.9666 56.5318 56.5346 56.2905 56.1196 56.4081L54.2842 56.9278C53.8691 57.0453 53.6278 57.4772 53.7454 57.8923C53.8629 58.3074 54.2948 58.5487 54.7099 58.4312Z" fill="#386C7A"/>
<path d="M61.3424 56.5531L63.1778 56.0334C63.5929 55.9159 63.8342 55.484 63.7166 55.0689C63.5991 54.6538 63.1672 54.4125 62.7521 54.53L60.9167 55.0497C60.5016 55.1673 60.2603 55.5992 60.3779 56.0143C60.4954 56.4294 60.9273 56.6706 61.3424 56.5531Z" fill="#386C7A"/>
<path d="M67.9749 54.6751L69.8103 54.1554C70.2254 54.0378 70.4667 53.6059 70.3491 53.1908C70.2316 52.7757 69.7997 52.5344 69.3846 52.652L67.5492 53.1717C67.1341 53.2892 66.8928 53.7211 67.0104 54.1362C67.1279 54.5513 67.5598 54.7926 67.9749 54.6751Z" fill="#386C7A"/>
<path d="M33.8721 49.488L62.9684 41.2491C63.412 41.1233 63.7801 40.8322 64.0049 40.4294C64.2297 40.0267 64.2841 39.5606 64.1584 39.1173L62.9903 34.9922C62.8648 34.5483 62.5741 34.18 62.1717 33.9551C61.7692 33.7299 61.3032 33.6751 60.859 33.8006L31.763 42.0398L31.7627 42.0399C31.3191 42.1657 30.9511 42.4568 30.7262 42.8595C30.5015 43.2622 30.447 43.7283 30.5727 44.1716L31.7407 48.2965C31.8663 48.7403 32.157 49.1086 32.5594 49.3336C32.9619 49.5587 33.4279 49.6135 33.8721 49.488ZM32.076 43.7456C32.0608 43.6916 32.0755 43.648 32.0906 43.621C32.1057 43.594 32.1351 43.5584 32.189 43.5431L61.2842 35.3041C61.3382 35.2888 61.3818 35.3036 61.4089 35.3188C61.4359 35.3341 61.4714 35.3633 61.4867 35.4176L62.655 39.5435C62.6703 39.5975 62.6555 39.6411 62.6405 39.6681C62.6254 39.6951 62.596 39.7307 62.5423 39.7459L33.4467 47.9847C33.3928 48 33.3491 47.9852 33.3221 47.97C33.295 47.9548 33.2596 47.9255 33.2443 47.8712L32.0761 43.7458L32.076 43.7456Z" fill="#386C7A"/>
<path d="M18.3158 25.7092C17.7537 23.7242 18.9114 21.6519 20.8965 21.0898L34.1688 17.3316C33.5044 18.5217 33.2928 19.9647 33.6926 21.3767L37.7731 35.7873L39.2765 35.3616L36.3993 25.2003L44.474 22.9139C44.6765 22.8565 44.8471 22.72 44.9476 22.5351C45.048 22.3502 45.0696 22.1325 45.0074 21.9315L43.9367 18.4661C43.1328 15.6467 40.187 14.0035 37.3651 14.8026C37.3585 14.8045 37.352 14.8068 37.3452 14.8087L37.3451 14.8083L20.4705 19.5865C17.6564 20.3834 16.0153 23.321 16.8121 26.135L20.8983 40.5656L22.4017 40.1399L18.3155 25.7093L18.3158 25.7092ZM35.1962 20.951C34.6309 18.9549 35.7951 16.8711 37.7911 16.3059C39.7872 15.7407 41.871 16.9048 42.4362 18.9009C42.4379 18.9069 42.4395 18.9127 42.4414 18.9187L43.2785 21.6285L35.9735 23.6969L35.196 20.951L35.1962 20.951Z" fill="#1AE5BE"/>
<path d="M30.4784 27.9694L31.77 27.6036C32.1851 27.4861 32.4264 27.0542 32.3088 26.6391C32.1913 26.224 31.7594 25.9827 31.3443 26.1003L30.0527 26.466C29.6376 26.5835 29.3963 27.0154 29.5139 27.4305C29.6314 27.8456 30.0633 28.0869 30.4784 27.9694Z" fill="#1AE5BE"/>
<path d="M26.7299 27.4068L22.5168 28.5998C22.1017 28.7173 21.8604 29.1492 21.978 29.5643C22.0955 29.9794 22.5274 30.2207 22.9425 30.1032L27.1556 28.9102C27.5707 28.7926 27.812 28.3607 27.6945 27.9456C27.5769 27.5305 27.145 27.2892 26.7299 27.4068Z" fill="#1AE5BE"/>
<path d="M29.1768 23.3724L30.4683 23.0067C30.8834 22.8892 31.1247 22.4573 31.0072 22.0422C30.8896 21.6271 30.4577 21.3858 30.0426 21.5033L28.751 21.8691C28.336 21.9866 28.0947 22.4185 28.2122 22.8336C28.3297 23.2487 28.7617 23.49 29.1768 23.3724Z" fill="#1AE5BE"/>
<path d="M25.4283 22.8099L21.2152 24.0028C20.8001 24.1204 20.5588 24.5523 20.6763 24.9674C20.7938 25.3825 21.2258 25.6238 21.6409 25.5062L25.854 24.3132C26.269 24.1957 26.5103 23.7638 26.3928 23.3487C26.2753 22.9336 25.8433 22.6923 25.4283 22.8099Z" fill="#1AE5BE"/>
<path d="M31.7801 32.5662L33.0717 32.2005C33.4867 32.0829 33.728 31.651 33.6105 31.2359C33.493 30.8208 33.061 30.5795 32.646 30.6971L31.3544 31.0628C30.9393 31.1803 30.698 31.6122 30.8156 32.0273C30.9331 32.4424 31.365 32.6837 31.7801 32.5662Z" fill="#1AE5BE"/>
<path d="M28.0316 32.0037L23.8185 33.1967C23.4034 33.3142 23.1621 33.7462 23.2797 34.1612C23.3972 34.5763 23.8291 34.8176 24.2442 34.7001L28.4573 33.5071C28.8724 33.3896 29.1137 32.9576 28.9961 32.5425C28.8786 32.1275 28.4467 31.8862 28.0316 32.0037Z" fill="#1AE5BE"/>
<path d="M94.3331 67.2792L75.8865 46.114L74.9504 42.8082C75.5447 42.6233 76.0381 42.2262 76.3424 41.6806C76.657 41.117 76.7332 40.4646 76.5571 39.8437L73.0736 27.5415C72.7111 26.2592 71.3729 25.5109 70.0903 25.8735L62.7094 27.9635L61.1038 22.2932L65.9362 20.9248C68.0047 20.3391 69.2109 18.1799 68.6252 16.1114L68.4503 15.4938C67.8646 13.4253 65.7052 12.219 63.6368 12.8047L48.8208 17.0001C46.7523 17.5858 45.5459 19.7451 46.1316 21.8136L46.3065 22.4312C46.8922 24.4997 49.0516 25.7059 51.1201 25.1202L55.9524 23.7519L57.5581 29.4223L19.746 40.1298L19.7457 40.1299C18.4637 40.4934 17.7165 41.8323 18.0801 43.1139L21.5635 55.4157C21.739 56.0368 22.146 56.5525 22.7094 56.8675C23.2545 57.1724 23.8827 57.2519 24.4859 57.0978L25.422 60.4036L20.8107 88.098C20.7917 88.2116 20.7983 88.3282 20.8297 88.4391L22.8956 95.7349C23.0131 96.15 23.445 96.3913 23.8601 96.2738L96.0229 75.84C96.4379 75.7225 96.6792 75.2905 96.5617 74.8755L94.4958 67.5797C94.4644 67.4687 94.4089 67.366 94.3331 67.2792ZM50.6944 23.617C49.4549 23.9679 48.1609 23.245 47.8099 22.0056L47.635 21.388C47.284 20.1485 48.007 18.8546 49.2465 18.5036L64.0626 14.3083C65.3021 13.9573 66.596 14.6802 66.947 15.9196L67.1219 16.5372C67.4728 17.7768 66.7499 19.0707 65.5105 19.4216L50.6944 23.617ZM59.6005 22.719L61.2061 28.3894L59.0615 28.9966L57.4559 23.3263L59.6005 22.719ZM23.067 54.9903L19.5834 42.6879C19.5212 42.4684 19.548 42.2379 19.6593 42.0386C19.7705 41.8394 19.9527 41.6952 20.1722 41.6331L70.5158 27.3772C70.9689 27.249 71.442 27.5135 71.5703 27.967L75.054 40.2699C75.1825 40.7231 74.9184 41.1962 74.4657 41.3247L24.1215 55.5803C23.6683 55.7085 23.1952 55.4439 23.067 54.9903ZM73.4478 43.2369L74.2143 45.9436L26.7568 59.3818L25.9903 56.6751L73.4478 43.2369ZM26.9133 60.9614L74.9091 47.3708L92.3452 67.3766L22.5544 87.1388L26.9132 60.9614L26.9133 60.9614ZM94.8455 74.5495L24.1861 94.5575L22.5459 88.7651L93.2053 68.7571L94.8455 74.5495Z" fill="#386C7A"/>
</g>
<defs>
<clipPath id="clip0_4586_10619">
<rect width="80" height="80" fill="white" transform="translate(0.379349 22.5264) rotate(-15.8101)"/>
</clipPath>
</defs>
</svg>
