<svg width="111" height="111" viewBox="0 0 111 111" fill="none" xmlns="http://www.w3.org/2000/svg">
<path d="M35.3333 42.6667C35.3333 42.9761 35.4562 43.2728 35.675 43.4916C35.8938 43.7104 36.1905 43.8333 36.5 43.8333H41.1666C41.476 43.8333 41.7728 43.7104 41.9916 43.4916C42.2104 43.2728 42.3333 42.9761 42.3333 42.6667V39.1667H45.8333C46.1427 39.1667 46.4395 39.0438 46.6583 38.825C46.877 38.6062 47 38.3094 47 38V33.3333C47 33.0239 46.877 32.7272 46.6583 32.5084C46.4395 32.2896 46.1427 32.1667 45.8333 32.1667H42.3333V28.6667C42.3333 28.3572 42.2104 28.0605 41.9916 27.8417C41.7728 27.6229 41.476 27.5 41.1666 27.5H36.5C36.1905 27.5 35.8938 27.6229 35.675 27.8417C35.4562 28.0605 35.3333 28.3572 35.3333 28.6667V32.1667H31.8333C31.5239 32.1667 31.2271 32.2896 31.0083 32.5084C30.7895 32.7272 30.6666 33.0239 30.6666 33.3333V38C30.6666 38.3094 30.7895 38.6062 31.0083 38.825C31.2271 39.0438 31.5239 39.1667 31.8333 39.1667H35.3333V42.6667ZM33 36.8333V34.5H36.5C36.8094 34.5 37.1061 34.3771 37.3249 34.1583C37.5437 33.9395 37.6666 33.6428 37.6666 33.3333V29.8333H40V33.3333C40 33.6428 40.1229 33.9395 40.3417 34.1583C40.5605 34.3771 40.8572 34.5 41.1666 34.5H44.6666V36.8333H41.1666C40.8572 36.8333 40.5605 36.9562 40.3417 37.175C40.1229 37.3938 40 37.6906 40 38V41.5H37.6666V38C37.6666 37.6906 37.5437 37.3938 37.3249 37.175C37.1061 36.9562 36.8094 36.8333 36.5 36.8333H33Z" fill="url(#paint0_linear_4787_10588)"/>
<path d="M38.4345 53.0965C38.6921 53.19 38.9744 53.19 39.232 53.0965C43.2129 51.6392 46.6513 48.9962 49.0834 45.5239C51.5154 42.0516 52.8242 37.9171 52.8333 33.6778V26.3333C52.8333 26.0938 52.7596 25.8601 52.6222 25.6639C52.4848 25.4678 52.2904 25.3186 52.0653 25.2368L39.232 20.5701C38.9744 20.4766 38.6921 20.4766 38.4345 20.5701L25.6012 25.2368C25.3761 25.3186 25.1817 25.4678 25.0443 25.6639C24.9069 25.8601 24.8332 26.0938 24.8333 26.3333V33.6778C24.8423 37.9171 26.1511 42.0516 28.5832 45.5239C31.0153 48.9962 34.4536 51.6392 38.4345 53.0965ZM27.1666 27.15L37.6666 23.3318V25.1666H39.9999V23.3323L50.4999 27.15V33.6772C50.4918 37.1485 49.5014 40.5467 47.6434 43.479C45.7853 46.4112 43.1354 48.7578 39.9999 50.2475V46.1666H37.6666V50.2481C34.5311 48.7584 31.8812 46.4118 30.0232 43.4795C28.1651 40.5473 27.1748 37.1491 27.1666 33.6778V27.15Z" fill="url(#paint1_linear_4787_10588)"/>
<path d="M84.4554 48.5H83.1666V43.8333H84.3333C84.6427 43.8333 84.9395 43.7104 85.1582 43.4916C85.377 43.2728 85.5 42.9761 85.5 42.6667V35.6667C85.5 35.3572 85.377 35.0605 85.1582 34.8417C84.9395 34.6229 84.6427 34.5 84.3333 34.5H65.6666C65.3572 34.5 65.0605 34.6229 64.8417 34.8417C64.6229 35.0605 64.5 35.3572 64.5 35.6667V42.6667C64.5 42.9761 64.6229 43.2728 64.8417 43.4916C65.0605 43.7104 65.3572 43.8333 65.6666 43.8333H66.8333V48.5H65.5446C64.0304 48.5017 62.5787 49.104 61.508 50.1747C60.4373 51.2454 59.835 52.6971 59.8333 54.2113V58.5589C58.5078 57.3163 56.751 56.6381 54.9345 56.6676C53.1179 56.6971 51.3841 57.432 50.0996 58.7169L38.5496 70.2669C37.7483 71.0726 37.1542 72.0606 36.8183 73.1461C36.4823 74.2317 36.4144 75.3825 36.6206 76.5H27.1666C25.3101 76.5 23.5296 77.2375 22.2169 78.5503C20.9041 79.863 20.1666 81.6435 20.1666 83.5C20.1666 85.3565 20.9041 87.137 22.2169 88.4497C23.5296 89.7625 25.3101 90.5 27.1666 90.5H43.5C44.7868 90.5009 46.049 90.1468 47.1476 89.4766C48.2462 88.8064 49.1386 87.8462 49.7266 86.7015C50.3146 85.5568 50.5754 84.2721 50.4802 82.9887C50.3851 81.7053 49.9378 80.4731 49.1875 79.4276L59.8333 68.7818V82.4548C59.8348 83.9691 60.437 85.421 61.5078 86.4918C62.5785 87.5626 64.0303 88.165 65.5446 88.1667H84.4554C85.9696 88.165 87.4213 87.5627 88.492 86.492C89.5627 85.4213 90.1649 83.9696 90.1666 82.4554V54.2113C90.1649 52.6971 89.5627 51.2454 88.492 50.1747C87.4213 49.104 85.9696 48.5017 84.4554 48.5ZM40.2002 71.9162L45.1499 66.9666L51.7495 73.5663L47.5322 77.7833C47.2039 77.5504 46.856 77.3463 46.4925 77.1733L49.275 74.3911L47.6249 72.7413L44.3249 76.0411L44.9317 76.6477C44.4608 76.5494 43.981 76.4999 43.5 76.5H39.0125C38.7859 75.6993 38.7764 74.8527 38.9851 74.0471C39.1938 73.2416 39.6132 72.5061 40.2002 71.9162ZM22.5 83.5C22.5014 82.2628 22.9935 81.0766 23.8684 80.2017C24.7432 79.3269 25.9294 78.8348 27.1666 78.8333H34.1666V88.1667H27.1666C25.9294 88.1652 24.7432 87.6731 23.8684 86.7983C22.9935 85.9234 22.5014 84.7372 22.5 83.5ZM43.5 88.1667H36.5V78.8333H43.5C44.7376 78.8333 45.9246 79.325 46.7998 80.2002C47.675 81.0753 48.1666 82.2623 48.1666 83.5C48.1666 84.7377 47.675 85.9247 46.7998 86.7998C45.9246 87.675 44.7376 88.1667 43.5 88.1667ZM58.3491 66.9664L53.3994 71.9163L46.7999 65.3166L51.7496 60.3669C52.182 59.9292 52.6966 59.5814 53.2639 59.3434C53.8312 59.1054 54.44 58.9819 55.0552 58.98C55.6705 58.9781 56.28 59.0979 56.8487 59.3325C57.4175 59.5671 57.9342 59.9118 58.3692 60.3468C58.8043 60.7818 59.149 61.2986 59.3836 61.8673C59.6181 62.4361 59.7379 63.0456 59.7361 63.6608C59.7342 64.276 59.6107 64.8848 59.3727 65.4521C59.1347 66.0194 58.7868 66.5341 58.3491 66.9664ZM83.1666 41.5H80.8333V39.1667H78.5V41.5H76.1666V36.8333H83.1666V41.5ZM71.5 41.5V36.8333H73.8333V41.5H71.5ZM66.8333 36.8333H69.1666V41.5H66.8333V36.8333ZM69.1666 43.8333H80.8333V48.5H69.1666V43.8333ZM65.5446 50.8333H84.4554C85.3509 50.8343 86.2095 51.1905 86.8428 51.8238C87.4761 52.4571 87.8323 53.3157 87.8333 54.2113V56.6667H62.1666V54.2113C62.1676 53.3157 62.5238 52.4571 63.1571 51.8238C63.7904 51.1905 64.649 50.8343 65.5446 50.8333ZM62.1666 59H87.8333V73H62.1666V59ZM84.4554 85.8333H65.5446C64.8316 85.8324 64.1372 85.6063 63.5604 85.1873C62.9837 84.7682 62.554 84.1777 62.3327 83.5H85.5V81.1667H62.1666V75.3333H87.8333V82.4554C87.8323 83.351 87.4761 84.2096 86.8428 84.8428C86.2095 85.4761 85.3509 85.8323 84.4554 85.8333Z" fill="url(#paint2_linear_4787_10588)"/>
<path d="M79.6666 64.8333H76.1666V61.3333H73.8333V64.8333H70.3333V67.1666H73.8333V70.6666H76.1666V67.1666H79.6666V64.8333Z" fill="url(#paint3_linear_4787_10588)"/>
<path d="M27.1666 84.6667H31.8333V87.0001H27.1666V84.6667Z" fill="url(#paint4_linear_4787_10588)"/>
<path d="M38.8333 84.6667H43.4999V87.0001H38.8333V84.6667Z" fill="url(#paint5_linear_4787_10588)"/>
<path d="M52.5662 67.7876L55.8655 64.4883L57.5151 66.1378L54.2157 69.4372L52.5662 67.7876Z" fill="url(#paint6_linear_4787_10588)"/>
<rect x="0.666626" y="1" width="109" height="109" rx="54.5" stroke="#EDEDED"/>
<defs>
<linearGradient id="paint0_linear_4787_10588" x1="38.8333" y1="27.5" x2="38.8333" y2="43.8333" gradientUnits="userSpaceOnUse">
<stop stop-color="#155263"/>
<stop offset="1" stop-color="#D37217"/>
</linearGradient>
<linearGradient id="paint1_linear_4787_10588" x1="38.8333" y1="20.5" x2="38.8333" y2="53.1666" gradientUnits="userSpaceOnUse">
<stop stop-color="#155263"/>
<stop offset="1" stop-color="#D37217"/>
</linearGradient>
<linearGradient id="paint2_linear_4787_10588" x1="55.1666" y1="34.5" x2="55.1666" y2="90.5" gradientUnits="userSpaceOnUse">
<stop stop-color="#155263"/>
<stop offset="1" stop-color="#D37217"/>
</linearGradient>
<linearGradient id="paint3_linear_4787_10588" x1="74.9999" y1="61.3333" x2="74.9999" y2="70.6666" gradientUnits="userSpaceOnUse">
<stop stop-color="#155263"/>
<stop offset="1" stop-color="#D37217"/>
</linearGradient>
<linearGradient id="paint4_linear_4787_10588" x1="29.5" y1="84.6667" x2="29.5" y2="87.0001" gradientUnits="userSpaceOnUse">
<stop stop-color="#155263"/>
<stop offset="1" stop-color="#D37217"/>
</linearGradient>
<linearGradient id="paint5_linear_4787_10588" x1="41.1666" y1="84.6667" x2="41.1666" y2="87.0001" gradientUnits="userSpaceOnUse">
<stop stop-color="#155263"/>
<stop offset="1" stop-color="#D37217"/>
</linearGradient>
<linearGradient id="paint6_linear_4787_10588" x1="54.2158" y1="66.1379" x2="55.8654" y2="67.7875" gradientUnits="userSpaceOnUse">
<stop stop-color="#155263"/>
<stop offset="1" stop-color="#D37217"/>
</linearGradient>
</defs>
</svg>
