<svg width="18" height="13" viewBox="0 0 18 13" fill="none" xmlns="http://www.w3.org/2000/svg">
<path d="M5.55665 10.6665L1.8286 7.35502C1.62771 7.17658 1.35526 7.07634 1.07117 7.07634C0.787076 7.07634 0.51462 7.17658 0.313737 7.35502C0.112855 7.53345 0 7.77546 0 8.02781C0 8.15275 0.0277068 8.27648 0.0815379 8.39192C0.135369 8.50735 0.21427 8.61224 0.313737 8.70059L4.8046 12.6896C5.2236 13.0618 5.90045 13.0618 6.31945 12.6896L17.6863 2.59301C17.8871 2.41457 18 2.17256 18 1.92022C18 1.66787 17.8871 1.42586 17.6863 1.24743C17.4854 1.06899 17.2129 0.96875 16.9288 0.96875C16.6447 0.96875 16.3723 1.06899 16.1714 1.24743L5.55665 10.6665Z" fill="#13BE13"/>
</svg>
