<svg width="111" height="111" viewBox="0 0 111 111" fill="none" xmlns="http://www.w3.org/2000/svg">
<path d="M52 74.1667C51.6906 74.1667 51.3939 74.2897 51.1751 74.5085C50.9563 74.7272 50.8334 75.024 50.8334 75.3334V76.5001C50.8334 76.8095 50.9563 77.1062 51.1751 77.325C51.3939 77.5438 51.6906 77.6667 52 77.6667C52.3095 77.6667 52.6062 77.5438 52.825 77.325C53.0438 77.1062 53.1667 76.8095 53.1667 76.5001V75.3334C53.1667 75.024 53.0438 74.7272 52.825 74.5085C52.6062 74.2897 52.3095 74.1667 52 74.1667Z" fill="url(#paint0_linear_4787_10534)"/>
<path d="M59 74.1667C58.6906 74.1667 58.3939 74.2897 58.1751 74.5085C57.9563 74.7272 57.8334 75.024 57.8334 75.3334V76.5001C57.8334 76.8095 57.9563 77.1062 58.1751 77.325C58.3939 77.5438 58.6906 77.6667 59 77.6667C59.3095 77.6667 59.6062 77.5438 59.825 77.325C60.0438 77.1062 60.1667 76.8095 60.1667 76.5001V75.3334C60.1667 75.024 60.0438 74.7272 59.825 74.5085C59.6062 74.2897 59.3095 74.1667 59 74.1667Z" fill="url(#paint1_linear_4787_10534)"/>
<path d="M47.3334 32.1667C47.3334 31.2384 46.9646 30.3482 46.3083 29.6918C45.6519 29.0354 44.7616 28.6667 43.8334 28.6667C43.6026 28.6667 43.3771 28.5982 43.1852 28.47C42.9934 28.3419 42.8438 28.1596 42.7555 27.9465C42.6672 27.7333 42.6441 27.4987 42.6891 27.2724C42.7341 27.0461 42.8453 26.8382 43.0084 26.675C43.1716 26.5119 43.3795 26.4008 43.6058 26.3558C43.8321 26.3107 44.0667 26.3338 44.2798 26.4221C44.493 26.5104 44.6752 26.66 44.8034 26.8518C44.9316 27.0437 45 27.2693 45 27.5C45 27.8094 45.123 28.1062 45.3418 28.325C45.5605 28.5438 45.8573 28.6667 46.1667 28.6667C46.4761 28.6667 46.7729 28.5438 46.9917 28.325C47.2105 28.1062 47.3334 27.8094 47.3334 27.5C47.3334 26.8078 47.1281 26.1311 46.7435 25.5555C46.3589 24.9799 45.8123 24.5313 45.1728 24.2664C44.5332 24.0015 43.8295 23.9322 43.1506 24.0673C42.4716 24.2023 41.848 24.5356 41.3585 25.0251C40.869 25.5146 40.5357 26.1383 40.4006 26.8172C40.2656 27.4961 40.3349 28.1999 40.5998 28.8394C40.8647 29.4789 41.3133 30.0256 41.8889 30.4101C42.4645 30.7947 43.1411 31 43.8334 31C44.0641 31 44.2897 31.0684 44.4815 31.1966C44.6734 31.3248 44.8229 31.507 44.9112 31.7202C44.9995 31.9334 45.0226 32.168 44.9776 32.3943C44.9326 32.6206 44.8215 32.8285 44.6583 32.9916C44.4952 33.1548 44.2873 33.2659 44.061 33.3109C43.8347 33.3559 43.6001 33.3328 43.3869 33.2445C43.1737 33.1562 42.9915 33.0067 42.8633 32.8148C42.7351 32.623 42.6667 32.3974 42.6667 32.1667C42.6667 31.8572 42.5438 31.5605 42.325 31.3417C42.1062 31.1229 41.8095 31 41.5 31C41.1906 31 40.8939 31.1229 40.6751 31.3417C40.4563 31.5605 40.3334 31.8572 40.3334 32.1667C40.3334 33.0949 40.7021 33.9852 41.3585 34.6415C42.0149 35.2979 42.9051 35.6667 43.8334 35.6667C44.7616 35.6667 45.6519 35.2979 46.3083 34.6415C46.9646 33.9852 47.3334 33.0949 47.3334 32.1667Z" fill="url(#paint2_linear_4787_10534)"/>
<path d="M60.1666 35.6667C61.0949 35.6667 61.9851 35.2979 62.6415 34.6415C63.2979 33.9852 63.6666 33.0949 63.6666 32.1667V27.5C63.6666 26.5717 63.2979 25.6815 62.6415 25.0251C61.9851 24.3687 61.0949 24 60.1666 24C59.2384 24 58.3481 24.3687 57.6918 25.0251C57.0354 25.6815 56.6666 26.5717 56.6666 27.5V32.1667C56.6666 33.0949 57.0354 33.9852 57.6918 34.6415C58.3481 35.2979 59.2384 35.6667 60.1666 35.6667ZM59 27.5C59 27.1906 59.1229 26.8938 59.3417 26.675C59.5605 26.4562 59.8572 26.3333 60.1666 26.3333C60.476 26.3333 60.7728 26.4562 60.9916 26.675C61.2104 26.8938 61.3333 27.1906 61.3333 27.5V32.1667C61.3333 32.4761 61.2104 32.7728 60.9916 32.9916C60.7728 33.2104 60.476 33.3333 60.1666 33.3333C59.8572 33.3333 59.5605 33.2104 59.3417 32.9916C59.1229 32.7728 59 32.4761 59 32.1667V27.5Z" fill="url(#paint3_linear_4787_10534)"/>
<path d="M49.6667 35.6667C49.9761 35.6667 50.2728 35.5438 50.4916 35.325C50.7104 35.1062 50.8333 34.8094 50.8333 34.5V31H53.1667V34.5C53.1667 34.8094 53.2896 35.1062 53.5084 35.325C53.7272 35.5438 54.0239 35.6667 54.3333 35.6667C54.6428 35.6667 54.9395 35.5438 55.1583 35.325C55.3771 35.1062 55.5 34.8094 55.5 34.5V25.1667C55.5 24.8572 55.3771 24.5605 55.1583 24.3417C54.9395 24.1229 54.6428 24 54.3333 24C54.0239 24 53.7272 24.1229 53.5084 24.3417C53.2896 24.5605 53.1667 24.8572 53.1667 25.1667V28.6667H50.8333V25.1667C50.8333 24.8572 50.7104 24.5605 50.4916 24.3417C50.2728 24.1229 49.9761 24 49.6667 24C49.3572 24 49.0605 24.1229 48.8417 24.3417C48.6229 24.5605 48.5 24.8572 48.5 25.1667V34.5C48.5 34.8094 48.6229 35.1062 48.8417 35.325C49.0605 35.5438 49.3572 35.6667 49.6667 35.6667Z" fill="url(#paint4_linear_4787_10534)"/>
<path d="M66 35.6667C66.3095 35.6667 66.6062 35.5438 66.825 35.325C67.0438 35.1062 67.1667 34.8094 67.1667 34.5V31H68.3334C69.2616 31 70.1519 30.6313 70.8082 29.9749C71.4646 29.3185 71.8334 28.4283 71.8334 27.5C71.8334 26.5717 71.4646 25.6815 70.8082 25.0251C70.1519 24.3687 69.2616 24 68.3334 24H66C65.6906 24 65.3939 24.1229 65.1751 24.3417C64.9563 24.5605 64.8334 24.8572 64.8334 25.1667V34.5C64.8334 34.8094 64.9563 35.1062 65.1751 35.325C65.3939 35.5438 65.6906 35.6667 66 35.6667ZM67.1667 26.3333H68.3334C68.6428 26.3333 68.9395 26.4562 69.1583 26.675C69.3771 26.8938 69.5 27.1906 69.5 27.5C69.5 27.8094 69.3771 28.1062 69.1583 28.325C68.9395 28.5438 68.6428 28.6667 68.3334 28.6667H67.1667V26.3333Z" fill="url(#paint5_linear_4787_10534)"/>
<path d="M87 83.5H84.6667V60.05C85.9825 59.7776 87.1646 59.0607 88.0144 58.0198C88.8642 56.9788 89.3299 55.6771 89.3333 54.3333V52C89.3348 51.7815 89.2741 51.567 89.1583 51.3817L83.325 42.0483C83.2189 41.8811 83.0725 41.7432 82.8992 41.6474C82.726 41.5516 82.5313 41.5009 82.3333 41.5H67.1667V39.1667H73C73.9274 39.1639 74.816 38.7943 75.4718 38.1385C76.1276 37.4827 76.4972 36.5941 76.5 35.6667V24C76.4972 23.0726 76.1276 22.184 75.4718 21.5282C74.816 20.8724 73.9274 20.5028 73 20.5H38C37.0726 20.5028 36.184 20.8724 35.5282 21.5282C34.8724 22.184 34.5028 23.0726 34.5 24V35.6667C34.5028 36.5941 34.8724 37.4827 35.5282 38.1385C36.184 38.7943 37.0726 39.1639 38 39.1667H43.8333V41.5H28.6667C28.4686 41.5009 28.274 41.5516 28.1007 41.6474C27.9275 41.7432 27.7811 41.8811 27.675 42.0483L21.8417 51.3817C21.7259 51.567 21.6652 51.7815 21.6667 52V54.3333C21.6701 55.6771 22.1358 56.9788 22.9856 58.0198C23.8354 59.0607 25.0175 59.7776 26.3333 60.05V83.5H24C23.0726 83.5028 22.184 83.8724 21.5282 84.5282C20.8724 85.184 20.5028 86.0726 20.5 87V89.3333C20.5 89.6428 20.6229 89.9395 20.8417 90.1583C21.0605 90.3771 21.3572 90.5 21.6667 90.5H89.3333C89.6428 90.5 89.9395 90.3771 90.1583 90.1583C90.3771 89.9395 90.5 89.6428 90.5 89.3333V87C90.4972 86.0726 90.1276 85.184 89.4718 84.5282C88.816 83.8724 87.9274 83.5028 87 83.5ZM87 54.3333C87 55.2616 86.6312 56.1518 85.9749 56.8082C85.3185 57.4646 84.4283 57.8333 83.5 57.8333C82.5717 57.8333 81.6815 57.4646 81.0251 56.8082C80.3687 56.1518 80 55.2616 80 54.3333V53.1667H87V54.3333ZM69.5 64.8333H41.5C40.5726 64.8361 39.684 65.2057 39.0282 65.8615C38.3724 66.5173 38.0028 67.4059 38 68.3333V83.5H28.6667V60.05C30.0715 59.7577 31.3183 58.9556 32.1667 57.7983C32.7035 58.5322 33.4059 59.1291 34.2167 59.5406C35.0276 59.9521 35.924 60.1666 36.8333 60.1666C37.7426 60.1666 38.6391 59.9521 39.4499 59.5406C40.2608 59.1291 40.9631 58.5322 41.5 57.7983C42.0369 58.5322 42.7392 59.1291 43.5501 59.5406C44.3609 59.9521 45.2574 60.1666 46.1667 60.1666C47.076 60.1666 47.9724 59.9521 48.7833 59.5406C49.5941 59.1291 50.2965 58.5322 50.8333 57.7983C51.3702 58.5322 52.0726 59.1291 52.8834 59.5406C53.6942 59.9521 54.5907 60.1666 55.5 60.1666C56.4093 60.1666 57.3057 59.9521 58.1166 59.5406C58.9274 59.1291 59.6298 58.5322 60.1667 57.7983C60.7035 58.5322 61.4059 59.1291 62.2167 59.5406C63.0276 59.9521 63.924 60.1666 64.8333 60.1666C65.7426 60.1666 66.6391 59.9521 67.4499 59.5406C68.2608 59.1291 68.9631 58.5322 69.5 57.7983C70.0368 58.5322 70.7392 59.1291 71.5501 59.5406C72.3609 59.9521 73.2574 60.1666 74.1667 60.1666C75.076 60.1666 75.9724 59.9521 76.7833 59.5406C77.5941 59.1291 78.2965 58.5322 78.8333 57.7983C79.6817 58.9556 80.9285 59.7577 82.3333 60.05V83.5H73V68.3333C72.9972 67.4059 72.6276 66.5173 71.9718 65.8615C71.316 65.2057 70.4274 64.8361 69.5 64.8333ZM70.6667 68.3333V83.5H56.6667V67.1667H69.5C69.8094 67.1667 70.1062 67.2896 70.325 67.5084C70.5438 67.7272 70.6667 68.0239 70.6667 68.3333ZM54.3333 67.1667V83.5H40.3333V68.3333C40.3333 68.0239 40.4562 67.7272 40.675 67.5084C40.8938 67.2896 41.1906 67.1667 41.5 67.1667H54.3333ZM33.3333 54.3333V53.1667H40.3333V54.3333C40.3333 55.2616 39.9646 56.1518 39.3082 56.8082C38.6518 57.4646 37.7616 57.8333 36.8333 57.8333C35.9051 57.8333 35.0148 57.4646 34.3585 56.8082C33.7021 56.1518 33.3333 55.2616 33.3333 54.3333ZM42.6667 54.3333V53.1667H49.6667V54.3333C49.6667 55.2616 49.2979 56.1518 48.6415 56.8082C47.9852 57.4646 47.0949 57.8333 46.1667 57.8333C45.2384 57.8333 44.3482 57.4646 43.6918 56.8082C43.0354 56.1518 42.6667 55.2616 42.6667 54.3333ZM59 53.1667V54.3333C59 55.2616 58.6312 56.1518 57.9749 56.8082C57.3185 57.4646 56.4283 57.8333 55.5 57.8333C54.5717 57.8333 53.6815 57.4646 53.0251 56.8082C52.3687 56.1518 52 55.2616 52 54.3333V53.1667H59ZM52.1517 50.8333L53.0267 43.8333H57.9733L58.8483 50.8333H52.1517ZM46.1667 41.5V39.1667H64.8333V41.5H46.1667ZM61.3333 54.3333V53.1667H68.3333V54.3333C68.3333 55.2616 67.9646 56.1518 67.3082 56.8082C66.6518 57.4646 65.7616 57.8333 64.8333 57.8333C63.9051 57.8333 63.0148 57.4646 62.3585 56.8082C61.7021 56.1518 61.3333 55.2616 61.3333 54.3333ZM70.6667 54.3333V53.1667H77.6667V54.3333C77.6667 55.2616 77.2979 56.1518 76.6415 56.8082C75.9852 57.4646 75.0949 57.8333 74.1667 57.8333C73.2384 57.8333 72.3482 57.4646 71.6918 56.8082C71.0354 56.1518 70.6667 55.2616 70.6667 54.3333ZM81.6917 43.8333L86.0667 50.8333H79.5567L76.0567 43.8333H81.6917ZM73.4433 43.8333L76.9433 50.8333H70.305L67.68 43.8333H73.4433ZM67.82 50.8333H61.1933L60.3183 43.8333H65.195L67.82 50.8333ZM38 36.8333C37.6906 36.8333 37.3938 36.7104 37.175 36.4916C36.9562 36.2728 36.8333 35.9761 36.8333 35.6667V24C36.8333 23.6906 36.9562 23.3938 37.175 23.175C37.3938 22.9562 37.6906 22.8333 38 22.8333H73C73.3094 22.8333 73.6062 22.9562 73.825 23.175C74.0438 23.3938 74.1667 23.6906 74.1667 24V35.6667C74.1667 35.9761 74.0438 36.2728 73.825 36.4916C73.6062 36.7104 73.3094 36.8333 73 36.8333H38ZM45.805 43.8333H50.6817L49.8067 50.8333H43.18L45.805 43.8333ZM43.32 43.8333L40.695 50.8333H34.0567L37.5567 43.8333H43.32ZM29.3083 43.8333H34.9433L31.4433 50.8333H24.9333L29.3083 43.8333ZM24 54.3333V53.1667H31V54.3333C31 55.2616 30.6313 56.1518 29.9749 56.8082C29.3185 57.4646 28.4283 57.8333 27.5 57.8333C26.5717 57.8333 25.6815 57.4646 25.0251 56.8082C24.3687 56.1518 24 55.2616 24 54.3333ZM88.1667 88.1667H22.8333V87C22.8333 86.6906 22.9562 86.3938 23.175 86.175C23.3938 85.9562 23.6906 85.8333 24 85.8333H87C87.3094 85.8333 87.6062 85.9562 87.825 86.175C88.0437 86.3938 88.1667 86.6906 88.1667 87V88.1667Z" fill="url(#paint6_linear_4787_10534)"/>
<rect x="1" y="1" width="109" height="109" rx="54.5" stroke="#EDEDED"/>
<defs>
<linearGradient id="paint0_linear_4787_10534" x1="52" y1="74.1667" x2="52" y2="77.6667" gradientUnits="userSpaceOnUse">
<stop stop-color="#155263"/>
<stop offset="1" stop-color="#D37217"/>
</linearGradient>
<linearGradient id="paint1_linear_4787_10534" x1="59" y1="74.1667" x2="59" y2="77.6667" gradientUnits="userSpaceOnUse">
<stop stop-color="#155263"/>
<stop offset="1" stop-color="#D37217"/>
</linearGradient>
<linearGradient id="paint2_linear_4787_10534" x1="43.8334" y1="24" x2="43.8334" y2="35.6667" gradientUnits="userSpaceOnUse">
<stop stop-color="#155263"/>
<stop offset="1" stop-color="#D37217"/>
</linearGradient>
<linearGradient id="paint3_linear_4787_10534" x1="60.1666" y1="24" x2="60.1666" y2="35.6667" gradientUnits="userSpaceOnUse">
<stop stop-color="#155263"/>
<stop offset="1" stop-color="#D37217"/>
</linearGradient>
<linearGradient id="paint4_linear_4787_10534" x1="52" y1="24" x2="52" y2="35.6667" gradientUnits="userSpaceOnUse">
<stop stop-color="#155263"/>
<stop offset="1" stop-color="#D37217"/>
</linearGradient>
<linearGradient id="paint5_linear_4787_10534" x1="68.3334" y1="24" x2="68.3334" y2="35.6667" gradientUnits="userSpaceOnUse">
<stop stop-color="#155263"/>
<stop offset="1" stop-color="#D37217"/>
</linearGradient>
<linearGradient id="paint6_linear_4787_10534" x1="55.5" y1="20.5" x2="55.5" y2="90.5" gradientUnits="userSpaceOnUse">
<stop stop-color="#155263"/>
<stop offset="1" stop-color="#D37217"/>
</linearGradient>
</defs>
</svg>
