<svg width="78" height="78" viewBox="0 0 78 78" fill="none" xmlns="http://www.w3.org/2000/svg">
<g clip-path="url(#clip0_4587_8064)">
<path d="M34.4202 37.301C33.8466 35.7249 28.1739 36.3427 21.75 38.6808C15.3262 41.0189 10.5835 44.1919 11.1572 45.7681L18.8581 66.9261C19.4318 68.5022 25.1045 67.8844 31.5283 65.5463C37.9521 63.2082 42.6948 60.0352 42.1211 58.459L34.4202 37.301Z" fill="#FFD200"/>
<path d="M23.5038 43.2437C29.6093 41.0215 34.1846 38.1919 33.723 36.9236C33.2613 35.6553 27.9376 36.4286 21.8321 38.6509C15.7266 40.8731 11.1513 43.7027 11.6129 44.971C12.0745 46.2393 17.3983 45.4659 23.5038 43.2437Z" fill="#FFB400"/>
<path d="M34.236 36.7946L42.121 58.4584C42.5506 59.6387 39.9193 62.058 34.5685 64.3251C35.2108 63.8407 38.1142 61.7579 36.6773 60.0362C34.395 57.3021 32.6419 56.0678 31.2484 52.8901C29.8753 49.7587 28.7769 45.7988 28.0191 42.4546C29.0443 41.7022 29.2225 40.9761 28.8257 39.8675C30.3329 39.3604 33.2134 38.3899 34.236 36.7946Z" fill="#FFB400"/>
<path d="M31.591 65.7188C25.7885 67.8308 19.3746 68.8831 18.6851 66.9887C18.6504 66.8934 18.6996 66.788 18.7948 66.7534C18.8901 66.7187 18.9955 66.7678 19.0302 66.8631C19.5015 68.1582 24.6106 67.8687 31.4651 65.3739C38.3197 62.879 42.4192 59.8168 41.9479 58.5217C41.9132 58.4265 41.9623 58.3211 42.0576 58.2864C42.1529 58.2517 42.2582 58.3009 42.2929 58.3962C42.9831 60.2907 37.3935 63.6069 31.591 65.7188Z" fill="#FFA000"/>
<path d="M23.8902 44.5608C18.0877 46.6728 11.6738 47.7251 10.9844 45.831C10.295 43.9368 15.8848 40.6202 21.6873 38.5083C27.4898 36.3963 33.9034 35.3441 34.5928 37.2382C35.2822 39.1324 29.6927 42.4489 23.8902 44.5608ZM21.8128 38.8533C14.9585 41.3481 10.8584 44.4102 11.3297 45.7053C11.8011 47.0004 16.91 46.7106 23.7646 44.2158C30.6192 41.7209 34.7188 38.659 34.2474 37.3639C33.7761 36.0688 28.6674 36.3585 21.8128 38.8533Z" fill="#FFA000"/>
<path d="M30.3077 62.1927C24.5052 64.3046 18.0913 65.357 17.4018 63.4626C17.3671 63.3673 17.4162 63.2619 17.5115 63.2272C17.6068 63.1926 17.7122 63.2417 17.7468 63.337C18.2182 64.6321 23.3272 64.3426 30.1818 61.8478C37.0364 59.3529 41.1359 56.2907 40.6645 54.9956C40.6298 54.9003 40.679 54.795 40.7743 54.7603C40.8695 54.7256 40.9749 54.7747 41.0096 54.87C41.6997 56.7642 36.1102 60.0808 30.3077 62.1927Z" fill="#FFA000"/>
<path d="M29.0241 58.6661C23.2216 60.778 16.8077 61.8303 16.1183 59.9362C16.0837 59.8409 16.1328 59.7356 16.2281 59.7009C16.3234 59.6662 16.4287 59.7153 16.4634 59.8106C16.9347 61.1054 22.0437 60.816 28.8983 58.3211C35.7529 55.8262 39.8524 52.7641 39.3811 51.4693C39.3464 51.374 39.3955 51.2686 39.4908 51.2339C39.5861 51.1992 39.6915 51.2484 39.7261 51.3437C40.4161 53.2376 34.8266 56.5541 29.0241 58.6661Z" fill="#FFA000"/>
<path d="M27.7406 55.1397C21.9381 57.2516 15.5242 58.304 14.8348 56.4098C14.8001 56.3145 14.8492 56.2092 14.9445 56.1745C15.0398 56.1398 15.1451 56.189 15.1798 56.2842C15.6511 57.579 20.7601 57.2896 27.6147 54.7947C34.4693 52.2999 38.5688 49.2377 38.0975 47.9429C38.0628 47.8476 38.112 47.7422 38.2072 47.7076C38.3025 47.6729 38.4079 47.722 38.4426 47.8173C39.1325 49.7112 33.5431 53.0277 27.7406 55.1397Z" fill="#FFA000"/>
<path d="M26.4571 51.6133C20.6546 53.7253 14.2407 54.7776 13.5513 52.8835C13.5166 52.7882 13.5658 52.6828 13.6611 52.6481C13.7563 52.6135 13.8617 52.6626 13.8964 52.7579C14.3676 54.0527 19.4767 53.7632 26.3312 51.2684C33.1858 48.7735 37.2853 45.7113 36.8141 44.4165C36.7794 44.3212 36.8285 44.2159 36.9238 44.1812C37.0191 44.1465 37.1244 44.1956 37.1591 44.2909C37.8492 46.1851 32.2596 49.5014 26.4571 51.6133Z" fill="#FFA000"/>
<path d="M25.1735 48.087C19.371 50.1989 12.9572 51.2512 12.2678 49.3571C12.2331 49.2618 12.2822 49.1565 12.3775 49.1218C12.4728 49.0871 12.5781 49.1362 12.6128 49.2315C13.0841 50.5263 18.1931 50.2369 25.0477 47.742C31.9023 45.2471 36.0018 42.185 35.5305 40.8902C35.4958 40.7949 35.5449 40.6895 35.6402 40.6548C35.7355 40.6201 35.8409 40.6693 35.8756 40.7646C36.5656 42.6588 30.9761 45.975 25.1735 48.087Z" fill="#FFA000"/>
<path d="M31.5911 65.7188C25.7886 67.8308 19.3747 68.8831 18.6852 66.9887L10.9844 45.831C10.2949 43.9365 15.8848 40.6202 21.6873 38.5083C27.4898 36.3963 33.9034 35.3441 34.5928 37.2382L42.2936 58.396C42.9832 60.2907 37.3936 63.6069 31.5911 65.7188ZM21.8128 38.8533C14.9585 41.3481 10.8584 44.4102 11.3297 45.7053L19.0305 66.863C19.5019 68.1581 24.6109 67.8687 31.4655 65.3738C38.3201 62.8789 42.4196 59.8167 41.9482 58.5217L34.2474 37.3639C33.7765 36.069 28.6674 36.3585 21.8128 38.8533Z" fill="#FFA000"/>
<path d="M9.26719 39.4088C9.44241 41.0769 15.0961 41.8497 21.8947 41.1352C28.6934 40.4207 34.0628 38.4891 33.8873 36.821L33.4926 33.0656C33.3174 31.3975 27.6637 30.6247 20.8651 31.3392C14.0664 32.0537 8.69698 33.9853 8.87248 35.6534L9.26719 39.4088Z" fill="#FFD200"/>
<path d="M33.8805 36.7628L33.4925 33.0656C33.4016 32.2035 31.6584 31.4962 28.999 31.2286C29.5313 34.3245 28.8899 35.4208 28.0538 36.2146C27.4633 37.0581 27.7115 38.9749 28.2349 40.026C28.2349 40.026 29.8417 39.7674 31.5709 39.0397C32.7061 38.5624 33.9826 37.519 33.8805 36.7628Z" fill="#FFB400"/>
<path d="M9.16339 34.8818C9.01867 35.8096 14.4872 36.7614 20.7415 36.104C26.9959 35.4465 31.9526 33.8336 31.8125 32.5013C31.6724 31.169 26.4887 30.6217 20.2344 31.2792C13.9801 31.9366 9.26199 34.2493 9.16339 34.8818Z" fill="#FFB400"/>
<path d="M30.2434 35.7282C30.2203 35.7366 30.1972 35.745 30.1741 35.7534C27.8954 36.5732 24.8218 37.2156 21.5196 37.5625C18.2172 37.9099 15.0769 37.9201 12.6778 37.5923C10.9254 37.3528 8.81119 36.8252 8.6902 35.6727C8.56894 34.5203 10.5245 33.5751 12.1918 32.966C14.4705 32.1462 17.5441 31.5038 20.8463 31.1569C26.9872 30.5114 33.4651 31.0419 33.6757 33.0468C33.7952 34.1829 31.8923 35.1281 30.2434 35.7282ZM12.2506 33.3354C10.1761 34.0905 8.98321 34.948 9.0552 35.6343C9.12825 36.328 10.5012 36.9239 12.7277 37.2284C15.0986 37.5524 18.2073 37.5415 21.4812 37.1976C24.755 36.8533 27.7983 36.2178 30.0499 35.4079C32.1593 34.6503 33.3835 33.7789 33.3104 33.0852C33.1663 31.7148 28.1391 30.7597 20.8845 31.5223C17.6107 31.8666 14.5674 32.502 12.3158 33.312C12.294 33.3196 12.2723 33.3275 12.2506 33.3354Z" fill="#FFA000"/>
<path d="M30.6384 39.4834C30.615 39.492 30.5918 39.5004 30.5687 39.5088C28.2904 40.3285 25.2165 40.9712 21.9142 41.3179C15.7731 41.9635 9.2952 41.433 9.08459 39.4281L8.68987 35.6728C8.56861 34.5203 10.5286 33.5716 12.1915 32.9661C14.4702 32.1463 17.5438 31.5039 20.846 31.157C26.9868 30.5115 33.4648 31.042 33.6754 33.0469L34.0701 36.8022C34.1896 37.9384 32.287 38.8834 30.6384 39.4834ZM9.44987 39.3897C9.59398 40.7601 14.6212 41.7152 21.8758 40.9526C25.1496 40.6084 28.1929 39.9729 30.4444 39.1629C32.563 38.3919 33.7781 37.5342 33.705 36.8403L33.3103 33.0849C33.1662 31.7145 28.1389 30.7594 20.8843 31.522C17.6105 31.8662 14.5673 32.5017 12.3157 33.3117C12.294 33.3196 12.272 33.3276 12.2506 33.3354C10.176 34.0904 8.98316 34.9479 9.05515 35.6343L9.44987 39.3897Z" fill="#FFA000"/>
<path d="M7.7982 33.5738C8.64052 35.024 14.1156 33.4169 20.0274 29.9841C25.9391 26.5512 30.0487 22.5924 29.2063 21.1418L27.31 17.8765C26.4677 16.4262 20.9926 18.0333 15.0809 21.4662C9.16914 24.899 5.0595 28.8578 5.90182 30.3081L7.7982 33.5738Z" fill="#FFD200"/>
<path d="M11.5859 30.0436C8.67581 31.1028 6.33523 31.42 5.74327 30.4006C4.73065 28.657 9.64873 24.408 14.9885 21.3072C20.3283 18.2064 26.4562 16.0412 27.4686 17.7842C28.4809 19.5276 23.5628 23.7766 18.223 26.8774C16.006 28.1648 13.6523 29.2915 11.5859 30.0436ZM21.7277 18.4795C19.8561 19.1607 17.6143 20.2072 15.173 21.6248C8.86494 25.2878 5.36876 29.0243 6.06042 30.2159C6.75275 31.4075 11.7309 30.2226 18.0387 26.5597C24.3468 22.8967 27.843 19.1602 27.1514 17.9686C26.7269 17.2385 24.6917 17.4007 21.7277 18.4795Z" fill="#FFA000"/>
<path d="M13.482 33.309C10.5718 34.3682 8.23124 34.6854 7.63928 33.6659L5.743 30.4006C4.73066 28.6569 9.64874 24.4079 14.9885 21.3071C20.3283 18.2063 26.4562 16.0411 27.4686 17.7841L29.3649 21.0495C30.3771 22.7929 25.4591 27.0418 20.1193 30.1427C17.9024 31.4303 15.5483 32.5569 13.482 33.309ZM7.95682 33.4814C8.64915 34.6731 13.6273 33.4882 19.9351 29.8253C26.2432 26.1623 29.7394 22.4258 29.0478 21.2342L27.1515 17.9688C26.4595 16.7773 21.4814 17.9622 15.1732 21.6249C8.86506 25.2879 5.36887 29.0245 6.06054 30.2161L7.95682 33.4814Z" fill="#FFA000"/>
<path d="M56.2383 59.5961C66.2894 55.9378 71.4717 44.8241 67.8134 34.773C64.1551 24.7219 53.0415 19.5395 42.9904 23.1978C32.9393 26.8561 27.7569 37.9698 31.4152 48.0209C35.0735 58.072 46.1872 63.2544 56.2383 59.5961Z" fill="#FFD200"/>
<path d="M54.4883 54.7881C61.8837 52.0964 65.6968 43.9191 63.0051 36.5237C60.3134 29.1282 52.1362 25.3151 44.7407 28.0068C37.3453 30.6985 33.5322 38.8758 36.2239 46.2712C38.9156 53.6667 47.0929 57.4798 54.4883 54.7881Z" fill="#FFB400"/>
<path d="M54.6073 55.116C47.0428 57.8692 38.6485 53.9549 35.8952 46.3901C33.142 38.8257 37.0563 30.4314 44.6207 27.6782C52.1855 24.9248 60.5797 28.8389 63.333 36.4036C66.0863 43.9683 62.172 52.3626 54.6073 55.116ZM44.8719 28.3683C37.6881 30.983 33.9708 38.9547 36.5855 46.1386C39.2002 53.3224 47.172 57.04 54.3559 54.4253C61.5398 51.8106 65.2573 43.8387 62.6425 36.6546C60.0279 29.471 52.0561 25.7535 44.8719 28.3683Z" fill="#FFA000"/>
<path d="M56.3639 59.9413C46.1386 63.663 34.7916 58.3718 31.0698 48.1465C27.3481 37.9211 32.6391 26.5745 42.8648 22.8527C53.0898 19.131 64.4367 24.422 68.1585 34.6473C71.8805 44.8726 66.5893 56.2196 56.3639 59.9413ZM43.1159 23.5428C33.2712 27.126 28.177 38.0504 31.7602 47.8952C35.3434 57.74 46.2681 62.834 56.1126 59.2509C65.9571 55.6678 71.0513 44.7434 67.4681 34.8986C63.8849 25.0538 52.9607 19.9596 43.1159 23.5428Z" fill="#FFA000"/>
<path d="M55.458 58.7874C55.2097 58.8717 54.9407 58.7344 54.8632 58.4839L54.1747 56.258C54.1056 56.0348 54.2269 55.7971 54.4483 55.722C54.6731 55.6459 54.917 55.766 54.9935 55.9903L55.7484 58.1968C55.8317 58.4404 55.7016 58.7049 55.458 58.7874ZM58.5313 56.8994L57.3482 54.8383C57.2418 54.6529 57.3056 54.4186 57.4882 54.3072C57.4911 54.3055 57.4937 54.3039 57.4966 54.3022C57.6792 54.1907 57.9167 54.2416 58.0329 54.4212L59.3218 56.4179C59.4608 56.633 59.3986 56.9228 59.18 57.0563C59.1745 57.0596 59.1693 57.0628 59.1638 57.0661C58.9451 57.1993 58.6588 57.1215 58.5313 56.8994ZM51.4532 59.6484C51.4495 59.6488 51.4461 59.6491 51.4424 59.6494C51.1859 59.6754 50.9598 59.4806 50.9404 59.2237L50.7609 56.8579C50.7447 56.6441 50.9039 56.4595 51.1173 56.438C51.1207 56.4377 51.1237 56.4372 51.1271 56.4369C51.3405 56.4154 51.5332 56.564 51.5602 56.7767L51.8596 59.1301C51.8919 59.3862 51.7096 59.6224 51.4532 59.6484ZM61.7543 54.5279L60.1405 52.7834C59.9953 52.6265 60.005 52.3839 60.1582 52.2346C60.16 52.2327 60.162 52.231 60.1638 52.229C60.3169 52.0795 60.5597 52.0757 60.7131 52.2251L62.4163 53.8828C62.5998 54.0615 62.6039 54.3579 62.4209 54.5368C62.4167 54.5409 62.4127 54.5449 62.4085 54.549C62.2245 54.7277 61.9281 54.7159 61.7543 54.5279ZM47.3452 59.5997C47.3408 59.599 47.3365 59.5987 47.3324 59.5979C47.0767 59.5655 46.9002 59.3252 46.9389 59.0704L47.2951 56.7245C47.3272 56.5127 47.5234 56.3685 47.7362 56.3954C47.7398 56.3957 47.7433 56.3963 47.7469 56.3966C47.9596 56.4233 48.1139 56.6113 48.0926 56.8247L47.8572 59.1857C47.8315 59.4421 47.601 59.6317 47.3452 59.5997ZM64.3649 51.4984L62.4023 50.1577C62.2256 50.0372 62.1811 49.7983 62.2971 49.6188C62.2989 49.6159 62.3006 49.6134 62.3024 49.6105C62.4183 49.4307 62.6544 49.3732 62.837 49.4846L64.8663 50.7218C65.085 50.8551 65.155 51.1432 65.0163 51.3584C65.013 51.3634 65.0097 51.3684 65.0067 51.3734C64.8675 51.5881 64.5761 51.6428 64.3649 51.4984ZM43.3536 58.6358C43.3499 58.6345 43.3466 58.6332 43.3429 58.632C43.1008 58.5439 42.982 58.2701 43.0763 58.0302L43.9442 55.822C44.0226 55.6224 44.2459 55.5255 44.4476 55.5989C44.4508 55.6 44.4539 55.6014 44.4572 55.6025C44.6585 55.6757 44.7674 55.8934 44.6993 56.0967L43.9451 58.3461C43.8628 58.5902 43.5956 58.7236 43.3536 58.6358ZM66.2429 47.9534L64.0319 47.0811C63.8328 47.0026 63.7367 46.7796 63.81 46.5786C63.8113 46.5749 63.8126 46.5716 63.8138 46.568C63.8872 46.3669 64.1044 46.2585 64.3074 46.3267L66.5598 47.0846C66.8025 47.1665 66.9344 47.4316 66.8468 47.6723C66.8446 47.6779 66.8428 47.6834 66.8407 47.6889C66.7531 47.9299 66.4811 48.0474 66.2429 47.9534ZM39.6777 56.8131C39.6744 56.8111 39.671 56.8088 39.668 56.8067C39.4515 56.6671 39.3961 56.3738 39.5411 56.1607L40.8767 54.1997C40.9974 54.0226 41.2366 53.9774 41.4168 54.0934C41.4192 54.0948 41.4214 54.0965 41.4238 54.0979C41.604 54.214 41.6622 54.4501 41.5507 54.6334L40.3183 56.661C40.1843 56.8815 39.8945 56.9525 39.6777 56.8131ZM67.2878 44.0913L64.9384 43.7326C64.7269 43.7004 64.5833 43.5043 64.6104 43.292C64.6109 43.288 64.6115 43.2837 64.612 43.2797C64.6389 43.0675 64.8267 42.9135 65.0394 42.9348L67.4043 43.1729C67.6591 43.1986 67.847 43.4278 67.8146 43.6819C67.8137 43.6882 67.813 43.6942 67.8122 43.7006C67.7798 43.9547 67.541 44.1301 67.2878 44.0913ZM36.4967 54.2203C36.4945 54.2179 36.4922 54.2158 36.49 54.2134C36.3096 54.0291 36.3208 53.731 36.5097 53.5553L38.247 51.9394C38.404 51.7935 38.6474 51.8026 38.7973 51.9558C38.7993 51.9577 38.8009 51.9596 38.8029 51.9615C38.9528 52.1147 38.9568 52.3581 38.8076 52.5121L37.1551 54.2146C36.9754 54.3997 36.6771 54.4046 36.4967 54.2203ZM67.4419 40.0896L65.0759 40.2666C64.8624 40.2827 64.6784 40.1236 64.657 39.9105C64.6566 39.9068 64.6562 39.9031 64.6559 39.8997C64.6346 39.6865 64.7832 39.4942 64.9958 39.4676L67.3498 39.1708C67.6056 39.1386 67.842 39.3214 67.8677 39.578C67.868 39.5814 67.8685 39.5844 67.8687 39.5878C67.8941 39.8442 67.6988 40.0701 67.4419 40.0896ZM33.9797 50.9908C33.9742 50.9817 33.9686 50.9725 33.963 50.9634C33.8317 50.7481 33.9076 50.4664 34.1262 50.3405L36.2019 49.1432C36.3813 49.0396 36.6083 49.101 36.7161 49.2779C36.7223 49.288 36.7286 49.2982 36.7349 49.3084C36.8428 49.4849 36.794 49.7147 36.6203 49.827L34.609 51.1296C34.3971 51.2664 34.1115 51.2056 33.9797 50.9908ZM66.6984 36.1601L64.47 36.847C64.2467 36.9158 64.0086 36.7949 63.9332 36.5737C63.9319 36.57 63.9309 36.5665 63.9296 36.5629C63.8534 36.3397 63.9694 36.097 64.191 36.0163L66.382 35.2189C66.6258 35.1301 66.8942 35.2578 66.9782 35.5034C66.9855 35.5253 66.9931 35.5471 67.0006 35.5693C67.0843 35.816 66.9473 36.0835 66.6984 36.1601ZM32.24 47.2618C32.2386 47.2578 32.2374 47.2538 32.236 47.2498C32.1538 47.0084 32.2866 46.7468 32.5302 46.6715L34.8169 45.9641C35.0146 45.903 35.2226 46.0131 35.2886 46.2093C35.2894 46.2116 35.2903 46.2141 35.2909 46.2165C35.3567 46.4112 35.2595 46.6231 35.0671 46.6954L32.827 47.5385C32.5885 47.6288 32.3222 47.5035 32.24 47.2618ZM62.488 33.4768C62.4865 33.4742 62.485 33.4719 62.4834 33.4692C62.3713 33.2869 62.4214 33.049 62.6008 32.9323L64.5901 31.6394C64.8064 31.4987 65.099 31.5604 65.2339 31.7802C65.236 31.7835 65.2378 31.7867 65.24 31.7901C65.375 32.0101 65.2975 32.2988 65.0741 32.428L63.0199 33.6153C62.8347 33.7222 62.6001 33.6592 62.488 33.4768ZM34.2497 43.3566L31.8732 43.6629C31.6231 43.6952 31.3916 43.517 31.3658 43.2662C31.3646 43.2549 31.3636 43.2434 31.3623 43.232C31.3368 42.9812 31.5277 42.76 31.779 42.741L34.1684 42.5606C34.3747 42.5449 34.5528 42.6984 34.5734 42.9042C34.5747 42.9156 34.5757 42.927 34.5768 42.9381C34.5981 43.1439 34.4549 43.3301 34.2497 43.3566ZM60.4077 30.8135C60.4057 30.8117 60.4041 30.8097 60.4021 30.8079C60.2521 30.6553 60.2475 30.4121 60.3965 30.2583L62.046 28.5529C62.2254 28.3676 62.5242 28.3623 62.7048 28.5462C62.7069 28.5486 62.7092 28.5507 62.7114 28.5531C62.8921 28.7373 62.8814 29.0359 62.6926 29.2118L60.9569 30.8294C60.8005 30.9754 60.5578 30.9664 60.4077 30.8135ZM34.1843 39.8913L31.8243 39.6587C31.5674 39.6335 31.3774 39.4025 31.4093 39.1464C31.4099 39.142 31.4103 39.1377 31.4109 39.1333C31.4431 38.8771 31.6842 38.6999 31.9394 38.7389L34.284 39.0952C34.4963 39.1274 34.6402 39.3237 34.6136 39.5368C34.6133 39.5394 34.613 39.5421 34.6126 39.5445C34.5861 39.7575 34.3979 39.9125 34.1843 39.8913ZM57.7851 28.6831C57.7822 28.6813 57.7793 28.6795 57.7767 28.6776C57.5964 28.5621 57.538 28.3261 57.6489 28.143L58.878 26.1134C59.0116 25.8927 59.3017 25.8213 59.5189 25.9603C59.5218 25.9621 59.5244 25.9641 59.5272 25.9656C59.7443 26.105 59.8003 26.3984 59.6555 26.612L58.3242 28.576C58.2042 28.7531 57.9654 28.7988 57.7851 28.6831ZM34.9122 36.5056L32.6629 35.7543C32.418 35.6726 32.2843 35.4052 32.3722 35.1625C32.3735 35.1591 32.3746 35.1559 32.3759 35.1525C32.4641 34.9097 32.7381 34.7908 32.9786 34.8849L35.1859 35.7516C35.3856 35.8299 35.4829 36.0534 35.4095 36.2554C35.4086 36.258 35.4079 36.2604 35.4068 36.2628C35.3337 36.4646 35.1159 36.5739 34.9122 36.5056ZM54.7494 27.1835C54.7468 27.1826 54.7446 27.1818 54.742 27.1808C54.5403 27.108 54.4311 26.8904 54.4988 26.687L55.247 24.4376C55.3287 24.192 55.5964 24.0575 55.8398 24.1455C55.8428 24.1466 55.8458 24.1478 55.8486 24.1487C56.092 24.2366 56.2115 24.5114 56.1172 24.7523L55.2525 26.9596C55.1742 27.1595 54.9513 27.2566 54.7494 27.1835ZM36.3714 33.3564L34.344 32.1261C34.1232 31.9922 34.0519 31.7018 34.1913 31.4847C34.1929 31.4822 34.1948 31.4793 34.1964 31.4768C34.3361 31.2596 34.6297 31.2042 34.8433 31.3489L36.8049 32.6817C36.9825 32.8022 37.0279 33.0417 36.9117 33.2223C36.9102 33.2244 36.9088 33.2268 36.9074 33.229C36.7915 33.4097 36.555 33.4677 36.3714 33.3564ZM51.4586 26.3943C51.456 26.394 51.4533 26.3936 51.4509 26.3932C51.2376 26.3668 51.0826 26.1787 51.1034 25.9648L51.3334 23.6065C51.3586 23.3486 51.59 23.1581 51.8467 23.1898C51.8498 23.1903 51.8531 23.1906 51.856 23.1908C52.1132 23.2227 52.2911 23.4641 52.2524 23.7202L51.9001 26.0634C51.8683 26.2761 51.6719 26.4207 51.4586 26.3943ZM38.4875 30.6023L36.7835 28.952C36.5981 28.7724 36.5928 28.4736 36.7771 28.2925C36.7796 28.2903 36.7816 28.288 36.784 28.2859C36.9685 28.1051 37.2673 28.1163 37.443 28.3052L39.059 30.0419C39.2048 30.1986 39.1958 30.4416 39.0429 30.5914C39.041 30.5934 39.0391 30.595 39.0372 30.597C38.8844 30.7471 38.6413 30.7513 38.4875 30.6023ZM48.0774 26.3591C48.0749 26.3593 48.0722 26.3597 48.0697 26.36C47.8568 26.3819 47.6641 26.234 47.6366 26.0218L47.3315 23.6704C47.2981 23.4138 47.481 23.1758 47.7385 23.1491C47.7416 23.1489 47.7449 23.1484 47.748 23.1482C48.0056 23.1218 48.2332 23.3173 48.2529 23.5758L48.4328 25.9402C48.4487 26.1531 48.29 26.3372 48.0774 26.3591ZM41.1632 28.4L39.8721 26.4113C39.7313 26.1947 39.7933 25.9017 40.0135 25.7667C40.0162 25.7651 40.019 25.7634 40.0217 25.7618C40.242 25.627 40.5311 25.7044 40.6604 25.9281L41.8471 27.9809C41.9547 28.1668 41.8912 28.4019 41.7082 28.5141C41.7059 28.5156 41.7037 28.5167 41.7014 28.5182C41.5184 28.6302 41.2798 28.58 41.1632 28.4ZM44.7748 27.0829C44.7714 27.0841 44.7683 27.0853 44.7648 27.0862C44.5593 27.1566 44.3355 27.0496 44.2612 26.8455L43.4493 24.6148C43.3623 24.3757 43.4878 24.112 43.7285 24.0295C43.7325 24.0281 43.7365 24.0269 43.7405 24.0255C43.983 23.9426 44.246 24.0758 44.3219 24.3205L45.0261 26.5876C45.0899 26.7936 44.9786 27.0132 44.7748 27.0829Z" fill="#FFA000"/>
<path d="M56.379 35.9857L57.2908 38.491L49.1682 41.4474C49.7879 42.7316 50.3024 45.6791 51.5099 46.5575C53.2966 47.6104 56.4911 46.0624 56.3471 43.8583C56.25 41.6563 52.8333 43.1553 54.6233 44.5033C54.6233 44.5033 52.8479 46.0654 52.8461 46.0667C51.137 45.0733 51.1316 42.4462 52.779 41.3553C56.136 38.602 60.6193 42.1731 58.5453 46.0164C56.7159 49.3502 50.856 51.2587 48.1358 48.0103C47.1887 46.9676 46.3882 43.9639 45.8437 42.6574L43.666 43.4501L42.7541 40.9448L44.9318 40.1521C44.5221 37.7686 41.8067 37.9559 42.259 40.1538L39.3875 41.1989C37.7165 35.9798 47.3577 33.2292 48.2561 38.9422L56.379 35.9857Z" fill="#FFF8A0"/>
</g>
<defs>
<clipPath id="clip0_4587_8064">
<rect width="60" height="60" fill="white" transform="translate(0.548584 21.0068) rotate(-20)"/>
</clipPath>
</defs>
</svg>
