<svg width="130" height="31" viewBox="0 0 130 31" fill="none" xmlns="http://www.w3.org/2000/svg">
<path d="M38.6095 30.252C37.0423 30.252 35.6652 30.1095 34.5729 29.7771C33.4332 29.4447 32.5309 28.9223 31.8186 28.1625C31.1062 27.4027 30.5838 26.4054 30.2989 25.1232C29.9665 23.841 29.824 22.2739 29.824 20.4218C29.824 18.4747 29.9665 16.8601 30.2989 15.5779C30.6313 14.2957 31.1537 13.2984 31.8186 12.5861C32.5309 11.8738 33.4332 11.3514 34.5729 11.0665C35.7126 10.7815 37.0423 10.6391 38.6095 10.6391C40.2241 10.6391 41.5538 10.7815 42.6935 11.114C43.8333 11.4464 44.7355 11.9213 45.4479 12.6811C46.1602 13.3934 46.6826 14.3907 46.9675 15.6729C47.2999 16.9551 47.4424 18.5697 47.4424 20.4693C47.4424 22.3688 47.2999 23.9835 46.9675 25.2657C46.6351 26.5479 46.1602 27.5451 45.4479 28.3049C44.7355 29.0648 43.8333 29.5871 42.6935 29.8721C41.6013 30.1095 40.2241 30.252 38.6095 30.252ZM38.6095 26.0255C39.2743 26.0255 39.7967 25.978 40.2241 25.8355C40.6515 25.6931 41.0314 25.4556 41.3163 25.1232C41.6013 24.7433 41.7912 24.1734 41.9337 23.4136C42.0762 22.6538 42.1711 21.6565 42.1711 20.4218C42.1711 19.1396 42.0762 18.1423 41.9337 17.3825C41.7912 16.6227 41.6013 16.0528 41.3163 15.7204C41.0314 15.3405 40.699 15.103 40.2241 15.008C39.7967 14.8656 39.2268 14.8181 38.6095 14.8181C37.9921 14.8181 37.4697 14.8656 36.9948 15.008C36.5674 15.1505 36.1875 15.388 35.9026 15.7204C35.6177 16.1003 35.4277 16.6702 35.2852 17.3825C35.1428 18.1423 35.0953 19.1396 35.0953 20.4218C35.0953 21.6565 35.1428 22.6538 35.2852 23.4136C35.4277 24.1734 35.6177 24.7433 35.9026 25.1232C36.1875 25.5031 36.5674 25.7405 36.9948 25.8355C37.4697 25.978 37.9921 26.0255 38.6095 26.0255Z" fill="white"/>
<path d="M50.9566 30.252V2.9459H56.2753V17.6675H58.5073L62.7338 11.019H68.1001L62.4489 20.0894L68.67 30.252H63.3037L58.4123 22.4638H56.2279V30.252H50.9566Z" fill="white"/>
<path d="M74.8435 30.252C73.3714 30.252 72.1841 29.8246 71.2818 28.9698C70.3796 28.115 69.9047 26.9278 69.9047 25.4081V23.6985C69.9047 22.2264 70.427 21.0392 71.4243 20.0894C72.4691 19.1396 74.0362 18.6647 76.2207 18.6647H81.207V17.335C81.207 16.7177 81.1121 16.2428 80.8746 15.8629C80.6372 15.4829 80.2572 15.198 79.6874 15.0081C79.1175 14.8181 78.2152 14.7231 77.028 14.7231H71.2344V11.6363C72.1841 11.3514 73.2289 11.114 74.4636 10.8765C75.6983 10.6391 77.1705 10.5441 78.9276 10.5441C80.5422 10.5441 81.8719 10.7341 83.0116 11.114C84.1513 11.4939 85.0061 12.1587 85.576 13.061C86.1459 14.0108 86.4308 15.293 86.4308 16.9076V29.9671H82.2518L81.397 27.925C81.207 28.115 80.9221 28.3524 80.5422 28.5899C80.1148 28.8273 79.6399 29.0648 79.07 29.3022C78.5002 29.5397 77.8353 29.7771 77.123 29.9196C76.4106 30.157 75.6508 30.252 74.8435 30.252ZM77.5504 26.5954C77.7878 26.5954 78.0728 26.5479 78.3577 26.5004C78.6426 26.4529 78.9751 26.3579 79.3075 26.2629C79.6399 26.168 79.9248 26.073 80.2098 26.0255C80.4947 25.9305 80.7321 25.883 80.8746 25.788C81.0646 25.6931 81.1595 25.6456 81.207 25.6456V21.1816L77.9778 21.4191C77.028 21.514 76.3632 21.7515 75.9358 22.1314C75.5084 22.5588 75.2709 23.0812 75.2709 23.7935V24.5533C75.2709 25.0282 75.3659 25.4081 75.5558 25.7406C75.7458 26.073 76.0307 26.2629 76.3632 26.4054C76.7431 26.5004 77.123 26.5954 77.5504 26.5954Z" fill="white"/>
<path d="M90.4674 30.252V11.0189H94.8363L95.7861 12.966C96.4985 12.3486 97.4007 11.8263 98.493 11.3514C99.5852 10.8765 100.677 10.639 101.817 10.639C103.384 10.639 104.619 10.9715 105.474 11.5888C106.329 12.2062 106.946 13.061 107.278 14.0582C107.611 15.103 107.801 16.2427 107.801 17.5249V30.2045H102.482V18.2373C102.482 17.6199 102.387 17.0975 102.15 16.7176C101.912 16.2902 101.627 16.0053 101.2 15.7678C100.772 15.5304 100.298 15.4354 99.7277 15.4354C99.2053 15.4354 98.7304 15.4829 98.2555 15.6254C97.7807 15.7678 97.3533 15.9103 96.9259 16.1477C96.4985 16.3852 96.1186 16.6226 95.7386 16.9076V30.252H90.4674Z" fill="white"/>
<path d="M130.001 16.7071C125.889 19.2089 121.713 21.6927 117.582 24.2636C118.991 26.2174 121.549 28.0254 127.132 24.6644C128.247 25.7825 128.77 26.888 129.362 28.0195C123.778 31.3806 119.442 30.3599 116.209 28.1965C112.911 26.015 111.347 21.8608 112.312 17.889C113.296 13.8481 116.514 10.8003 120.328 10.3729C124.588 9.84632 128.061 12.1508 130.001 16.7071ZM124.637 15.4389C122.957 13.7073 120.195 13.609 118.085 15.1796C116.246 16.528 115.219 19.218 115.806 20.8689C118.808 19.0999 121.68 17.2949 124.637 15.4389Z" fill="#FFA755"/>
<path d="M27.0222 30.252V22.3214C26.7847 22.8912 26.5473 23.4136 26.2623 23.9835C24.9801 26.3104 23.0806 28.1625 20.6587 29.4447C20.0888 29.7296 19.4714 30.0146 18.8541 30.252H27.0222Z" fill="white"/>
<path d="M8.12158 2.28103L6.22202 5.60525H4.27498L6.98185 2.28103H8.12158Z" fill="#FFA755"/>
<path d="M8.59647 2.28103H10.1161L8.78643 5.60525H6.7444L8.59647 2.28103Z" fill="#FFA755"/>
<path d="M10.591 2.28103H12.0157L11.4933 5.60525H9.26132L10.591 2.28103Z" fill="#FFA755"/>
<path d="M12.4906 2.28103H13.8677V5.60525H11.9682L12.4906 2.28103Z" fill="#FFA755"/>
<path d="M14.3426 2.28103H15.6723L16.1947 5.60525H14.3426V2.28103Z" fill="#FFA755"/>
<path d="M16.1472 2.28103H17.5719L18.9016 5.60525H16.6696L16.1472 2.28103Z" fill="#FFA755"/>
<path d="M18.0468 2.28103H19.5189L21.4185 5.60525H19.3765L18.0468 2.28103Z" fill="#FFA755"/>
<path d="M20.0413 2.28103H21.181L23.8879 5.60525H21.9409L20.0413 2.28103Z" fill="#FFA755"/>
<path d="M21.7034 2.28103H22.5582L26.1199 5.60525H24.4103L21.7034 2.28103Z" fill="#FFA755"/>
<path d="M5.41471 1.18878C5.41471 0.713896 5.79462 0.333984 6.26951 0.333984H21.5609C22.0358 0.333984 22.4157 0.713896 22.4157 1.18878V1.80614H5.41471V1.18878Z" fill="#FFA755"/>
<path d="M5.31974 2.28103H6.45947L3.70511 5.60525H1.99551L5.31974 2.28103Z" fill="#FFA755"/>
<path d="M2.61287 8.12217C2.043 8.12217 1.56811 7.64728 1.56811 7.07741V6.08014H3.65762V7.07741C3.65762 7.64728 3.18273 8.12217 2.61287 8.12217Z" fill="#FFA755"/>
<path d="M6.17454 7.07741C6.17454 7.64728 5.69965 8.12217 5.12978 8.12217C4.55991 8.12217 4.08502 7.64728 4.08502 7.07741V6.08014H6.17454V7.07741Z" fill="#FFA755"/>
<path d="M8.73894 7.07741C8.73894 7.64728 8.26405 8.12217 7.69418 8.12217C7.12431 8.12217 6.64942 7.64728 6.64942 7.07741V6.08014H8.73894V7.07741Z" fill="#FFA755"/>
<path d="M10.3536 8.12217C9.73621 8.12217 9.21383 7.59979 9.21383 6.98243V6.08014H11.4458V6.98243C11.4458 7.59979 10.9709 8.12217 10.3536 8.12217Z" fill="#FFA755"/>
<path d="M12.918 8.12217C12.3956 8.12217 11.9207 7.69477 11.9207 7.1249V6.08014H13.8677V7.1249C13.8677 7.69477 13.4403 8.12217 12.918 8.12217Z" fill="#FFA755"/>
<path d="M16.2422 7.17239C16.2422 7.69477 15.8148 8.12217 15.2924 8.12217C14.77 8.12217 14.3426 7.69477 14.3426 7.17239V6.08014H16.1947V7.17239H16.2422Z" fill="#FFA755"/>
<path d="M17.8093 8.12217C17.192 8.12217 16.6696 7.59979 16.6696 6.98243V6.08014H18.9016V6.98243C18.9491 7.59979 18.4267 8.12217 17.8093 8.12217Z" fill="#FFA755"/>
<path d="M20.4687 8.12217C19.8988 8.12217 19.4239 7.64728 19.4239 7.07741V6.08014H21.5135V7.07741C21.5135 7.64728 21.0386 8.12217 20.4687 8.12217Z" fill="#FFA755"/>
<path d="M24.0304 7.07741C24.0304 7.64728 23.5555 8.12217 22.9856 8.12217C22.4157 8.12217 21.9409 7.64728 21.9409 7.07741V6.08014H23.9829V7.07741H24.0304Z" fill="#FFA755"/>
<path d="M26.5473 7.07741C26.5473 7.64728 26.0724 8.12217 25.5025 8.12217C24.9327 8.12217 24.4578 7.64728 24.4578 7.07741V6.08014H26.5473V7.07741Z" fill="#FFA755"/>
<path d="M27.0697 15.6729C27.0697 18.4747 26.4523 20.9442 25.2651 23.1287C24.0779 25.3132 22.3208 26.9753 20.0888 28.21C17.8568 29.4447 15.1974 30.0146 12.1581 30.0146H9.92616C10.2586 29.5397 10.3536 28.9698 10.3536 28.5899V28.2575H8.97638V23.841H11.5883C14.2951 23.841 16.3847 23.1287 17.8568 21.704C19.2815 20.3268 20.0413 18.4273 20.0888 15.9578C20.0888 15.8629 20.0888 15.7679 20.0888 15.6729C20.0888 13.061 19.329 11.0665 17.8568 9.64181C17.3819 9.16692 16.8595 8.78701 16.2422 8.50208C16.3372 8.4071 16.4321 8.31212 16.5271 8.21714C16.8595 8.54957 17.3344 8.78701 17.8568 8.78701C18.3792 8.78701 18.8541 8.54957 19.1865 8.16965C19.5189 8.54957 19.9463 8.78701 20.4687 8.78701C20.9911 8.78701 21.4185 8.54957 21.7509 8.21714C22.0833 8.54957 22.5107 8.78701 23.0331 8.78701C23.5555 8.78701 23.9829 8.54957 24.3153 8.21714C24.6477 8.54957 25.0751 8.78701 25.5975 8.78701H25.645C26.4998 10.4491 26.9747 12.3012 27.1171 14.3432C27.0697 14.7706 27.0697 15.2455 27.0697 15.6729Z" fill="white"/>
<path d="M8.26405 8.69203V19.8519C8.12158 19.8044 7.93163 19.757 7.74167 19.757H1.37816V8.21714C1.71058 8.54957 2.13798 8.78701 2.66036 8.78701C3.18273 8.78701 3.61013 8.54957 3.94256 8.21714C4.27498 8.54957 4.70238 8.78701 5.22476 8.78701C5.74714 8.78701 6.17454 8.54957 6.50696 8.21714C6.83938 8.54957 7.26678 8.78701 7.78916 8.78701C7.88414 8.78701 8.07409 8.78701 8.26405 8.69203Z" fill="white"/>
<path d="M0.665821 21.3241V22.0839H0.000976562C0.0484655 21.2291 0.28591 20.8492 0.475866 20.6592C0.570844 20.7067 0.665821 20.8967 0.665821 21.3241Z" fill="#FFA755"/>
<path d="M7.78916 20.4218H1.14071C1.28318 20.6592 1.33067 20.9442 1.33067 21.3241V29.5397C1.33067 29.8721 1.42564 29.9671 1.52062 30.0146C1.71058 29.9671 2.043 29.6821 2.043 28.5899V28.2575H8.26405V20.9917C8.26405 20.8492 8.21656 20.4218 7.78916 20.4218ZM2.4704 21.894H7.50423V22.5588H2.4704V21.894ZM2.4704 23.4136H7.50423V24.0784H2.4704V23.4136ZM2.4704 24.8858H7.50423V25.5506H2.4704V24.8858ZM7.55171 27.1177H2.4704V26.4529H7.55171V27.1177Z" fill="white"/>
<path d="M9.64123 28.9223C9.59374 29.3497 9.35629 30.0146 8.64396 30.0146H2.4704C2.61287 29.7771 2.70784 29.3972 2.70784 28.9223H9.64123Z" fill="#FFA755"/>
</svg>
