<svg width="130" height="30" viewBox="0 0 130 30" fill="none" xmlns="http://www.w3.org/2000/svg">
<path d="M38.6085 29.959C37.0414 29.959 35.6642 29.8166 34.5719 29.4841C33.4322 29.1517 32.5299 28.6293 31.8176 27.8695C31.1052 27.1097 30.5829 26.1124 30.2979 24.8302C29.9655 23.548 29.823 21.9809 29.823 20.1288C29.823 18.1818 29.9655 16.5671 30.2979 15.2849C30.6304 14.0027 31.1527 13.0055 31.8176 12.2931C32.5299 11.5808 33.4322 11.0584 34.5719 10.7735C35.7117 10.4886 37.0414 10.3461 38.6085 10.3461C40.2231 10.3461 41.5528 10.4886 42.6925 10.821C43.8323 11.1534 44.7346 11.6283 45.4469 12.3881C46.1592 13.1005 46.6816 14.0977 46.9665 15.3799C47.299 16.6621 47.4414 18.2767 47.4414 20.1763C47.4414 22.0759 47.299 23.6905 46.9665 24.9727C46.6341 26.2549 46.1592 27.2522 45.4469 28.012C44.7346 28.7718 43.8323 29.2942 42.6925 29.5791C41.6003 29.8166 40.2231 29.959 38.6085 29.959ZM38.6085 25.7325C39.2733 25.7325 39.7957 25.685 40.2231 25.5426C40.6505 25.4001 41.0304 25.1626 41.3154 24.8302C41.6003 24.4503 41.7902 23.8804 41.9327 23.1206C42.0752 22.3608 42.1702 21.3635 42.1702 20.1288C42.1702 18.8466 42.0752 17.8493 41.9327 17.0895C41.7902 16.3297 41.6003 15.7598 41.3154 15.4274C41.0304 15.0475 40.698 14.8101 40.2231 14.7151C39.7957 14.5726 39.2258 14.5251 38.6085 14.5251C37.9911 14.5251 37.4688 14.5726 36.9939 14.7151C36.5665 14.8575 36.1866 15.095 35.9016 15.4274C35.6167 15.8073 35.4267 16.3772 35.2843 17.0895C35.1418 17.8493 35.0943 18.8466 35.0943 20.1288C35.0943 21.3635 35.1418 22.3608 35.2843 23.1206C35.4267 23.8804 35.6167 24.4503 35.9016 24.8302C36.1866 25.2101 36.5665 25.4476 36.9939 25.5426C37.4688 25.685 37.9911 25.7325 38.6085 25.7325Z" fill="#155263"/>
<path d="M50.9556 29.9591V2.65293H56.2744V17.3745H58.5063L62.7329 10.726H68.0991L62.4479 19.7964L68.669 29.9591H63.3027L58.4114 22.1709H56.2269V29.9591H50.9556Z" fill="#155263"/>
<path d="M74.8425 29.959C73.3704 29.959 72.1832 29.5316 71.2809 28.6768C70.3786 27.822 69.9037 26.6348 69.9037 25.1152V23.4056C69.9037 21.9334 70.4261 20.7462 71.4233 19.7964C72.4681 18.8466 74.0352 18.3717 76.2197 18.3717H81.206V17.042C81.206 16.4247 81.1111 15.9498 80.8736 15.5699C80.6362 15.19 80.2563 14.905 79.6864 14.7151C79.1165 14.5251 78.2142 14.4302 77.027 14.4302H71.2334V11.3434C72.1832 11.0584 73.2279 10.821 74.4626 10.5836C75.6973 10.3461 77.1695 10.2511 78.9266 10.2511C80.5412 10.2511 81.8709 10.4411 83.0106 10.821C84.1504 11.2009 85.0052 11.8658 85.575 12.768C86.1449 13.7178 86.4298 15 86.4298 16.6146V29.6741H82.2508L81.396 27.6321C81.206 27.822 80.9211 28.0595 80.5412 28.2969C80.1138 28.5344 79.6389 28.7718 79.069 29.0093C78.4992 29.2467 77.8343 29.4841 77.122 29.6266C76.4097 29.8641 75.6498 29.959 74.8425 29.959ZM77.5494 26.3024C77.7868 26.3024 78.0718 26.2549 78.3567 26.2074C78.6416 26.1599 78.9741 26.0649 79.3065 25.97C79.6389 25.875 79.9238 25.78 80.2088 25.7325C80.4937 25.6375 80.7312 25.59 80.8736 25.4951C81.0636 25.4001 81.1586 25.3526 81.206 25.3526V20.8886L77.9768 21.1261C77.027 21.2211 76.3622 21.4585 75.9348 21.8384C75.5074 22.2658 75.2699 22.7882 75.2699 23.5005V24.2604C75.2699 24.7353 75.3649 25.1152 75.5549 25.4476C75.7448 25.78 76.0298 25.97 76.3622 26.1124C76.7421 26.2074 77.122 26.3024 77.5494 26.3024Z" fill="#155263"/>
<path d="M90.4664 29.959V10.726H94.8354L95.7852 12.673C96.4975 12.0557 97.3998 11.5333 98.492 11.0584C99.5843 10.5835 100.677 10.3461 101.816 10.3461C103.383 10.3461 104.618 10.6785 105.473 11.2958C106.328 11.9132 106.945 12.768 107.277 13.7653C107.61 14.81 107.8 15.9498 107.8 17.232V29.9115H102.481V17.9443C102.481 17.3269 102.386 16.8046 102.149 16.4246C101.911 15.9972 101.626 15.7123 101.199 15.4749C100.771 15.2374 100.297 15.1424 99.7267 15.1424C99.2044 15.1424 98.7295 15.1899 98.2546 15.3324C97.7797 15.4749 97.3523 15.6173 96.9249 15.8548C96.4975 16.0922 96.1176 16.3297 95.7377 16.6146V29.959H90.4664Z" fill="#155263"/>
<path d="M130 16.4142C125.888 18.916 121.712 21.3998 117.581 23.9706C118.99 25.9244 121.548 27.7325 127.131 24.3714C128.246 25.4895 128.769 26.595 129.361 27.7266C123.777 31.0876 119.441 30.0669 116.208 27.9035C112.91 25.7221 111.346 21.5679 112.311 17.596C113.295 13.5552 116.513 10.5073 120.327 10.0799C124.587 9.55336 128.06 11.8578 130 16.4142ZM124.636 15.1459C122.956 13.4143 120.194 13.316 118.084 14.8866C116.245 16.235 115.218 18.925 115.805 20.5759C118.807 18.8069 121.679 17.002 124.636 15.1459Z" fill="#FFA755"/>
<path d="M27.0212 29.9591V22.0284C26.7838 22.5983 26.5463 23.1207 26.2614 23.6905C24.9792 26.0175 23.0796 27.8695 20.6577 29.1517C20.0878 29.4367 19.4705 29.7216 18.8531 29.9591H27.0212Z" fill="#155263"/>
<path d="M8.12061 1.98806L6.22105 5.31228H4.274L6.98087 1.98806H8.12061Z" fill="#FFA755"/>
<path d="M8.59549 1.98806H10.1151L8.78545 5.31228H6.74343L8.59549 1.98806Z" fill="#FFA755"/>
<path d="M10.59 1.98806H12.0147L11.4923 5.31228H9.26034L10.59 1.98806Z" fill="#FFA755"/>
<path d="M12.4896 1.98806H13.8668V5.31228H11.9672L12.4896 1.98806Z" fill="#FFA755"/>
<path d="M14.3417 1.98806H15.6713L16.1937 5.31228H14.3417V1.98806Z" fill="#FFA755"/>
<path d="M16.1462 1.98806H17.5709L18.9006 5.31228H16.6686L16.1462 1.98806Z" fill="#FFA755"/>
<path d="M18.0458 1.98806H19.5179L21.4175 5.31228H19.3755L18.0458 1.98806Z" fill="#FFA755"/>
<path d="M20.0403 1.98806H21.1801L23.8869 5.31228H21.9399L20.0403 1.98806Z" fill="#FFA755"/>
<path d="M21.7024 1.98806H22.5572L26.1189 5.31228H24.4093L21.7024 1.98806Z" fill="#FFA755"/>
<path d="M5.41374 0.895816C5.41374 0.420927 5.79365 0.0410156 6.26854 0.0410156H21.56C22.0349 0.0410156 22.4148 0.420927 22.4148 0.895816V1.51317H5.41374V0.895816Z" fill="#FFA755"/>
<path d="M5.31876 1.98806H6.45849L3.70414 5.31228H1.99453L5.31876 1.98806Z" fill="#FFA755"/>
<path d="M2.61189 7.8292C2.04202 7.8292 1.56713 7.35431 1.56713 6.78444V5.78717H3.65665V6.78444C3.65665 7.35431 3.18176 7.8292 2.61189 7.8292Z" fill="#FFA755"/>
<path d="M6.17356 6.78444C6.17356 7.35431 5.69867 7.8292 5.1288 7.8292C4.55894 7.8292 4.08405 7.35431 4.08405 6.78444V5.78717H6.17356V6.78444Z" fill="#FFA755"/>
<path d="M8.73796 6.78444C8.73796 7.35431 8.26307 7.8292 7.6932 7.8292C7.12334 7.8292 6.64845 7.35431 6.64845 6.78444V5.78717H8.73796V6.78444Z" fill="#FFA755"/>
<path d="M10.3526 7.8292C9.73523 7.8292 9.21285 7.30682 9.21285 6.68946V5.78717H11.4448V6.68946C11.4448 7.30682 10.9699 7.8292 10.3526 7.8292Z" fill="#FFA755"/>
<path d="M12.917 7.8292C12.3946 7.8292 11.9197 7.4018 11.9197 6.83193V5.78717H13.8668V6.83193C13.8668 7.4018 13.4394 7.8292 12.917 7.8292Z" fill="#FFA755"/>
<path d="M16.2412 6.87942C16.2412 7.4018 15.8138 7.8292 15.2914 7.8292C14.7691 7.8292 14.3417 7.4018 14.3417 6.87942V5.78717H16.1937V6.87942H16.2412Z" fill="#FFA755"/>
<path d="M17.8083 7.8292C17.191 7.8292 16.6686 7.30682 16.6686 6.68946V5.78717H18.9006V6.68946C18.9481 7.30682 18.4257 7.8292 17.8083 7.8292Z" fill="#FFA755"/>
<path d="M20.4677 7.8292C19.8979 7.8292 19.423 7.35431 19.423 6.78444V5.78717H21.5125V6.78444C21.5125 7.35431 21.0376 7.8292 20.4677 7.8292Z" fill="#FFA755"/>
<path d="M24.0294 6.78444C24.0294 7.35431 23.5545 7.8292 22.9846 7.8292C22.4148 7.8292 21.9399 7.35431 21.9399 6.78444V5.78717H23.9819V6.78444H24.0294Z" fill="#FFA755"/>
<path d="M26.5463 6.78444C26.5463 7.35431 26.0714 7.8292 25.5015 7.8292C24.9317 7.8292 24.4568 7.35431 24.4568 6.78444V5.78717H26.5463V6.78444Z" fill="#FFA755"/>
<path d="M27.0687 15.3799C27.0687 18.1818 26.4513 20.6512 25.2641 22.8357C24.0769 25.0202 22.3198 26.6823 20.0878 27.917C17.8558 29.1517 15.1965 29.7216 12.1572 29.7216H9.92518C10.2576 29.2467 10.3526 28.6768 10.3526 28.2969V27.9645H8.97541V23.548H11.5873C14.2942 23.548 16.3837 22.8357 17.8558 21.411C19.2805 20.0338 20.0403 18.1343 20.0878 15.6649C20.0878 15.5699 20.0878 15.4749 20.0878 15.3799C20.0878 12.768 19.328 10.7735 17.8558 9.34884C17.3809 8.87395 16.8586 8.49404 16.2412 8.20911C16.3362 8.11413 16.4312 8.01915 16.5261 7.92418C16.8586 8.2566 17.3335 8.49404 17.8558 8.49404C18.3782 8.49404 18.8531 8.2566 19.1855 7.87669C19.5179 8.2566 19.9453 8.49404 20.4677 8.49404C20.9901 8.49404 21.4175 8.2566 21.7499 7.92418C22.0823 8.2566 22.5097 8.49404 23.0321 8.49404C23.5545 8.49404 23.9819 8.2566 24.3143 7.92418C24.6467 8.2566 25.0741 8.49404 25.5965 8.49404H25.644C26.4988 10.1562 26.9737 12.0082 27.1162 14.0502C27.0687 14.4776 27.0687 14.9525 27.0687 15.3799Z" fill="#155263"/>
<path d="M8.26307 8.39906V19.559C8.12061 19.5115 7.93065 19.464 7.74069 19.464H1.37718V7.92418C1.7096 8.2566 2.137 8.49404 2.65938 8.49404C3.18176 8.49404 3.60916 8.2566 3.94158 7.92418C4.274 8.2566 4.7014 8.49404 5.22378 8.49404C5.74616 8.49404 6.17356 8.2566 6.50598 7.92418C6.8384 8.2566 7.2658 8.49404 7.78818 8.49404C7.88316 8.49404 8.07312 8.49404 8.26307 8.39906Z" fill="#155263"/>
<path d="M0.664845 21.0311V21.7909H0C0.0474889 20.9361 0.284934 20.5562 0.474889 20.3663C0.569867 20.4138 0.664845 20.6037 0.664845 21.0311Z" fill="#FFA755"/>
<path d="M7.78818 20.1288H1.13973C1.2822 20.3663 1.32969 20.6512 1.32969 21.0311V29.2467C1.32969 29.5791 1.42467 29.6741 1.51965 29.7216C1.7096 29.6741 2.04202 29.3892 2.04202 28.2969V27.9645H8.26307V20.6987C8.26307 20.5562 8.21558 20.1288 7.78818 20.1288ZM2.46942 21.601H7.50325V22.2658H2.46942V21.601ZM2.46942 23.1206H7.50325V23.7855H2.46942V23.1206ZM2.46942 24.5928H7.50325V25.2576H2.46942V24.5928ZM7.55074 26.8248H2.46942V26.1599H7.55074V26.8248Z" fill="#155263"/>
<path d="M9.64025 28.6293C9.59276 29.0567 9.35532 29.7216 8.64298 29.7216H2.46942C2.61189 29.4841 2.70687 29.1042 2.70687 28.6293H9.64025Z" fill="#FFA755"/>
</svg>
