<svg width="79" height="70" viewBox="0 0 79 70" fill="none" xmlns="http://www.w3.org/2000/svg">
<path d="M76.0474 47.5779L52.3846 8.13712C49.2786 2.96186 44.5276 0 39.3404 0C34.1531 0 29.4021 2.96186 26.2962 8.12911L2.63329 47.5779C-0.512685 52.8172 -0.856901 58.4047 1.6927 62.9075C4.2383 67.4144 9.20943 70 15.3253 70H63.3555C69.4713 70 74.4424 67.4144 76.988 62.9115C79.5376 58.4087 79.1934 52.8212 76.0474 47.5779ZM39.3404 56.1873C35.9222 56.1873 33.1365 53.4056 33.1365 49.9874C33.1365 46.5653 35.9182 43.7795 39.3404 43.7795C42.7625 43.7795 45.5443 46.5653 45.5443 49.9874C45.5443 53.4056 42.7585 56.1873 39.3404 56.1873ZM45.8765 26.4726C45.8324 26.5967 40.2689 40.3534 40.2689 40.3534C40.1169 40.7296 39.7486 40.9778 39.3444 40.9778C38.9401 40.9778 38.5719 40.7296 38.4198 40.3534L32.8523 26.5927C32.516 25.7593 32.3408 24.8697 32.336 23.9711C32.336 20.1086 35.4779 16.9667 39.3404 16.9667C40.4748 16.9696 41.5915 17.2476 42.5948 17.777C43.5981 18.3064 44.458 19.0713 45.1007 20.006C45.7434 20.9408 46.1498 22.0175 46.2849 23.1438C46.42 24.2701 46.2799 25.4124 45.8765 26.4726Z" fill="#D82142"/>
</svg>
