<svg width="15" height="15" viewBox="0 0 15 15" fill="none" xmlns="http://www.w3.org/2000/svg">
<path d="M13.8016 7.47166H10.5344C10.3403 7.47158 10.1512 7.53308 9.99428 7.64732C9.83735 7.76155 9.72071 7.92263 9.66114 8.10737C9.50512 8.59484 9.19806 9.02004 8.78438 9.32145C8.37071 9.62285 7.87187 9.78484 7.36003 9.78397C6.84818 9.7849 6.34932 9.62293 5.93563 9.32152C5.52194 9.0201 5.2149 8.59487 5.05893 8.10737C4.99929 7.9226 4.88258 7.76151 4.72559 7.64728C4.56859 7.53305 4.37941 7.47156 4.18526 7.47166H0.918091C0.797519 7.47164 0.678123 7.49537 0.566724 7.5415C0.455325 7.58763 0.354105 7.65525 0.268848 7.74051C0.18359 7.82577 0.115965 7.92699 0.0698355 8.03839C0.0237058 8.14979 -2.45001e-05 8.26918 1.89811e-08 8.38976V13.6258C0.000148437 13.8692 0.0969351 14.1026 0.269089 14.2747C0.441243 14.4468 0.674678 14.5435 0.918091 14.5435H13.8016C13.9221 14.5435 14.0415 14.5198 14.1529 14.4737C14.2643 14.4276 14.3655 14.36 14.4507 14.2748C14.536 14.1896 14.6036 14.0884 14.6497 13.9771C14.6959 13.8657 14.7197 13.7463 14.7197 13.6258V8.38976C14.7197 7.88228 14.3091 7.47166 13.8016 7.47166Z" fill="#0070BA"/>
<path d="M7.16782 7.96104C7.21392 8.02561 7.28933 8.06425 7.36865 8.06425H7.36921C7.44909 8.06425 7.52338 8.02561 7.57004 7.9601L10.1091 4.38909C10.1352 4.35205 10.1507 4.30857 10.1539 4.26336C10.157 4.21816 10.1477 4.17295 10.127 4.13264C10.1063 4.09228 10.0748 4.05845 10.036 4.03486C9.99726 4.01128 9.95273 3.99887 9.90735 3.999H8.71303V0.791005C8.71303 0.653823 8.60235 0.543518 8.4661 0.543518H6.25515C6.11852 0.543518 6.00822 0.653823 6.00822 0.791005V3.999H4.81296C4.76766 3.99907 4.72326 4.0116 4.6846 4.03522C4.64594 4.05883 4.61453 4.09263 4.59379 4.1329C4.57306 4.17318 4.5638 4.21838 4.56704 4.26357C4.57027 4.30875 4.58588 4.35218 4.61214 4.38909L7.16782 7.96104Z" fill="#0070BA"/>
</svg>
