<svg width="40" height="41" viewBox="0 0 40 41" fill="none" xmlns="http://www.w3.org/2000/svg">
<g clip-path="url(#clip0_3787_4227)">
<path d="M23.125 30.5435H16.875C15.8359 30.5435 15 29.7076 15 28.6685V15.5435H8.14844C6.75781 15.5435 6.0625 13.8638 7.04688 12.8795L18.9297 0.988831C19.5156 0.402893 20.4766 0.402893 21.0625 0.988831L32.9531 12.8795C33.9375 13.8638 33.2422 15.5435 31.8516 15.5435H25V28.6685C25 29.7076 24.1641 30.5435 23.125 30.5435ZM40 29.9185V38.6685C40 39.7076 39.1641 40.5435 38.125 40.5435H1.875C0.835938 40.5435 0 39.7076 0 38.6685V29.9185C0 28.8795 0.835938 28.0435 1.875 28.0435H12.5V28.6685C12.5 31.0826 14.4609 33.0435 16.875 33.0435H23.125C25.5391 33.0435 27.5 31.0826 27.5 28.6685V28.0435H38.125C39.1641 28.0435 40 28.8795 40 29.9185ZM30.3125 36.7935C30.3125 35.9341 29.6094 35.231 28.75 35.231C27.8906 35.231 27.1875 35.9341 27.1875 36.7935C27.1875 37.6529 27.8906 38.356 28.75 38.356C29.6094 38.356 30.3125 37.6529 30.3125 36.7935ZM35.3125 36.7935C35.3125 35.9341 34.6094 35.231 33.75 35.231C32.8906 35.231 32.1875 35.9341 32.1875 36.7935C32.1875 37.6529 32.8906 38.356 33.75 38.356C34.6094 38.356 35.3125 37.6529 35.3125 36.7935Z" fill="#D2D6DE"/>
</g>
<defs>
<clipPath id="clip0_3787_4227">
<rect width="40" height="40" fill="white" transform="translate(0 0.543518)"/>
</clipPath>
</defs>
</svg>
