<svg width="19" height="18" viewBox="0 0 19 18" fill="none" xmlns="http://www.w3.org/2000/svg">
<path d="M18.5561 12.9037H17.9774L16.9182 5.68307C16.8803 5.43131 16.7455 5.20065 16.5385 5.03346C16.3315 4.86627 16.0662 4.77378 15.7914 4.77296H13.4636V3.76129H15.6395C15.942 3.75239 16.2284 3.633 16.436 3.42923C16.6436 3.22547 16.7554 2.95394 16.747 2.67408V1.08721C16.7554 0.807353 16.6436 0.535822 16.436 0.332058C16.2284 0.128294 15.942 0.00889601 15.6395 0H8.33122C8.02869 0.00889601 7.74229 0.128294 7.53472 0.332058C7.32714 0.535822 7.2153 0.807353 7.22368 1.08721V2.67408C7.2153 2.95394 7.32714 3.22547 7.53472 3.42923C7.74229 3.633 8.02869 3.75239 8.33122 3.76129H10.5073V4.7726H3.6096C3.33479 4.77341 3.06952 4.86591 2.86251 5.0331C2.65551 5.20029 2.52068 5.43095 2.48277 5.68271L1.42364 12.9037H0.844874C0.753537 12.9037 0.665941 12.9372 0.601357 12.997C0.536772 13.0567 0.500488 13.1377 0.500488 13.2222V15.5397C0.500957 15.9319 0.669608 16.3079 0.969438 16.5852C1.26927 16.8626 1.67579 17.0186 2.09981 17.019H17.3012C17.7252 17.0185 18.1317 16.8625 18.4315 16.5852C18.7313 16.3079 18.9 15.9319 18.9005 15.5397V13.2222C18.9005 13.1377 18.8642 13.0567 18.7996 12.997C18.7351 12.9372 18.6475 12.9037 18.5561 12.9037ZM7.91245 2.67408V1.08721C7.90429 0.976335 7.94366 0.866943 8.02203 0.782703C8.1004 0.698462 8.21147 0.646147 8.33122 0.637075H15.6395C15.7592 0.646147 15.8703 0.698462 15.9487 0.782703C16.027 0.866943 16.0664 0.976335 16.0583 1.08721V2.67408C16.0664 2.78495 16.027 2.89435 15.9487 2.97859C15.8703 3.06283 15.7592 3.11514 15.6395 3.12421H8.33122C8.21147 3.11514 8.1004 3.06283 8.02203 2.97859C7.94366 2.89435 7.90429 2.78495 7.91245 2.67408ZM11.1961 3.76129H12.775V4.7726H11.1961V3.76129ZM3.16524 5.76862C3.18017 5.66933 3.23334 5.57835 3.31497 5.51241C3.3966 5.44647 3.50122 5.40999 3.6096 5.40968H15.791C15.8994 5.40999 16.004 5.44647 16.0856 5.51241C16.1673 5.57835 16.2204 5.66933 16.2354 5.76862L17.2819 12.9039H2.11871L3.16524 5.76862ZM18.2117 15.5397C18.2115 15.763 18.1155 15.9771 17.9448 16.135C17.7741 16.2929 17.5426 16.3817 17.3012 16.3819H2.09981C1.8584 16.3817 1.62695 16.2929 1.45624 16.135C1.28554 15.9771 1.18952 15.763 1.18926 15.5397V13.5408H18.2117V15.5397Z" fill="#0070BA"/>
<path d="M7.78064 7.75174H4.67132C4.43149 7.76531 4.20715 7.86592 4.04709 8.03168C3.88704 8.19745 3.80422 8.41496 3.81665 8.63691V9.33405C3.80434 9.55613 3.8874 9.77372 4.04774 9.93941C4.20808 10.1051 4.43271 10.2055 4.6727 10.2187H7.78202C8.02201 10.2055 8.24664 10.1051 8.40698 9.93941C8.56732 9.77372 8.65038 9.55613 8.63807 9.33405V8.63691C8.65048 8.41454 8.56729 8.19667 8.40665 8.03083C8.24601 7.86499 8.02097 7.76466 7.78064 7.75174ZM7.94792 9.33351C7.94792 9.4753 7.85956 9.58106 7.78064 9.58106H4.67132C4.5926 9.58106 4.50405 9.4753 4.50405 9.33351V8.63691C4.50405 8.4953 4.59241 8.38936 4.67132 8.38936H7.78064C7.85936 8.38936 7.94792 8.4953 7.94792 8.63691V9.33351Z" fill="#0070BA"/>
<path d="M11.0228 6.86386C10.9103 6.86386 10.8004 6.89471 10.7069 6.95252C10.6133 7.01032 10.5404 7.09248 10.4974 7.1886C10.4543 7.28472 10.4431 7.3905 10.465 7.49254C10.487 7.59458 10.5411 7.68832 10.6207 7.76189C10.7002 7.83546 10.8016 7.88556 10.9119 7.90585C11.0222 7.92615 11.1365 7.91573 11.2405 7.87592C11.3444 7.8361 11.4332 7.76868 11.4957 7.68217C11.5582 7.59566 11.5916 7.49395 11.5916 7.38991C11.5916 7.32082 11.5769 7.25241 11.5483 7.18857C11.5197 7.12474 11.4779 7.06674 11.425 7.01788C11.3722 6.96903 11.3095 6.93028 11.2405 6.90386C11.1715 6.87743 11.0975 6.86384 11.0228 6.86386Z" fill="#0070BA"/>
<path d="M12.8765 6.86386C12.764 6.86383 12.6541 6.89465 12.5605 6.95243C12.467 7.01021 12.394 7.09235 12.351 7.18847C12.3079 7.28459 12.2966 7.39036 12.3185 7.49242C12.3404 7.59447 12.3946 7.68822 12.4741 7.76181C12.5537 7.83539 12.655 7.88551 12.7653 7.90583C12.8756 7.92614 12.99 7.91573 13.0939 7.87592C13.1979 7.83611 13.2867 7.76869 13.3492 7.68218C13.4117 7.59567 13.4451 7.49395 13.4451 7.3899C13.4451 7.32083 13.4304 7.25243 13.4018 7.18861C13.3733 7.12479 13.3314 7.0668 13.2786 7.01795C13.2258 6.9691 13.1631 6.93035 13.0942 6.90391C13.0252 6.87747 12.9512 6.86386 12.8765 6.86386Z" fill="#0070BA"/>
<path d="M14.731 6.86386C14.6185 6.86383 14.5086 6.89465 14.415 6.95243C14.3215 7.01021 14.2485 7.09235 14.2055 7.18847C14.1624 7.28459 14.1511 7.39036 14.173 7.49242C14.1949 7.59447 14.2491 7.68822 14.3286 7.76181C14.4081 7.83539 14.5095 7.88551 14.6198 7.90583C14.7301 7.92614 14.8445 7.91573 14.9484 7.87592C15.0524 7.83611 15.1412 7.76869 15.2037 7.68218C15.2662 7.59567 15.2996 7.49395 15.2996 7.3899C15.2996 7.25042 15.2397 7.11665 15.1331 7.018C15.0264 6.91935 14.8818 6.86391 14.731 6.86386Z" fill="#0070BA"/>
<path d="M11.0228 8.63074C10.9103 8.63074 10.8004 8.66159 10.7068 8.7194C10.6133 8.77721 10.5404 8.85938 10.4974 8.95551C10.4543 9.05164 10.4431 9.15742 10.465 9.25947C10.487 9.36151 10.5412 9.45525 10.6207 9.52881C10.7003 9.60237 10.8017 9.65245 10.912 9.67273C11.0223 9.69301 11.1367 9.68256 11.2406 9.64272C11.3445 9.60288 11.4333 9.53543 11.4958 9.4489C11.5583 9.36237 11.5916 9.26064 11.5916 9.15659C11.5916 9.08752 11.5768 9.01913 11.5483 8.95532C11.5197 8.8915 11.4778 8.83353 11.425 8.78469C11.3722 8.73586 11.3095 8.69713 11.2405 8.67071C11.1715 8.6443 11.0975 8.63071 11.0228 8.63074Z" fill="#0070BA"/>
<path d="M12.8766 8.63074C12.7641 8.6307 12.6541 8.66153 12.5605 8.71932C12.467 8.7771 12.394 8.85926 12.351 8.95539C12.3079 9.05152 12.2966 9.15731 12.3185 9.25937C12.3405 9.36143 12.3947 9.45518 12.4742 9.52876C12.5538 9.60234 12.6551 9.65244 12.7655 9.67273C12.8758 9.69302 12.9902 9.68259 13.0942 9.64275C13.1981 9.60292 13.2869 9.53546 13.3494 9.44893C13.4119 9.36239 13.4452 9.26066 13.4452 9.1566C13.4452 9.01713 13.3853 8.88338 13.2787 8.78476C13.172 8.68614 13.0274 8.63074 12.8766 8.63074Z" fill="#0070BA"/>
<path d="M14.7311 8.63074C14.6186 8.6307 14.5086 8.66153 14.415 8.71932C14.3215 8.7771 14.2485 8.85926 14.2054 8.95539C14.1624 9.05152 14.1511 9.15731 14.173 9.25937C14.195 9.36143 14.2491 9.45518 14.3287 9.52876C14.4083 9.60234 14.5096 9.65244 14.62 9.67273C14.7303 9.69302 14.8447 9.68259 14.9487 9.64275C15.0526 9.60292 15.1414 9.53546 15.2039 9.44893C15.2664 9.36239 15.2997 9.26066 15.2997 9.1566C15.2996 9.01715 15.2397 8.88342 15.1331 8.78481C15.0265 8.6862 14.8819 8.63079 14.7311 8.63074Z" fill="#0070BA"/>
<path d="M11.0228 10.3974C10.9103 10.3974 10.8004 10.4283 10.7069 10.4861C10.6133 10.5439 10.5404 10.626 10.4974 10.7222C10.4543 10.8183 10.4431 10.9241 10.465 11.0261C10.487 11.1281 10.5411 11.2219 10.6207 11.2954C10.7002 11.369 10.8016 11.4191 10.9119 11.4394C11.0222 11.4597 11.1365 11.4493 11.2405 11.4095C11.3444 11.3697 11.4332 11.3022 11.4957 11.2157C11.5582 11.1292 11.5916 11.0275 11.5916 10.9235C11.5916 10.8544 11.5769 10.786 11.5483 10.7221C11.5197 10.6583 11.4779 10.6003 11.425 10.5515C11.3722 10.5026 11.3095 10.4639 11.2405 10.4374C11.1715 10.411 11.0975 10.3974 11.0228 10.3974Z" fill="#0070BA"/>
<path d="M12.8765 10.3974C12.764 10.3974 12.6541 10.4282 12.5605 10.486C12.467 10.5438 12.394 10.6259 12.351 10.722C12.3079 10.8182 12.2966 10.9239 12.3185 11.026C12.3404 11.128 12.3946 11.2218 12.4741 11.2954C12.5537 11.369 12.655 11.4191 12.7653 11.4394C12.8756 11.4597 12.99 11.4493 13.0939 11.4095C13.1979 11.3697 13.2867 11.3023 13.3492 11.2157C13.4117 11.1292 13.4451 11.0275 13.4451 10.9235C13.4451 10.8544 13.4304 10.786 13.4018 10.7222C13.3733 10.6584 13.3314 10.6004 13.2786 10.5515C13.2258 10.5027 13.1631 10.4639 13.0942 10.4375C13.0252 10.411 12.9512 10.3974 12.8765 10.3974Z" fill="#0070BA"/>
<path d="M14.731 10.3974C14.6185 10.3974 14.5086 10.4282 14.415 10.486C14.3215 10.5438 14.2485 10.6259 14.2055 10.722C14.1624 10.8182 14.1511 10.9239 14.173 11.026C14.1949 11.128 14.2491 11.2218 14.3286 11.2954C14.4081 11.369 14.5095 11.4191 14.6198 11.4394C14.7301 11.4597 14.8445 11.4493 14.9484 11.4095C15.0524 11.3697 15.1412 11.3023 15.2037 11.2157C15.2662 11.1292 15.2996 11.0275 15.2996 10.9235C15.2996 10.784 15.2397 10.6502 15.1331 10.5516C15.0264 10.4529 14.8818 10.3975 14.731 10.3974Z" fill="#0070BA"/>
<path d="M7.76134 10.9764H4.6891C4.59777 10.9764 4.51018 11.01 4.44559 11.0697C4.38101 11.1295 4.34473 11.2105 4.34473 11.295C4.34473 11.3795 4.38101 11.4605 4.44559 11.5202C4.51018 11.58 4.59777 11.6135 4.6891 11.6135H7.76134C7.85267 11.6135 7.94026 11.58 8.00485 11.5202C8.06943 11.4605 8.10571 11.3795 8.10571 11.295C8.10571 11.2105 8.06943 11.1295 8.00485 11.0697C7.94026 11.01 7.85267 10.9764 7.76134 10.9764Z" fill="#0070BA"/>
<path d="M2.99868 15.2807H16.4029C16.4943 15.2807 16.5819 15.2471 16.6464 15.1874C16.711 15.1277 16.7473 15.0466 16.7473 14.9622C16.7473 14.8777 16.711 14.7967 16.6464 14.7369C16.5819 14.6772 16.4943 14.6436 16.4029 14.6436H2.99868C2.90735 14.6436 2.81975 14.6772 2.75516 14.7369C2.69058 14.7967 2.6543 14.8777 2.6543 14.9622C2.6543 15.0466 2.69058 15.1277 2.75516 15.1874C2.81975 15.2471 2.90735 15.2807 2.99868 15.2807Z" fill="#0070BA"/>
</svg>
