<svg width="114" height="114" viewBox="0 0 114 114" fill="none" xmlns="http://www.w3.org/2000/svg">
<g opacity="0.5">
<path d="M6.26242 75.125L5.54451 84.9523C5.44238 86.5914 5.92218 87.7887 6.82607 88.4057L38.1941 109.903C37.2902 109.286 36.8102 108.089 36.9333 106.451L37.6305 96.6226L6.26242 75.125Z" fill="#354A59"/>
<path d="M6.26242 75.1252L37.6305 96.6228C37.8563 93.6205 40.085 90.0933 42.8078 88.419L101.767 45.3804C102.009 45.2508 102.23 45.1196 102.45 45.0094C103.895 44.3158 105.182 44.3281 106.044 44.9419L73.1002 22.575C72.2175 21.9597 70.9513 21.9489 69.5059 22.6424C69.2862 22.7527 69.0653 22.8838 68.8233 23.0134L11.44 66.9215C8.71716 68.5957 6.48819 72.1229 6.26242 75.1252V75.1252Z" fill="#3D566E"/>
<path d="M68.7774 28.1703L94.4516 45.5776L97.6225 43.2825L71.9143 25.7671L68.7774 28.1703Z" fill="#2E414C"/>
<path d="M92.9914 47.3681L92.0462 48.0579L66.381 30.616L66.4763 29.3486L92.9914 47.3681Z" fill="#384F63"/>
<path d="M66.2992 29.462L66.4763 29.3486L66.381 30.616L66.2039 30.7293L47.4359 45.0747L46.6083 44.5128L66.2992 29.462Z" fill="#354A59"/>
<path d="M47.431 45.0816L72.6624 62.2022L92.0526 48.0578L66.3816 30.6084L66.2045 30.7217L47.431 45.0816Z" fill="#ECF0F1"/>
<path d="M87.0107 48.9345C87.1177 48.9345 87.2235 48.8832 87.2879 48.7872C87.3916 48.6344 87.3523 48.4259 87.1984 48.3222L66.0242 33.9543C65.8747 33.8528 65.6608 33.8899 65.5593 34.0438C65.4556 34.1966 65.4949 34.4051 65.6488 34.5088L86.823 48.8767C86.8797 48.9159 86.9452 48.9345 87.0107 48.9345V48.9345Z" fill="#C6C6C6"/>
<path d="M82.3655 52.1033C82.4725 52.1033 82.5783 52.052 82.6427 51.9559C82.7464 51.8031 82.7071 51.5946 82.5532 51.4909L61.379 37.1231C61.2273 37.0205 61.0178 37.0576 60.9141 37.2126C60.8104 37.3654 60.8497 37.5738 61.0036 37.6775L82.1777 52.0454C82.2345 52.0847 82.3 52.1033 82.3655 52.1033V52.1033Z" fill="#C6C6C6"/>
<path d="M77.7203 55.2714C77.8272 55.2714 77.9331 55.2201 77.9975 55.1241C78.1012 54.9713 78.0619 54.7628 77.9091 54.6591L56.736 40.2912C56.5821 40.1875 56.3736 40.2268 56.2699 40.3807C56.1662 40.5335 56.2055 40.742 56.3583 40.8457L77.5325 55.2136C77.5893 55.2529 77.6548 55.2714 77.7203 55.2714V55.2714Z" fill="#C6C6C6"/>
<path d="M73.0761 58.44C73.1831 58.44 73.289 58.3887 73.3534 58.2926C73.4571 58.1398 73.4178 57.9314 73.2639 57.8277L59.8106 48.6988C59.66 48.5973 59.4494 48.6333 59.3457 48.7883C59.242 48.9411 59.2813 49.1495 59.4352 49.2532L72.8884 58.3821C72.9452 58.4214 73.0107 58.44 73.0761 58.44V58.44Z" fill="#C6C6C6"/>
<path d="M102.442 45.0156C102.224 45.1207 102.002 45.2419 101.777 45.3798L42.8182 88.4129C40.0781 90.0884 37.8522 93.6131 37.6348 96.6173L36.9237 106.446C36.6851 109.743 38.9249 111.253 41.9179 109.812L100.101 77.3084C102.996 75.9151 105.548 72.1739 105.78 68.9695L107.277 48.2791C107.511 45.0441 105.305 43.6379 102.442 45.0156V45.0156Z" fill="#384F63"/>
<path d="M39.7558 103.979L39.4604 105.953C39.363 107.516 39.8208 108.658 40.6825 109.246L42.0912 110.2C41.2295 109.612 40.7517 108.468 40.8691 106.907L41.1645 104.933C41.3597 102.069 43.485 98.7051 46.1015 97.11L102.446 59.1153C102.677 58.9917 102.887 58.8666 103.096 58.7615C104.475 58.1001 105.682 58.1104 106.524 58.6971L105.135 57.7444C104.294 57.1576 103.067 57.1459 101.688 57.8073C101.479 57.9124 101.269 58.0175 101.057 58.1625L44.693 96.1558C42.0966 97.7524 39.9726 101.096 39.7558 103.979V103.979Z" fill="#ECF0F1"/>
<path d="M103.088 58.77C102.879 58.8702 102.668 58.9857 102.453 59.1172L46.1042 97.1176C43.4912 98.7154 41.3696 102.062 41.1613 104.941L40.8724 106.917C40.6449 110.061 42.7807 111.5 45.6349 110.127L100.973 78.9918C103.734 77.6632 106.167 74.0957 106.388 71.04L107.698 61.882C107.921 58.7971 105.818 57.4562 103.088 58.77V58.77Z" fill="#D4D6D6"/>
<path d="M47.4728 47.7411C47.7418 47.9246 47.7142 48.25 47.4261 48.4701L47.0378 48.7667C46.7497 48.9868 46.3012 49.0251 46.0322 48.8416L42.6646 46.5443C42.3956 46.3608 42.4116 46.0275 42.6997 45.8074L43.088 45.5108C43.3761 45.2907 43.8362 45.2603 44.1052 45.4438L47.4728 47.7411Z" fill="#E74C3C"/>
<path d="M44.3035 50.162C44.5725 50.3455 44.5449 50.6709 44.2568 50.891L40.6366 53.6565C40.3485 53.8766 39.9125 53.9053 39.6436 53.7218L36.2759 51.4245C36.007 51.241 36.0104 50.9173 36.2985 50.6972L39.9188 47.9316C40.2069 47.7116 40.6669 47.6812 40.9359 47.8647L44.3035 50.162Z" fill="#7CCFE8"/>
<path d="M55.0264 52.8939C55.2954 53.0774 55.2678 53.4028 54.9797 53.6229L54.5914 53.9195C54.3033 54.1396 53.8548 54.1779 53.5858 53.9944L50.2182 51.6971C49.9494 51.5137 49.9652 51.1803 50.2533 50.9602L50.6416 50.6635C50.9297 50.4435 51.39 50.4132 51.6588 50.5966L55.0264 52.8939Z" fill="#E2E2E2"/>
<path d="M51.8571 55.3153C52.1261 55.4988 52.0985 55.8242 51.8104 56.0443L48.1902 58.8098C47.9021 59.0299 47.4661 59.0585 47.1972 58.8751L43.8295 56.5777C43.5607 56.3944 43.564 56.0706 43.8521 55.8504L47.4724 53.0849C47.7605 52.8648 48.2207 52.8346 48.4895 53.018L51.8571 55.3153Z" fill="#7CCFE8"/>
<path d="M62.58 58.0472C62.849 58.2307 62.8214 58.5561 62.5333 58.7762L62.145 59.0728C61.8569 59.2929 61.4084 59.3312 61.1394 59.1477L57.772 56.8504C57.503 56.6669 57.5188 56.3336 57.8069 56.1135L58.1952 55.8168C58.4833 55.5968 58.9436 55.5665 59.2125 55.75L62.58 58.0472Z" fill="#E2E2E2"/>
<path d="M59.4107 60.4681C59.6797 60.6516 59.6521 60.977 59.364 61.1971L55.7438 63.9626C55.4557 64.1827 55.0197 64.2113 54.7508 64.0278L51.3833 61.7306C51.1143 61.5471 51.1176 61.2233 51.4057 61.0033L55.026 58.2377C55.3141 58.0176 55.7743 57.9874 56.0432 58.1709L59.4107 60.4681Z" fill="#7CCFE8"/>
<path d="M70.1338 63.2001C70.4026 63.3835 70.3752 63.709 70.087 63.9291L69.6987 64.2258C69.4106 64.4459 68.962 64.484 68.6932 64.3006L65.3256 62.0033C65.0566 61.8198 65.0724 61.4864 65.3605 61.2663L65.7488 60.9697C66.0369 60.7496 66.4972 60.7193 66.7661 60.9028L70.1338 63.2001Z" fill="#E2E2E2"/>
<path d="M66.9645 65.621C67.2333 65.8044 67.2059 66.1299 66.9178 66.35L63.2975 69.1155C63.0094 69.3356 62.5733 69.3642 62.3045 69.1808L58.9369 66.8835C58.6679 66.7 58.6712 66.3762 58.9593 66.1561L62.5796 63.3906C62.8677 63.1705 63.3279 63.1402 63.5968 63.3237L66.9645 65.621Z" fill="#E74C3C"/>
<path d="M36.9378 55.789C37.2068 55.9725 37.1792 56.2979 36.8911 56.518L33.2708 59.2835C32.9827 59.5036 32.5343 59.5418 32.2653 59.3583L28.8977 57.061C28.6287 56.8775 28.6447 56.5442 28.9328 56.3241L32.553 53.5586C32.8411 53.3385 33.3012 53.3081 33.5702 53.4916L36.9378 55.789Z" fill="#7CCFE8"/>
<path d="M44.4914 60.9418C44.7603 61.1253 44.7327 61.4507 44.4446 61.6708L40.8244 64.4362C40.5363 64.6563 40.0879 64.6946 39.8189 64.5111L36.4513 62.2137C36.1824 62.0304 36.1982 61.697 36.4864 61.4769L40.1066 58.7114C40.3947 58.4913 40.8549 58.461 41.1237 58.6444L44.4914 60.9418Z" fill="#7CCFE8"/>
<path d="M52.045 66.0946C52.3139 66.2781 52.2863 66.6034 51.9982 66.8236L48.378 69.589C48.0899 69.8091 47.6414 69.8474 47.3725 69.6639L44.005 67.3666C43.736 67.1831 43.7518 66.8498 44.0399 66.6297L47.6602 63.8642C47.9483 63.6441 48.4085 63.6139 48.6775 63.7973L52.045 66.0946Z" fill="#7CCFE8"/>
<path d="M59.5987 71.248C59.8675 71.4314 59.8401 71.7569 59.552 71.977L55.9318 74.7425C55.6437 74.9626 55.195 75.0007 54.9262 74.8173L51.5586 72.52C51.2896 72.3365 51.3054 72.0031 51.5935 71.783L55.2138 69.0175C55.5019 68.7974 55.9621 68.7672 56.2311 68.9507L59.5987 71.248Z" fill="#E74C3C"/>
<path d="M29.5595 61.4253C29.8285 61.6088 29.8134 61.9246 29.5253 62.1447L25.9051 64.9102C25.617 65.1303 25.1685 65.1686 24.8995 64.9851L21.5319 62.6877C21.2629 62.5042 21.2789 62.1709 21.567 61.9509L25.1872 59.1854C25.4753 58.9653 25.9229 58.9445 26.1919 59.128L29.5595 61.4253Z" fill="#7CCFE8"/>
<path d="M37.1131 66.5781C37.3821 66.7616 37.367 67.0774 37.0789 67.2975L33.4587 70.063C33.1706 70.2831 32.7221 70.3214 32.4531 70.1379L29.0855 67.8405C28.8167 67.6571 28.8325 67.3237 29.1206 67.1036L32.7408 64.3382C33.029 64.1181 33.4767 64.0974 33.7455 64.2808L37.1131 66.5781Z" fill="#7CCFE8"/>
<path d="M44.6667 71.7309C44.9357 71.9144 44.9206 72.2302 44.6325 72.4503L41.0123 75.2158C40.7242 75.4359 40.2757 75.4742 40.0067 75.2907L36.6392 72.9935C36.3703 72.81 36.3861 72.4765 36.6742 72.2565L40.2944 69.491C40.5825 69.2709 41.0302 69.2502 41.2992 69.4337L44.6667 71.7309Z" fill="#7CCFE8"/>
<path d="M22.1937 67.0518C22.4627 67.2353 22.4477 67.5511 22.1596 67.7712L18.5268 70.5463C18.2512 70.7568 17.8027 70.795 17.5338 70.6115L14.1661 68.3142C13.8972 68.1307 13.9131 67.7974 14.1887 67.5869L17.8215 64.8118C18.1096 64.5917 18.5571 64.571 18.8261 64.7545L22.1937 67.0518Z" fill="#7CCFE8"/>
<path d="M29.7473 72.2046C30.0163 72.3881 30.0013 72.7039 29.7132 72.924L26.0804 75.6991C25.8048 75.9096 25.3563 75.9478 25.0874 75.7643L21.7197 73.467C21.4509 73.2836 21.4667 72.9502 21.7423 72.7397L25.3751 69.9646C25.6632 69.7445 26.1109 69.7239 26.3797 69.9072L29.7473 72.2046Z" fill="#7CCFE8"/>
<path d="M37.3009 77.3579C37.5699 77.5414 37.5549 77.8572 37.2668 78.0773L33.634 80.8524C33.3584 81.0629 32.9099 81.1011 32.641 80.9176L29.2735 78.6204C29.0045 78.4369 29.0203 78.1035 29.2959 77.893L32.9287 75.1179C33.2168 74.8978 33.6645 74.8772 33.9335 75.0606L37.3009 77.3579Z" fill="#7CCFE8"/>
<path d="M33.5798 70.7321L37.2086 67.9646C37.3665 67.8287 37.442 67.6656 37.432 67.517L37.307 66.9375C37.2975 67.0635 37.204 67.1831 37.0684 67.2996L33.4609 70.0686C33.1706 70.2792 32.7235 70.3299 32.4632 70.1414L29.0891 67.8396C28.9887 67.7687 28.9112 67.6785 28.8981 67.5719L29.017 68.2354C29.0512 68.3435 29.1079 68.4322 29.2082 68.5031L32.5821 70.8048C32.8424 70.9934 33.2898 70.9426 33.5798 70.7321V70.7321Z" fill="#6DBCC9"/>
<path d="M59.051 67.5387L62.4251 69.8405C62.7062 70.0305 63.1308 69.9991 63.4213 69.7886L67.0496 67.0213C67.2288 66.887 67.306 66.7027 67.275 66.5526L67.1496 65.9731C67.1385 66.12 67.0452 66.2397 66.9099 66.3562L63.3022 69.1252C63.0121 69.3357 62.5663 69.3654 62.306 69.1769L58.9321 66.8752C58.8318 66.8042 58.754 66.714 58.7409 66.6075L58.8601 67.271C58.8942 67.3791 58.9507 67.4678 59.051 67.5387Z" fill="#CC4444"/>
<path d="M13.9784 68.0333L14.0958 68.7177C14.1312 68.8049 14.1864 68.9146 14.2867 68.9856L17.6606 71.2873C17.9227 71.4548 18.3683 71.4249 18.6586 71.2145L22.2871 68.4471C22.466 68.3127 22.5223 68.127 22.5123 67.9784L22.3871 67.3989C22.3776 67.5249 22.3051 67.6461 22.1695 67.7626L18.5187 70.5495C18.2491 70.7614 17.8035 70.7913 17.5432 70.6028L14.1675 68.3221C14.0675 68.2511 13.9915 68.1399 13.9784 68.0333V68.0333Z" fill="#6DBCC9"/>
<path d="M36.801 83.7692C36.7009 83.6984 36.6442 83.6096 36.6295 83.5241L36.7484 84.1876C36.7631 84.2732 36.8199 84.3619 36.9202 84.4327L40.3151 86.7361C40.5546 86.9231 41.0212 86.8948 41.3128 86.6634L52.289 78.2834C52.4903 78.1296 52.5676 77.9454 52.5366 77.7954L52.4113 77.2158C52.4003 77.3628 52.3054 77.5035 52.1698 77.62L41.1939 85.9999C40.902 86.2313 40.4354 86.2596 40.1751 86.0711L36.801 83.7692Z" fill="#30B265"/>
<path d="M62.6577 59.4488C62.8366 59.3146 62.9136 59.1303 62.8826 58.9802L62.7786 58.4022C62.7692 58.5282 62.674 58.6689 62.5385 58.7853L62.137 59.0719C61.8675 59.2838 61.3993 59.3332 61.1393 59.1447L57.7649 56.8428C57.6648 56.772 57.6084 56.6832 57.5952 56.5767L57.7142 57.2401C57.727 57.3468 57.7837 57.4354 57.9051 57.5078L61.2579 59.8081C61.5395 59.9982 61.9851 59.9683 62.277 59.7369L62.6577 59.4488Z" fill="#C6C6C6"/>
<path d="M44.7601 73.1147C44.9388 72.9803 45.0145 72.817 44.9835 72.6669L44.8585 72.0874C44.8491 72.2135 44.7765 72.3347 44.641 72.4512L41.0124 75.2187C40.7221 75.429 40.275 75.4798 40.0144 75.2913L36.6406 72.9895C36.5402 72.9186 36.4627 72.8284 36.4496 72.7218L36.5685 73.3853C36.6027 73.4934 36.6594 73.5821 36.7597 73.653L40.1336 75.9547C40.3939 76.1433 40.8413 76.0925 41.1313 75.8821L44.7601 73.1147Z" fill="#6DBCC9"/>
<path d="M44.257 50.8865L40.6282 53.654C40.3576 53.8869 39.9134 53.8958 39.6515 53.7283L36.2776 51.4264C36.1773 51.3556 36.1011 51.2442 36.0864 51.1587L36.2056 51.8222C36.2187 51.9287 36.2965 52.0191 36.3966 52.0899L39.7707 54.3918C40.0307 54.5802 40.4765 54.5504 40.7684 54.319L44.3759 51.55C44.5548 51.4156 44.6305 51.2524 44.6011 51.0814L44.4953 50.5244C44.4858 50.6504 44.3923 50.77 44.257 50.8865V50.8865Z" fill="#6DBCC9"/>
<path d="M21.719 73.4719C21.619 73.401 21.543 73.2898 21.5283 73.2042L21.647 73.8677C21.6827 73.9548 21.7379 74.0645 21.8382 74.1354L25.2121 76.4371C25.4742 76.6047 25.9197 76.5749 26.2098 76.3644L29.8386 73.597C30.0175 73.4627 30.0948 73.2785 30.0638 73.1283L29.937 72.5698C29.9275 72.6958 29.855 72.817 29.7194 72.9335L26.0701 75.6994C25.8006 75.9115 25.355 75.9412 25.0931 75.7737L21.719 73.4719Z" fill="#6DBCC9"/>
<path d="M47.5563 49.1286C47.7352 48.9943 47.8106 48.831 47.7815 48.66L47.6772 48.082C47.6662 48.229 47.5726 48.3487 47.4161 48.4636L47.034 48.7726C46.7435 48.9831 46.2964 49.0339 46.0363 48.8453L42.6622 46.5436C42.5621 46.4727 42.5054 46.384 42.4712 46.2759L42.6112 46.9409C42.6243 47.0475 42.6808 47.1361 42.7811 47.2071L46.1552 49.5088C46.4155 49.6973 46.8837 49.6481 47.1529 49.436L47.5563 49.1286Z" fill="#CC4444"/>
<path d="M59.3584 61.2064L55.7522 63.9543C55.4606 64.1858 55.0148 64.2156 54.7545 64.0271L51.3806 61.7254C51.2803 61.6544 51.2025 61.5642 51.1894 61.4576L51.3086 62.1211C51.3427 62.2292 51.3995 62.3179 51.4996 62.3888L54.8737 64.6906C55.1337 64.8791 55.5793 64.8492 55.8714 64.6178L59.4774 61.8698C59.6563 61.7355 59.7335 61.5513 59.7236 61.4028L59.5981 60.8232C59.5886 60.9492 59.4937 61.0898 59.3584 61.2064V61.2064Z" fill="#6DBCC9"/>
<path d="M65.455 62.6788L68.8094 64.9579C69.091 65.148 69.5366 65.1181 69.8282 64.8867L70.2091 64.5987C70.3878 64.4644 70.4651 64.2801 70.4341 64.13L70.3298 63.5521C70.3188 63.6991 70.2255 63.8188 70.09 63.9352L69.7095 64.2233C69.4174 64.4546 68.9718 64.4845 68.6905 64.2944L65.3164 61.9927C65.2163 61.9218 65.1598 61.8331 65.1467 61.7266L65.2638 62.4109C65.2785 62.4966 65.3337 62.6062 65.455 62.6788V62.6788Z" fill="#C6C6C6"/>
<path d="M55.1077 54.278C55.2866 54.1437 55.3621 53.9805 55.3329 53.8094L55.2271 53.2525C55.2176 53.3784 55.1241 53.4981 54.9885 53.6146L54.5855 53.9221C54.295 54.1325 53.8478 54.1833 53.5878 53.9949L50.2136 51.693C50.1133 51.6222 50.0568 51.5334 50.0227 51.4253L50.1626 52.0903C50.1757 52.1969 50.2322 52.2857 50.3326 52.3565L53.7064 54.6583C53.988 54.8483 54.4351 54.7975 54.7044 54.5856L55.1077 54.278Z" fill="#C6C6C6"/>
<path d="M51.8085 56.0359L48.2007 58.805C47.9091 59.0364 47.4633 59.0662 47.203 58.8777L43.8292 56.5759C43.7288 56.505 43.6511 56.4148 43.638 56.3081L43.7571 56.9716C43.7703 57.0782 43.848 57.1685 43.9481 57.2393L47.3222 59.5412C47.5823 59.7297 48.0281 59.6998 48.32 59.4684L51.9275 56.6994C52.1064 56.565 52.1821 56.4019 52.1527 56.2308L52.0466 55.6738C52.0371 55.7998 51.9438 55.9194 51.8085 56.0359V56.0359Z" fill="#6DBCC9"/>
<path d="M51.6794 73.1914L55.0551 75.4722C55.3151 75.6606 55.761 75.6309 56.0528 75.3995L59.6814 72.632C59.8603 72.4977 59.936 72.3344 59.9066 72.1633L59.8023 71.5854C59.7913 71.7324 59.6978 71.8521 59.5625 71.9686L55.9337 74.736C55.642 74.9674 55.1965 74.9972 54.9359 74.8088L51.5605 72.5279C51.4602 72.457 51.384 72.3457 51.3693 72.2602L51.4885 72.9237C51.5242 73.0108 51.5793 73.1205 51.6794 73.1914V73.1914Z" fill="#CC4444"/>
<path d="M29.2705 78.6213C29.1704 78.5505 29.1137 78.4617 29.0798 78.3536L29.2195 79.0186C29.2326 79.1252 29.2894 79.214 29.3897 79.2848L32.7636 81.5867C33.0241 81.7751 33.4923 81.7259 33.7613 81.5139L37.3901 78.7465C37.569 78.6121 37.6447 78.4489 37.6153 78.2777L37.4964 77.6143C37.5048 77.7838 37.4501 77.9487 37.2709 78.083L33.6427 80.8505C33.3521 81.0608 32.9066 81.0906 32.6447 80.9232L29.2705 78.6213Z" fill="#6DBCC9"/>
<path d="M47.3634 69.6578L44.0106 67.3577C43.9102 67.2867 43.8325 67.1965 43.8194 67.0899L43.9386 67.7534C43.9517 67.8599 44.0279 67.9712 44.1279 68.0421L47.5036 70.3229C47.7637 70.5114 48.2095 70.4816 48.5014 70.2501L52.1299 67.4828C52.3088 67.3485 52.3845 67.1852 52.3551 67.014L52.2362 66.3506C52.2446 66.5202 52.1689 66.6834 51.99 66.8177L48.3822 69.5867C48.0905 69.8182 47.645 69.848 47.3634 69.6578V69.6578Z" fill="#6DBCC9"/>
<path d="M36.887 56.5184L33.2795 59.2874C32.9891 59.4978 32.542 59.5485 32.2604 59.3586L28.9076 57.0583C28.7862 56.9859 28.7295 56.8971 28.7166 56.7906L28.8356 57.454C28.8487 57.5606 28.9264 57.6509 29.0268 57.7218L32.3796 60.0221C32.6609 60.2122 33.108 60.1612 33.3983 59.9509L37.0061 57.1818C37.1848 57.0475 37.2621 56.8633 37.2311 56.7132L37.1269 56.1353C37.1158 56.2822 37.0225 56.4019 36.887 56.5184Z" fill="#6DBCC9"/>
<path d="M29.5169 62.1501L25.9094 64.9192C25.6191 65.1296 25.1736 65.1594 24.8907 64.9904L21.5376 62.6901C21.4165 62.6177 21.3598 62.529 21.3466 62.4224L21.4655 63.0858C21.4787 63.1925 21.5564 63.2827 21.6568 63.3536L25.0306 65.6554C25.2909 65.8439 25.7383 65.793 26.0284 65.5827L29.6571 62.8152C29.815 62.6793 29.8905 62.516 29.8613 62.345L29.7555 61.7881C29.746 61.914 29.6525 62.0337 29.5169 62.1501V62.1501Z" fill="#6DBCC9"/>
<path d="M40.9499 65.1003L44.5784 62.3328C44.7363 62.1969 44.8346 62.0143 44.8036 61.8642L44.6784 61.2847C44.6673 61.4316 44.574 61.5513 44.4385 61.6678L40.8307 64.4368C40.5407 64.6472 40.0935 64.6981 39.812 64.508L36.4591 62.2079C36.3378 62.1353 36.281 62.0467 36.2679 61.94L36.3871 62.6036C36.4002 62.7102 36.478 62.8004 36.5783 62.8714L39.9521 65.1731C40.2124 65.3616 40.658 65.3317 40.9499 65.1003V65.1003Z" fill="#6DBCC9"/>
<path d="M52.2329 76.8746C52.4902 77.0501 52.4744 77.3835 52.1737 77.6132L41.2002 85.9958C40.8996 86.2255 40.4394 86.2557 40.1821 86.0802L36.8028 83.7749C36.5455 83.5994 36.5613 83.266 36.862 83.0364L47.8355 74.6537C48.1361 74.424 48.5963 74.3938 48.8536 74.5693L52.2329 76.8746Z" fill="#2ECC71"/>
<path d="M9.32528 82.4912L9.14257 84.832L32.5951 100.831L32.7778 98.4901L9.32528 82.4912Z" fill="#2E414C"/>
<path d="M108.346 19.9022L84.2338 3.35303C84.1118 3.47398 72.7857 14.9542 70.874 28.2763L94.9862 44.8256C96.8978 31.5035 108.224 20.0232 108.346 19.9022V19.9022Z" fill="#ECF0F1"/>
<path d="M108.346 19.9023C108.224 20.0233 96.8978 31.5036 94.9862 44.8256L95.3074 44.6866C97.1892 31.5815 108.347 20.2757 108.469 20.1547L108.346 19.9023Z" fill="#C6C6C6"/>
<path d="M83.6182 6.52582L105.06 21.1508C105.1 21.0551 105.205 20.9646 105.278 20.8714L83.8364 6.24658C83.7636 6.33959 83.691 6.43283 83.6182 6.52582V6.52582Z" fill="#C6C6C6"/>
<path d="M86.9699 11.7672L103.505 23.0383C103.578 22.9453 103.65 22.8521 103.723 22.7591L87.1553 11.4854C87.1152 11.581 87.0425 11.674 86.9699 11.7672Z" fill="#C6C6C6"/>
<path d="M80.5387 10.3361L102.043 24.9984C102.083 24.903 102.156 24.8098 102.229 24.7168L80.7569 10.0566C80.7168 10.1523 80.644 10.2453 80.5387 10.3361V10.3361Z" fill="#C6C6C6"/>
<path d="M84.0764 15.7226L100.642 27.0291C100.682 26.9334 100.754 26.8404 100.827 26.7472L84.2621 15.4409C84.1893 15.5339 84.1165 15.6271 84.0764 15.7226V15.7226Z" fill="#C6C6C6"/>
<path d="M77.8666 14.4069L99.3384 29.0668C99.3785 28.9714 99.4513 28.8782 99.5238 28.7852L78.0521 14.125C78.012 14.2206 77.9395 14.3137 77.8666 14.4069V14.4069Z" fill="#C6C6C6"/>
<path d="M77.9024 29.2231L94.279 40.4167C94.2888 40.2861 94.3311 40.1579 94.3712 40.0623L77.9946 28.8687C77.9521 28.9968 77.9122 29.0925 77.9024 29.2231V29.2231Z" fill="#C6C6C6"/>
<path d="M73.7078 23.3932L95.0538 37.9779C95.0612 37.88 95.1037 37.7519 95.1763 37.6586L73.7978 23.0713C73.7577 23.1669 73.7152 23.2951 73.7078 23.3932Z" fill="#C6C6C6"/>
<path d="M79.4497 24.3779L95.9519 35.6467C95.9945 35.5186 96.0346 35.4229 96.1073 35.3299L79.6049 24.061C79.5321 24.1542 79.4922 24.2497 79.4497 24.3779Z" fill="#C6C6C6"/>
<path d="M75.5672 18.7682L96.976 33.3905C97.0161 33.2951 97.0586 33.1669 97.1312 33.0737L75.6897 18.4487C75.6496 18.5444 75.6095 18.6398 75.5672 18.7682V18.7682Z" fill="#C6C6C6"/>
<path d="M81.5605 19.9034L98.1282 31.1772C98.1682 31.0816 98.2083 30.9861 98.2811 30.8929L81.7134 19.6191C81.6733 19.7148 81.6333 19.8103 81.5605 19.9034Z" fill="#C6C6C6"/>
</g>
</svg>
