<svg width="110" height="111" viewBox="0 0 110 111" fill="none" xmlns="http://www.w3.org/2000/svg">
<g opacity="0.5">
<path d="M70.2372 17.9141H80.1677V45.572H70.2372V17.9141Z" fill="#8C9BA6"/>
<path d="M102.939 95.3786H6.97815L10.6967 41.401C10.782 40.1627 11.8115 39.2017 13.0526 39.2017H96.8638C98.1052 39.2017 99.1345 40.1627 99.2198 41.401L102.939 95.3786Z" fill="#E5ECF1"/>
<path d="M99.2201 41.401C99.1348 40.1627 98.1052 39.2017 96.8641 39.2017H87.7435C88.9849 39.2017 90.0142 40.1627 90.0995 41.401L93.8182 95.3786H102.939L99.2201 41.401Z" fill="#D6E4EA"/>
<path d="M106.548 107.362H3.45189C2.43547 107.362 1.61133 106.538 1.61133 105.522V94.5181C1.61133 93.5017 2.43525 92.6777 3.45189 92.6777H106.548C107.565 92.6777 108.389 93.5017 108.389 94.5181V105.522C108.389 106.538 107.565 107.362 106.548 107.362Z" fill="#8C9BA6"/>
<path d="M106.548 92.6777H97.8212C98.8376 92.6777 99.6615 93.5017 99.6615 94.5181V105.522C99.6615 106.538 98.8376 107.363 97.8212 107.363H106.548C107.565 107.363 108.389 106.539 108.389 105.522V94.5181C108.389 93.5017 107.565 92.6777 106.548 92.6777Z" fill="#7C8B96"/>
<path d="M97.6343 29.1163H52.7706C50.9096 29.1163 49.401 27.6076 49.401 25.7467V6.21092C49.401 4.34994 50.9096 2.84131 52.7706 2.84131H97.6343C99.4953 2.84131 101.004 4.34994 101.004 6.21092V25.7467C101.004 27.6076 99.495 29.1163 97.6343 29.1163Z" fill="#C7EEFB"/>
<path d="M55.8514 21.3666V10.5914C55.8514 9.87379 56.4332 9.29199 57.1508 9.29199H93.2538C93.9714 9.29199 94.5532 9.87379 94.5532 10.5914V21.3666C94.5532 22.0842 93.9714 22.666 93.2538 22.666H57.1508C56.4332 22.666 55.8514 22.0842 55.8514 21.3666Z" fill="#80B4FB"/>
<path d="M93.2538 9.29199H84.5266C85.2442 9.29199 85.826 9.87379 85.826 10.5914V21.3666C85.826 22.0842 85.2442 22.666 84.5266 22.666H93.2538C93.9714 22.666 94.5531 22.0842 94.5531 21.3666V10.5914C94.5534 9.87379 93.9716 9.29199 93.2538 9.29199Z" fill="#61A2F9"/>
<path d="M48.1385 63.7761H17.6339C16.8657 63.7761 16.243 63.1532 16.243 62.3852V58.2039C16.243 57.4356 16.8659 56.813 17.6339 56.813H48.1385C48.9068 56.813 49.5294 57.4358 49.5294 58.2039V62.385C49.5294 63.1532 48.9066 63.7761 48.1385 63.7761V63.7761Z" fill="#8C9BA6"/>
<path d="M44.0146 63.7758H21.7577V31.1077C21.7577 30.1478 22.5359 29.3696 23.4958 29.3696H42.2763C43.2363 29.3696 44.0144 30.1478 44.0144 31.1077V63.7758H44.0146Z" fill="#CDF09C"/>
<path d="M42.2765 29.3696H33.5493C34.5092 29.3696 35.2874 30.1478 35.2874 31.1077V63.7758H44.0146V31.1079C44.0146 30.1478 43.2364 29.3696 42.2765 29.3696Z" fill="#B9EA6A"/>
<path d="M90.1517 63.7761H60.6173C59.669 63.7761 58.9003 63.0074 58.9003 62.059V51.4348C58.9003 50.4865 59.669 49.7178 60.6173 49.7178H90.1514C91.0998 49.7178 91.8685 50.4865 91.8685 51.4348V62.059C91.8687 63.0071 91.1 63.7761 90.1517 63.7761V63.7761Z" fill="#80B4FB"/>
<path d="M21.7577 107.363H89.1073V102.269C89.1073 100.967 88.0525 99.9126 86.7511 99.9126H24.1139C22.8126 99.9126 21.7577 100.967 21.7577 102.269V107.363Z" fill="#7C8B96"/>
<path d="M62.6948 70.6221H60.165C59.2752 70.6221 58.5537 71.3435 58.5537 72.2334C58.5537 73.1233 59.2752 73.8447 60.165 73.8447H62.6948C63.5847 73.8447 64.3062 73.1233 64.3062 72.2334C64.3062 71.3435 63.5847 70.6221 62.6948 70.6221Z" fill="#155263"/>
<path d="M71.9207 70.6221H69.3909C68.501 70.6221 67.7795 71.3435 67.7795 72.2334C67.7795 73.1233 68.501 73.8447 69.3909 73.8447H71.9207C72.8105 73.8447 73.532 73.1233 73.532 72.2334C73.532 71.3435 72.8105 70.6221 71.9207 70.6221Z" fill="#155263"/>
<path d="M81.1465 70.6221H78.6167C77.7268 70.6221 77.0054 71.3435 77.0054 72.2334C77.0054 73.1233 77.7268 73.8447 78.6167 73.8447H81.1465C82.0364 73.8447 82.7578 73.1233 82.7578 72.2334C82.7578 71.3435 82.0364 70.6221 81.1465 70.6221Z" fill="#155263"/>
<path d="M90.3723 70.6221H87.8423C86.9524 70.6221 86.231 71.3435 86.231 72.2334C86.231 73.1233 86.9524 73.8447 87.8423 73.8447H90.3723C91.2622 73.8447 91.9836 73.1233 91.9836 72.2334C91.9836 71.3435 91.2622 70.6221 90.3723 70.6221Z" fill="#155263"/>
<path d="M62.6948 79.0791H60.165C59.2752 79.0791 58.5537 79.8005 58.5537 80.6904C58.5537 81.5803 59.2752 82.3018 60.165 82.3018H62.6948C63.5847 82.3018 64.3062 81.5803 64.3062 80.6904C64.3062 79.8005 63.5847 79.0791 62.6948 79.0791Z" fill="#155263"/>
<path d="M71.9207 79.0791H69.3909C68.501 79.0791 67.7795 79.8005 67.7795 80.6904C67.7795 81.5803 68.501 82.3018 69.3909 82.3018H71.9207C72.8105 82.3018 73.532 81.5803 73.532 80.6904C73.532 79.8005 72.8105 79.0791 71.9207 79.0791Z" fill="#155263"/>
<path d="M81.1465 79.0791H78.6167C77.7268 79.0791 77.0054 79.8005 77.0054 80.6904C77.0054 81.5803 77.7268 82.3018 78.6167 82.3018H81.1465C82.0364 82.3018 82.7578 81.5803 82.7578 80.6904C82.7578 79.8005 82.0364 79.0791 81.1465 79.0791Z" fill="#155263"/>
<path d="M90.3723 79.0791H87.8423C86.9524 79.0791 86.231 79.8005 86.231 80.6904C86.231 81.5803 86.9524 82.3018 87.8423 82.3018H90.3723C91.2622 82.3018 91.9836 81.5803 91.9836 80.6904C91.9836 79.8005 91.2622 79.0791 90.3723 79.0791Z" fill="#155263"/>
<path d="M36.9714 34.7974H28.8009C27.911 34.7974 27.1896 35.5188 27.1896 36.4087C27.1896 37.2986 27.911 38.02 28.8009 38.02H36.9714C37.8613 38.02 38.5827 37.2986 38.5827 36.4087C38.5827 35.5188 37.8613 34.7974 36.9714 34.7974Z" fill="#155263"/>
<path d="M36.9714 41.2476H28.8009C27.911 41.2476 27.1896 41.969 27.1896 42.8589C27.1896 43.7488 27.911 44.4702 28.8009 44.4702H36.9714C37.8613 44.4702 38.5827 43.7488 38.5827 42.8589C38.5827 41.969 37.8613 41.2476 36.9714 41.2476Z" fill="#155263"/>
<path d="M93.48 62.059V51.4348C93.48 49.5996 91.9869 48.1064 90.1517 48.1064H60.6173C58.7821 48.1064 57.2889 49.5996 57.2889 51.4348V62.059C57.2889 63.8942 58.7821 65.3874 60.6173 65.3874H90.1517C91.9869 65.3876 93.48 63.8945 93.48 62.059ZM90.2574 62.059C90.2574 62.1173 90.2099 62.1647 90.1517 62.1647H60.6173C60.5591 62.1647 60.5116 62.1173 60.5116 62.059V51.4348C60.5116 51.3766 60.5591 51.3291 60.6173 51.3291H90.1517C90.2099 51.3291 90.2574 51.3766 90.2574 51.4348V62.059Z" fill="#155263"/>
<path d="M14.6317 58.2038V62.3849C14.6317 64.0405 15.9786 65.3871 17.6339 65.3871H48.1385C49.7941 65.3871 51.1408 64.0402 51.1408 62.3849V58.2038C51.1408 56.5482 49.7939 55.2016 48.1385 55.2016H45.6261V31.1079C45.6261 29.2609 44.1235 27.7583 42.2767 27.7583H23.496C21.6489 27.7583 20.1465 29.2609 20.1465 31.1079V55.2016H17.6339C15.9784 55.2016 14.6317 56.5482 14.6317 58.2038V58.2038ZM45.6259 58.4242H47.9179V62.1647H45.6259V58.4242ZM23.369 31.1079C23.369 31.0379 23.4259 30.981 23.4957 30.981H42.2765C42.3466 30.981 42.4033 31.0379 42.4033 31.1079V62.1647H23.369V31.1079ZM17.8544 58.4242H20.1463V62.1647H17.8544V58.4242Z" fill="#155263"/>
<path d="M106.548 91.0662H104.257L100.828 41.2906C100.685 39.2159 98.9437 37.5906 96.864 37.5906H81.779V30.7276H97.6342C100.381 30.7276 102.615 28.4932 102.615 25.7467V6.21092C102.615 3.46436 100.381 1.22998 97.6342 1.22998H52.7706C50.024 1.22998 47.7896 3.46436 47.7896 6.21092V25.7467C47.7896 28.4932 50.024 30.7276 52.7706 30.7276H68.6258V37.5906H51.5741C50.6842 37.5906 49.9628 38.312 49.9628 39.2019C49.9628 40.0918 50.6842 40.8132 51.5741 40.8132H96.864C97.2568 40.8132 97.5855 41.1202 97.6125 41.5119L101.027 91.066H8.89023L12.3043 41.5117C12.3312 41.12 12.6601 40.813 13.0528 40.813H14.1861C15.076 40.813 15.7975 40.0916 15.7975 39.2017C15.7975 38.3118 15.076 37.5903 14.1861 37.5903H13.0528C10.9731 37.5903 9.23205 39.2154 9.08918 41.2902L5.65984 91.0662H3.45168C1.54859 91.0662 0 92.6146 0 94.5179V105.522C0 107.425 1.54859 108.973 3.45168 108.973H106.548C108.451 108.973 110 107.425 110 105.522V94.5179C110 92.6146 108.451 91.0662 106.548 91.0662ZM52.7706 27.5049C51.8012 27.5049 51.0123 26.7162 51.0123 25.7467V6.21092C51.0123 5.24133 51.801 4.45264 52.7706 4.45264H97.634C98.6034 4.45264 99.3923 5.24133 99.3923 6.21092V25.7467C99.3923 26.7162 98.6036 27.5049 97.634 27.5049H52.7706ZM78.5563 37.5906H71.8485V30.7276H78.5563V37.5906ZM106.777 105.522C106.777 105.648 106.674 105.751 106.548 105.751H90.7186V102.269C90.7186 100.081 88.9389 98.3011 86.7511 98.3011H80.9325C80.0426 98.3011 79.3212 99.0225 79.3212 99.9124C79.3212 100.802 80.0426 101.524 80.9325 101.524H86.7511C87.1619 101.524 87.496 101.858 87.496 102.269V105.751H23.369V102.269C23.369 101.858 23.7031 101.524 24.1138 101.524H73.3938C74.2837 101.524 75.0052 100.802 75.0052 99.9124C75.0052 99.0225 74.2837 98.3011 73.3938 98.3011H24.1138C21.9261 98.3011 20.1463 100.081 20.1463 102.269V105.751H3.45168C3.32535 105.751 3.22266 105.648 3.22266 105.522V94.5179C3.22266 94.3916 3.32557 94.2889 3.45168 94.2889H106.548C106.674 94.2889 106.777 94.3918 106.777 94.5179V105.522H106.777Z" fill="#155263"/>
<path d="M93.2538 7.68066H57.1508C55.5457 7.68066 54.2401 8.98648 54.2401 10.5914V21.3666C54.2401 22.9717 55.5459 24.2773 57.1508 24.2773H93.2538C94.8589 24.2773 96.1645 22.9715 96.1645 21.3666V10.5914C96.1647 8.98648 94.8589 7.68066 93.2538 7.68066ZM92.9421 21.0547H57.4628V10.9033H92.9421V21.0547Z" fill="#155263"/>
</g>
</svg>
