<svg width="19" height="18" viewBox="0 0 19 18" fill="none" xmlns="http://www.w3.org/2000/svg">
<path d="M7.7533 9.3089C7.7533 9.17122 7.63262 9.0596 7.48377 9.0596H1.43406C1.10613 9.0596 0.839361 8.81285 0.839361 8.50954V1.04867C0.839361 0.745349 1.10613 0.498606 1.43406 0.498606H9.50039C9.82832 0.498606 10.0951 0.745349 10.0951 1.04867V6.64429C10.0951 6.78197 10.2158 6.89359 10.3646 6.89359C10.5135 6.89359 10.6342 6.78197 10.6342 6.64429V1.04867C10.6342 0.470418 10.1256 0 9.50039 0H1.43406C0.808886 0 0.300293 0.470418 0.300293 1.04867V8.50954C0.300293 9.08779 0.808886 9.5582 1.43406 9.5582H7.48377C7.63262 9.5582 7.7533 9.44658 7.7533 9.3089Z" fill="#0070BA"/>
<path d="M17.5668 7.46085H15.2621C15.1133 7.46085 14.9926 7.57247 14.9926 7.71015C14.9926 7.84783 15.1133 7.95945 15.2621 7.95945H17.5668C17.8947 7.95945 18.1615 8.2062 18.1615 8.50951V15.9704C18.1615 16.2737 17.8947 16.5205 17.5668 16.5205H9.50047C9.17253 16.5205 8.90577 16.2737 8.90577 15.9704V8.50951C8.90577 8.2062 9.17253 7.95945 9.50047 7.95945H14.1098C14.2587 7.95945 14.3794 7.84783 14.3794 7.71015C14.3794 7.57247 14.2587 7.46085 14.1098 7.46085H9.50047C8.87529 7.46085 8.3667 7.93126 8.3667 8.50951V15.9704C8.3667 16.5486 8.87529 17.0191 9.50047 17.0191H17.5668C18.192 17.0191 18.7006 16.5486 18.7006 15.9704V8.50951C18.7006 7.93126 18.192 7.46085 17.5668 7.46085Z" fill="#0070BA"/>
<path d="M8.06042 2.66456H5.73724V2.38096C5.73724 2.24327 5.61657 2.13165 5.46771 2.13165C5.31886 2.13165 5.19818 2.24327 5.19818 2.38096V2.66456H2.875C2.72615 2.66456 2.60547 2.77618 2.60547 2.91386C2.60547 3.05155 2.72615 3.16317 2.875 3.16317H6.84416C6.68894 3.62434 6.30003 4.55437 5.46642 5.48264C4.95733 4.9163 4.61247 4.34695 4.38405 3.87637C4.32307 3.75079 4.16365 3.69465 4.02777 3.75102C3.89196 3.80743 3.8313 3.95495 3.89225 4.08057C4.14456 4.60041 4.52935 5.23271 5.1032 5.85823C4.69412 6.25076 4.19876 6.63136 3.60051 6.9634C3.47286 7.03424 3.43146 7.18737 3.50808 7.30544C3.5586 7.38336 3.64787 7.42651 3.73944 7.42651C3.78663 7.42651 3.83446 7.41504 3.87787 7.39094C4.5121 7.03896 5.03596 6.63628 5.46631 6.22729C5.90151 6.6406 6.42588 7.04042 7.05748 7.39094C7.10089 7.41504 7.14873 7.42651 7.19591 7.42651C7.28748 7.42651 7.37675 7.38336 7.42728 7.30544C7.50386 7.18737 7.46246 7.03424 7.33485 6.9634C6.73555 6.63083 6.23972 6.2505 5.82978 5.85766C6.25345 5.39635 6.5642 4.94395 6.78533 4.56415C7.14312 3.94953 7.32593 3.43288 7.40676 3.16313H8.06042C8.20928 3.16313 8.32996 3.05151 8.32996 2.91383C8.32996 2.77615 8.20931 2.66456 8.06042 2.66456Z" fill="#0070BA"/>
<path d="M13.9008 9.81438C13.8409 9.67959 13.7004 9.59253 13.5428 9.59253C13.5427 9.59253 13.5426 9.59253 13.5425 9.59253C13.3848 9.59266 13.2443 9.67999 13.1846 9.81501C13.1838 9.81687 13.183 9.81876 13.1822 9.82063L11.235 14.5493C11.182 14.678 11.2518 14.822 11.3909 14.871C11.4225 14.8822 11.4549 14.8874 11.4868 14.8874C11.5954 14.8874 11.6978 14.8263 11.7388 14.7268L12.1576 13.7097H14.9141L15.3288 14.7261C15.3814 14.8549 15.5368 14.9199 15.6761 14.8713C15.8154 14.8227 15.8857 14.6788 15.8331 14.55L13.9037 9.82112C13.9028 9.8189 13.9018 9.81664 13.9008 9.81438ZM12.3629 13.2111L13.5422 10.3473L14.7107 13.2111H12.3629Z" fill="#0070BA"/>
<path d="M7.6456 13.6393L6.49328 12.8399C6.37422 12.7573 6.20524 12.7797 6.11593 12.8898C6.02663 12.9999 6.05078 13.1562 6.16984 13.2388L6.67528 13.5894H5.75537C4.79201 13.5894 4.00831 12.8645 4.00831 11.9735V10.3749C4.00831 10.2372 3.88763 10.1256 3.73877 10.1256C3.58992 10.1256 3.46924 10.2372 3.46924 10.3749V11.9735C3.46924 13.1395 4.4948 14.088 5.75537 14.088H6.67528L6.16984 14.4387C6.05078 14.5213 6.02663 14.6776 6.11593 14.7877C6.16891 14.853 6.24984 14.8874 6.33178 14.8874C6.38806 14.8874 6.4448 14.8711 6.49328 14.8375L7.6456 14.0382C7.71349 13.9911 7.75342 13.9172 7.75342 13.8387C7.75342 13.7602 7.71349 13.6864 7.6456 13.6393Z" fill="#0070BA"/>
<path d="M11.3554 3.37978L12.5077 4.17914C12.5561 4.21278 12.6129 4.229 12.6692 4.229C12.7511 4.229 12.8321 4.19457 12.885 4.12928C12.9743 4.01916 12.9501 3.86286 12.8311 3.78026L12.3257 3.42964H13.2456C14.2089 3.42964 14.9926 4.15454 14.9926 5.04555V6.64418C14.9926 6.78187 15.1132 6.89349 15.2621 6.89349C15.4109 6.89349 15.5316 6.78187 15.5316 6.64418V5.04555C15.5316 3.87958 14.5061 2.93103 13.2456 2.93103H12.3257L12.8311 2.58041C12.9501 2.49781 12.9743 2.34151 12.885 2.23139C12.7957 2.12123 12.6268 2.09892 12.5077 2.18153L11.3554 2.98089C11.2875 3.02799 11.2476 3.10185 11.2476 3.18033C11.2476 3.25882 11.2875 3.33271 11.3554 3.37978Z" fill="#0070BA"/>
</svg>
