<svg width="44" height="36" viewBox="0 0 44 36" fill="none" xmlns="http://www.w3.org/2000/svg">
<path d="M43.9286 21.9643C43.9286 34.0948 34.0948 35.124 21.9643 35.124C9.83375 35.124 0 34.0948 0 21.9643C0 9.83375 9.83375 0 21.9643 0C34.0948 0 43.9286 9.83375 43.9286 21.9643Z" fill="#A292E2"/>
<path d="M29.4815 18.242L25.8979 12.6244C26.4057 12.3576 26.753 11.8251 26.753 11.2128C26.753 10.5426 26.337 9.96807 25.7497 9.73288L26.8353 5.93747C26.8821 5.77372 26.8365 5.59751 26.7161 5.47708C25.9939 4.75498 24.819 4.75498 24.0968 5.47708C23.9241 5.64983 23.6944 5.74494 23.4502 5.74494C23.2059 5.74494 22.9762 5.64983 22.8024 5.47596L22.8001 5.47366C22.0805 4.75399 20.9076 4.75198 20.1851 5.46939L20.1717 5.4828C19.8151 5.83687 19.2359 5.83584 18.8806 5.4805L18.8772 5.47708C18.155 4.75498 16.9801 4.75498 16.2579 5.47708C16.1375 5.5976 16.0919 5.77396 16.1388 5.9378L17.2267 9.73199C16.6382 9.96657 16.2211 10.5417 16.2211 11.2129C16.2211 11.8252 16.5683 12.3576 17.0761 12.6244L13.4925 18.242C12.1062 20.4153 12.0183 23.0623 13.2575 25.3227C14.4967 27.5831 16.7756 28.9326 19.3534 28.9326H23.6205C26.1983 28.9326 28.4772 27.5831 29.7164 25.3227C30.9556 23.0623 30.8678 20.4153 29.4815 18.242ZM18.2142 6.14003L18.2176 6.14345C18.9373 6.86307 20.1102 6.86504 20.8326 6.14772L20.8461 6.13431C21.2026 5.78024 21.7818 5.78127 22.1382 6.13768L22.1405 6.13998C22.8626 6.86209 24.0376 6.86209 24.7597 6.13998C25.0536 5.84615 25.4992 5.79444 25.8465 5.98486L24.8071 9.61897H18.1697L17.1276 5.98482C17.4749 5.79444 17.9204 5.84624 18.2142 6.14003ZM28.8943 24.872C27.8222 26.8276 25.8507 27.9951 23.6206 27.9951H19.3535C17.1233 27.9951 15.1518 26.8276 14.0797 24.872C13.0076 22.9165 13.0836 20.6265 14.283 18.7463L18.0719 12.8067H19.3775C19.6364 12.8067 19.8463 12.5968 19.8463 12.3379C19.8463 12.079 19.6364 11.8691 19.3775 11.8691H17.8149C17.453 11.8691 17.1586 11.5747 17.1586 11.2128C17.1586 10.8509 17.453 10.5565 17.8149 10.5565H17.8164H25.1591C25.521 10.5565 25.8154 10.8509 25.8154 11.2128C25.8154 11.5747 25.521 11.8691 25.1591 11.8691H23.5965C23.3376 11.8691 23.1277 12.079 23.1277 12.3379C23.1277 12.5968 23.3376 12.8067 23.5965 12.8067H24.9021L28.6911 18.7463C29.8904 20.6264 29.9664 22.9164 28.8943 24.872Z" fill="white"/>
<path d="M22.3122 20.2422C22.1946 20.2006 22.0745 20.1573 21.9545 20.1124V17.9878C22.2723 18.0813 22.4846 18.2329 22.4936 18.2395C22.6998 18.394 22.9924 18.353 23.1482 18.1473C23.3045 17.941 23.264 17.647 23.0576 17.4906C23.0301 17.4697 22.5942 17.1462 21.9545 17.0237V16.5572C21.9545 16.2983 21.7446 16.0884 21.4857 16.0884C21.2268 16.0884 21.0169 16.2983 21.0169 16.5572V17.0203C20.9375 17.0355 20.857 17.0548 20.7755 17.0793C20.1157 17.2776 19.6226 17.8418 19.4885 18.5518C19.3661 19.2001 19.5738 19.8254 20.0305 20.1837C20.2784 20.3781 20.5882 20.5556 21.0169 20.7441V23.4629C20.6478 23.4395 20.4008 23.3555 19.9892 23.0862C19.7725 22.9444 19.4819 23.0052 19.3402 23.2219C19.1985 23.4385 19.2592 23.729 19.4759 23.8708C20.0762 24.2635 20.4827 24.3747 21.0169 24.401V24.8858C21.0169 25.1447 21.2268 25.3546 21.4857 25.3546C21.7446 25.3546 21.9545 25.1447 21.9545 24.8858V24.3523C22.9583 24.1325 23.5454 23.2948 23.6772 22.5112C23.8494 21.4867 23.3136 20.5961 22.3122 20.2422ZM20.6092 19.4459C20.429 19.3046 20.3526 19.0286 20.4097 18.7257C20.4623 18.4472 20.6498 18.1113 21.0169 17.987V19.7038C20.8628 19.6217 20.7237 19.5358 20.6092 19.4459ZM22.7526 22.3557C22.685 22.7572 22.414 23.1831 21.9545 23.3712V21.1099C21.9697 21.1153 21.9842 21.1206 21.9997 21.1261C22.8402 21.4232 22.7885 22.1424 22.7526 22.3557Z" fill="white"/>
<path d="M21.4864 12.8067C21.6096 12.8067 21.7306 12.7565 21.8178 12.6693C21.905 12.5822 21.9551 12.4612 21.9551 12.3379C21.9551 12.2146 21.905 12.0937 21.8178 12.0065C21.7306 11.9193 21.6096 11.8691 21.4864 11.8691C21.3631 11.8691 21.2421 11.9193 21.1549 12.0065C21.0677 12.0937 21.0176 12.2146 21.0176 12.3379C21.0176 12.4612 21.0677 12.5822 21.1549 12.6693C21.2421 12.7565 21.363 12.8067 21.4864 12.8067Z" fill="white"/>
</svg>
