<svg width="44" height="36" viewBox="0 0 44 36" fill="none" xmlns="http://www.w3.org/2000/svg">
<path d="M43.9286 21.9643C43.9286 34.0948 34.0948 35.124 21.9643 35.124C9.83375 35.124 0 34.0948 0 21.9643C0 9.83375 9.83375 0 21.9643 0C34.0948 0 43.9286 9.83375 43.9286 21.9643Z" fill="#A292E2"/>
<path d="M9.54102 17.4743V12.4865C9.54102 12.1149 9.68863 11.7586 9.95138 11.4958C10.2141 11.2331 10.5705 11.0854 10.9421 11.0854H33.9195C34.291 11.0854 34.6474 11.2331 34.9102 11.4958C35.1729 11.7586 35.3205 12.1149 35.3205 12.4865V28.5987C35.3205 28.9703 35.1729 29.3267 34.9102 29.5894C34.6474 29.8522 34.291 29.9998 33.9195 29.9998H10.9421C10.5705 29.9998 10.2141 29.8522 9.95138 29.5894C9.68863 29.3267 9.54102 28.9703 9.54102 28.5987V23.6039" stroke="white" stroke-linecap="round" stroke-linejoin="round"/>
<path d="M8.70053 17.4746H16.7566C17.1282 17.4746 17.4846 17.6222 17.7473 17.885C18.0101 18.1477 18.1577 18.5041 18.1577 18.8757V22.2032C18.1577 22.5748 18.0101 22.9311 17.7473 23.1939C17.4846 23.4566 17.1282 23.6042 16.7566 23.6042H8.70053C8.51474 23.6042 8.33656 23.5304 8.20518 23.3991C8.07381 23.2677 8 23.0895 8 22.9037V18.1751C8 17.9893 8.07381 17.8112 8.20518 17.6798C8.33656 17.5484 8.51474 17.4746 8.70053 17.4746Z" stroke="white" stroke-linecap="round" stroke-linejoin="round"/>
<path d="M14.9987 21.9437C15.7725 21.9437 16.3998 21.3164 16.3998 20.5427C16.3998 19.7689 15.7725 19.1416 14.9987 19.1416C14.2249 19.1416 13.5977 19.7689 13.5977 20.5427C13.5977 21.3164 14.2249 21.9437 14.9987 21.9437Z" stroke="white" stroke-linecap="round" stroke-linejoin="round"/>
<path d="M31.5517 11.0858L14.0875 6L12.6094 11.0858" stroke="white" stroke-linecap="round" stroke-linejoin="round"/>
</svg>
