<svg width="44" height="36" viewBox="0 0 44 36" fill="none" xmlns="http://www.w3.org/2000/svg">
<path d="M43.9286 21.9643C43.9286 34.0948 34.0948 35.124 21.9643 35.124C9.83375 35.124 0 34.0948 0 21.9643C0 9.83375 9.83375 0 21.9643 0C34.0948 0 43.9286 9.83375 43.9286 21.9643Z" fill="#A292E2"/>
<path d="M32.6406 6.58008C30.4563 6.58008 28.7305 8.33289 28.7305 10.5172C28.7305 12.7014 30.4833 14.4273 32.6406 14.4273C34.7979 14.4273 36.5777 12.6745 36.5777 10.4902C36.5777 8.30592 34.8248 6.58008 32.6406 6.58008ZM32.6406 13.5643C30.9417 13.5643 29.5664 12.1891 29.5664 10.4902C29.5664 8.79131 30.9687 7.443 32.6406 7.443C34.3395 7.443 35.7147 8.81828 35.7147 10.5172C35.7147 12.216 34.3395 13.5643 32.6406 13.5643Z" fill="white"/>
<path d="M33.879 11.1106C33.852 11.0297 33.852 10.9758 33.7981 10.8949C33.7711 10.841 33.7441 10.7601 33.6902 10.7061C33.6363 10.6522 33.6093 10.5983 33.5554 10.5443C33.5014 10.4904 33.4475 10.4365 33.3666 10.4095C33.3127 10.3556 33.2318 10.3286 33.1778 10.3016C33.0969 10.2747 33.043 10.2207 32.9621 10.1938C32.8812 10.1668 32.8003 10.1398 32.7464 10.1129C32.7194 10.1129 32.6655 10.0859 32.6385 10.0589C32.6115 10.032 32.5576 10.032 32.5306 10.005C32.5037 9.97804 32.4497 9.97804 32.4228 9.95107C32.3958 9.9241 32.3688 9.89714 32.3419 9.87017C32.3149 9.84321 32.2879 9.81624 32.2879 9.76231C32.261 9.73534 32.261 9.68141 32.261 9.65444C32.261 9.60051 32.261 9.57354 32.261 9.51961C32.261 9.49264 32.2879 9.43871 32.2879 9.41175C32.3149 9.38478 32.3149 9.33085 32.3419 9.30388C32.3688 9.27691 32.3958 9.24995 32.4228 9.22298C32.4497 9.19602 32.5037 9.16905 32.5576 9.16905C32.6115 9.14208 32.6385 9.14208 32.6924 9.14208C32.7194 9.14208 32.7464 9.14208 32.7733 9.14208C32.8003 9.14208 32.8273 9.14208 32.8542 9.14208C32.9082 9.14208 32.9351 9.14208 32.9891 9.16905C33.043 9.16905 33.0969 9.19602 33.1239 9.19602C33.1509 9.19602 33.2048 9.22298 33.2318 9.22298C33.2857 9.22298 33.3127 9.24995 33.3396 9.24995L33.4745 9.30388L33.5014 9.14208L33.5554 8.71062V8.60276L33.4475 8.57579C33.4205 8.57579 33.3666 8.54882 33.3396 8.54882C33.3127 8.54882 33.2857 8.52186 33.2318 8.52186C33.2048 8.52186 33.1509 8.49489 33.0969 8.49489C33.043 8.49489 33.016 8.46793 32.9621 8.46793H32.9351V8.0904V7.95557H32.8003H32.4228H32.2879V8.0904V8.49489H32.261C32.1801 8.52186 32.0992 8.54882 32.0183 8.60276C31.9374 8.62972 31.8835 8.68366 31.8295 8.73759C31.7756 8.79152 31.7217 8.84545 31.6677 8.92635C31.6138 8.98029 31.5868 9.06118 31.5599 9.14208C31.5329 9.22298 31.5059 9.30388 31.479 9.38478C31.452 9.46568 31.452 9.57354 31.452 9.65444C31.452 9.73534 31.452 9.78927 31.479 9.87017C31.5059 9.95107 31.5059 10.005 31.5599 10.0859C31.5868 10.1398 31.6408 10.2207 31.6677 10.2747C31.7217 10.3286 31.7486 10.3825 31.8026 10.4365C31.8565 10.4904 31.9104 10.5443 31.9913 10.5713C32.0452 10.6252 32.1261 10.6522 32.1801 10.6792C32.261 10.7061 32.3419 10.7601 32.3958 10.787C32.4767 10.814 32.5576 10.841 32.6115 10.8679C32.6385 10.8679 32.6924 10.8949 32.7194 10.9219C32.7464 10.9488 32.8003 10.9488 32.8273 10.9758C32.8542 11.0028 32.8812 11.0297 32.9082 11.0297C32.9351 11.0567 32.9621 11.0837 32.9891 11.1106C33.016 11.1376 33.016 11.1646 33.043 11.2185C33.043 11.2455 33.07 11.2994 33.07 11.3533C33.07 11.4073 33.07 11.4342 33.07 11.4881C33.07 11.5151 33.043 11.569 33.016 11.596C32.9891 11.623 32.9621 11.6499 32.9351 11.6769C32.9082 11.7039 32.8812 11.7308 32.8273 11.7578C32.8003 11.7848 32.7464 11.7848 32.7194 11.8117C32.6924 11.8117 32.6385 11.8387 32.5846 11.8387C32.5576 11.8387 32.5306 11.8387 32.4767 11.8387C32.4497 11.8387 32.3958 11.8387 32.3688 11.8387C32.3149 11.8387 32.261 11.8387 32.234 11.8387C32.1801 11.8387 32.1261 11.8117 32.0992 11.8117C32.0453 11.8117 31.9913 11.7848 31.9374 11.7578C31.8835 11.7308 31.8295 11.7308 31.7756 11.7039C31.7486 11.7039 31.7217 11.6769 31.6947 11.6769C31.6677 11.6769 31.6408 11.6499 31.6138 11.6499L31.452 11.569L31.425 11.7578L31.3711 12.2432V12.3241L31.452 12.3511C31.5599 12.3241 31.6138 12.3511 31.6947 12.378C31.7486 12.405 31.8295 12.432 31.8835 12.432C31.9374 12.4589 32.0183 12.4589 32.0992 12.4859C32.1801 12.5129 32.234 12.5129 32.3149 12.5129H32.3688V12.9174V13.0522H32.5037H32.8812H33.016V12.9174V12.4859H33.043C33.1239 12.4589 33.2048 12.432 33.2857 12.378C33.3666 12.3511 33.4205 12.2971 33.5014 12.2432C33.5554 12.1893 33.6093 12.1353 33.6632 12.0544C33.7172 12.0005 33.7441 11.9196 33.7981 11.8387C33.825 11.7578 33.852 11.6769 33.879 11.596C33.9059 11.5151 33.9059 11.4342 33.9059 11.3264C33.9059 11.2455 33.9059 11.1915 33.879 11.1106Z" fill="white"/>
<path d="M30.7524 14.9396C30.6176 14.7508 30.321 14.7239 30.1322 14.8587L25.7637 18.3373L20.1277 15.9913C19.9929 15.9373 19.8311 15.9643 19.7232 16.0452L13.6828 20.3598C13.494 20.4946 13.4401 20.7643 13.5749 20.9531C13.6558 21.0879 13.7906 21.1418 13.9255 21.1418C14.0064 21.1418 14.0873 21.1149 14.1682 21.0609L20.0198 16.8812L25.6828 19.2272C25.8176 19.2812 26.0064 19.2542 26.1142 19.1733L30.6715 15.5598C30.8603 15.425 30.8873 15.1283 30.7524 14.9396Z" fill="white"/>
<path d="M37.0626 29.7171H35.0671V17.2318C35.0671 16.9891 34.8783 16.8003 34.6356 16.8003H30.6716C30.4289 16.8003 30.2401 16.9891 30.2401 17.2318V29.7171H28.7839V21.5464C28.7839 21.3037 28.5952 21.1149 28.3525 21.1149H24.3615C24.1188 21.1149 23.93 21.3037 23.93 21.5464V29.7171H22.4738V20.8992C22.4738 20.6565 22.2851 20.4677 22.0424 20.4677H18.0783C17.8356 20.4677 17.6469 20.6565 17.6469 20.8992V29.7171H16.1907V23.434C16.1907 23.1913 16.0019 23.0025 15.7592 23.0025H11.7682C11.5255 23.0025 11.3367 23.1913 11.3367 23.434V29.7171H9.31427C9.07158 29.7171 8.88281 29.9059 8.88281 30.1486C8.88281 30.3913 9.07158 30.5801 9.31427 30.5801H11.7412H15.7053H18.0783H22.0424H24.3615H28.3255H30.6446H34.6086H37.0356C37.2783 30.5801 37.4671 30.3913 37.4671 30.1486C37.494 29.9059 37.3053 29.7171 37.0626 29.7171ZM15.3008 29.7171H12.1997V23.8655H15.3008V29.7171ZM21.6109 29.7171H18.5098V21.3306H21.6109V29.7171ZM27.894 29.7171H24.7929V21.9778H27.894V29.7171ZM34.2042 29.7171H31.103V17.6632H34.2042V29.7171Z" fill="white"/>
</svg>
