<svg width="44" height="36" viewBox="0 0 44 36" fill="none" xmlns="http://www.w3.org/2000/svg">
<path d="M43.9286 21.9643C43.9286 34.0948 34.0948 35.124 21.9643 35.124C9.83375 35.124 0 34.0948 0 21.9643C0 9.83375 9.83375 0 21.9643 0C34.0948 0 43.9286 9.83375 43.9286 21.9643Z" fill="#A292E2"/>
<path d="M25.5916 8.96563C25.3504 7.27504 23.8789 6 22.1688 6C21.0691 6 20.0247 6.53068 19.3753 7.42007C19.2426 7.60145 19.2823 7.85589 19.4637 7.98853C19.6445 8.12069 19.8995 8.08148 20.0319 7.89986C20.529 7.21974 21.3277 6.8136 22.1687 6.8136C23.4765 6.8136 24.6016 7.7882 24.7861 9.0804C24.8152 9.28335 24.9893 9.42981 25.1885 9.42981C25.2074 9.42981 25.2269 9.42838 25.2464 9.42576C25.4688 9.39394 25.6233 9.18789 25.5916 8.96563Z" fill="white"/>
<path d="M31.4683 13.5195L30.248 11.4856C30.1746 11.3629 30.0422 11.2881 29.8992 11.2881H28.7297C28.5052 11.2881 28.323 11.4703 28.323 11.6948C28.323 11.9193 28.5052 12.1016 28.7297 12.1016H29.6689L30.4011 13.3219H13.9396L14.6718 12.1016H15.1026C15.3271 12.1016 15.5093 11.9193 15.5093 11.6948C15.5093 11.4703 15.3271 11.2881 15.1026 11.2881H14.4415C14.2985 11.2881 14.1661 11.3629 14.0927 11.4856L12.8724 13.5195C12.7969 13.6453 12.7951 13.8018 12.8672 13.9293C12.9393 14.0568 13.0745 14.1357 13.2212 14.1357H31.1195C31.2662 14.1357 31.4012 14.0568 31.4735 13.9293C31.5457 13.8018 31.5438 13.6451 31.4683 13.5195Z" fill="white"/>
<path d="M29.4406 9.7686C29.3836 9.67672 29.2927 9.61153 29.1876 9.58698L23.6423 8.29002C23.5373 8.26535 23.4267 8.2837 23.335 8.34043C23.2435 8.39739 23.1781 8.48832 23.1536 8.59343L22.7354 10.381C22.6842 10.5997 22.82 10.8185 23.0388 10.8695C23.2575 10.9208 23.4766 10.7849 23.5276 10.5661L23.8531 9.17476L28.6061 10.2865L27.8593 13.4798C27.808 13.6985 27.9439 13.9173 28.1627 13.9683C28.194 13.9755 28.2252 13.979 28.2559 13.979C28.4406 13.979 28.6078 13.8524 28.6513 13.665L29.4909 10.0757C29.5157 9.97072 29.4976 9.86013 29.4406 9.7686Z" fill="white"/>
<path d="M22.3834 10.7308L22.0128 7.59594C22.0001 7.4888 21.9454 7.39096 21.8606 7.32423C21.7757 7.25749 21.6686 7.22698 21.561 7.23961L14.7574 8.0438C14.5344 8.07025 14.3749 8.27237 14.4013 8.49558L15.0192 13.7241C15.0437 13.9311 15.2193 14.0833 15.4227 14.0833C15.4386 14.0833 15.4549 14.0822 15.4711 14.0804C15.694 14.054 15.8534 13.8518 15.8272 13.6286L15.2569 8.80377L21.2527 8.09516L21.5754 10.826C21.6019 11.0491 21.803 11.2076 22.0272 11.1824C22.2502 11.1561 22.4096 10.9539 22.3834 10.7308Z" fill="white"/>
<path d="M25.6023 13.5737L24.7949 10.2161C24.7696 10.1114 24.7037 10.0207 24.6118 9.96432C24.5199 9.90843 24.4097 9.89091 24.3042 9.91593L17.7512 11.4919C17.5328 11.5443 17.3984 11.7641 17.4508 11.9825L17.8543 13.6607C17.9067 13.8794 18.1265 14.014 18.3448 13.9612C18.5633 13.9087 18.6977 13.689 18.6453 13.4705L18.3367 12.1877L24.0988 10.8022L24.8111 13.7642C24.8558 13.9507 25.0226 14.0758 25.2062 14.0758C25.2378 14.0758 25.2698 14.0721 25.3018 14.0644C25.5203 14.0118 25.6547 13.7922 25.6023 13.5737Z" fill="white"/>
<path d="M31.5252 13.7077C31.514 13.4915 31.3355 13.3218 31.1188 13.3218H13.2205C13.0039 13.3218 12.8253 13.4914 12.8141 13.7077L12.0005 29.572C11.9948 29.6834 12.0351 29.7923 12.1118 29.8731C12.1887 29.9538 12.2953 29.9996 12.4068 29.9996H31.9322C32.0436 29.9996 32.1503 29.9539 32.2275 29.8731C32.3041 29.7923 32.3444 29.6835 32.3388 29.572L31.5252 13.7077ZM12.8349 29.186L13.6068 14.1353H30.7321L31.504 29.186H12.8349Z" fill="white"/>
<path d="M25.2184 14.9487C24.5454 14.9487 23.998 15.4961 23.998 16.1691C23.998 16.842 24.5454 17.3894 25.2184 17.3894C25.8914 17.3894 26.4387 16.842 26.4387 16.1691C26.4387 15.4961 25.8914 14.9487 25.2184 14.9487ZM25.2184 16.5759C24.994 16.5759 24.8116 16.3935 24.8116 16.1692C24.8116 15.9449 24.9941 15.7624 25.2184 15.7624C25.4427 15.7624 25.6251 15.9449 25.6251 16.1692C25.6251 16.3935 25.4427 16.5759 25.2184 16.5759Z" fill="white"/>
<path d="M19.1168 14.9487C18.4438 14.9487 17.8965 15.4961 17.8965 16.1691C17.8965 16.842 18.4438 17.3894 19.1168 17.3894C19.7898 17.3894 20.3372 16.842 20.3372 16.1691C20.3372 15.4961 19.7898 14.9487 19.1168 14.9487ZM19.1168 16.5759C18.8925 16.5759 18.7101 16.3935 18.7101 16.1692C18.7101 15.9449 18.8925 15.7624 19.1168 15.7624C19.3411 15.7624 19.5236 15.9449 19.5236 16.1692C19.5236 16.3935 19.3411 16.5759 19.1168 16.5759Z" fill="white"/>
<path d="M25.2194 16.1699H25.188C24.9635 16.1699 24.7813 16.3521 24.7813 16.5767C24.7813 16.6322 24.7922 16.6852 24.8126 16.7335V18.8139C24.8126 20.2718 23.6265 21.458 22.1685 21.458C20.7106 21.458 19.5244 20.2719 19.5244 18.8139V16.5768C19.5244 16.3523 19.3422 16.17 19.1177 16.17C18.8932 16.17 18.7109 16.3523 18.7109 16.5768V18.814C18.7109 20.7206 20.262 22.2716 22.1685 22.2716C24.0751 22.2716 25.6261 20.7206 25.6261 18.814V16.5768C25.6261 16.3523 25.4439 16.1699 25.2194 16.1699Z" fill="white"/>
</svg>
