<svg width="275" height="320" viewBox="0 0 275 320" fill="none" xmlns="http://www.w3.org/2000/svg">
<path d="M250.164 239.639L261.579 318.305H267.846L255.984 239.366L250.164 239.639Z" fill="#FFE5E1"/>
<path d="M267.846 318.695H261.579C261.385 318.695 261.22 318.553 261.192 318.361L249.777 239.697C249.762 239.589 249.793 239.478 249.863 239.393C249.933 239.309 250.036 239.256 250.146 239.251L255.966 238.976C256.162 238.963 256.34 239.111 256.37 239.309L268.232 318.247C268.25 318.359 268.217 318.473 268.142 318.56C268.066 318.644 267.96 318.695 267.846 318.695ZM261.916 317.915H267.393L255.649 239.772L250.611 240.01L261.916 317.915Z" fill="#FF725E"/>
<path d="M260.771 237.312L273.869 144.253C274.832 137.409 269.413 131.341 262.504 131.528L226.68 132.497C221.439 132.639 217.111 136.632 216.55 141.845L206.523 234.955L260.771 237.312Z" fill="#FFE5E1"/>
<path d="M260.771 237.702C260.765 237.702 260.758 237.702 260.753 237.702L206.503 235.343C206.395 235.337 206.295 235.288 206.225 235.206C206.155 235.124 206.122 235.017 206.133 234.911L216.159 141.801C216.74 136.421 221.257 132.252 226.667 132.105L262.491 131.136C265.894 131.047 269.155 132.45 271.427 134.992C273.698 137.535 274.728 140.929 274.253 144.305L261.155 237.364C261.131 237.558 260.965 237.702 260.771 237.702ZM206.953 234.58L260.433 236.906L273.481 144.197C273.924 141.049 272.964 137.883 270.846 135.511C268.729 133.14 265.693 131.838 262.514 131.916L226.69 132.885C221.668 133.021 217.474 136.889 216.936 141.885L206.953 234.58Z" fill="#FF725E"/>
<path d="M194.126 240.038H262.335C264.266 240.038 265.831 238.473 265.831 236.543V234.135C265.831 232.204 264.266 230.639 262.335 230.639H194.126C192.196 230.639 190.631 232.204 190.631 234.135V236.543C190.631 238.473 192.196 240.038 194.126 240.038Z" fill="#FFE5E1"/>
<path d="M262.335 240.428H194.126C191.984 240.428 190.24 238.684 190.24 236.542V234.134C190.24 231.992 191.984 230.249 194.126 230.249H262.335C264.477 230.249 266.22 231.992 266.22 234.134V236.542C266.222 238.684 264.478 240.428 262.335 240.428ZM194.126 231.027C192.412 231.027 191.02 232.421 191.02 234.133V236.541C191.02 238.253 192.414 239.646 194.126 239.646H262.335C264.047 239.646 265.44 238.253 265.44 236.541V234.133C265.44 232.421 264.047 231.027 262.335 231.027H194.126Z" fill="#FF725E"/>
<path d="M203.254 167.52C193.399 200.087 181.157 189.21 167.64 188.103L162.023 176.984C177.062 181.472 185.369 180.698 192.992 163.052L203.254 167.52Z" fill="#FFE5E1"/>
<path d="M183.789 191.113C180.958 191.113 178.054 190.466 175.104 189.807C172.666 189.263 170.145 188.7 167.608 188.492C167.473 188.479 167.352 188.401 167.291 188.278L161.674 177.159C161.605 177.021 161.624 176.853 161.723 176.732C161.823 176.613 161.986 176.564 162.134 176.608C177.187 181.102 185.164 180.189 192.634 162.897C192.676 162.802 192.753 162.727 192.849 162.689C192.945 162.65 193.054 162.652 193.148 162.694L203.409 167.162C203.591 167.24 203.684 167.443 203.626 167.632C197.808 186.86 191.041 191.113 183.789 191.113ZM167.889 187.734C170.405 187.96 172.88 188.513 175.274 189.046C185.814 191.396 194.921 193.43 202.778 167.741L193.192 163.568C185.72 180.614 177.335 181.824 162.776 177.613L167.889 187.734Z" fill="#FF725E"/>
<path d="M179.472 292.474C178.444 291.434 172.502 272.951 172.502 272.951L160.762 281.328L173.633 298.628L179.472 292.474Z" fill="#FFE5E1"/>
<path d="M173.633 299.016C173.626 299.016 173.617 299.016 173.61 299.016C173.495 299.009 173.39 298.951 173.32 298.859L160.448 281.559C160.385 281.475 160.359 281.37 160.376 281.266C160.392 281.162 160.45 281.07 160.536 281.008L172.276 272.631C172.377 272.559 172.507 272.538 172.626 272.578C172.744 272.617 172.835 272.711 172.874 272.83C175.156 279.93 179.041 291.465 179.75 292.2C179.895 292.35 179.898 292.591 179.755 292.742L173.916 298.895C173.841 298.972 173.739 299.016 173.633 299.016ZM161.31 281.414L173.668 298.023L178.977 292.429C177.656 290.075 173.505 277.336 172.293 273.577L161.31 281.414Z" fill="#FF725E"/>
<path d="M158.313 315.845L166.12 315.798C171.286 315.766 176.091 313.142 178.908 308.812L186.628 296.589C188.762 293.211 187.569 288.736 184.04 286.86C180.818 285.148 177.441 283.478 176.651 283.555C175.044 283.709 174.395 291.307 174.395 291.307L167.439 291.574C167.439 291.574 164.003 305.864 160.978 307.488C158.774 308.672 157.237 310.409 156.202 311.996C155.122 313.658 156.33 315.856 158.313 315.845Z" fill="#FFE5E1"/>
<path d="M158.296 316.235C157.224 316.235 156.278 315.674 155.763 314.729C155.247 313.785 155.29 312.683 155.878 311.785C157.207 309.746 158.863 308.186 160.795 307.147C163.149 305.883 166.116 295.412 167.06 291.485C167.101 291.315 167.249 291.193 167.424 291.186L174.037 290.93C174.24 288.764 174.921 283.327 176.613 283.166C176.917 283.137 177.72 283.06 184.223 286.515C186.002 287.461 187.318 289.119 187.836 291.065C188.359 293.036 188.048 295.071 186.958 296.797L179.238 309.02C176.339 313.477 171.436 316.156 166.123 316.188L158.316 316.235C158.309 316.235 158.302 316.235 158.296 316.235ZM167.749 291.953C167.158 294.359 164.105 306.254 161.164 307.833C159.347 308.808 157.787 310.281 156.53 312.21C156.103 312.865 156.072 313.668 156.448 314.355C156.824 315.044 157.515 315.453 158.298 315.453C158.303 315.453 158.307 315.453 158.312 315.453L166.12 315.406C171.17 315.376 175.83 312.83 178.582 308.597L186.299 296.377C187.271 294.839 187.549 293.022 187.082 291.263C186.614 289.5 185.47 288.057 183.858 287.202C178.017 284.098 176.895 283.922 176.688 283.941C175.921 284.015 175.085 287.825 174.784 291.338C174.767 291.534 174.608 291.686 174.41 291.695L167.749 291.953Z" fill="#FF725E"/>
<path d="M159.098 313.185C158.909 313.185 158.741 313.047 158.713 312.853C158.682 312.64 158.829 312.442 159.04 312.409L169.721 310.8C172.01 310.456 174.003 309.12 175.192 307.133L184.63 291.368C184.74 291.184 184.979 291.123 185.165 291.233C185.35 291.343 185.41 291.583 185.299 291.768L175.862 307.534C174.552 309.721 172.358 311.192 169.838 311.571L159.157 313.18C159.136 313.184 159.117 313.185 159.098 313.185Z" fill="#FF725E"/>
<path d="M172.279 301.329C172.246 301.329 172.211 301.326 172.176 301.315L166.226 299.694C166.017 299.639 165.895 299.423 165.951 299.215C166.007 299.007 166.222 298.885 166.43 298.941L172.381 300.562C172.589 300.618 172.711 300.833 172.655 301.041C172.608 301.214 172.451 301.329 172.279 301.329Z" fill="#FF725E"/>
<path d="M169.182 304.384C169.15 304.384 169.121 304.381 169.089 304.374L165.099 303.398C164.889 303.347 164.761 303.136 164.812 302.926C164.863 302.716 165.074 302.587 165.284 302.639L169.274 303.615C169.484 303.666 169.612 303.877 169.561 304.087C169.516 304.265 169.357 304.384 169.182 304.384Z" fill="#FF725E"/>
<path d="M139.407 288.947L133.007 295.868C130.803 298.25 129.384 301.252 128.938 304.466L128.217 309.672L104.855 303.983L113.099 300.292C118.24 297.989 122.775 294.525 126.351 290.173L131.116 282.468L139.407 288.947Z" fill="#FFE5E1"/>
<path d="M128.217 310.06C128.185 310.06 128.155 310.057 128.124 310.05L104.762 304.363C104.599 304.323 104.481 304.187 104.467 304.02C104.451 303.854 104.544 303.697 104.696 303.629L112.939 299.937C117.989 297.675 122.516 294.221 126.032 289.947L130.784 282.264C130.841 282.169 130.937 282.105 131.046 282.086C131.156 282.066 131.268 282.094 131.355 282.162L139.647 288.643C139.733 288.709 139.787 288.811 139.796 288.919C139.805 289.028 139.768 289.134 139.695 289.215L133.293 296.136C131.133 298.472 129.761 301.371 129.325 304.522L128.605 309.726C128.589 309.836 128.53 309.933 128.439 309.995C128.37 310.037 128.293 310.06 128.217 310.06ZM106.053 303.874L127.89 309.189L128.551 304.412C129.009 301.102 130.45 298.056 132.719 295.602L138.832 288.993L131.217 283.04L126.681 290.376C126.672 290.39 126.662 290.406 126.651 290.418C123.056 294.795 118.426 298.33 113.257 300.646L106.053 303.874Z" fill="#FF725E"/>
<path d="M130.082 300.5C130.082 300.5 130.742 306.327 129.624 311.477C129.028 314.22 126.555 316.151 123.749 316.151H90.2923C87.9002 316.151 86.8178 313.166 88.6503 311.63C94.5992 306.647 105.542 299.037 118.996 296.804L122.749 302.057L130.082 300.5Z" fill="#FFE5E1"/>
<path d="M123.748 316.539H90.2929C89.0374 316.539 87.9498 315.776 87.5214 314.6C87.093 313.421 87.4374 312.138 88.4009 311.33C93.8724 306.745 105.116 298.712 118.932 296.417C119.079 296.395 119.226 296.454 119.313 296.575L122.917 301.62L130.003 300.119C130.109 300.097 130.223 300.121 130.312 300.184C130.401 300.249 130.459 300.347 130.471 300.457C130.478 300.516 131.125 306.407 130.006 311.559C129.378 314.444 126.747 316.539 123.748 316.539ZM118.82 297.227C105.296 299.544 94.2798 307.422 88.901 311.928C88.0407 312.648 88.004 313.643 88.254 314.332C88.5041 315.021 89.1721 315.759 90.2929 315.759H123.748C126.383 315.759 128.693 313.923 129.242 311.393C130.162 307.157 129.858 302.401 129.735 300.973L122.828 302.436C122.676 302.469 122.52 302.406 122.429 302.281L118.82 297.227Z" fill="#FF725E"/>
<path d="M126.556 311.94H91.8841C91.669 311.94 91.4941 311.765 91.4941 311.55C91.4941 311.335 91.669 311.16 91.8841 311.16H126.556C126.771 311.16 126.946 311.335 126.946 311.55C126.944 311.765 126.771 311.94 126.556 311.94Z" fill="#FF725E"/>
<path d="M111.23 305.78C111.076 305.78 110.931 305.689 110.87 305.538L109.034 301.086C108.951 300.887 109.046 300.66 109.245 300.578C109.444 300.495 109.672 300.59 109.754 300.789L111.59 305.241C111.672 305.44 111.578 305.668 111.378 305.75C111.33 305.771 111.281 305.78 111.23 305.78Z" fill="#FF725E"/>
<path d="M105.196 306.951C105.032 306.951 104.88 306.848 104.826 306.684L103.497 302.667C103.428 302.463 103.54 302.242 103.745 302.174C103.949 302.104 104.17 302.218 104.238 302.422L105.567 306.439C105.635 306.643 105.523 306.864 105.319 306.932C105.277 306.944 105.236 306.951 105.196 306.951Z" fill="#FF725E"/>
<path d="M211.563 193.106C211.563 193.106 149.264 185.855 130.739 201.89C112.214 217.926 159.984 286.886 159.984 286.886L175.09 275.682L160.76 226.942L218.349 210.587L211.563 193.106Z" fill="#FFE5E1"/>
<path d="M159.982 287.275C159.961 287.275 159.94 287.274 159.919 287.27C159.814 287.253 159.721 287.195 159.662 287.107C159.543 286.934 147.594 269.625 138.064 250.577C125.2 224.858 122.648 208.379 130.484 201.596C138.238 194.883 154.257 191.351 178.094 191.095C195.804 190.905 211.453 192.702 211.608 192.72C211.752 192.737 211.874 192.832 211.927 192.966L218.711 210.449C218.752 210.551 218.746 210.666 218.697 210.764C218.648 210.862 218.561 210.935 218.454 210.965L161.244 227.211L175.462 275.573C175.508 275.731 175.452 275.899 175.321 275.997L160.214 287.198C160.146 287.249 160.066 287.275 159.982 287.275ZM180.874 191.891C162.386 191.891 140.607 193.863 130.995 202.185C113.594 217.248 156.53 281.127 160.076 286.331L174.639 275.531L160.386 227.052C160.356 226.953 160.368 226.846 160.419 226.753C160.47 226.662 160.554 226.596 160.653 226.566L217.83 210.328L211.285 193.466C209.379 193.258 196.266 191.891 180.874 191.891Z" fill="#FF725E"/>
<path d="M246.063 224.166C237.014 227.039 220.822 230.751 198.191 230.442C191.761 230.354 185.824 233.907 182.902 239.636C176.2 252.782 161.69 276.452 138.057 291.794L126.77 285.712L155.578 220.863C158.208 214.942 163.127 210.339 169.211 208.11L226.307 187.173C226.307 187.173 249.246 177.888 257.805 198.083C260.986 205.588 253.836 221.698 246.063 224.166Z" fill="#FFE5E1"/>
<path d="M138.057 292.182C137.994 292.182 137.929 292.166 137.871 292.135L126.584 286.053C126.404 285.957 126.33 285.738 126.412 285.551L155.221 220.701C157.879 214.719 162.929 209.994 169.076 207.741L226.172 186.804C226.217 186.785 232.046 184.463 238.857 184.662C245.18 184.851 253.661 187.306 258.163 197.929C259.716 201.592 258.985 207.555 256.254 213.488C253.605 219.245 249.838 223.375 246.18 224.536C236.604 227.575 220.505 231.134 198.183 230.831C191.841 230.74 186.118 234.187 183.248 239.812C176.67 252.712 162.079 276.663 138.268 292.119C138.205 292.161 138.132 292.182 138.057 292.182ZM127.273 285.539L138.039 291.339C161.583 275.977 176.032 252.254 182.556 239.457C185.56 233.564 191.563 229.973 198.196 230.05C220.405 230.349 236.424 226.813 245.946 223.791C249.347 222.712 253.026 218.638 255.546 213.161C258.188 207.421 258.915 201.701 257.446 198.231C253.965 190.016 247.712 185.713 238.858 185.44C232.203 185.234 226.509 187.507 226.454 187.53L169.347 208.471C163.396 210.654 158.509 215.226 155.936 221.018L127.273 285.539Z" fill="#FF725E"/>
<path d="M263.843 130.834C269.435 137.372 271.558 146.778 271.012 155.766C270.608 162.433 268.886 168.924 266.712 175.214C264.965 180.269 261.003 185.918 260.707 191.288C260.237 199.845 258.999 210.827 256.39 217.197C253.888 223.303 231.488 211.876 218.625 201.328C214.73 198.135 203.004 193.038 194.084 192.424L201.628 170.29C201.768 168.592 200.537 167.088 198.844 166.889L189.645 165.806C189.645 165.806 192.769 137.405 213.517 125.588C225.425 118.805 239.606 119.545 252.758 123.591C257.387 125.016 261.048 127.567 263.843 130.834Z" fill="#FF725E"/>
<path d="M240.968 104.511L244.252 120.489C244.631 122.127 245.985 123.369 247.662 123.617L249.667 123.914C250.724 124.072 251.044 125.416 250.176 126.035C246.109 128.928 236.619 133.859 225.078 127.697C224.078 127.099 224.244 125.614 225.353 125.243L228.039 124.344C229.616 123.816 230.723 122.402 230.845 120.756L229.595 102.822L240.968 104.511Z" fill="#FFE5E1"/>
<path d="M236.267 131.021C232.827 131.021 228.982 130.224 224.897 128.041C224.287 127.678 223.965 127.032 224.04 126.347C224.115 125.66 224.572 125.095 225.231 124.873L227.917 123.974C229.34 123.497 230.335 122.236 230.456 120.755L229.207 102.85C229.199 102.733 229.244 102.618 229.331 102.537C229.419 102.457 229.536 102.422 229.653 102.438L241.025 104.125C241.187 104.15 241.317 104.272 241.35 104.433L244.634 120.41C244.978 121.893 246.19 123.005 247.72 123.233L249.726 123.532C250.375 123.628 250.871 124.081 251.023 124.712C251.175 125.345 250.938 125.974 250.402 126.354C247.974 128.083 242.868 131.021 236.267 131.021ZM230.019 103.281L231.236 120.73C231.237 120.749 231.237 120.767 231.236 120.786C231.101 122.593 229.895 124.135 228.163 124.715L225.477 125.614C225.103 125.74 224.855 126.046 224.813 126.433C224.771 126.815 224.946 127.163 225.28 127.363C236.391 133.294 245.506 128.879 249.951 125.717C250.273 125.488 250.326 125.14 250.266 124.892C250.189 124.57 249.944 124.35 249.612 124.301L247.605 124.004C245.756 123.729 244.291 122.384 243.871 120.576L240.64 104.856L230.019 103.281Z" fill="#FF725E"/>
<path d="M217.989 87.0359C221.463 85.8416 218.027 90.6853 230.033 83.2449C234.814 80.2827 233.857 87.0272 235.101 86.2613C239.689 83.4355 240.953 82.7133 243.562 82.6626C245.29 82.6293 249.581 84.8256 249.648 87.1268C249.864 94.639 246.196 93.6667 245.762 100.394C245.458 105.119 244.603 106.771 243.036 107.887C241.452 109.016 239.499 107.042 237.675 108.147C235.314 109.576 237.042 113.818 235.057 116.336C233.807 117.924 230.301 119.482 223.658 118.307C222.581 118.116 221.795 117.186 221.795 116.096C221.794 114.699 221.801 112.935 221.951 111.249C222.663 103.214 224.819 100.836 223.346 99.2204C221.091 96.7443 216.039 99.9461 214.465 97.8337C212.832 95.6374 213.232 88.6691 217.989 87.0359Z" fill="#FF725E"/>
<path d="M233.8 96.0884L233.31 98.2392C233.08 99.2517 232.919 100.278 232.831 101.312C232.665 103.251 232.249 106.57 232.037 108.439C231.357 114.447 223 110.403 223 110.403L222.119 109.049L221.117 108.939C220.923 108.918 220.732 108.857 220.575 108.741C220.183 108.455 220.045 107.965 220.192 107.537C220.989 105.19 222.567 99.9791 222.471 95.7282C222.471 95.7264 227.814 92.6401 233.8 96.0884Z" fill="#FFE5E1"/>
<path d="M228.219 112.122C225.699 112.122 222.981 110.824 222.829 110.752C222.765 110.721 222.71 110.674 222.672 110.614L221.892 109.415L221.074 109.326C220.796 109.294 220.544 109.201 220.344 109.055C219.827 108.675 219.617 108.014 219.822 107.409C220.533 105.318 222.177 99.9914 222.079 95.7352C222.076 95.5936 222.151 95.4607 222.273 95.389C222.499 95.2578 227.881 92.2292 233.993 95.7509C234.141 95.8366 234.216 96.008 234.178 96.1759L233.688 98.3249C233.463 99.3164 233.304 100.332 233.216 101.345C233.095 102.758 232.838 104.93 232.632 106.675C232.553 107.348 232.48 107.969 232.42 108.481C232.253 109.962 231.63 111.011 230.567 111.595C229.878 111.978 229.06 112.122 228.219 112.122ZM223.266 110.095C223.94 110.401 227.972 112.137 230.196 110.913C231.036 110.45 231.509 109.626 231.649 108.395C231.707 107.881 231.78 107.259 231.861 106.585C232.066 104.846 232.323 102.681 232.441 101.28C232.532 100.233 232.695 99.18 232.929 98.1536L233.354 96.2878C228.362 93.5599 223.849 95.4781 222.864 95.9625C222.899 100.135 221.444 105.066 220.561 107.663C220.465 107.942 220.565 108.25 220.806 108.427C220.895 108.491 221.018 108.535 221.161 108.551L222.163 108.661C222.28 108.673 222.383 108.738 222.448 108.836L223.266 110.095Z" fill="#FF725E"/>
<path d="M234.188 103.002C234.188 103.002 235.359 97.8318 237.606 98.8495C239.853 99.8689 238.419 105.529 234.188 103.002Z" fill="#FFE5E1"/>
<path d="M184.465 181.095L162.058 146.479C161.666 145.872 161 145.498 160.28 145.477L140.303 144.879L127.619 134.856L123.957 138.544L146.46 167.804L163.667 181.476L184.465 181.095Z" fill="#FFE5E1"/>
<path d="M163.666 181.864C163.579 181.864 163.493 181.835 163.423 181.781L146.217 168.108C146.192 168.089 146.169 168.066 146.15 168.04L123.647 138.78C123.528 138.626 123.542 138.406 123.68 138.268L127.342 134.58C127.482 134.44 127.704 134.426 127.859 134.548L140.443 144.493L160.29 145.085C161.139 145.11 161.923 145.552 162.384 146.266L184.791 180.882C184.868 181.001 184.875 181.151 184.809 181.277C184.743 181.403 184.613 181.482 184.471 181.483L163.673 181.863C163.67 181.864 163.668 181.864 163.666 181.864ZM146.739 167.526L163.799 181.081L183.756 180.717L161.731 146.691C161.407 146.192 160.861 145.885 160.267 145.867L140.291 145.269C140.207 145.266 140.126 145.238 140.06 145.185L127.648 135.377L124.472 138.575L146.739 167.526Z" fill="#FF725E"/>
<path d="M181.664 184.456L159.068 149.546C158.795 149.123 158.332 148.863 157.828 148.847L137.502 148.238L123.97 137.544C123.253 136.977 122.293 137.846 122.786 138.617L143.659 171.161L160.866 184.834L181.664 184.456Z" fill="#FFE5E1"/>
<path d="M160.866 185.223C160.779 185.223 160.693 185.194 160.623 185.14L143.417 171.467C143.383 171.441 143.354 171.408 143.331 171.373L122.457 138.829C122.134 138.325 122.218 137.694 122.662 137.292C123.104 136.891 123.743 136.869 124.211 137.239L137.643 147.853L157.839 148.457C158.471 148.476 159.053 148.803 159.396 149.335L181.991 184.244C182.068 184.363 182.075 184.514 182.009 184.639C181.942 184.764 181.813 184.844 181.671 184.846L160.873 185.223C160.87 185.223 160.868 185.223 160.866 185.223ZM143.952 170.897L160.997 184.442L180.954 184.078L158.74 149.758C158.535 149.443 158.191 149.249 157.817 149.237L137.49 148.628C137.406 148.625 137.326 148.597 137.26 148.544L123.727 137.849C123.521 137.687 123.313 137.753 123.185 137.867C123.057 137.982 122.972 138.185 123.113 138.406L143.952 170.897Z" fill="#FF725E"/>
<path d="M157.748 179.736C157.62 179.736 157.495 179.673 157.421 179.558L139.025 151.137C138.908 150.957 138.961 150.716 139.141 150.599C139.321 150.482 139.564 150.534 139.679 150.714L158.075 179.135C158.192 179.315 158.14 179.556 157.96 179.673C157.895 179.715 157.821 179.736 157.748 179.736Z" fill="#FF725E"/>
<path d="M199.739 179.759C194.907 177.912 190.056 176.12 185.185 174.382C181.06 172.909 176.412 174.342 178.451 179.572C179.846 183.151 182.838 185.996 186.381 187.425C190.808 189.21 195.433 187.308 199.927 188.894C203.103 190.015 211.879 195.988 211.879 195.988C225.316 201.993 237.402 203.936 244.488 198.992C251.294 194.243 256.468 189.516 263.892 171.764C264.879 169.407 243.514 157.333 242.821 159.812C240.275 168.924 238.215 173.597 236.764 178.388C234.856 184.685 233.073 186.449 224.455 184.972C214.653 183.293 207.892 182.875 199.739 179.759Z" fill="#FFE5E1"/>
<path d="M234.129 202.215C226.788 202.215 218.457 199.356 211.72 196.346C211.699 196.338 211.678 196.326 211.66 196.313C211.573 196.254 202.889 190.356 199.798 189.265C197.68 188.516 195.466 188.57 193.326 188.621C190.993 188.677 188.584 188.736 186.235 187.789C182.465 186.267 179.496 183.324 178.088 179.715C177.048 177.045 177.751 175.534 178.525 174.737C179.882 173.34 182.612 173.049 185.317 174.015C190.184 175.751 195.083 177.563 199.878 179.395C206.004 181.737 211.218 182.527 217.821 183.527C219.938 183.847 222.128 184.179 224.522 184.59C232.808 186.01 234.499 184.522 236.389 178.278C236.937 176.473 237.558 174.718 238.276 172.684C239.485 169.267 240.856 165.394 242.443 159.709C242.492 159.536 242.644 159.228 243.125 159.127C246.044 158.494 260.914 166.983 263.729 170.379C264.249 171.007 264.42 171.509 264.249 171.915C256.705 189.952 251.391 194.647 244.708 199.312C241.739 201.388 238.075 202.215 234.129 202.215ZM212.071 195.647C226.438 202.061 237.871 203.136 244.265 198.672C250.84 194.084 256.07 189.457 263.534 171.614C263.537 171.607 263.724 170.783 259.379 167.781C252.816 163.248 243.996 159.164 243.193 159.924C241.602 165.628 240.168 169.683 239.014 172.943C238.297 174.968 237.68 176.715 237.138 178.502C235.151 185.056 233.135 186.858 224.39 185.358C222.003 184.949 219.818 184.618 217.704 184.298C211.318 183.331 205.802 182.496 199.598 180.124C194.807 178.294 189.914 176.484 185.053 174.749C182.63 173.885 180.23 174.097 179.083 175.281C178.202 176.188 178.109 177.622 178.814 179.432C180.124 182.793 183.007 185.647 186.527 187.065C188.727 187.951 190.951 187.897 193.308 187.841C195.52 187.789 197.806 187.733 200.06 188.528C203.185 189.632 211.423 195.208 212.071 195.647Z" fill="#FF725E"/>
<path d="M241.055 156.66C241.011 156.66 240.966 156.653 240.92 156.635C240.717 156.562 240.614 156.336 240.688 156.135L245.629 142.627C245.703 142.424 245.927 142.321 246.129 142.394C246.332 142.468 246.435 142.692 246.362 142.894L241.42 156.403C241.363 156.562 241.214 156.66 241.055 156.66Z" fill="#FFE5E1"/>
<path d="M43.1393 193.108L24.5149 310.805H18.332L37.2243 192.697L43.1393 193.108Z" fill="#FFE5E1"/>
<path d="M24.5157 311.195H18.3329C18.2346 311.195 18.1409 311.142 18.0769 311.053C18.0144 310.964 17.9876 310.847 18.0054 310.731L36.8977 192.623C36.929 192.431 37.0764 192.3 37.2431 192.307L43.1565 192.718C43.2517 192.725 43.3396 192.779 43.3976 192.866C43.4556 192.954 43.4795 193.068 43.4631 193.178L24.8387 310.877C24.8119 311.062 24.675 311.195 24.5157 311.195ZM18.7333 310.415H24.2404L42.7457 193.47L37.4991 193.106L18.7333 310.415Z" fill="#FF725E"/>
<path d="M197.047 193.346L215.671 311.045H221.853L202.96 192.937L197.047 193.346Z" fill="#FFE5E1"/>
<path d="M221.852 311.435H215.669C215.51 311.435 215.371 311.3 215.343 311.116L196.719 193.419C196.701 193.309 196.725 193.195 196.784 193.108C196.844 193.021 196.932 192.966 197.025 192.959L202.939 192.548C203.108 192.538 203.254 192.673 203.284 192.865L222.176 310.973C222.194 311.087 222.169 311.204 222.105 311.295C222.045 311.382 221.952 311.435 221.852 311.435ZM215.946 310.655H221.453L202.689 193.346L197.442 193.71L215.946 310.655Z" fill="#FF725E"/>
<path d="M216.443 185.384H25.7652C24.3825 185.384 23.2617 187.29 23.2617 189.64C23.2617 191.992 24.3825 193.898 25.7652 193.898H216.443C217.826 193.898 218.947 191.992 218.947 189.64C218.945 187.29 217.824 185.384 216.443 185.384Z" fill="#FFE5E1"/>
<path d="M216.442 194.288H25.7651C24.2023 194.288 22.9297 192.204 22.9297 189.642C22.9297 187.08 24.2008 184.994 25.7651 184.994H216.443C218.006 184.994 219.278 187.079 219.278 189.642C219.277 192.202 218.006 194.288 216.442 194.288ZM25.7651 185.774C24.5684 185.774 23.5935 187.509 23.5935 189.642C23.5935 191.774 24.5669 193.508 25.7651 193.508H216.443C217.64 193.508 218.615 191.774 218.615 189.642C218.615 187.51 217.641 185.774 216.443 185.774H25.7651Z" fill="#FF725E"/>
<path d="M23.5437 94.8608C23.493 94.8608 23.4423 94.8503 23.3916 94.8294C23.194 94.7454 23.1013 94.5164 23.1853 94.3188L24.3656 91.5332C24.4495 91.3356 24.6786 91.2429 24.8762 91.3269C25.0738 91.4108 25.1665 91.6399 25.0825 91.8375L23.9022 94.623C23.8392 94.7717 23.6959 94.8608 23.5437 94.8608Z" fill="#FF725E"/>
<path d="M20.7937 101.348C20.743 101.348 20.6923 101.338 20.6416 101.317C20.444 101.233 20.3513 101.004 20.4353 100.806L21.6156 98.0205C21.6995 97.8229 21.9286 97.7302 22.1262 97.8142C22.3238 97.8981 22.4165 98.1272 22.3325 98.3248L21.1522 101.11C21.0892 101.259 20.9459 101.348 20.7937 101.348Z" fill="#FF725E"/>
<path d="M20.9074 95.9275C20.8567 95.9275 20.806 95.917 20.7553 95.896L17.9697 94.7157C17.7721 94.6317 17.6794 94.4027 17.7634 94.2051C17.8473 94.0075 18.0764 93.9148 18.274 93.9987L21.0596 95.1791C21.2571 95.263 21.3498 95.4921 21.2659 95.6897C21.2047 95.8383 21.0596 95.9275 20.9074 95.9275Z" fill="#FF725E"/>
<path d="M27.3957 98.678C27.345 98.678 27.2943 98.6675 27.2436 98.6465L24.458 97.4662C24.2604 97.3822 24.1677 97.1532 24.2517 96.9556C24.3356 96.758 24.5647 96.6653 24.7623 96.7492L27.5478 97.9295C27.7454 98.0135 27.8381 98.2426 27.7542 98.4402C27.693 98.5888 27.5478 98.678 27.3957 98.678Z" fill="#FF725E"/>
<path d="M135.62 5.7645C135.405 5.7645 135.23 5.58964 135.23 5.37455V2.34942C135.23 2.13434 135.405 1.95947 135.62 1.95947C135.836 1.95947 136.01 2.13434 136.01 2.34942V5.37455C136.01 5.58964 135.836 5.7645 135.62 5.7645Z" fill="#FF725E"/>
<path d="M135.62 12.8114C135.405 12.8114 135.23 12.6365 135.23 12.4214V9.39629C135.23 9.18121 135.405 9.00635 135.62 9.00635C135.836 9.00635 136.01 9.18121 136.01 9.39629V12.4214C136.01 12.6365 135.836 12.8114 135.62 12.8114Z" fill="#FF725E"/>
<path d="M133.61 7.7755H130.585C130.37 7.7755 130.195 7.60063 130.195 7.38555C130.195 7.17047 130.37 6.99561 130.585 6.99561H133.61C133.825 6.99561 134 7.17047 134 7.38555C134 7.60063 133.825 7.7755 133.61 7.7755Z" fill="#FF725E"/>
<path d="M140.657 7.7755H137.632C137.417 7.7755 137.242 7.60063 137.242 7.38555C137.242 7.17047 137.417 6.99561 137.632 6.99561H140.657C140.872 6.99561 141.047 7.17047 141.047 7.38555C141.047 7.60063 140.872 7.7755 140.657 7.7755Z" fill="#FF725E"/>
<path d="M25.4126 77.6875C24.9317 77.6875 24.4509 77.5983 23.9875 77.4182C22.982 77.0265 22.1899 76.2589 21.7562 75.2569C20.8732 73.2075 21.7895 70.8066 23.7986 69.9043C24.7656 69.4689 25.8428 69.441 26.8325 69.8257C27.838 70.2156 28.6301 70.985 29.0638 71.987C29.9468 74.0364 29.0305 76.4372 27.0214 77.3395C26.5055 77.5721 25.9599 77.6875 25.4126 77.6875ZM25.4109 70.3362C24.972 70.3362 24.5348 70.4289 24.1204 70.6143C22.4959 71.3435 21.758 73.2879 22.4732 74.9474C22.8229 75.757 23.4611 76.376 24.2708 76.6925C25.0629 77.0003 25.9267 76.9776 26.7031 76.6296C28.3276 75.9004 29.0655 73.9559 28.3503 72.2965C28.0006 71.4869 27.3624 70.8661 26.5527 70.5513C26.182 70.4079 25.7956 70.3362 25.4109 70.3362Z" fill="#FF725E"/>
<path d="M23.6777 306.918C23.6777 306.918 29.9553 304.956 40.239 285.002C48.9193 268.159 41.1816 251.881 39.62 240.994C39.4609 239.882 37.9413 239.721 37.5636 240.779C34.9617 248.094 30.7754 261.397 31.4522 269.588C32.4261 281.391 23.6777 306.918 23.6777 306.918Z" fill="#FFE5E1"/>
<path d="M23.6771 307.308C23.574 307.308 23.4725 307.266 23.3973 307.189C23.2942 307.084 23.261 306.93 23.3082 306.79C23.3956 306.537 32.0199 281.204 31.0616 269.618C30.3779 261.338 34.6113 247.912 37.1941 240.646C37.4231 240.003 38.0317 239.613 38.7031 239.683C39.3816 239.751 39.9045 240.255 40.0024 240.937C40.3538 243.388 41.0306 246.155 41.7475 249.085C44.2481 259.306 47.3606 272.027 40.5829 285.179C30.3429 305.049 24.0548 307.206 23.7925 307.287C23.7541 307.303 23.7156 307.308 23.6771 307.308ZM38.5563 240.458C38.3202 240.458 38.0491 240.575 37.9302 240.91C35.3667 248.117 31.1665 261.422 31.8398 269.557C32.7176 280.18 25.9294 301.387 24.3556 306.126C26.3403 304.884 31.9167 300.298 39.8922 284.826C46.537 271.933 43.4629 259.371 40.9921 249.274C40.2699 246.324 39.5897 243.54 39.233 241.05C39.177 240.655 38.8832 240.487 38.6279 240.461C38.6035 240.459 38.579 240.458 38.5563 240.458Z" fill="#FF725E"/>
<path d="M30.4819 296.008L32.7184 278.327C33.6889 270.653 32.4334 262.857 29.1022 255.889C24.2498 245.735 23.8686 233.986 28.0531 223.534L31.6448 214.562C32.0994 213.429 30.6533 212.507 29.8349 213.408L24.7919 218.956C13.3506 231.545 9.48607 249.365 14.6743 265.625L23.9683 294.754L30.4819 296.008Z" fill="#FFE5E1"/>
<path d="M30.4827 296.398C30.4582 296.398 30.4338 296.396 30.4093 296.391L23.8939 295.139C23.754 295.113 23.6403 295.01 23.5966 294.875L14.3026 265.746C9.08294 249.388 12.9929 231.359 24.5024 218.696L29.5455 213.147C30.119 212.518 30.8972 212.563 31.4165 212.888C31.9411 213.217 32.3275 213.908 32.0075 214.709L28.4158 223.681C24.2821 234.01 24.6598 245.689 29.4545 255.723C32.8259 262.777 34.0867 270.611 33.1057 278.378L30.8692 296.059C30.8552 296.165 30.7992 296.263 30.7118 296.326C30.6453 296.373 30.5649 296.398 30.4827 296.398ZM24.2681 294.417L30.1487 295.548L32.3328 278.28C33.2963 270.662 32.0582 262.976 28.7533 256.059C23.8641 245.829 23.4777 233.921 27.6937 223.391L31.2853 214.419C31.4497 214.009 31.2364 213.695 31.0056 213.549C30.7695 213.403 30.4145 213.355 30.126 213.672L25.0829 219.22C13.7588 231.678 9.91355 249.416 15.0475 265.51L24.2681 294.417Z" fill="#FF725E"/>
<path d="M27.5994 296.588L19.8425 276.776C17.6357 271.14 12.9931 266.834 7.24181 265.094L1.95219 263.492C0.668696 263.104 -0.193381 264.8 0.86804 265.625L4.11875 268.154C7.6405 270.894 9.74411 275.096 9.83678 279.583C9.89099 282.22 10.6412 284.794 12.0121 287.041L17.2685 295.662L27.5994 296.588Z" fill="#FFE5E1"/>
<path d="M27.5985 296.977C27.5863 296.977 27.5758 296.977 27.5635 296.975L17.2309 296.048C17.1085 296.038 16.9965 295.968 16.9319 295.863L11.6755 287.242C10.2713 284.939 9.50016 282.293 9.4442 279.588C9.35327 275.196 7.32486 271.139 3.87655 268.458L0.629336 265.931C-0.101593 265.363 -0.119079 264.508 0.188681 263.913C0.492943 263.326 1.19065 262.85 2.06496 263.116L7.35458 264.718C13.2562 266.505 17.9408 270.849 20.2053 276.633L27.9622 296.445C28.0112 296.571 27.992 296.713 27.9115 296.821C27.8363 296.921 27.7209 296.977 27.5985 296.977ZM17.4967 295.289L27.0057 296.143L19.4796 276.918C17.3026 271.357 12.8016 267.183 7.12901 265.466L1.83939 263.865C1.36376 263.719 1.02628 263.994 0.88114 264.274C0.734254 264.559 0.704527 265.003 1.10671 265.318L4.35742 267.846C7.99109 270.672 10.1297 274.947 10.2258 279.576C10.2783 282.141 11.011 284.654 12.3434 286.84L17.4967 295.289Z" fill="#FF725E"/>
<path d="M26.452 287.669C26.4397 287.669 26.4275 287.669 26.4152 287.667C26.2002 287.646 26.0428 287.457 26.0638 287.242C27.2441 274.61 24.7068 266.475 22.4668 259.297C21.4299 255.973 20.4506 252.831 19.8684 249.452C17.1177 233.489 26.4939 219.638 26.5901 219.5C26.7125 219.323 26.9556 219.278 27.1322 219.4C27.3088 219.523 27.3543 219.766 27.2318 219.942C27.1392 220.079 17.9414 233.678 20.636 249.321C21.2096 252.651 22.1818 255.767 23.2117 259.066C25.4727 266.314 28.0345 274.528 26.8402 287.316C26.8209 287.517 26.6513 287.669 26.452 287.669Z" fill="#FF725E"/>
<path d="M36.7845 279.209C36.7635 279.209 36.7408 279.207 36.7198 279.204C36.5082 279.167 36.3648 278.966 36.3998 278.754C38.5121 266.269 37.7795 247.045 37.7725 246.852C37.7637 246.637 37.9316 246.455 38.1467 246.447C38.3652 246.433 38.5436 246.606 38.5524 246.821C38.5593 247.015 39.2955 266.32 37.1692 278.884C37.136 279.074 36.9698 279.209 36.7845 279.209Z" fill="#FF725E"/>
<path d="M18.2633 289.561C18.0499 289.561 17.8751 289.389 17.8733 289.174C17.7247 273.671 5.34611 266.869 5.22195 266.802C5.03135 266.701 4.95966 266.465 5.06283 266.274C5.16425 266.085 5.40206 266.014 5.59091 266.115C5.72031 266.185 18.5011 273.207 18.655 289.167C18.6567 289.382 18.4836 289.559 18.2685 289.561C18.265 289.561 18.2633 289.561 18.2633 289.561Z" fill="#FF725E"/>
<path d="M19.9467 260.437C19.8313 260.437 19.7159 260.385 19.6389 260.287C16.2606 255.947 14.8075 250.262 14.7463 250.023C14.6938 249.814 14.8197 249.603 15.0295 249.55C15.2394 249.5 15.451 249.624 15.5034 249.834C15.5174 249.891 16.9793 255.601 20.2545 259.81C20.3874 259.979 20.3559 260.224 20.1863 260.357C20.1146 260.411 20.0289 260.437 19.9467 260.437Z" fill="#FF725E"/>
<path d="M25.7641 319.61C17.6487 319.61 11.0703 313.031 11.0703 304.916V291.799H40.4596V304.916C40.4579 313.031 33.8795 319.61 25.7641 319.61Z" fill="#FFE5E1"/>
<path d="M25.7634 319.999C17.4452 319.999 10.6797 313.232 10.6797 304.916V291.799C10.6797 291.584 10.8546 291.409 11.0696 291.409H40.4589C40.674 291.409 40.8489 291.584 40.8489 291.799V304.916C40.8471 313.232 34.0799 319.999 25.7634 319.999ZM11.4578 292.187V304.914C11.4578 312.802 17.8753 319.218 25.7617 319.218C33.648 319.218 40.0655 312.8 40.0655 304.914V292.187H11.4578Z" fill="#FF725E"/>
<path d="M37.5741 297.097H13.9466C13.7315 297.097 13.5566 296.922 13.5566 296.707C13.5566 296.492 13.7315 296.317 13.9466 296.317H37.5741C37.7892 296.317 37.9641 296.492 37.9641 296.707C37.9641 296.922 37.7892 297.097 37.5741 297.097Z" fill="#FF725E"/>
<path d="M175.364 8.55528C174.656 6.47615 174.881 3.76927 175.579 0.744133L177.303 2.59069L179.674 0.38916C178.646 3.95113 178.045 7.1284 179.316 8.62697L175.364 8.55528Z" fill="#FFE5E1"/>
<path d="M179.313 9.01705C179.312 9.01705 179.308 9.01705 179.306 9.01705L175.356 8.9471C175.192 8.94361 175.047 8.83869 174.994 8.68306C174.333 6.74382 174.402 4.11738 175.199 0.658579C175.232 0.518689 175.339 0.406776 175.479 0.370055C175.619 0.331585 175.767 0.375301 175.865 0.480219L177.323 2.04175L179.408 0.104263C179.535 -0.0146445 179.728 -0.0338795 179.878 0.0570495C180.027 0.147978 180.097 0.328088 180.048 0.497705C179.154 3.59279 178.402 6.95016 179.611 8.3753C179.71 8.49246 179.731 8.65508 179.665 8.79497C179.602 8.92962 179.464 9.01705 179.313 9.01705ZM175.65 8.17071L178.602 8.22317C177.869 6.65115 178.252 4.19956 178.93 1.60984L177.568 2.87585C177.411 3.02098 177.164 3.01399 177.017 2.85661L175.8 1.55388C175.218 4.35869 175.169 6.53224 175.65 8.17071Z" fill="#FF725E"/>
<path d="M180.58 51.6399H172.625C171.251 51.6399 170.135 50.3634 170.123 48.7808L169.82 9.71637C169.808 8.11287 170.933 6.80664 172.323 6.80664H181.267C182.669 6.80664 183.797 8.13385 183.769 9.74959L183.082 48.8158C183.054 50.3843 181.942 51.6399 180.58 51.6399Z" fill="#FF725E"/>
<path d="M180.328 43.1733H172.699C172.106 43.1733 171.625 42.6924 171.625 42.0996V41.8583C171.625 41.2655 172.106 40.7847 172.699 40.7847H180.328C180.921 40.7847 181.402 41.2655 181.402 41.8583V42.0996C181.402 42.6924 180.921 43.1733 180.328 43.1733Z" fill="#FFE5E1"/>
<path d="M179.397 49.1029H173.824C172.663 49.1029 171.723 48.1621 171.723 47.001V46.5271C171.723 45.3661 172.663 44.4253 173.824 44.4253H179.397C180.558 44.4253 181.499 45.3661 181.499 46.5271V47.001C181.499 48.1621 180.558 49.1029 179.397 49.1029Z" fill="#FFE5E1"/>
<path d="M206.457 51.7536H198.502C197.128 51.7536 196.012 50.4771 196 48.8946L195.697 9.83014C195.685 8.22664 196.809 6.92041 198.2 6.92041H207.144C208.546 6.92041 209.674 8.24762 209.646 9.86336L208.959 48.9278C208.931 50.4964 207.819 51.7536 206.457 51.7536Z" fill="#FF725E"/>
<path d="M204.403 16.3666H200.672C199.002 16.3666 197.648 15.0132 197.648 13.3433V12.663C197.648 10.9931 199.002 9.63965 200.672 9.63965H204.403C206.073 9.63965 207.427 10.9931 207.427 12.663V13.3433C207.427 15.0132 206.073 16.3666 204.403 16.3666Z" fill="#FFE5E1"/>
<path d="M206.442 20.8096H199.028C198.376 20.8096 197.846 20.2815 197.846 19.6276V19.3618C197.846 18.7095 198.374 18.1797 199.028 18.1797H206.442C207.094 18.1797 207.624 18.7078 207.624 19.3618V19.6276C207.624 20.2798 207.096 20.8096 206.442 20.8096Z" fill="#FFE5E1"/>
<path d="M206.755 23.5377H198.519C198.094 23.5377 197.748 23.1932 197.748 22.7665V22.5934C197.748 22.1685 198.093 21.8223 198.519 21.8223H206.755C207.18 21.8223 207.526 22.1667 207.526 22.5934V22.7665C207.526 23.1932 207.18 23.5377 206.755 23.5377Z" fill="#FFE5E1"/>
<path d="M234.128 50.1748L228.961 52.4603C228.069 52.8554 226.828 52.0091 226.179 50.5647L210.177 14.9258C209.52 13.464 209.723 11.9444 210.627 11.5457L216.437 8.97522C217.348 8.57304 218.618 9.46134 219.254 10.9477L234.613 46.8716C235.228 48.316 235.013 49.7831 234.128 50.1748Z" fill="#FFE5E1"/>
<path d="M228.491 52.9479C227.514 52.9479 226.433 52.0858 225.823 50.7254L209.821 15.0865C209.363 14.067 209.274 12.9794 209.58 12.1785C209.76 11.7081 210.068 11.3671 210.466 11.1888L216.277 8.6183C216.679 8.43994 217.142 8.44343 217.615 8.63054C218.421 8.94879 219.167 9.75666 219.61 10.7936L234.968 46.7158C235.676 48.3717 235.375 50.0469 234.284 50.5296L229.117 52.815C228.92 52.9059 228.708 52.9479 228.491 52.9479ZM216.906 9.27054C216.803 9.27054 216.698 9.28802 216.595 9.33349L210.784 11.904C210.524 12.0194 210.382 12.2694 210.311 12.46C210.08 13.0616 210.165 13.9464 210.534 14.7682L226.536 50.4071C227.085 51.6294 228.124 52.4041 228.806 52.1051L233.973 49.8196C234.646 49.5223 234.774 48.2423 234.255 47.027L218.896 11.1049C218.538 10.2673 217.94 9.59928 217.331 9.35972C217.214 9.31076 217.066 9.27054 216.906 9.27054Z" fill="#FF725E"/>
<path d="M217.678 18.7584L216.854 19.1222C215.328 19.7971 213.543 19.1082 212.868 17.5799L212.593 16.9574C211.918 15.4308 212.607 13.6454 214.135 12.9705L214.959 12.6068C216.486 11.9318 218.271 12.6207 218.946 14.149L219.22 14.7716C219.895 16.2981 219.205 18.0817 217.678 18.7584Z" fill="#FFE5E1"/>
<path d="M215.638 19.771C214.326 19.771 213.074 19.0121 212.511 17.7391L212.237 17.1166C211.476 15.3959 212.256 13.3763 213.977 12.6156L214.8 12.2519C215.634 11.8829 216.561 11.862 217.411 12.189C218.261 12.5177 218.932 13.1577 219.301 13.9918L219.576 14.6143C219.945 15.4484 219.967 16.3752 219.639 17.225C219.31 18.0749 218.67 18.7463 217.836 19.1153L217.014 19.479C216.566 19.6766 216.098 19.771 215.638 19.771ZM216.18 12.7363C215.818 12.7363 215.456 12.8115 215.115 12.9618L214.291 13.3256C212.964 13.9131 212.361 15.4711 212.948 16.7984L213.223 17.4209C213.811 18.7481 215.369 19.3514 216.696 18.7638L217.519 18.4001C218.163 18.1168 218.656 17.5975 218.91 16.9417C219.163 16.286 219.146 15.5708 218.862 14.9273L218.588 14.3048C218.303 13.6613 217.785 13.1682 217.129 12.9146C216.822 12.7957 216.5 12.7363 216.18 12.7363Z" fill="#FF725E"/>
<path d="M221.287 22.0185L217.096 23.872C216.5 24.1361 215.802 23.8668 215.538 23.2688L215.43 23.0257C215.165 22.4294 215.435 21.7317 216.033 21.4677L220.224 19.6141C220.821 19.3501 221.518 19.6194 221.782 20.2156L221.891 20.4587C222.155 21.0585 221.884 21.7544 221.287 22.0185Z" fill="#FFE5E1"/>
<path d="M216.621 24.365C216.018 24.365 215.441 24.0153 215.182 23.4295L215.073 23.1864C214.724 22.3943 215.082 21.464 215.874 21.1143L220.066 19.2607C220.858 18.9092 221.788 19.2695 222.138 20.0616L222.246 20.3046C222.416 20.6893 222.426 21.116 222.274 21.506C222.122 21.8977 221.828 22.2072 221.444 22.3768L217.252 24.2303C217.049 24.3213 216.834 24.365 216.621 24.365ZM220.702 19.9042C220.596 19.9042 220.487 19.9252 220.384 19.9724L216.193 21.826C215.794 22.0026 215.612 22.4712 215.789 22.8699L215.897 23.113C216.074 23.5116 216.542 23.6935 216.941 23.5169L221.132 21.6633C221.327 21.5777 221.473 21.422 221.55 21.2244C221.627 21.0268 221.622 20.8118 221.536 20.6194L221.428 20.3763C221.297 20.0808 221.007 19.9042 220.702 19.9042Z" fill="#FF725E"/>
<path d="M222.705 24.377L217.763 26.5627C217.373 26.7341 216.918 26.5593 216.747 26.1693L216.677 26.0102C216.506 25.6202 216.681 25.1656 217.071 24.9942L222.012 22.8084C222.402 22.6371 222.857 22.8119 223.028 23.2019L223.098 23.361C223.269 23.7492 223.093 24.2038 222.705 24.377Z" fill="#FFE5E1"/>
<path d="M217.452 27.019C217.006 27.019 216.581 26.7602 216.389 26.3283L216.319 26.1691C216.193 25.8859 216.186 25.5711 216.298 25.2808C216.41 24.9923 216.626 24.7632 216.912 24.6373L221.853 22.4515C222.136 22.3256 222.453 22.3186 222.741 22.4306C223.03 22.5425 223.259 22.7611 223.385 23.0443L223.455 23.2017C223.714 23.7875 223.448 24.4747 222.862 24.7335L217.92 26.9193C217.767 26.9858 217.607 27.019 217.452 27.019ZM222.322 23.1318C222.269 23.1318 222.217 23.1423 222.168 23.165L217.226 25.3508C217.134 25.3927 217.062 25.4662 217.025 25.5624C216.988 25.6568 216.992 25.76 217.032 25.8526L217.102 26.0118C217.186 26.2041 217.412 26.2898 217.604 26.2059L222.546 24.0201C222.738 23.9361 222.825 23.7106 222.74 23.5182L222.67 23.3608C222.628 23.2682 222.553 23.1965 222.458 23.1597C222.414 23.1405 222.369 23.1318 222.322 23.1318Z" fill="#FF725E"/>
<path d="M192.744 51.9807H186.309C185.198 51.9807 184.294 50.7042 184.284 49.1217L184.039 10.0572C184.029 8.45369 184.938 7.14746 186.064 7.14746H193.3C194.435 7.14746 195.348 8.47467 195.325 10.0904L194.769 49.1566C194.746 50.7252 193.847 51.9807 192.744 51.9807Z" fill="#FFE5E1"/>
<path d="M192.745 52.3707H186.31C184.967 52.3707 183.908 50.9456 183.895 49.1253L183.65 10.059C183.643 9.0116 184.007 8.01662 184.621 7.39761C185.039 6.97794 185.537 6.75586 186.064 6.75586H193.299C193.829 6.75586 194.331 6.97968 194.749 7.4046C195.368 8.03236 195.728 9.03783 195.713 10.094L195.157 49.1602C195.132 50.9613 194.072 52.3707 192.745 52.3707ZM186.065 7.5375C185.668 7.5375 185.362 7.76132 185.175 7.94843C184.703 8.42231 184.425 9.21094 184.43 10.0555L184.675 49.1218C184.684 50.4839 185.417 51.5926 186.31 51.5926H192.745C193.626 51.5926 194.361 50.4979 194.38 49.1515L194.936 10.0853C194.948 9.23193 194.672 8.4363 194.196 7.95367C194.009 7.76307 193.702 7.5375 193.301 7.5375H186.065Z" fill="#FF725E"/>
<path d="M192.27 13.324H186.857C185.999 13.324 185.305 12.628 185.305 11.7712V11.4214C185.305 10.5629 186.001 9.86865 186.857 9.86865H192.27C193.128 9.86865 193.822 10.5646 193.822 11.4214V11.7712C193.822 12.6297 193.128 13.324 192.27 13.324Z" fill="#FFE5E1"/>
<path d="M192.269 13.7137H186.857C185.785 13.7137 184.914 12.8429 184.914 11.771V11.4212C184.914 10.3493 185.785 9.47852 186.857 9.47852H192.269C193.341 9.47852 194.212 10.3493 194.212 11.4212V11.771C194.212 12.8429 193.341 13.7137 192.269 13.7137ZM186.857 10.2584C186.215 10.2584 185.694 10.7795 185.694 11.4212V11.771C185.694 12.4127 186.215 12.9338 186.857 12.9338H192.269C192.911 12.9338 193.432 12.4127 193.432 11.771V11.4212C193.432 10.7795 192.911 10.2584 192.269 10.2584H186.857Z" fill="#FF725E"/>
<path d="M192.781 17.0504H186.495C185.877 17.0504 185.379 16.5503 185.379 15.9348V15.683C185.379 15.0657 185.879 14.5674 186.495 14.5674H192.781C193.398 14.5674 193.896 15.0675 193.896 15.683V15.9348C193.896 16.5503 193.396 17.0504 192.781 17.0504Z" fill="#FFE5E1"/>
<path d="M192.78 17.4402H186.494C185.663 17.4402 184.988 16.7635 184.988 15.9346V15.6828C184.988 14.8522 185.663 14.1772 186.494 14.1772H192.78C193.611 14.1772 194.286 14.854 194.286 15.6828V15.9346C194.286 16.7635 193.611 17.4402 192.78 17.4402ZM186.494 14.9554C186.093 14.9554 185.768 15.2806 185.768 15.6811V15.9329C185.768 16.3333 186.093 16.6586 186.494 16.6586H192.78C193.181 16.6586 193.506 16.3333 193.506 15.9329V15.6811C193.506 15.2806 193.181 14.9554 192.78 14.9554H186.494Z" fill="#FF725E"/>
<path d="M250.753 58.9529H154.052C152.87 58.9529 151.908 57.9912 151.908 56.8091V52.9446C151.908 51.7625 152.87 50.8008 154.052 50.8008H250.753C251.935 50.8008 252.897 51.7625 252.897 52.9446V56.8091C252.897 57.9894 251.935 58.9529 250.753 58.9529ZM154.052 51.5772C153.3 51.5772 152.688 52.1892 152.688 52.9411V56.8056C152.688 57.5575 153.3 58.1695 154.052 58.1695H250.753C251.505 58.1695 252.117 57.5575 252.117 56.8056V52.9411C252.117 52.1892 251.505 51.5772 250.753 51.5772H154.052Z" fill="#FF725E"/>
<path d="M100.337 46.6959C100.249 46.6959 100.162 46.6662 100.088 46.6067L88.2658 36.8476C88.2099 36.8004 88.1259 36.8056 88.077 36.8598L79.117 46.3794C78.9701 46.5368 78.7235 46.5437 78.5661 46.3969C78.4088 46.25 78.4018 46.0017 78.5504 45.846L87.5104 36.3265C87.8409 35.975 88.3917 35.94 88.7642 36.2478L100.587 46.0069C100.753 46.1433 100.776 46.3899 100.639 46.556C100.56 46.6469 100.449 46.6959 100.337 46.6959Z" fill="#FF725E"/>
<path d="M119.265 94.5228H56.3524C54.8555 94.5228 53.6367 93.304 53.6367 91.8072V48.511C53.6367 47.0142 54.8555 45.7954 56.3524 45.7954H119.265C120.762 45.7954 121.98 47.0142 121.98 48.511V91.809C121.979 93.3058 120.762 94.5228 119.265 94.5228ZM56.3524 46.5753C55.2857 46.5753 54.4166 47.4426 54.4166 48.511V91.809C54.4166 92.8756 55.2839 93.7447 56.3524 93.7447H119.265C120.331 93.7447 121.2 92.8774 121.2 91.809V48.511C121.2 47.4444 120.333 46.5753 119.265 46.5753H56.3524Z" fill="#FF725E"/>
<path d="M115.345 90.868H60.1438C58.7501 90.868 57.6152 89.7331 57.6152 88.3394V51.737C57.6152 50.3434 58.7501 49.2085 60.1438 49.2085H115.345C116.738 49.2085 117.873 50.3434 117.873 51.737V88.3394C117.873 89.7331 116.738 90.868 115.345 90.868ZM60.1438 49.9884C59.1803 49.9884 58.3951 50.7735 58.3951 51.737V88.3394C58.3951 89.3029 59.1803 90.0881 60.1438 90.0881H115.345C116.308 90.0881 117.093 89.3029 117.093 88.3394V51.737C117.093 50.7735 116.308 49.9884 115.345 49.9884H60.1438Z" fill="#FF725E"/>
<path d="M116.522 182.88H68.7559V185.22H116.522V182.88Z" fill="#FFE5E1"/>
<path d="M116.521 185.61H68.7552C68.5401 185.61 68.3652 185.435 68.3652 185.22V182.88C68.3652 182.665 68.5401 182.49 68.7552 182.49H116.521C116.736 182.49 116.911 182.665 116.911 182.88V185.22C116.911 185.435 116.736 185.61 116.521 185.61ZM69.1451 184.83H116.131V183.27H69.1451V184.83Z" fill="#FF725E"/>
</svg>
